<svg id="Layer_1" data-name="Layer 1" xmlns="http://www.w3.org/2000/svg" viewBox="0 0 693.73 80"><defs><style>.cls-1{fill:#fff;}</style></defs><title>web-product-logos-finance</title><path class="cls-1" d="M0,19H17.3c8.84,0,22.07,5.91,22.07,22.51S26.14,64,17.3,64H0ZM5.34,59.07H15.52c10.3,0,18.13-5.22,18.13-17.55S25.82,24,15.52,24H5.34Z"/><path class="cls-1" d="M114.49,19h13.74c7.44,0,14.94,2.8,14.94,11.07,0,5.22-3.05,8.71-7.89,10.18v.13a11,11,0,0,1,10.18,11.07c0,9.92-9.22,12.59-17.55,12.59H114.49Zm5.34,19.08h7.38c5,0,10.24-1.08,10.24-7.31,0-5.53-4.83-6.81-9.67-6.81h-7.95Zm0,21h9c5.21,0,10.88-2.1,10.88-7.82,0-6.3-5.34-8.2-10.75-8.2h-9.16Z"/><path class="cls-1" d="M49.74,12l50.84,52.77-5.34,5.16-8-8.31-7.93,7.66a19.16,19.16,0,0,1-13.71,5.41h0a19.24,19.24,0,0,1-13-33.1l5.31-5.1L63,41.83l-5.32,5.1a11.81,11.81,0,0,0,8,20.32h0a11.78,11.78,0,0,0,8.43-3.33L82,56.27,49.73,22.78V12Z"/><path class="cls-1" d="M86.56,20.43v7.69A11.28,11.28,0,0,1,90.82,31a11.83,11.83,0,0,1-.31,16.73l-.69.64L95,53.67l.66-.6a19.24,19.24,0,0,0-9.11-32.64Z"/><path class="cls-1" d="M54.58,4.56,50.9,8.09l5.16,5.34,3.68-3.53A8.88,8.88,0,1,1,72.08,22.68l-3.66,3.5,5.16,5.34L77.24,28A16.31,16.31,0,1,0,54.58,4.56Z"/><path class="cls-1" d="M171.26,18H185c8.5,0,16.23,3,16.23,12.69,0,10.14-8.64,12.82-15.18,12.82h-9.29v20.8h-5.5Zm5.5,20.41H186c5.5,0,9.29-2.49,9.29-7.65s-3.79-7.65-9.29-7.65h-9.29Z"/><path class="cls-1" d="M219.68,32.88C229.11,32.88,236,39.42,236,49s-6.93,16.09-16.36,16.09S203.33,58.52,203.33,49,210.26,32.88,219.68,32.88Zm0,27.48c6.61,0,10.86-5,10.86-11.38s-4.25-11.38-10.86-11.38-10.86,5-10.86,11.38S213.08,60.36,219.68,60.36Z"/><path class="cls-1" d="M242.62,40.93c0-2.81-.26-5.23-.26-7.26h4.84c0,1.64.13,3.34.13,5h.13c1.37-3,5.17-5.82,10.21-5.82a6.06,6.06,0,0,1,2.09.33l-.33,5.17a9.63,9.63,0,0,0-2.75-.39c-6.22,0-9,4.38-9,11.38V64.28h-5.1Z"/><path class="cls-1" d="M282.4,38h-9V53.29c0,3.93.07,7.07,4.58,7.07a9.94,9.94,0,0,0,4.51-1l.2,4.64a15.52,15.52,0,0,1-6,1.11c-7.26,0-8.44-3.93-8.44-10.27V38h-6.67V33.66h6.67V25h5.1v8.7h9Z"/><path class="cls-1" d="M291.3,38h-6.67V33.66h6.67V26.79c0-7.46,2.62-12.76,10.86-12.76a9.35,9.35,0,0,1,3.93.78l-.72,4.58a10.5,10.5,0,0,0-3.47-.65c-5.3,0-5.5,3.86-5.5,9.16v5.76h7.46V38H296.4v26.3h-5.1Z"/><path class="cls-1" d="M323.88,32.88c9.42,0,16.36,6.54,16.36,16.09s-6.93,16.09-16.36,16.09S307.52,58.52,307.52,49,314.46,32.88,323.88,32.88Zm0,27.48c6.61,0,10.86-5,10.86-11.38s-4.25-11.38-10.86-11.38S313,42.56,313,49,317.27,60.36,323.88,60.36Z"/><path class="cls-1" d="M348.61,14.82h5.1V64.28h-5.1Z"/><path class="cls-1" d="M366.86,18a3.73,3.73,0,0,1,3.73,3.73,3.73,3.73,0,1,1-7.46,0A3.73,3.73,0,0,1,366.86,18Zm-2.55,15.7h5.1V64.28h-5.1Z"/><path class="cls-1" d="M394.14,32.88c9.42,0,16.36,6.54,16.36,16.09s-6.93,16.09-16.36,16.09S377.79,58.52,377.79,49,384.72,32.88,394.14,32.88Zm0,27.48c6.61,0,10.86-5,10.86-11.38s-4.25-11.38-10.86-11.38-10.86,5-10.86,11.38S387.54,60.36,394.14,60.36Z"/><path class="cls-1" d="M437.52,18h8.18l15.7,36.31h.13L477.37,18h8V64.28h-5.5V25.42h-.13L463.1,64.28h-3.34L443.15,25.42H443V64.28h-5.5Z"/><path class="cls-1" d="M495.55,37.59a17,17,0,0,1,12.17-4.71c9,0,12.82,4.32,12.82,13V59a34,34,0,0,0,.46,5.3H516.1a21.94,21.94,0,0,1-.33-4.58h-.13a11.57,11.57,0,0,1-10.08,5.36c-6.22,0-11.38-3.14-11.38-9.09,0-10.14,11.78-10.73,19.3-10.73h2v-.92c0-4.45-2.81-6.74-7.59-6.74a13.58,13.58,0,0,0-9.09,3.34Zm14.79,12c-6.48,0-10.66,1.77-10.66,5.89,0,3.86,2.88,5.3,6.74,5.3,5.89,0,8.9-4.25,9-9.22v-2Z"/><path class="cls-1" d="M529.9,40.93c0-2.81-.26-5.23-.26-7.26h4.84c0,1.64.13,3.34.13,5h.13c1.37-3,5.17-5.82,10.21-5.82,8,0,11.65,5.1,11.65,12.5V64.28h-5.1V45.9c0-5.1-2.22-8.31-7-8.31-6.61,0-9.49,4.78-9.49,11.78V64.28h-5.1Z"/><path class="cls-1" d="M565.89,37.59a17,17,0,0,1,12.17-4.71c9,0,12.82,4.32,12.82,13V59a34,34,0,0,0,.46,5.3h-4.91a21.94,21.94,0,0,1-.33-4.58H586a11.57,11.57,0,0,1-10.08,5.36c-6.22,0-11.38-3.14-11.38-9.09,0-10.14,11.78-10.73,19.3-10.73h2v-.92c0-4.45-2.81-6.74-7.59-6.74a13.58,13.58,0,0,0-9.09,3.34Zm14.79,12c-6.48,0-10.66,1.77-10.66,5.89,0,3.86,2.88,5.3,6.74,5.3,5.89,0,8.9-4.25,9-9.22v-2Z"/><path class="cls-1" d="M630.79,62.91c0,11.06-6,17.08-16.68,17.08-6,0-10.73-1.57-15-5.82L602.72,70c3.21,3.47,6.67,5.3,11.38,5.3,9.16,0,11.58-5.89,11.58-12.36V59h-.13a12.51,12.51,0,0,1-10.8,5.69c-9.62,0-16.29-6.67-16.29-15.7,0-10,6.54-16.09,16.29-16.09,4.12,0,8.77,2,10.8,6h.13V33.66h5.1Zm-16-2.94c7,0,10.93-5.23,10.93-11.12,0-6.61-4.45-11.25-10.93-11.25S604,42.56,604,49A10.81,10.81,0,0,0,614.76,60Z"/><path class="cls-1" d="M667.56,58.72c-3.6,4.64-7.92,6.35-13.61,6.35-9.62,0-15.51-7.2-15.51-16.09,0-9.49,6.67-16.09,15.7-16.09,8.64,0,14.52,5.89,14.52,16v1.64H643.94c.39,5.3,4.45,9.81,10,9.81a11.41,11.41,0,0,0,9.75-4.64Zm-4.38-12.5c-.2-5.17-3.6-8.64-9.22-8.64s-9.36,3.47-10,8.64Z"/><path class="cls-1" d="M676.59,40.93c0-2.81-.26-5.23-.26-7.26h4.84c0,1.64.13,3.34.13,5h.13c1.37-3,5.17-5.82,10.21-5.82a6.07,6.07,0,0,1,2.09.33l-.33,5.17a9.63,9.63,0,0,0-2.75-.39c-6.22,0-9,4.38-9,11.38V64.28h-5.1Z"/></svg>