<svg id="Layer_1" data-name="Layer 1" xmlns="http://www.w3.org/2000/svg" viewBox="0 0 364.05 80"><defs><style>.cls-1{fill:#fff;}</style></defs><title>web-product-logos-finance</title><path class="cls-1" d="M0,20.37H18.52c9.47,0,23.63,6.33,23.63,24.11S28,68.58,18.52,68.58H0Zm5.72,42.9h10.9c11,0,19.41-5.58,19.41-18.79s-8.38-18.8-19.41-18.8H5.72Z"/><path class="cls-1" d="M122.59,20.37H137.3c8,0,16,3,16,11.85,0,5.58-3.27,9.33-8.44,10.9v.14a11.78,11.78,0,0,1,10.9,11.85c0,10.62-9.87,13.48-18.79,13.48H122.59Zm5.72,20.43h7.9c5.38,0,11-1.16,11-7.83,0-5.92-5.18-7.29-10.35-7.29h-8.51Zm0,22.47H138c5.58,0,11.64-2.25,11.64-8.38,0-6.74-5.72-8.78-11.51-8.78h-9.81Z"/><path class="cls-1" d="M53.26,12.87l54.44,56.5L102,74.9,93.38,66l-8.49,8.2A20.52,20.52,0,0,1,70.2,80h0A20.61,20.61,0,0,1,56.26,44.56l5.69-5.46,5.53,5.72-5.7,5.47A12.64,12.64,0,0,0,70.32,72h0a12.61,12.61,0,0,0,9-3.56l8.49-8.21L53.25,24.41V12.87Z"/><path class="cls-1" d="M92.68,21.9v8.23a12.08,12.08,0,0,1,4.57,3.08,12.67,12.67,0,0,1-.33,17.91l-.74.68,5.57,5.68.7-.65A20.61,20.61,0,0,0,92.68,21.9Z"/><path class="cls-1" d="M58.45,4.9,54.5,8.68,60,14.41,64,10.63A9.51,9.51,0,1,1,77.18,24.31l-3.92,3.75,5.53,5.72L82.71,30A17.46,17.46,0,1,0,58.45,4.9Z"/><path class="cls-1" d="M214,30a13.83,13.83,0,0,0-5.4-4.41,15.92,15.92,0,0,0-6.69-1.47,16.76,16.76,0,0,0-7.41,1.64,18.58,18.58,0,0,0-5.84,4.41,20.22,20.22,0,0,0-3.83,6.42,21.56,21.56,0,0,0-1.37,7.62,22.33,22.33,0,0,0,1.37,7.89,19.71,19.71,0,0,0,3.79,6.35,17.77,17.77,0,0,0,5.81,4.27,18.75,18.75,0,0,0,15.4-.17,18,18,0,0,0,6.08-5l4.3,3.62a19.9,19.9,0,0,1-7.89,6.42,25.4,25.4,0,0,1-10.42,2,24.58,24.58,0,0,1-9.7-1.91,23.86,23.86,0,0,1-7.82-5.29,24.37,24.37,0,0,1-5.19-8,26.88,26.88,0,0,1-1.88-10.18,27.22,27.22,0,0,1,1.81-10,24,24,0,0,1,22.78-15.44,25.77,25.77,0,0,1,9.46,1.78A17.44,17.44,0,0,1,219,26.33Z"/><path class="cls-1" d="M227.29,44q0-2.19-.14-4.1T227,36.37h5.05q0,1.3.07,2.6t.07,2.66h.14a9.23,9.23,0,0,1,1.54-2.25,11.11,11.11,0,0,1,2.36-1.95,12.61,12.61,0,0,1,3.07-1.37,12.77,12.77,0,0,1,3.69-.51,9,9,0,0,1,1.09.07,4.85,4.85,0,0,1,1.09.27l-.34,5.4a10,10,0,0,0-2.87-.41q-4.92,0-7.14,3.18t-2.22,8.71V68.34h-5.33Z"/><path class="cls-1" d="M278.66,62.54a16.22,16.22,0,0,1-6.28,5.16,19.93,19.93,0,0,1-7.92,1.47,16.52,16.52,0,0,1-6.76-1.33,15.22,15.22,0,0,1-5.09-3.59,15.7,15.7,0,0,1-3.21-5.33,18.89,18.89,0,0,1-1.13-6.56,18.32,18.32,0,0,1,1.23-6.8,15.74,15.74,0,0,1,3.42-5.33,15.35,15.35,0,0,1,5.19-3.45,17.15,17.15,0,0,1,6.56-1.23,16.33,16.33,0,0,1,6.15,1.13A13.33,13.33,0,0,1,275.62,40a14.74,14.74,0,0,1,3.11,5.26,21.27,21.27,0,0,1,1.09,7.07V54H254a11.2,11.2,0,0,0,1,3.93,11.37,11.37,0,0,0,2.22,3.28,10.24,10.24,0,0,0,3.21,2.22,9.8,9.8,0,0,0,4,.82A12.74,12.74,0,0,0,270.33,63a13.35,13.35,0,0,0,4.3-3.62Zm-4.58-13a9.19,9.19,0,0,0-2.66-6.56,9.57,9.57,0,0,0-7-2.46,9.85,9.85,0,0,0-10.45,9Z"/><path class="cls-1" d="M314.66,62.67h-.14a12.19,12.19,0,0,1-4.75,4.61,14.8,14.8,0,0,1-7.55,1.88,15.74,15.74,0,0,1-6.28-1.26,15.33,15.33,0,0,1-5.09-3.52,16.5,16.5,0,0,1-3.38-5.33,18.84,18.84,0,0,1,0-13.39,16.19,16.19,0,0,1,3.42-5.33,15.29,15.29,0,0,1,5.29-3.52A18.07,18.07,0,0,1,303,35.55,14.22,14.22,0,0,1,309.43,37a15.72,15.72,0,0,1,5.09,4h.14V16.7H320V68.34h-5.33Zm0-10.31a13.57,13.57,0,0,0-.79-4.68A10.8,10.8,0,0,0,308,41.39a12.33,12.33,0,0,0-9.36,0,10.8,10.8,0,0,0-5.87,6.28,14.33,14.33,0,0,0,0,9.36,10.8,10.8,0,0,0,5.87,6.28,12.33,12.33,0,0,0,9.36,0A10.8,10.8,0,0,0,313.87,57,13.56,13.56,0,0,0,314.66,52.36Z"/><path class="cls-1" d="M329.14,23.87a3.8,3.8,0,0,1,1.13-2.73,3.88,3.88,0,0,1,5.53,0,3.93,3.93,0,1,1-6.66,2.73Zm1.23,12.5h5.33v32h-5.33Z"/><path class="cls-1" d="M363.77,40.88h-9.43v16q0,1.57.07,2.9a6,6,0,0,0,.55,2.32,3.66,3.66,0,0,0,1.43,1.57,5.29,5.29,0,0,0,2.73.58,11,11,0,0,0,2.39-.27,10,10,0,0,0,2.32-.82L364,68a12.16,12.16,0,0,1-3,.89,19.84,19.84,0,0,1-3.18.27,11.55,11.55,0,0,1-4.58-.75,6.2,6.2,0,0,1-2.66-2.12,7.87,7.87,0,0,1-1.26-3.38,29.8,29.8,0,0,1-.31-4.47V40.88h-7V36.37h7V27.29h5.33v9.09h9.43Z"/></svg>