<svg id="Layer_1" data-name="Layer 1" xmlns="http://www.w3.org/2000/svg" viewBox="0 0 1165.11 80"><defs><style>.cls-1{fill:#fff;}</style></defs><title>web-product-logos-finance</title><path class="cls-1" d="M0,19H17.3c8.84,0,22.07,5.91,22.07,22.51S26.14,64.05,17.3,64.05H0ZM5.34,59.09H15.52c10.3,0,18.13-5.22,18.13-17.55S25.82,24,15.52,24H5.34Z"/><path class="cls-1" d="M114.49,19h13.74c7.44,0,14.94,2.8,14.94,11.07,0,5.22-3.05,8.71-7.89,10.18v.13a11,11,0,0,1,10.18,11.07c0,9.92-9.22,12.59-17.55,12.59H114.49Zm5.34,19.08h7.38c5,0,10.24-1.08,10.24-7.31,0-5.53-4.83-6.81-9.67-6.81h-7.95Zm0,21h9c5.21,0,10.88-2.1,10.88-7.82,0-6.3-5.34-8.2-10.75-8.2h-9.16Z"/><path class="cls-1" d="M49.74,12l50.84,52.77-5.34,5.16-8-8.31L79.28,69.3a19.16,19.16,0,0,1-13.71,5.41h0a19.24,19.24,0,0,1-13-33.1l5.31-5.1L63,41.85,57.7,47a11.81,11.81,0,0,0,8,20.32h0A11.78,11.78,0,0,0,74.11,64L82,56.29,49.73,22.79V12Z"/><path class="cls-1" d="M86.56,20.45v7.69A11.28,11.28,0,0,1,90.82,31a11.83,11.83,0,0,1-.31,16.73l-.69.64L95,53.69l.66-.6a19.24,19.24,0,0,0-9.11-32.64Z"/><path class="cls-1" d="M54.58,4.58,50.9,8.11l5.16,5.34,3.68-3.53A8.88,8.88,0,1,1,72.08,22.7l-3.66,3.5,5.16,5.34L77.24,28A16.31,16.31,0,1,0,54.58,4.58Z"/><path class="cls-1" d="M192.43,26.16A9.62,9.62,0,0,0,184,21.9c-4.84,0-9.88,2.29-9.88,7.79,0,4.25,2.36,6.15,9.75,8.5,7.2,2.29,13.87,4.65,13.87,13.74s-7.92,13.54-16.29,13.54c-5.36,0-11.12-1.77-14.26-6.41l4.71-3.86c2,3.4,5.89,5.17,9.88,5.17,4.71,0,10.08-2.75,10.08-8,0-5.69-3.86-6.67-12.1-9.42-6.54-2.16-11.51-5-11.51-12.76,0-8.9,7.65-13.35,15.77-13.35,5.17,0,9.55,1.44,13,5.43Z"/><path class="cls-1" d="M205.91,40.94c0-2.81-.26-5.23-.26-7.26h4.84c0,1.64.13,3.34.13,5h.13c1.37-3,5.17-5.82,10.21-5.82,6.61,0,8.7,3.73,9.68,5.82,2.22-3.6,5-5.82,9.68-5.82,8.77,0,11.65,4.91,11.65,12.82V64.3h-5.1V46c0-4.25-1.5-8.37-7.46-8.37-4.32,0-7.92,3.53-7.92,9V64.3h-5.1V47c0-6.74-1.7-9.36-5.89-9.36-6.61,0-9.49,4.78-9.49,11.78V64.3h-5.1Z"/><path class="cls-1" d="M261.26,37.6a17,17,0,0,1,12.17-4.71c9,0,12.82,4.32,12.82,13V59a34,34,0,0,0,.46,5.3H281.8a21.94,21.94,0,0,1-.33-4.58h-.13a11.57,11.57,0,0,1-10.08,5.36c-6.22,0-11.38-3.14-11.38-9.09,0-10.14,11.78-10.73,19.3-10.73h2v-.92c0-4.45-2.81-6.74-7.59-6.74a13.58,13.58,0,0,0-9.09,3.34Zm14.79,12c-6.48,0-10.66,1.77-10.66,5.89,0,3.86,2.88,5.3,6.74,5.3,5.89,0,8.9-4.25,9-9.22v-2Z"/><path class="cls-1" d="M296.07,14.84h5.1V64.3h-5.1Z"/><path class="cls-1" d="M311.77,14.84h5.1V64.3h-5.1Z"/><path class="cls-1" d="M346.12,18h14.13c7.65,0,15.37,2.88,15.37,11.38,0,5.36-3.14,9-8.11,10.47V40A11.31,11.31,0,0,1,378,51.34c0,10.21-9.49,13-18.06,13h-13.8Zm5.5,19.63h7.59c5.17,0,10.53-1.11,10.53-7.52,0-5.69-5-7-9.94-7h-8.18Zm0,21.59h9.29c5.36,0,11.19-2.16,11.19-8,0-6.48-5.5-8.44-11.06-8.44h-9.42Z"/><path class="cls-1" d="M413.11,57c0,2.81.26,5.23.26,7.26h-4.84c0-1.64-.13-3.34-.13-5h-.13c-1.37,3-5.17,5.82-10.21,5.82-8,0-11.65-5.1-11.65-12.5V33.68h5.1V52.06c0,5.1,2.22,8.31,7,8.31,6.61,0,9.49-4.78,9.49-11.78V33.68h5.1Z"/><path class="cls-1" d="M423.45,56.25c2,2.49,4.25,4.12,7.85,4.12,3.21,0,6.74-1.37,6.74-4.71s-3.27-4.12-6.54-4.84c-5.82-1.31-10.8-2.55-10.8-8.9,0-6,5.76-9,11.45-9,4.32,0,8.31,1.64,10.4,5.56l-4.25,2.81a7.29,7.29,0,0,0-6.48-3.66c-2.81,0-6,1.37-6,4.25,0,2.55,3.66,3.66,7.72,4.45,5.43,1,10,3,10,9.16,0,6.93-6.15,9.62-12.23,9.62-5.17,0-8.9-1.37-11.91-5.69Z"/><path class="cls-1" d="M453.68,18a3.73,3.73,0,0,1,3.73,3.73,3.73,3.73,0,1,1-7.46,0A3.73,3.73,0,0,1,453.68,18Zm-2.55,15.7h5.1V64.3h-5.1Z"/><path class="cls-1" d="M466.37,40.94c0-2.81-.26-5.23-.26-7.26h4.84c0,1.64.13,3.34.13,5h.13c1.37-3,5.17-5.82,10.21-5.82,8,0,11.65,5.1,11.65,12.5V64.3H488V45.91c0-5.1-2.22-8.31-7-8.31-6.61,0-9.49,4.78-9.49,11.78V64.3h-5.1Z"/><path class="cls-1" d="M530.09,58.74c-3.6,4.64-7.92,6.35-13.61,6.35C506.87,65.08,501,57.89,501,49c0-9.49,6.67-16.09,15.7-16.09,8.64,0,14.52,5.89,14.52,16v1.64H506.47c.39,5.3,4.45,9.81,10,9.81a11.41,11.41,0,0,0,9.75-4.64Zm-4.38-12.5c-.2-5.17-3.6-8.64-9.22-8.64s-9.36,3.47-10,8.64Z"/><path class="cls-1" d="M539.78,56.25c2,2.49,4.25,4.12,7.85,4.12,3.21,0,6.74-1.37,6.74-4.71s-3.27-4.12-6.54-4.84C542,49.51,537,48.27,537,41.92c0-6,5.76-9,11.45-9,4.32,0,8.31,1.64,10.4,5.56l-4.25,2.81a7.29,7.29,0,0,0-6.48-3.66c-2.81,0-6,1.37-6,4.25,0,2.55,3.66,3.66,7.72,4.45,5.43,1,10,3,10,9.16,0,6.93-6.15,9.62-12.23,9.62-5.17,0-8.9-1.37-11.91-5.69Z"/><path class="cls-1" d="M567.65,56.25c2,2.49,4.25,4.12,7.85,4.12,3.21,0,6.74-1.37,6.74-4.71s-3.27-4.12-6.54-4.84c-5.82-1.31-10.8-2.55-10.8-8.9,0-6,5.76-9,11.45-9,4.32,0,8.31,1.64,10.4,5.56l-4.25,2.81A7.29,7.29,0,0,0,576,37.6c-2.81,0-6,1.37-6,4.25,0,2.55,3.66,3.66,7.72,4.45,5.43,1,10,3,10,9.16,0,6.93-6.15,9.62-12.23,9.62-5.17,0-8.9-1.37-11.91-5.69Z"/><path class="cls-1" d="M614,18h28.72v5.1H619.46V38.39h21.59v5.1H619.46V64.3H614Z"/><path class="cls-1" d="M652.44,18a3.73,3.73,0,0,1,3.73,3.73,3.73,3.73,0,1,1-7.46,0A3.73,3.73,0,0,1,652.44,18Zm-2.55,15.7H655V64.3h-5.1Z"/><path class="cls-1" d="M665.13,40.94c0-2.81-.26-5.23-.26-7.26h4.84c0,1.64.13,3.34.13,5H670c1.37-3,5.17-5.82,10.21-5.82,8,0,11.65,5.1,11.65,12.5V64.3h-5.1V45.91c0-5.1-2.22-8.31-7-8.31-6.61,0-9.49,4.78-9.49,11.78V64.3h-5.1Z"/><path class="cls-1" d="M701.11,37.6a17,17,0,0,1,12.17-4.71c9,0,12.82,4.32,12.82,13V59a34,34,0,0,0,.46,5.3h-4.91a21.94,21.94,0,0,1-.33-4.58h-.13a11.57,11.57,0,0,1-10.08,5.36c-6.22,0-11.38-3.14-11.38-9.09,0-10.14,11.78-10.73,19.3-10.73h2v-.92c0-4.45-2.81-6.74-7.59-6.74a13.58,13.58,0,0,0-9.09,3.34Zm14.79,12c-6.48,0-10.66,1.77-10.66,5.89,0,3.86,2.88,5.3,6.74,5.3,5.89,0,8.9-4.25,9-9.22v-2Z"/><path class="cls-1" d="M735.46,40.94c0-2.81-.26-5.23-.26-7.26H740c0,1.64.13,3.34.13,5h.13c1.37-3,5.17-5.82,10.21-5.82,8,0,11.65,5.1,11.65,12.5V64.3h-5.1V45.91c0-5.1-2.22-8.31-7-8.31-6.61,0-9.49,4.78-9.49,11.78V64.3h-5.1Z"/><path class="cls-1" d="M793.63,41.33a9.41,9.41,0,0,0-7.72-3.73c-6.87,0-10.34,5.1-10.34,11.38s4.12,11.38,10.34,11.38a8.94,8.94,0,0,0,7.79-3.79l3.79,3.6a14.87,14.87,0,0,1-11.58,4.91c-9.49,0-15.83-6.67-15.83-16.09s6.41-16.09,15.83-16.09a15.55,15.55,0,0,1,11.78,4.84Z"/><path class="cls-1" d="M806.38,18a3.73,3.73,0,0,1,3.73,3.73,3.73,3.73,0,1,1-7.46,0A3.73,3.73,0,0,1,806.38,18Zm-2.55,15.7h5.1V64.3h-5.1Z"/><path class="cls-1" d="M818.68,37.6a17,17,0,0,1,12.17-4.71c9,0,12.82,4.32,12.82,13V59a34,34,0,0,0,.46,5.3h-4.91a21.94,21.94,0,0,1-.33-4.58h-.13a11.57,11.57,0,0,1-10.08,5.36c-6.22,0-11.38-3.14-11.38-9.09,0-10.14,11.78-10.73,19.3-10.73h2v-.92c0-4.45-2.81-6.74-7.59-6.74a13.58,13.58,0,0,0-9.09,3.34Zm14.79,12c-6.48,0-10.66,1.77-10.66,5.89,0,3.86,2.88,5.3,6.74,5.3,5.89,0,8.9-4.25,9-9.22v-2Z"/><path class="cls-1" d="M853.49,14.84h5.1V64.3h-5.1Z"/><path class="cls-1" d="M887.84,18H917v5.1H893.33V37.6h22v5.1h-22V59.19h24.8v5.1H887.84Z"/><path class="cls-1" d="M933.63,47.81l-11-14.13h6.67l8.11,11,7.65-11h6.22L940.77,47.81,953.39,64.3h-6.74L937,51.08,927.42,64.3h-6.35Z"/><path class="cls-1" d="M980.22,41.33a9.41,9.41,0,0,0-7.72-3.73c-6.87,0-10.34,5.1-10.34,11.38s4.12,11.38,10.34,11.38a8.94,8.94,0,0,0,7.79-3.79l3.79,3.6a14.87,14.87,0,0,1-11.58,4.91c-9.49,0-15.83-6.67-15.83-16.09s6.41-16.09,15.83-16.09a15.55,15.55,0,0,1,11.78,4.84Z"/><path class="cls-1" d="M990,14.84h5.1V37.93h.13c1.37-2.42,5-5,9.81-5,8,0,11.65,5.1,11.65,12.5V64.3h-5.1V45.91c0-5.1-2.22-8.31-7-8.31-6.61,0-9.49,4.78-9.49,11.78V64.3H990Z"/><path class="cls-1" d="M1026,37.6a17,17,0,0,1,12.17-4.71c9,0,12.82,4.32,12.82,13V59a34,34,0,0,0,.46,5.3h-4.91a21.94,21.94,0,0,1-.33-4.58H1046A11.57,11.57,0,0,1,1036,65.08c-6.22,0-11.38-3.14-11.38-9.09,0-10.14,11.78-10.73,19.3-10.73h2v-.92c0-4.45-2.81-6.74-7.59-6.74a13.58,13.58,0,0,0-9.09,3.34Zm14.79,12c-6.48,0-10.66,1.77-10.66,5.89,0,3.86,2.88,5.3,6.74,5.3,5.89,0,8.9-4.25,9-9.22v-2Z"/><path class="cls-1" d="M1060.3,40.94c0-2.81-.26-5.23-.26-7.26h4.84c0,1.64.13,3.34.13,5h.13c1.37-3,5.17-5.82,10.21-5.82,8,0,11.65,5.1,11.65,12.5V64.3h-5.1V45.91c0-5.1-2.22-8.31-7-8.31-6.61,0-9.49,4.78-9.49,11.78V64.3h-5.1Z"/><path class="cls-1" d="M1127.23,62.92c0,11.06-6,17.08-16.68,17.08-6,0-10.73-1.57-15-5.82l3.66-4.19c3.21,3.47,6.67,5.3,11.38,5.3,9.16,0,11.58-5.89,11.58-12.36V59H1122a12.51,12.51,0,0,1-10.8,5.69c-9.62,0-16.29-6.67-16.29-15.7,0-10,6.54-16.09,16.29-16.09,4.12,0,8.77,2,10.8,6h.13V33.68h5.1Zm-16-2.94c7,0,10.93-5.23,10.93-11.12,0-6.61-4.45-11.25-10.93-11.25s-10.8,5-10.8,11.38A10.81,10.81,0,0,0,1111.2,60Z"/><path class="cls-1" d="M1164,58.74c-3.6,4.64-7.92,6.35-13.61,6.35-9.62,0-15.51-7.2-15.51-16.09,0-9.49,6.67-16.09,15.7-16.09,8.64,0,14.52,5.89,14.52,16v1.64h-24.73c.39,5.3,4.45,9.81,10,9.81a11.41,11.41,0,0,0,9.75-4.64Zm-4.38-12.5c-.2-5.17-3.6-8.64-9.22-8.64s-9.36,3.47-10,8.64Z"/></svg>