<?xml version="1.0" encoding="utf-8"?>
<!-- Generator: Adobe Illustrator 21.1.0, SVG Export Plug-In . SVG Version: 6.00 Build 0)  -->
<svg version="1.1" id="Layer_1" xmlns="http://www.w3.org/2000/svg" xmlns:xlink="http://www.w3.org/1999/xlink" x="0px" y="0px"
	 viewBox="0 0 982.8 80" style="enable-background:new 0 0 982.8 80;" xml:space="preserve">
<style type="text/css">
	.st0{fill:#FFFFFF;}
</style>
<title>web-product-logos-finance</title>
<g>
	<path class="st0" d="M3.2,19.1h17.2c8.8,0,21.9,5.9,21.9,22.4S29.2,63.9,20.4,63.9H3.2V19.1z M8.5,59h10.1c10.2,0,18-5.2,18-17.4
		s-7.8-17.4-18-17.4H8.5V59z"/>
	<path class="st0" d="M116.9,19.1h13.7c7.4,0,14.8,2.8,14.8,11c0,5.2-3,8.7-7.8,10.1v0.1c5.7,0.4,10.2,5.2,10.1,11
		c0,9.9-9.2,12.5-17.4,12.5h-13.3V19.1z M122.2,38.1h7.3c5,0,10.2-1.1,10.2-7.3c0-5.5-4.8-6.8-9.6-6.8h-7.9V38.1z M122.2,59h8.9
		c5.2,0,10.8-2.1,10.8-7.8c0-6.3-5.3-8.1-10.7-8.1h-9.1L122.2,59z"/>
	<path class="st0" d="M52.6,12.2l50.5,52.4l-5.3,5.1l-7.9-8.3L82,69.1c-3.6,3.5-8.5,5.5-13.6,5.4l0,0c-10.6-0.2-19-8.9-18.8-19.5
		c0.1-5.1,2.2-9.9,5.9-13.4l5.3-5.1l5.1,5.3L60.5,47c-4.7,4.5-4.8,11.9-0.3,16.6c2.2,2.3,5.1,3.5,8.3,3.6l0,0
		c3.1,0.1,6.1-1.1,8.4-3.3l7.8-7.7L52.6,22.9L52.6,12.2L52.6,12.2z"/>
	<path class="st0" d="M89.2,20.6v7.6c1.6,0.6,3.1,1.6,4.2,2.8c4.5,4.7,4.4,12.1-0.3,16.6c0,0,0,0,0,0l-0.7,0.6l5.1,5.3l0.7-0.6
		c7.6-7.3,7.8-19.4,0.5-27C96.2,23.3,92.8,21.4,89.2,20.6L89.2,20.6z"/>
	<path class="st0" d="M57.4,4.8l-3.7,3.5l5.1,5.3l3.7-3.5c3.5-3.4,9.1-3.3,12.5,0.2c3.4,3.5,3.3,9.1-0.2,12.5l0,0l-3.6,3.5l5.1,5.3
		l3.6-3.5c6.7-5.9,7.3-16.2,1.4-22.9c-5.9-6.7-16.2-7.3-22.9-1.4C58.1,4.1,57.7,4.5,57.4,4.8z"/>
	<path class="st0" d="M204.8,27.6c-2.7-3.6-7-5.7-11.5-5.6c-10.3,0-17.5,9-17.5,19.1c0,10.7,7.2,19.1,17.5,19.1
		c5.2,0.1,10.2-2.3,13.3-6.4l4.1,3.4c-4.1,5.5-10.1,8.1-17.4,8.1c-13.2,0-23.4-10.2-23.4-24.2c0-13.5,9.7-24.2,23.4-24.2
		c6.2,0,12.3,2.1,16.3,7.2L204.8,27.6z"/>
	<path class="st0" d="M217.4,40.9c0-2.8-0.3-5.2-0.3-7.2h4.8c0,1.6,0.1,3.3,0.1,5h0.1c1.4-3,5.1-5.8,10.1-5.8c0.7,0,1.4,0.1,2.1,0.3
		l-0.3,5.1c-0.9-0.3-1.8-0.4-2.7-0.4c-6.2,0-8.9,4.4-8.9,11.3v14.9h-5.1L217.4,40.9z"/>
	<path class="st0" d="M243.3,18.1c2,0,3.7,1.7,3.7,3.7c0,2-1.7,3.7-3.7,3.7c-2,0-3.7-1.7-3.7-3.7C239.5,19.8,241.2,18.1,243.3,18.1
		C243.3,18.1,243.3,18.1,243.3,18.1z M240.7,33.7h5.1v30.4h-5.1V33.7z"/>
	<path class="st0" d="M272.5,38h-8.9v15.2c0,3.9,0.1,7,4.6,7c1.6,0,3.1-0.3,4.5-1l0.2,4.6c-1.9,0.8-3.9,1.1-6,1.1
		c-7.2,0-8.4-3.9-8.4-10.2V38h-6.6v-4.3h6.6v-8.6h5v8.6h8.9L272.5,38z"/>
	<path class="st0" d="M281.7,18.1c2,0,3.7,1.7,3.7,3.7c0,0,0,0,0,0c0,2-1.7,3.7-3.7,3.7c-2,0-3.7-1.7-3.7-3.7c0,0,0,0,0,0
		C278,19.8,279.7,18.1,281.7,18.1z M279.2,33.7h5.1v30.4h-5.1V33.7z"/>
	<path class="st0" d="M316,41.3c-1.8-2.4-4.7-3.8-7.7-3.7c-6.8,0-10.3,5.1-10.3,11.3s4.1,11.3,10.3,11.3c3.1,0.2,6-1.3,7.7-3.8
		l3.8,3.6c-2.9,3.2-7.1,5-11.5,4.9c-9.4,0-15.7-6.6-15.7-16s6.4-16,15.7-16c4.4-0.1,8.7,1.6,11.7,4.8L316,41.3z"/>
	<path class="st0" d="M325.3,37.6c3.2-3.1,7.6-4.8,12.1-4.7c8.9,0,12.7,4.3,12.7,12.9v13c0,1.8,0.2,3.5,0.5,5.3h-4.9
		c-0.3-1.5-0.4-3-0.3-4.6h-0.1c-2.2,3.4-6,5.4-10,5.3c-6.2,0-11.3-3.1-11.3-9c0-10.1,11.7-10.7,19.2-10.7h2v-0.9
		c0-4.4-2.8-6.7-7.5-6.7c-3.3,0-6.5,1.1-9,3.3L325.3,37.6z M340,49.5c-6.4,0-10.6,1.8-10.6,5.9c0,3.8,2.9,5.3,6.7,5.3
		c5.9,0,8.8-4.2,8.9-9.2v-2L340,49.5z"/>
	<path class="st0" d="M359.9,15h5.1v49.1h-5.1V15z"/>
	<path class="st0" d="M394,18.1h5.5v46H394V18.1z"/>
	<path class="st0" d="M410,40.9c0-2.8-0.3-5.2-0.3-7.2h4.8c0,1.6,0.1,3.3,0.1,5h0.1c1.4-3,5.1-5.8,10.1-5.8
		c7.9,0,11.6,5.1,11.6,12.4v18.8h-5.1V45.9c0-5.1-2.2-8.3-7-8.3c-6.6,0-9.4,4.7-9.4,11.7v14.8h-5.1L410,40.9z"/>
	<path class="st0" d="M462.8,38h-8.9v15.2c0,3.9,0.1,7,4.6,7c1.6,0,3.1-0.3,4.5-1l0.2,4.6c-1.9,0.8-3.9,1.1-6,1.1
		c-7.2,0-8.4-3.9-8.4-10.2V38h-6.6v-4.3h6.6v-8.6h5.1v8.6h8.9L462.8,38z"/>
	<path class="st0" d="M496.2,58.6c-3.6,4.6-7.9,6.3-13.5,6.3c-9.6,0-15.4-7.2-15.4-16c0-9.4,6.6-16,15.6-16
		c8.6,0,14.4,5.9,14.4,15.9v1.6h-24.6c0.4,5.3,4.4,9.7,9.9,9.7c3.8,0.2,7.4-1.5,9.7-4.6L496.2,58.6z M491.8,46.2
		c-0.2-5.1-3.6-8.6-9.2-8.6s-9.3,3.4-9.9,8.6H491.8z"/>
	<path class="st0" d="M505.6,15h5.1v49.1h-5.1V15z"/>
	<path class="st0" d="M521.2,15h5.1v49.1h-5.1V15z"/>
	<path class="st0" d="M539.3,18.1c2,0,3.7,1.7,3.7,3.7c0,2-1.7,3.7-3.7,3.7c-2,0-3.7-1.7-3.7-3.7C535.6,19.8,537.3,18.1,539.3,18.1
		C539.3,18.1,539.3,18.1,539.3,18.1z M536.8,33.7h5.1v30.4h-5.1V33.7z"/>
	<path class="st0" d="M582.3,62.8c0,11-6,17-16.6,17c-6,0-10.7-1.6-14.9-5.8l3.6-4.2c3.2,3.4,6.6,5.3,11.3,5.3
		c9.1,0,11.5-5.9,11.5-12.3v-3.9h-0.1c-2.4,3.6-6.4,5.8-10.7,5.7c-9.6,0-16.2-6.6-16.2-15.6c0-9.9,6.5-16,16.2-16
		c4.1,0,8.7,2,10.7,6h0.1v-5.2h5.1L582.3,62.8z M566.4,59.8c7,0,10.9-5.2,10.9-11c0-6.6-4.4-11.2-10.9-11.2c-6.4,0-10.7,5-10.7,11.3
		c-0.1,5.9,4.6,10.8,10.5,10.9C566.3,59.9,566.3,59.9,566.4,59.8L566.4,59.8z"/>
	<path class="st0" d="M618.8,58.6c-3.6,4.6-7.9,6.3-13.5,6.3c-9.6,0-15.4-7.2-15.4-16c0-9.4,6.6-16,15.6-16
		c8.6,0,14.4,5.9,14.4,15.9v1.6h-24.6c0.4,5.3,4.4,9.7,9.9,9.7c3.8,0.2,7.4-1.5,9.7-4.6L618.8,58.6z M614.5,46.2
		c-0.2-5.1-3.6-8.6-9.2-8.6s-9.3,3.4-9.9,8.6H614.5z"/>
	<path class="st0" d="M627.8,40.9c0-2.8-0.3-5.2-0.3-7.2h4.8c0,1.6,0.1,3.3,0.1,5h0.1c1.4-3,5.1-5.8,10.1-5.8
		c7.9,0,11.6,5.1,11.6,12.4v18.8h-5.1V45.9c0-5.1-2.2-8.3-7-8.3c-6.6,0-9.4,4.7-9.4,11.7v14.8h-5.1L627.8,40.9z"/>
	<path class="st0" d="M685.6,41.3c-1.8-2.4-4.7-3.8-7.7-3.7c-6.8,0-10.3,5.1-10.3,11.3s4.1,11.3,10.3,11.3c3.1,0.2,6-1.3,7.7-3.8
		l3.8,3.6c-2.9,3.2-7.1,5-11.5,4.9c-9.4,0-15.7-6.6-15.7-16s6.4-16,15.7-16c4.4-0.1,8.7,1.6,11.7,4.8L685.6,41.3z"/>
	<path class="st0" d="M722.4,58.6c-3.6,4.6-7.9,6.3-13.5,6.3c-9.6,0-15.4-7.2-15.4-16c0-9.4,6.6-16,15.6-16
		c8.6,0,14.4,5.9,14.4,15.9v1.6H699c0.4,5.3,4.4,9.7,9.9,9.7c3.8,0.2,7.4-1.5,9.7-4.6L722.4,58.6z M718.1,46.2
		c-0.2-5.1-3.6-8.6-9.2-8.6s-9.3,3.4-9.9,8.6H718.1z"/>
	<path class="st0" d="M772.2,26.2c-1.9-2.8-5-4.4-8.4-4.2c-4.8,0-9.8,2.3-9.8,7.7c0,4.2,2.3,6.1,9.7,8.4c7.2,2.3,13.8,4.6,13.8,13.7
		s-7.9,13.5-16.2,13.5c-5.3,0-11-1.8-14.2-6.4l4.7-3.8c2,3.4,5.9,5.1,9.8,5.1c4.7,0,10-2.7,10-7.9c0-5.7-3.8-6.6-12-9.4
		c-6.5-2.1-11.4-5-11.4-12.7c0-8.8,7.6-13.3,15.7-13.3c5.1,0,9.5,1.4,12.9,5.4L772.2,26.2z"/>
	<path class="st0" d="M800.1,32.9c9.4,0,16.3,6.5,16.3,16s-6.9,16-16.3,16s-16.3-6.5-16.3-16S790.8,32.9,800.1,32.9z M800.1,60.2
		c6.6,0,10.8-5,10.8-11.3s-4.2-11.3-10.8-11.3c-6.6,0-10.8,5-10.8,11.3S793.5,60.2,800.1,60.2z"/>
	<path class="st0" d="M824.7,15h5.1v49.1h-5.1L824.7,15z"/>
	<path class="st0" d="M866.3,56.9c0,2.8,0.3,5.2,0.3,7.2h-4.8c0-1.6-0.1-3.3-0.1-5h-0.1c-1.4,3-5.1,5.8-10.1,5.8
		c-7.9,0-11.6-5.1-11.6-12.4V33.7h5.1V52c0,5.1,2.2,8.3,7,8.3c6.6,0,9.4-4.7,9.4-11.7V33.7h5.1L866.3,56.9z"/>
	<path class="st0" d="M892.6,38h-8.9v15.2c0,3.9,0.1,7,4.6,7c1.6,0,3.1-0.3,4.5-1l0.2,4.6c-1.9,0.8-3.9,1.1-6,1.1
		c-7.2,0-8.4-3.9-8.4-10.2V38h-6.6v-4.3h6.6v-8.6h5.1v8.6h8.9L892.6,38z"/>
	<path class="st0" d="M901.8,18.1c2,0,3.7,1.7,3.7,3.7c0,2-1.7,3.7-3.7,3.7c-2,0-3.7-1.7-3.7-3.7C898.1,19.8,899.8,18.1,901.8,18.1
		C901.8,18.1,901.8,18.1,901.8,18.1z M899.3,33.7h5.1v30.4h-5.1V33.7z"/>
	<path class="st0" d="M928.9,32.9c9.4,0,16.3,6.5,16.3,16s-6.9,16-16.3,16s-16.3-6.5-16.3-16S919.6,32.9,928.9,32.9z M928.9,60.2
		c6.6,0,10.8-5,10.8-11.3s-4.2-11.3-10.8-11.3s-10.8,5-10.8,11.3S922.4,60.2,928.9,60.2z"/>
	<path class="st0" d="M953.1,40.9c0-2.8-0.3-5.2-0.3-7.2h4.8c0,1.6,0.1,3.3,0.1,5h0.1c1.4-3,5.1-5.8,10.1-5.8
		c7.9,0,11.6,5.1,11.6,12.4v18.8h-5.1V45.9c0-5.1-2.2-8.3-7-8.3c-6.6,0-9.4,4.7-9.4,11.7v14.8h-5.1L953.1,40.9z"/>
</g>
</svg>
