<?xml version="1.0" encoding="utf-8"?>
<!-- Generator: Adobe Illustrator 21.1.0, SVG Export Plug-In . SVG Version: 6.00 Build 0)  -->
<svg version="1.1" id="Layer_1" xmlns="http://www.w3.org/2000/svg" xmlns:xlink="http://www.w3.org/1999/xlink" x="0px" y="0px"
	 viewBox="0 0 893.6 80" style="enable-background:new 0 0 893.6 80;" xml:space="preserve">
<style type="text/css">
	.st0{fill:#FFFFFF;}
</style>
<g>
	<title>web-product-logos-finance</title>
	<path class="st0" d="M0,19.5h17.2c8.8,0,21.9,5.9,21.9,22.4S25.9,64.3,17.2,64.3H0V19.5z M5.3,59.4h10.1c10.2,0,18-5.2,18-17.4
		s-7.8-17.4-18-17.4H5.3V59.4z"/>
	<path class="st0" d="M113.7,19.5h13.6c7.4,0,14.8,2.8,14.8,11c0,5.2-3,8.7-7.8,10.1v0.1c5.7,0.4,10.2,5.2,10.1,11
		c0,9.9-9.2,12.5-17.4,12.5h-13.3V19.5z M119,38.5h7.3c5,0,10.2-1.1,10.2-7.3c0-5.5-4.8-6.8-9.6-6.8H119V38.5z M119,59.3h8.9
		c5.2,0,10.8-2.1,10.8-7.8c0-6.3-5.3-8.1-10.7-8.1H119L119,59.3z"/>
	<path class="st0" d="M49.4,12.6L99.9,65l-5.3,5.1l-7.9-8.3l-7.9,7.6c-3.6,3.5-8.5,5.5-13.6,5.4l0,0c-10.6-0.2-19-8.9-18.8-19.4
		c0.1-5.1,2.2-9.9,5.9-13.4l5.3-5.1l5.1,5.3l-5.3,5.1c-4.7,4.5-4.8,11.9-0.3,16.6c2.2,2.3,5.1,3.5,8.3,3.6l0,0
		c3.1,0.1,6.1-1.1,8.4-3.3l7.8-7.7L49.4,23.3L49.4,12.6L49.4,12.6z"/>
	<path class="st0" d="M86,21v7.6c1.6,0.6,3.1,1.6,4.2,2.8c4.5,4.7,4.4,12.1-0.3,16.6c0,0,0,0,0,0l-0.7,0.6l5.1,5.3l0.7-0.6
		c7.6-7.3,7.8-19.4,0.5-27C92.9,23.7,89.6,21.8,86,21L86,21z"/>
	<path class="st0" d="M54.2,5.2l-3.7,3.5l5.1,5.3l3.7-3.5c3.5-3.4,9.1-3.3,12.5,0.2s3.3,9.1-0.2,12.5l0,0l-3.6,3.5l5.1,5.3l3.6-3.5
		c6.7-5.9,7.3-16.2,1.4-22.9c-5.9-6.7-16.2-7.3-22.9-1.4C54.9,4.5,54.5,4.9,54.2,5.2z"/>
	<path class="st0" d="M201.5,28c-2.7-3.6-7-5.7-11.5-5.6c-10.3,0-17.5,9-17.5,19.1c0,10.7,7.2,19.1,17.5,19.1
		c5.2,0.1,10.2-2.3,13.3-6.4l4.1,3.4c-4.1,5.5-10.1,8.1-17.4,8.1c-13.2,0-23.4-10.2-23.4-24.2c0-13.5,9.7-24.2,23.4-24.2
		c6.2,0,12.3,2.1,16.3,7.2L201.5,28z"/>
	<path class="st0" d="M228.6,33.3c9.4,0,16.3,6.5,16.3,16s-6.9,16-16.3,16c-9.4,0-16.2-6.5-16.2-16S219.3,33.3,228.6,33.3z
		 M228.6,60.6c6.6,0,10.8-5,10.8-11.3S235.2,38,228.6,38c-6.6,0-10.8,5-10.8,11.3S222.1,60.6,228.6,60.6z"/>
	<path class="st0" d="M279.3,57.3c0,2.8,0.3,5.2,0.3,7.2h-4.8c0-1.6-0.1-3.3-0.1-5h-0.1c-1.4,3-5.1,5.8-10.1,5.8
		c-7.9,0-11.6-5.1-11.6-12.4V34.1h5.1v18.3c0,5.1,2.2,8.3,7,8.3c6.6,0,9.4-4.7,9.4-11.7V34.1h5.1L279.3,57.3z"/>
	<path class="st0" d="M288.9,41.3c0-2.8-0.3-5.2-0.3-7.2h4.8c0,1.6,0.1,3.3,0.1,5h0.1c1.4-3,5.1-5.8,10.1-5.8
		c7.9,0,11.6,5.1,11.6,12.4v18.8h-5.1V46.3c0-5.1-2.2-8.3-7-8.3c-6.6,0-9.4,4.7-9.4,11.7v14.8h-5.1L288.9,41.3z"/>
	<path class="st0" d="M341.7,38.4h-8.9v15.2c0,3.9,0.1,7,4.5,7c1.6,0,3.1-0.3,4.5-1l0.2,4.6c-1.9,0.8-3.9,1.1-6,1.1
		c-7.2,0-8.4-3.9-8.4-10.2V38.4H321v-4.3h6.6v-8.6h5.1v8.6h8.9L341.7,38.4z"/>
	<path class="st0" d="M347.9,41.3c0-2.8-0.3-5.2-0.3-7.2h4.8c0,1.6,0.1,3.3,0.1,5h0.1c1.4-3,5.1-5.8,10.1-5.8c0.7,0,1.4,0.1,2.1,0.3
		l-0.3,5.1c-0.9-0.3-1.8-0.4-2.7-0.4c-6.2,0-8.9,4.4-8.9,11.3v14.9h-5.1L347.9,41.3z"/>
	<path class="st0" d="M382,71.5c-2,5.1-4,8.6-10.1,8.6c-1.6,0.1-3.1-0.2-4.5-0.8l0.6-4.4c1.2,0.4,2.4,0.6,3.6,0.5c3.3,0,4.5-2,5.7-5
		l2.1-5.7l-12.6-30.6h6L382,58h0.1l9-23.8h5.5L382,71.5z"/>
	<path class="st0" d="M421.1,18.5h5.5v46h-5.5V18.5z"/>
	<path class="st0" d="M437.1,41.3c0-2.8-0.3-5.2-0.3-7.2h4.8c0,1.6,0.1,3.3,0.1,5h0.1c1.4-3,5.1-5.8,10.1-5.8
		c7.9,0,11.6,5.1,11.6,12.4v18.8h-5.1V46.3c0-5.1-2.2-8.3-7-8.3c-6.6,0-9.4,4.7-9.4,11.7v14.8h-5.1V41.3z"/>
	<path class="st0" d="M473.8,56.5c2,2.5,4.2,4.1,7.8,4.1c3.2,0,6.7-1.4,6.7-4.7c0-3.3-3.2-4.1-6.5-4.8c-5.8-1.3-10.7-2.5-10.7-8.8
		c0-6,5.7-8.9,11.4-8.9c4.3,0,8.3,1.6,10.3,5.5l-4.2,2.8c-1.3-2.3-3.8-3.7-6.4-3.6c-2.8,0-6,1.4-6,4.2c0,2.5,3.6,3.6,7.7,4.4
		c5.4,1,9.9,3,9.9,9.1c0,6.9-6.1,9.6-12.1,9.6c-5.1,0-8.8-1.4-11.8-5.7L473.8,56.5z"/>
	<path class="st0" d="M503.9,18.5c2,0,3.7,1.6,3.7,3.7c0,2-1.7,3.7-3.7,3.7c-2,0-3.7-1.7-3.7-3.7c0,0,0,0,0,0
		C500.2,20.2,501.8,18.5,503.9,18.5z M501.3,34.1h5.1v30.4h-5.1V34.1z"/>
	<path class="st0" d="M546.8,63.2c0,11-6,17-16.6,17c-6,0-10.7-1.6-14.9-5.8l3.6-4.2c3.2,3.4,6.6,5.3,11.3,5.3
		c9.1,0,11.5-5.9,11.5-12.3v-3.9h-0.1c-2.4,3.6-6.4,5.8-10.7,5.7c-9.6,0-16.2-6.6-16.2-15.6c0-9.9,6.5-16,16.2-16
		c4.1,0,8.7,2,10.7,6h0.1v-5.2h5.1V63.2z M530.9,60.2c7,0,10.9-5.2,10.9-11c0-6.6-4.4-11.2-10.9-11.2c-6.4,0-10.7,5-10.7,11.3
		c-0.1,5.9,4.6,10.8,10.5,10.9C530.8,60.3,530.9,60.3,530.9,60.2L530.9,60.2z"/>
	<path class="st0" d="M556.2,15.4h5v22.9h0.1c1.4-2.4,5-5,9.7-5c7.9,0,11.6,5.1,11.6,12.4v18.7h-5.1V46.3c0-5.1-2.2-8.3-7-8.3
		c-6.6,0-9.4,4.7-9.4,11.7v14.8h-5.1L556.2,15.4z"/>
	<path class="st0" d="M609,38.4H600v15.2c0,3.9,0.1,7,4.5,7c1.6,0,3.1-0.3,4.5-1l0.2,4.6c-1.9,0.8-3.9,1.1-6,1.1
		c-7.2,0-8.4-3.9-8.4-10.2V38.4h-6.6v-4.3h6.6v-8.6h5.1v8.6h8.9L609,38.4z"/>
	<path class="st0" d="M656,26.6c-1.9-2.8-5-4.4-8.4-4.2c-4.8,0-9.8,2.3-9.8,7.7c0,4.2,2.3,6.1,9.7,8.4c7.2,2.3,13.8,4.6,13.8,13.6
		s-7.9,13.5-16.2,13.5c-5.3,0-11-1.8-14.2-6.4l4.7-3.8c2,3.4,5.9,5.1,9.8,5.1c4.7,0,10-2.7,10-7.9c0-5.7-3.8-6.6-12-9.4
		c-6.5-2.1-11.4-5-11.4-12.7c0-8.8,7.6-13.3,15.7-13.3c5.1,0,9.5,1.4,12.9,5.4L656,26.6z"/>
	<path class="st0" d="M683.9,33.3c9.4,0,16.3,6.5,16.3,16s-6.9,16-16.3,16s-16.3-6.5-16.3-16S674.6,33.3,683.9,33.3z M683.9,60.6
		c6.6,0,10.8-5,10.8-11.3S690.5,38,683.9,38c-6.6,0-10.8,5-10.8,11.3S677.3,60.6,683.9,60.6z"/>
	<path class="st0" d="M708.5,15.4h5.1v49.1h-5.1V15.4z"/>
	<path class="st0" d="M750.1,57.3c0,2.8,0.3,5.2,0.3,7.2h-4.8c0-1.6-0.1-3.3-0.1-5h-0.1c-1.4,3-5.1,5.8-10.1,5.8
		c-7.9,0-11.6-5.1-11.6-12.4V34.1h5.1v18.3c0,5.1,2.2,8.3,7,8.3c6.6,0,9.4-4.7,9.4-11.7V34.1h5.1L750.1,57.3z"/>
	<path class="st0" d="M776.4,38.4h-8.9v15.2c0,3.9,0.1,7,4.5,7c1.6,0,3.1-0.3,4.5-1l0.2,4.6c-1.9,0.8-3.9,1.1-6,1.1
		c-7.2,0-8.4-3.9-8.4-10.2V38.4h-6.6v-4.3h6.6v-8.6h5.1v8.6h8.9L776.4,38.4z"/>
	<path class="st0" d="M785.6,18.5c2,0,3.7,1.7,3.7,3.7c0,2-1.7,3.7-3.7,3.7c-2,0-3.7-1.7-3.7-3.7C781.9,20.2,783.6,18.5,785.6,18.5
		C785.6,18.5,785.6,18.5,785.6,18.5z M783.1,34.1h5.1v30.4h-5.1V34.1z"/>
	<path class="st0" d="M812.7,33.3c9.4,0,16.3,6.5,16.3,16s-6.9,16-16.3,16c-9.4,0-16.3-6.5-16.3-16S803.4,33.3,812.7,33.3z
		 M812.7,60.6c6.6,0,10.8-5,10.8-11.3S819.3,38,812.7,38c-6.6,0-10.8,4.9-10.8,11.3S806.2,60.6,812.7,60.6z"/>
	<path class="st0" d="M836.8,41.3c0-2.8-0.3-5.2-0.3-7.2h4.8c0,1.6,0.1,3.3,0.1,5h0.1c1.4-3,5.1-5.8,10.1-5.8
		c7.9,0,11.6,5.1,11.6,12.4v18.8h-5.1V46.3c0-5.1-2.2-8.3-7-8.3c-6.6,0-9.4,4.7-9.4,11.7v14.8h-5.1L836.8,41.3z"/>
	<path class="st0" d="M873.6,56.5c2,2.5,4.2,4.1,7.8,4.1c3.2,0,6.7-1.4,6.7-4.7c0-3.3-3.2-4.1-6.5-4.8c-5.8-1.3-10.7-2.5-10.7-8.8
		c0-6,5.7-8.9,11.4-8.9c4.3,0,8.3,1.6,10.3,5.5l-4.2,2.8c-1.3-2.3-3.8-3.7-6.4-3.6c-2.8,0-6,1.4-6,4.2c0,2.5,3.6,3.6,7.7,4.4
		c5.4,1,9.9,3,9.9,9.1c0,6.9-6.1,9.6-12.1,9.6c-5.1,0-8.8-1.4-11.8-5.7L873.6,56.5z"/>
</g>
</svg>
