<?xml version="1.0" encoding="utf-8"?>
<!-- Generator: Adobe Illustrator 19.2.1, SVG Export Plug-In . SVG Version: 6.00 Build 0)  -->
<!DOCTYPE svg PUBLIC "-//W3C//DTD SVG 1.1//EN" "http://www.w3.org/Graphics/SVG/1.1/DTD/svg11.dtd">
<svg version="1.1" id="Layer_1" xmlns="http://www.w3.org/2000/svg" xmlns:xlink="http://www.w3.org/1999/xlink" x="0px" y="0px"
	 width="1600px" height="768px" viewBox="0 0 1600 768" style="enable-background:new 0 0 1600 768;" xml:space="preserve">
<style type="text/css">
	.st0{fill:#FFFFFF;}
</style>
<path class="st0" d="M854.9,333.1c10.4,10.8,16,25,15.7,40c-0.3,15-6.4,29-17.2,39.4l-1.9,1.8l-15.1-15.5l2-1.9
	c6.6-6.4,10.4-15,10.5-24.2c0.2-9.2-3.3-17.9-9.6-24.5c-3.7-3.8-7.6-6.6-12.4-8.4v-22.4C837.5,319.8,847.2,325.2,854.9,333.1
	 M733.8,271.2L723,281.4l15,15.6l10.7-10.3c10.3-9.9,26.7-9.7,36.6,0.6c9.9,10.3,9.6,26.7-0.7,36.6l-10.7,10.2l15,15.6l10.7-10.2
	c18.9-18.2,19.4-48.4,1.2-67.2C782.8,253.4,752.6,252.9,733.8,271.2"/>
<path class="st0" d="M719.6,292.8l148.1,153.8l-15.6,15l-23.4-24.2l-23.1,22.3c-10.8,10.4-25,16-40,15.8l-0.1,0
	c-15-0.3-28.9-6.3-39.3-17.1c-10.4-10.8-16-25-15.7-40c0.3-15,6.4-29,17.2-39.4l15.5-14.9l15.1,15.6l-15.5,14.9
	c-6.6,6.4-10.4,15-10.5,24.2c-0.2,9.2,3.3,17.9,9.6,24.5c6.4,6.6,14.9,10.3,24.1,10.5l0,0c9.2,0.2,17.9-3.3,24.6-9.7l23.1-22.3
	l-94.1-97.6L719.6,292.8L719.6,292.8z"/>
</svg>
