<svg id="Layer_1" data-name="Layer 1" xmlns="http://www.w3.org/2000/svg" viewBox="0 0 608.49 179.84"><defs><style>.cls-1{fill:#fff;}.cls-2{fill:#fff;}.cls-3{fill:#fff;}.cls-4{fill:#fff;}</style></defs><title>DNB-Credit-Premium</title><path class="cls-1" d="M389.48,63.63a23.07,23.07,0,0,0-9-7.35,26.58,26.58,0,0,0-11.16-2.45A28,28,0,0,0,357,56.56a31.28,31.28,0,0,0-9.75,7.35,33.9,33.9,0,0,0-6.38,10.71,36,36,0,0,0-2.28,12.71,37.29,37.29,0,0,0,2.28,13.16,32.87,32.87,0,0,0,6.33,10.59,29.21,29.21,0,0,0,22.16,9.74,29.14,29.14,0,0,0,13.22-2.9,30.13,30.13,0,0,0,10.14-8.37l7.17,6a33,33,0,0,1-13.16,10.71,42.3,42.3,0,0,1-17.37,3.42,40.9,40.9,0,0,1-16.18-3.19,39.84,39.84,0,0,1-13.05-8.83,40.73,40.73,0,0,1-8.66-13.39,44.8,44.8,0,0,1-3.13-17,45.49,45.49,0,0,1,3-16.64,40.09,40.09,0,0,1,38-25.75,43,43,0,0,1,15.78,3,29.08,29.08,0,0,1,12.7,9.69Z" transform="translate(-31.19 -13.77)"/><path class="cls-1" d="M411.58,87c0-2.44-.08-4.71-.23-6.84s-.23-4.06-.23-5.81h8.44c0,1.44,0,2.89.11,4.33s.11,2.92.11,4.44H420a15.35,15.35,0,0,1,2.57-3.76,18.6,18.6,0,0,1,3.93-3.25,21,21,0,0,1,5.12-2.28,21.68,21.68,0,0,1,6.16-.85,16,16,0,0,1,1.82.11,8.1,8.1,0,0,1,1.82.46l-.57,9a16.74,16.74,0,0,0-4.78-.68q-8.2,0-11.91,5.3t-3.7,14.52v26h-8.89Z" transform="translate(-31.19 -13.77)"/><path class="cls-1" d="M497.26,118a27,27,0,0,1-10.48,8.6A33.28,33.28,0,0,1,473.56,129a27.59,27.59,0,0,1-11.28-2.22,25.43,25.43,0,0,1-8.49-6,26.16,26.16,0,0,1-5.35-8.88A31.64,31.64,0,0,1,446.56,101a30.53,30.53,0,0,1,2.05-11.34,26.27,26.27,0,0,1,5.7-8.88A25.56,25.56,0,0,1,463,75a28.53,28.53,0,0,1,10.94-2,27.29,27.29,0,0,1,10.25,1.88,22.24,22.24,0,0,1,8,5.47,24.66,24.66,0,0,1,5.19,8.77,35.62,35.62,0,0,1,1.82,11.8v2.84H456.13a19.17,19.17,0,0,0,5.36,12,16.94,16.94,0,0,0,5.35,3.71,16.37,16.37,0,0,0,6.72,1.36,21.21,21.21,0,0,0,9.8-2,22.15,22.15,0,0,0,7.18-6Zm-7.63-21.77a15.34,15.34,0,0,0-4.44-10.93q-4.23-4.11-11.63-4.11t-12,4.11a17.21,17.21,0,0,0-5.47,10.93Z" transform="translate(-31.19 -13.77)"/><path class="cls-1" d="M557.31,118.2h-.23a20.34,20.34,0,0,1-7.92,7.7A24.76,24.76,0,0,1,536.57,129a26.17,26.17,0,0,1-10.48-2.11,25.49,25.49,0,0,1-8.49-5.87,27.59,27.59,0,0,1-5.64-8.88,31.46,31.46,0,0,1,0-22.34,27.08,27.08,0,0,1,5.7-8.88,25.35,25.35,0,0,1,8.83-5.87A30,30,0,0,1,537.94,73a23.79,23.79,0,0,1,10.65,2.39,26.23,26.23,0,0,1,8.49,6.73h.23V41.52h8.89v86.14h-8.89Zm0-17.2A22.74,22.74,0,0,0,556,93.19a18.07,18.07,0,0,0-9.8-10.48,20.55,20.55,0,0,0-15.61,0,18.07,18.07,0,0,0-9.8,10.48,23.91,23.91,0,0,0,0,15.61,18,18,0,0,0,9.8,10.49,20.67,20.67,0,0,0,15.61,0A18,18,0,0,0,556,108.8,22.64,22.64,0,0,0,557.31,101Z" transform="translate(-31.19 -13.77)"/><path class="cls-1" d="M581.46,53.49a6.34,6.34,0,0,1,1.88-4.56,6.46,6.46,0,0,1,9.23,0,6.55,6.55,0,1,1-11.11,4.56Zm2,20.85h8.89v53.32h-8.89Z" transform="translate(-31.19 -13.77)"/><path class="cls-1" d="M639.23,81.86H623.51v26.66c0,1.75,0,3.36.11,4.84a10.16,10.16,0,0,0,.91,3.88,6.16,6.16,0,0,0,2.39,2.62,8.94,8.94,0,0,0,4.56,1,18.63,18.63,0,0,0,4-.45,16.32,16.32,0,0,0,3.87-1.37l.35,8.09a19.87,19.87,0,0,1-5.07,1.48,32.38,32.38,0,0,1-5.3.46,19.41,19.41,0,0,1-7.64-1.25,10.37,10.37,0,0,1-4.44-3.54,13,13,0,0,1-2.11-5.64,50,50,0,0,1-.51-7.46V81.86H603V74.34h11.62V59.18h8.89V74.34h15.72Z" transform="translate(-31.19 -13.77)"/><path class="cls-2" d="M31.19,47.5H61.86C77.54,47.5,101,58,101,87.42s-23.45,39.91-39.13,39.91H31.19Zm9.48,71h18c18.26,0,32.13-9.25,32.13-31.12S77,56.3,58.71,56.3h-18Z" transform="translate(-31.19 -13.77)"/><path class="cls-3" d="M234.18,47.5h24.36c13.19,0,26.49,5,26.49,19.62,0,9.25-5.41,15.45-14,18v.23a19.49,19.49,0,0,1,18,19.62c0,17.59-16.35,22.32-31.12,22.32H234.18Zm9.47,33.83h13.08c8.91,0,18.16-1.92,18.16-13,0-9.81-8.57-12.06-17.14-12.06h-14.1Zm0,37.21h16c9.25,0,19.28-3.72,19.28-13.87,0-11.16-9.47-14.55-19.05-14.55H243.65Z" transform="translate(-31.19 -13.77)"/><path class="cls-2" d="M119.38,35.08l90.14,93.56L200,137.79l-14.23-14.73-14.06,13.58a34,34,0,0,1-24.31,9.59h0a34.12,34.12,0,0,1-23.05-58.68l9.42-9L142.93,88l-9.43,9a20.94,20.94,0,0,0,14.13,36h0a20.89,20.89,0,0,0,14.95-5.9l14.05-13.59L119.37,54.19V35.08Z" transform="translate(-31.19 -13.77)"/><path class="cls-3" d="M184.66,50V63.66a20.1,20.1,0,0,1,7.56,5.1,21,21,0,0,1-.55,29.66l-1.23,1.13,9.22,9.41,1.16-1.07A34.11,34.11,0,0,0,184.66,50Z" transform="translate(-31.19 -13.77)"/><path class="cls-3" d="M128,21.89l-6.53,6.26,9.15,9.48,6.53-6.26A15.74,15.74,0,1,1,159,54l-6.49,6.21,9.16,9.47,6.48-6.21A28.91,28.91,0,1,0,128,21.89Z" transform="translate(-31.19 -13.77)"/><path class="cls-4" d="M411.11,165.67h8.08c5,0,9.55,1.77,9.55,7.46,0,6-5.08,7.55-8.93,7.55h-5.47v12.24h-3.23Zm3.23,12h5.47c3.23,0,5.47-1.47,5.47-4.51s-2.24-4.5-5.47-4.5h-5.47Z" transform="translate(-31.19 -13.77)"/><path class="cls-4" d="M443.56,165.67h7c5.28,0,10.86.77,10.86,7.5,0,4-2.58,6.55-6.82,7.2l7.74,12.55h-4L451,180.68H446.8v12.24h-3.24Zm3.24,12h2.88c3.58,0,8.24,0,8.24-4.51,0-3.92-3.42-4.5-6.58-4.5H446.8Z" transform="translate(-31.19 -13.77)"/><path class="cls-4" d="M476.71,165.67h17.13v3H480v8.55h13v3H480v9.7h14.59v3H476.71Z" transform="translate(-31.19 -13.77)"/><path class="cls-4" d="M509.17,165.67H514L523.22,187h.08l9.31-21.36h4.7v27.25h-3.23V170.05H534l-9.78,22.87h-2l-9.78-22.87h-.08v22.87h-3.23Z" transform="translate(-31.19 -13.77)"/><path class="cls-4" d="M553.71,165.67H557v27.25h-3.24Z" transform="translate(-31.19 -13.77)"/><path class="cls-4" d="M593.79,182.53c0,5.93-2.77,11.09-10.28,11.09s-10.28-5.16-10.28-11.09V165.67h3.23v16.4c0,4.39,1.62,8.54,7,8.54s7-4.15,7-8.54v-16.4h3.24Z" transform="translate(-31.19 -13.77)"/><path class="cls-4" d="M610.07,165.67h4.82L624.13,187h.07l9.32-21.36h4.7v27.25H635V170.05h-.07l-9.78,22.87h-2l-9.78-22.87h-.07v22.87h-3.24Z" transform="translate(-31.19 -13.77)"/></svg>