<svg id="Layer_1" data-name="Layer 1" xmlns="http://www.w3.org/2000/svg" viewBox="0 0 584.27 80"><defs><style>.cls-1{fill:#fff;}</style></defs><title>web-product-logos-data-suply-compliance</title><path class="cls-1" d="M0,19H17.3c8.84,0,22.07,5.91,22.07,22.51S26.14,64.05,17.3,64.05H0ZM5.34,59.09H15.52c10.3,0,18.13-5.22,18.13-17.55S25.82,24,15.52,24H5.34Z"/><path class="cls-1" d="M114.49,19h13.74c7.44,0,14.94,2.8,14.94,11.07,0,5.22-3.05,8.71-7.89,10.18v.13a11,11,0,0,1,10.18,11.07c0,9.92-9.22,12.59-17.55,12.59H114.49Zm5.34,19.08h7.38c5,0,10.24-1.08,10.24-7.31,0-5.53-4.83-6.81-9.67-6.81h-7.95Zm0,21h9c5.21,0,10.88-2.1,10.88-7.82,0-6.3-5.34-8.2-10.75-8.2h-9.16Z"/><path class="cls-1" d="M49.74,12l50.84,52.77-5.34,5.16-8-8.31L79.28,69.3a19.16,19.16,0,0,1-13.71,5.41h0a19.24,19.24,0,0,1-13-33.1l5.31-5.1L63,41.85,57.7,47a11.81,11.81,0,0,0,8,20.32h0A11.78,11.78,0,0,0,74.11,64L82,56.29,49.73,22.79V12Z"/><path class="cls-1" d="M86.56,20.45v7.69A11.28,11.28,0,0,1,90.82,31a11.83,11.83,0,0,1-.31,16.73l-.69.64L95,53.69l.66-.6a19.24,19.24,0,0,0-9.11-32.64Z"/><path class="cls-1" d="M54.58,4.58,50.9,8.11l5.16,5.34,3.68-3.53A8.88,8.88,0,1,1,72.08,22.7l-3.66,3.5,5.16,5.34L77.24,28A16.31,16.31,0,1,0,54.58,4.58Z"/><path class="cls-1" d="M169.6,18h17.8c9.09,0,22.7,6.08,22.7,23.16S196.49,64.3,187.4,64.3H169.6Zm5.5,41.22h10.47c10.6,0,18.65-5.36,18.65-18.06s-8-18.06-18.65-18.06H175.1Z"/><path class="cls-1" d="M217.62,37.6a17,17,0,0,1,12.17-4.71c9,0,12.82,4.32,12.82,13V59a34,34,0,0,0,.46,5.3h-4.91a21.94,21.94,0,0,1-.33-4.58h-.13a11.57,11.57,0,0,1-10.08,5.36c-6.22,0-11.38-3.14-11.38-9.09,0-10.14,11.78-10.73,19.3-10.73h2v-.92c0-4.45-2.81-6.74-7.59-6.74a13.58,13.58,0,0,0-9.09,3.34Zm14.79,12c-6.48,0-10.66,1.77-10.66,5.89,0,3.86,2.88,5.3,6.74,5.3,5.89,0,8.9-4.25,9-9.22v-2Z"/><path class="cls-1" d="M268.72,38h-9V53.31c0,3.93.07,7.07,4.58,7.07a9.94,9.94,0,0,0,4.51-1L269,64a15.52,15.52,0,0,1-6,1.11c-7.26,0-8.44-3.93-8.44-10.27V38h-6.67V33.68h6.67V25h5.1v8.7h9Z"/><path class="cls-1" d="M274.61,37.6a17,17,0,0,1,12.17-4.71c9,0,12.82,4.32,12.82,13V59a34,34,0,0,0,.46,5.3h-4.91a21.94,21.94,0,0,1-.33-4.58h-.13a11.57,11.57,0,0,1-10.08,5.36c-6.22,0-11.38-3.14-11.38-9.09,0-10.14,11.78-10.73,19.3-10.73h2v-.92c0-4.45-2.81-6.74-7.59-6.74a13.58,13.58,0,0,0-9.09,3.34Zm14.79,12c-6.48,0-10.66,1.77-10.66,5.89,0,3.86,2.88,5.3,6.74,5.3,5.89,0,8.9-4.25,9-9.22v-2Z"/><path class="cls-1" d="M328.06,18h8.18l15.7,36.31h.13L367.9,18h8V64.3h-5.5V25.44h-.13L353.64,64.3H350.3L333.69,25.44h-.13V64.3h-5.5Z"/><path class="cls-1" d="M386.09,37.6a17,17,0,0,1,12.17-4.71c9,0,12.82,4.32,12.82,13V59a34,34,0,0,0,.46,5.3h-4.91a21.94,21.94,0,0,1-.33-4.58h-.13a11.57,11.57,0,0,1-10.08,5.36c-6.22,0-11.38-3.14-11.38-9.09,0-10.14,11.78-10.73,19.3-10.73h2v-.92c0-4.45-2.81-6.74-7.59-6.74a13.58,13.58,0,0,0-9.09,3.34Zm14.79,12c-6.48,0-10.66,1.77-10.66,5.89,0,3.86,2.88,5.3,6.74,5.3,5.89,0,8.9-4.25,9-9.22v-2Z"/><path class="cls-1" d="M420.44,40.94c0-2.81-.26-5.23-.26-7.26H425c0,1.64.13,3.34.13,5h.13c1.37-3,5.17-5.82,10.21-5.82,8,0,11.65,5.1,11.65,12.5V64.3H442V45.91c0-5.1-2.22-8.31-7-8.31-6.61,0-9.49,4.78-9.49,11.78V64.3h-5.1Z"/><path class="cls-1" d="M456.43,37.6a17,17,0,0,1,12.17-4.71c9,0,12.82,4.32,12.82,13V59a34,34,0,0,0,.46,5.3H477a21.94,21.94,0,0,1-.33-4.58h-.13a11.57,11.57,0,0,1-10.08,5.36c-6.22,0-11.38-3.14-11.38-9.09,0-10.14,11.78-10.73,19.3-10.73h2v-.92c0-4.45-2.81-6.74-7.59-6.74a13.58,13.58,0,0,0-9.09,3.34Zm14.79,12c-6.48,0-10.66,1.77-10.66,5.89,0,3.86,2.88,5.3,6.74,5.3,5.89,0,8.9-4.25,9-9.22v-2Z"/><path class="cls-1" d="M521.33,62.92c0,11.06-6,17.08-16.68,17.08-6,0-10.73-1.57-15-5.82L493.26,70c3.21,3.47,6.67,5.3,11.38,5.3,9.16,0,11.58-5.89,11.58-12.36V59h-.13a12.51,12.51,0,0,1-10.8,5.69C495.68,64.69,489,58,489,49c0-10,6.54-16.09,16.29-16.09,4.12,0,8.77,2,10.8,6h.13V33.68h5.1ZM505.3,60c7,0,10.93-5.23,10.93-11.12,0-6.61-4.45-11.25-10.93-11.25s-10.8,5-10.8,11.38A10.81,10.81,0,0,0,505.3,60Z"/><path class="cls-1" d="M558.1,58.74c-3.6,4.64-7.92,6.35-13.61,6.35C534.87,65.08,529,57.89,529,49c0-9.49,6.67-16.09,15.7-16.09,8.64,0,14.52,5.89,14.52,16v1.64H534.48c.39,5.3,4.45,9.81,10,9.81a11.41,11.41,0,0,0,9.75-4.64Zm-4.38-12.5c-.2-5.17-3.6-8.64-9.22-8.64s-9.36,3.47-10,8.64Z"/><path class="cls-1" d="M567.13,40.94c0-2.81-.26-5.23-.26-7.26h4.84c0,1.64.13,3.34.13,5H572c1.37-3,5.17-5.82,10.21-5.82a6.06,6.06,0,0,1,2.09.33l-.33,5.17a9.63,9.63,0,0,0-2.75-.39c-6.22,0-9,4.38-9,11.38V64.3h-5.1Z"/></svg>