<svg id="Layer_1" data-name="Layer 1" xmlns="http://www.w3.org/2000/svg" viewBox="0 0 364.67 80"><defs><style>.cls-1{fill:#fff;}</style></defs><title>web-product-logos-data-suply-compliance</title><path class="cls-1" d="M0,20.35H18.52c9.47,0,23.63,6.33,23.63,24.11S28,68.57,18.52,68.57H0Zm5.72,42.9h10.9c11,0,19.41-5.58,19.41-18.79s-8.38-18.8-19.41-18.8H5.72Z"/><path class="cls-1" d="M122.59,20.35H137.3c8,0,16,3,16,11.85,0,5.58-3.27,9.33-8.44,10.9v.14a11.78,11.78,0,0,1,10.9,11.85c0,10.62-9.87,13.48-18.79,13.48H122.59Zm5.72,20.43h7.9c5.38,0,11-1.16,11-7.83,0-5.92-5.18-7.29-10.35-7.29h-8.51Zm0,22.47H138c5.58,0,11.64-2.25,11.64-8.38,0-6.74-5.72-8.78-11.51-8.78h-9.81Z"/><path class="cls-1" d="M53.26,12.85l54.44,56.5L102,74.88,93.38,66l-8.49,8.2A20.52,20.52,0,0,1,70.2,80h0A20.61,20.61,0,0,1,56.26,44.54l5.69-5.46,5.53,5.72-5.7,5.47A12.64,12.64,0,0,0,70.32,72h0a12.61,12.61,0,0,0,9-3.56l8.49-8.21L53.25,24.39V12.85Z"/><path class="cls-1" d="M92.68,21.88v8.23a12.08,12.08,0,0,1,4.57,3.08,12.67,12.67,0,0,1-.33,17.91l-.74.68,5.57,5.68.7-.65a20.61,20.61,0,0,0-9.76-34.95Z"/><path class="cls-1" d="M58.45,4.89,54.5,8.67,60,14.39,64,10.61A9.51,9.51,0,1,1,77.18,24.29L73.26,28l5.53,5.72L82.71,30A17.46,17.46,0,1,0,58.45,4.89Z"/><path class="cls-1" d="M181.6,19.23h19.05C210.4,19.23,225,25.75,225,44s-14.57,24.8-24.31,24.8H181.6Zm5.88,44.13H198.7c11.35,0,20-5.74,20-19.34S210,24.7,198.7,24.7H187.49Z"/><path class="cls-1" d="M236.67,19.23a4,4,0,0,1,4,4,4,4,0,1,1-8,0A4,4,0,0,1,236.67,19.23ZM233.94,36h5.46V68.83h-5.46Z"/><path class="cls-1" d="M250.26,43.82c0-3-.28-5.6-.28-7.78h5.18c0,1.75.14,3.57.14,5.39h.14c1.47-3.22,5.53-6.24,10.93-6.24a6.49,6.49,0,0,1,2.24.35l-.35,5.53a10.31,10.31,0,0,0-2.94-.42c-6.66,0-9.6,4.69-9.6,12.19v16h-5.46Z"/><path class="cls-1" d="M302.94,62.88c-3.85,5-8.48,6.79-14.57,6.79-10.3,0-16.6-7.71-16.6-17.23,0-10.16,7.15-17.23,16.81-17.23,9.25,0,15.55,6.3,15.55,17.16v1.75H277.65c.42,5.67,4.76,10.51,10.72,10.51a12.21,12.21,0,0,0,10.44-5ZM298.25,49.5c-.21-5.53-3.85-9.25-9.88-9.25s-10,3.71-10.72,9.25Z"/><path class="cls-1" d="M335.94,44.24a10.07,10.07,0,0,0-8.27-4c-7.36,0-11.07,5.46-11.07,12.19S321,64.63,327.67,64.63A9.57,9.57,0,0,0,336,60.57l4.06,3.85a15.93,15.93,0,0,1-12.4,5.25c-10.16,0-17-7.15-17-17.23s6.87-17.23,17-17.23a16.65,16.65,0,0,1,12.61,5.18Z"/><path class="cls-1" d="M364.31,40.67h-9.67V57.06c0,4.2.07,7.57,4.9,7.57a10.64,10.64,0,0,0,4.83-1.12l.21,5a16.62,16.62,0,0,1-6.37,1.19c-7.78,0-9-4.2-9-11v-18H342V36h7.15V26.73h5.46V36h9.67Z"/></svg>