<svg id="Layer_1" data-name="Layer 1" xmlns="http://www.w3.org/2000/svg" viewBox="0 0 1068.21 80"><defs><style>.cls-1{fill:#fff;}</style></defs><title>web-product-logos-data-suply-compliance</title><path class="cls-1" d="M201.68,27.1a13.36,13.36,0,0,0-5.21-4.25A15.38,15.38,0,0,0,190,21.43,16.18,16.18,0,0,0,182.85,23a17.93,17.93,0,0,0-5.64,4.25,19.53,19.53,0,0,0-3.69,6.2,20.83,20.83,0,0,0-1.32,7.36,21.57,21.57,0,0,0,1.32,7.62,19,19,0,0,0,3.66,6.13,17.16,17.16,0,0,0,5.61,4.12,18.1,18.1,0,0,0,14.87-.16,17.36,17.36,0,0,0,5.87-4.85l4.16,3.5a19.22,19.22,0,0,1-7.62,6.2,24.53,24.53,0,0,1-10.06,2,23.74,23.74,0,0,1-9.37-1.85,23,23,0,0,1-7.55-5.11,23.52,23.52,0,0,1-5-7.75,26,26,0,0,1-1.81-9.83A26.28,26.28,0,0,1,168,31.19a23.19,23.19,0,0,1,22-14.91A24.88,24.88,0,0,1,199.14,18a16.84,16.84,0,0,1,7.35,5.61Z"/><path class="cls-1" d="M241.39,56.85q0,2.11.13,4t.13,3.36h-4.88q0-1.25-.07-2.51t-.07-2.57h-.13A8.94,8.94,0,0,1,235,61.27a10.69,10.69,0,0,1-2.28,1.88,12.16,12.16,0,0,1-3,1.32,12.34,12.34,0,0,1-3.56.49A13.57,13.57,0,0,1,221,64a9.83,9.83,0,0,1-3.66-2.57,10.4,10.4,0,0,1-2.14-4,18,18,0,0,1-.69-5.11V33.3h5.15V51.83A9.86,9.86,0,0,0,221.34,58a6.3,6.3,0,0,0,5.34,2.24,10,10,0,0,0,4.32-.86,7.66,7.66,0,0,0,3-2.44,11,11,0,0,0,1.71-3.76,19.34,19.34,0,0,0,.56-4.81v-15h5.14Z"/><path class="cls-1" d="M251.81,56.06a13,13,0,0,0,3.33,3,8.58,8.58,0,0,0,4.58,1.12,11.33,11.33,0,0,0,2.41-.26,7.22,7.22,0,0,0,2.21-.86,4.9,4.9,0,0,0,1.58-1.48,3.77,3.77,0,0,0,.59-2.14,3.46,3.46,0,0,0-.56-2,4.91,4.91,0,0,0-1.48-1.35,8.42,8.42,0,0,0-2.11-.89q-1.19-.33-2.44-.59-2.18-.46-4.16-1.06A13.5,13.5,0,0,1,252.31,48a7.29,7.29,0,0,1-2.37-2.47,7.6,7.6,0,0,1-.89-3.89,7.78,7.78,0,0,1,1-4,8.58,8.58,0,0,1,2.64-2.84,12.93,12.93,0,0,1,3.69-1.71,15.06,15.06,0,0,1,4.22-.59,14.15,14.15,0,0,1,6.1,1.32,9.51,9.51,0,0,1,4.39,4.29L266.78,41a8,8,0,0,0-2.61-2.67,7.2,7.2,0,0,0-3.92-1,9.11,9.11,0,0,0-2.14.26,6.71,6.71,0,0,0-1.95.79,4.63,4.63,0,0,0-1.42,1.35,3.26,3.26,0,0,0-.56,1.88,2.42,2.42,0,0,0,.63,1.68,5.53,5.53,0,0,0,1.72,1.22,14.88,14.88,0,0,0,2.51.92A29.52,29.52,0,0,0,262,46a29.62,29.62,0,0,1,3.89,1,11.27,11.27,0,0,1,3.23,1.68,7.48,7.48,0,0,1,2.18,2.64,8.65,8.65,0,0,1,.79,3.89A8.91,8.91,0,0,1,271,59.75a8.73,8.73,0,0,1-2.8,3,12.28,12.28,0,0,1-4,1.68,19.42,19.42,0,0,1-4.52.53,17.37,17.37,0,0,1-6.83-1.22,12.39,12.39,0,0,1-5.18-4.52Z"/><path class="cls-1" d="M294.82,37.65h-9.1V53.09q0,1.52.07,2.8a5.78,5.78,0,0,0,.53,2.24,3.53,3.53,0,0,0,1.38,1.52,5.11,5.11,0,0,0,2.64.56,10.59,10.59,0,0,0,2.31-.26,9.58,9.58,0,0,0,2.24-.79l.2,4.68a11.76,11.76,0,0,1-2.94.86,19.1,19.1,0,0,1-3.07.26,11.14,11.14,0,0,1-4.42-.73,6,6,0,0,1-2.57-2,7.61,7.61,0,0,1-1.22-3.26,28.82,28.82,0,0,1-.3-4.32v-17h-6.73V33.3h6.73V24.53h5.14V33.3h9.1Z"/><path class="cls-1" d="M299.37,48.73a16.79,16.79,0,0,1,1.25-6.6A15.6,15.6,0,0,1,304.05,37a15.25,15.25,0,0,1,5.21-3.33,18.92,18.92,0,0,1,13.19,0A15.26,15.26,0,0,1,327.67,37a15.61,15.61,0,0,1,3.43,5.11,18,18,0,0,1,0,13.19,15.59,15.59,0,0,1-3.43,5.11,15.24,15.24,0,0,1-5.21,3.33,18.91,18.91,0,0,1-13.19,0,15.23,15.23,0,0,1-5.21-3.33,15.58,15.58,0,0,1-3.43-5.11A16.78,16.78,0,0,1,299.37,48.73Zm5.54,0a13.07,13.07,0,0,0,.76,4.52,10.42,10.42,0,0,0,5.67,6.07,11.9,11.9,0,0,0,9,0,10.42,10.42,0,0,0,5.67-6.07,13.83,13.83,0,0,0,0-9,10.42,10.42,0,0,0-5.67-6.07,11.91,11.91,0,0,0-9,0,10.43,10.43,0,0,0-5.67,6.07A13.07,13.07,0,0,0,304.91,48.73Z"/><path class="cls-1" d="M340.33,40.62q0-2.11-.13-4t-.13-3.36h4.88q0,1.25.07,2.51t.07,2.57h.13a8.9,8.9,0,0,1,1.48-2.18A10.7,10.7,0,0,1,349,34.32a12.18,12.18,0,0,1,3-1.32,12.33,12.33,0,0,1,3.56-.49,12.11,12.11,0,0,1,4.19.63,10.25,10.25,0,0,1,2.8,1.52,7.47,7.47,0,0,1,1.75,1.91q.63,1,1,1.81a14.27,14.27,0,0,1,4-4.32,10,10,0,0,1,5.8-1.55,15.09,15.09,0,0,1,5.54.89A8.81,8.81,0,0,1,384.2,36a10.15,10.15,0,0,1,2,4.09,22.49,22.49,0,0,1,.59,5.38V64.17h-5.14V45.7a14.57,14.57,0,0,0-.33-3.1,7.19,7.19,0,0,0-1.19-2.7A6.22,6.22,0,0,0,377.8,38a8.26,8.26,0,0,0-3.69-.73,7.41,7.41,0,0,0-3.1.66,7.78,7.78,0,0,0-2.54,1.85,8.67,8.67,0,0,0-1.72,2.87,10.59,10.59,0,0,0-.63,3.73V64.17H361V46.69q0-5.14-1.39-7.29A5,5,0,0,0,355,37.26a10,10,0,0,0-4.32.86,7.65,7.65,0,0,0-3,2.44A10.92,10.92,0,0,0,346,44.31a19.3,19.3,0,0,0-.56,4.82v15h-5.15Z"/><path class="cls-1" d="M422.78,58.56a15.67,15.67,0,0,1-6.07,5A19.25,19.25,0,0,1,409.06,65a16,16,0,0,1-6.53-1.29,14.71,14.71,0,0,1-4.91-3.46,15.17,15.17,0,0,1-3.1-5.15,18.24,18.24,0,0,1-1.09-6.33,17.69,17.69,0,0,1,1.19-6.56,15.21,15.21,0,0,1,3.3-5.14,14.83,14.83,0,0,1,5-3.33,16.56,16.56,0,0,1,6.33-1.19,15.76,15.76,0,0,1,5.94,1.09,12.87,12.87,0,0,1,4.65,3.17,14.23,14.23,0,0,1,3,5.08,20.54,20.54,0,0,1,1.06,6.83v1.65H399a10.81,10.81,0,0,0,1,3.79,11,11,0,0,0,2.14,3.17,9.9,9.9,0,0,0,3.1,2.14,9.48,9.48,0,0,0,3.89.79A12.3,12.3,0,0,0,414.74,59a12.89,12.89,0,0,0,4.16-3.5ZM418.36,46a8.87,8.87,0,0,0-2.57-6.33,9.24,9.24,0,0,0-6.73-2.38A9.51,9.51,0,0,0,399,46Z"/><path class="cls-1" d="M431.88,40.62q0-2.11-.13-4t-.13-3.36h4.88q0,1.25.07,2.51t.07,2.57h.13a8.9,8.9,0,0,1,1.48-2.18,10.7,10.7,0,0,1,2.28-1.88,12.18,12.18,0,0,1,3-1.32,12.33,12.33,0,0,1,3.56-.49,8.63,8.63,0,0,1,1.06.07,4.65,4.65,0,0,1,1.06.26L448.84,38a9.61,9.61,0,0,0-2.77-.4q-4.75,0-6.89,3.07T437,49.13v15h-5.15Z"/><path class="cls-1" d="M473,17.47h5.54v46.7H473Z"/><path class="cls-1" d="M489.27,40.62q0-2.11-.13-4T489,33.3h4.88q0,1.25.07,2.51t.07,2.57h.13a8.9,8.9,0,0,1,1.48-2.18,10.7,10.7,0,0,1,2.28-1.88,12.18,12.18,0,0,1,3-1.32,12.33,12.33,0,0,1,3.56-.49,13.56,13.56,0,0,1,5.24.92A9.87,9.87,0,0,1,513.35,36a10.44,10.44,0,0,1,2.14,4,18,18,0,0,1,.69,5.11V64.17H511V45.63a9.88,9.88,0,0,0-1.71-6.14A6.3,6.3,0,0,0,504,37.26a10,10,0,0,0-4.32.86,7.65,7.65,0,0,0-3,2.44A10.92,10.92,0,0,0,495,44.31a19.3,19.3,0,0,0-.56,4.82v15h-5.15Z"/><path class="cls-1" d="M542.83,37.65h-9.1V53.09q0,1.52.07,2.8a5.78,5.78,0,0,0,.53,2.24,3.53,3.53,0,0,0,1.38,1.52,5.11,5.11,0,0,0,2.64.56,10.59,10.59,0,0,0,2.31-.26,9.58,9.58,0,0,0,2.24-.79l.2,4.68a11.76,11.76,0,0,1-2.94.86,19.1,19.1,0,0,1-3.07.26,11.14,11.14,0,0,1-4.42-.73,6,6,0,0,1-2.57-2,7.61,7.61,0,0,1-1.22-3.26,28.82,28.82,0,0,1-.3-4.32v-17h-6.73V33.3h6.73V24.53h5.14V33.3h9.1Z"/><path class="cls-1" d="M575.42,58.56a15.67,15.67,0,0,1-6.07,5A19.25,19.25,0,0,1,561.7,65a16,16,0,0,1-6.53-1.29,14.71,14.71,0,0,1-4.91-3.46,15.17,15.17,0,0,1-3.1-5.15,18.24,18.24,0,0,1-1.09-6.33,17.69,17.69,0,0,1,1.19-6.56,15.21,15.21,0,0,1,3.3-5.14,14.83,14.83,0,0,1,5-3.33,16.56,16.56,0,0,1,6.33-1.19,15.76,15.76,0,0,1,5.94,1.09,12.87,12.87,0,0,1,4.65,3.17,14.23,14.23,0,0,1,3,5.08,20.54,20.54,0,0,1,1.06,6.83v1.65H551.6a10.81,10.81,0,0,0,1,3.79,11,11,0,0,0,2.14,3.17,9.9,9.9,0,0,0,3.1,2.14,9.48,9.48,0,0,0,3.89.79A12.3,12.3,0,0,0,567.37,59a12.89,12.89,0,0,0,4.16-3.5ZM571,46a8.87,8.87,0,0,0-2.57-6.33,9.24,9.24,0,0,0-6.73-2.38A9.51,9.51,0,0,0,551.6,46Z"/><path class="cls-1" d="M615.32,62.78q0,8.44-4.32,12.83T598.5,80a24.1,24.1,0,0,1-8.21-1.32,19.41,19.41,0,0,1-7-4.55L587,69.91a17.93,17.93,0,0,0,5.18,4,15.84,15.84,0,0,0,12,.33,9,9,0,0,0,3.6-2.77,10.58,10.58,0,0,0,1.85-4,20.39,20.39,0,0,0,.53-4.68v-4H610a11.17,11.17,0,0,1-4.82,4.35,14.21,14.21,0,0,1-6.07,1.38,18.13,18.13,0,0,1-6.66-1.19,15.49,15.49,0,0,1-5.21-3.3,14.59,14.59,0,0,1-3.36-5,16.56,16.56,0,0,1-1.19-6.33,18.51,18.51,0,0,1,1.19-6.79,14.22,14.22,0,0,1,3.33-5.11,14.61,14.61,0,0,1,5.18-3.2,19.29,19.29,0,0,1,6.73-1.12,14.18,14.18,0,0,1,3.17.36A13.23,13.23,0,0,1,605.4,34a11,11,0,0,1,2.67,1.91,10.42,10.42,0,0,1,2,2.67h.13V33.3h5.14Zm-27-14a11.06,11.06,0,0,0,.86,4.39,10.94,10.94,0,0,0,2.34,3.5A11.06,11.06,0,0,0,594.94,59a10.5,10.5,0,0,0,4.22.86,11.25,11.25,0,0,0,4.68-.92,10.36,10.36,0,0,0,5.61-6,12.46,12.46,0,0,0,.73-4.25,12.78,12.78,0,0,0-.79-4.58,10.61,10.61,0,0,0-2.24-3.59,9.9,9.9,0,0,0-3.5-2.34,11.89,11.89,0,0,0-4.49-.82,10.88,10.88,0,0,0-4.45.89,10.16,10.16,0,0,0-3.43,2.44,11.23,11.23,0,0,0-2.21,3.63A12.59,12.59,0,0,0,588.28,48.73Z"/><path class="cls-1" d="M624.82,40.62q0-2.11-.13-4t-.13-3.36h4.88q0,1.25.07,2.51t.06,2.57h.13a8.88,8.88,0,0,1,1.48-2.18,10.73,10.73,0,0,1,2.28-1.88,12.15,12.15,0,0,1,3-1.32,12.33,12.33,0,0,1,3.56-.49,8.59,8.59,0,0,1,1.05.07,4.67,4.67,0,0,1,1.06.26L641.77,38a9.61,9.61,0,0,0-2.77-.4q-4.75,0-6.89,3.07T630,49.13v15h-5.15Z"/><path class="cls-1" d="M646.33,37.26A14.51,14.51,0,0,1,652,33.66a19.77,19.77,0,0,1,6.63-1.15q6.86,0,9.89,3.23t3,9.83V58.83q0,1.32.13,2.74t.33,2.61H667a10.78,10.78,0,0,1-.3-2.34q0-1.29,0-2.28h-.13a12.08,12.08,0,0,1-4.06,3.89,11.69,11.69,0,0,1-6.1,1.52,16.16,16.16,0,0,1-4.45-.59,11.14,11.14,0,0,1-3.63-1.75,8.62,8.62,0,0,1-2.47-2.87,8.2,8.2,0,0,1-.92-4,8.59,8.59,0,0,1,2-6,12,12,0,0,1,4.91-3.23,24.22,24.22,0,0,1,6.33-1.32q3.4-.26,6.23-.26h2v-.92a6.31,6.31,0,0,0-2-5.08,8.44,8.44,0,0,0-5.64-1.72,15.08,15.08,0,0,0-4.92.82,11.81,11.81,0,0,0-4.25,2.54Zm14.91,12.07a18.45,18.45,0,0,0-7.85,1.39,4.7,4.7,0,0,0-2.9,4.55,4.48,4.48,0,0,0,1.95,4.12,9,9,0,0,0,4.85,1.22,9.47,9.47,0,0,0,3.92-.76,8.24,8.24,0,0,0,2.8-2,8.67,8.67,0,0,0,1.71-2.94,12,12,0,0,0,.66-3.59v-2Z"/><path class="cls-1" d="M697.84,37.65h-9.1V53.09q0,1.52.07,2.8a5.79,5.79,0,0,0,.53,2.24,3.53,3.53,0,0,0,1.39,1.52,5.1,5.1,0,0,0,2.64.56,10.58,10.58,0,0,0,2.31-.26,9.58,9.58,0,0,0,2.24-.79l.2,4.68a11.76,11.76,0,0,1-2.93.86,19.12,19.12,0,0,1-3.07.26,11.14,11.14,0,0,1-4.42-.73,6,6,0,0,1-2.57-2,7.6,7.6,0,0,1-1.22-3.26,28.76,28.76,0,0,1-.3-4.32v-17h-6.73V33.3h6.73V24.53h5.14V33.3h9.1Z"/><path class="cls-1" d="M703.51,21.23a3.67,3.67,0,0,1,1.09-2.64,3.74,3.74,0,0,1,5.34,0,3.79,3.79,0,1,1-6.43,2.64ZM704.7,33.3h5.15V64.17H704.7Z"/><path class="cls-1" d="M718.29,48.73a16.78,16.78,0,0,1,1.25-6.6A15.59,15.59,0,0,1,723,37a15.25,15.25,0,0,1,5.21-3.33,18.92,18.92,0,0,1,13.19,0A15.26,15.26,0,0,1,746.59,37,15.6,15.6,0,0,1,750,42.14a18,18,0,0,1,0,13.19,15.58,15.58,0,0,1-3.43,5.11,15.24,15.24,0,0,1-5.21,3.33,18.91,18.91,0,0,1-13.19,0A15.23,15.23,0,0,1,723,60.44a15.57,15.57,0,0,1-3.43-5.11A16.77,16.77,0,0,1,718.29,48.73Zm5.54,0a13.06,13.06,0,0,0,.76,4.52,10.42,10.42,0,0,0,5.67,6.07,11.9,11.9,0,0,0,9,0A10.42,10.42,0,0,0,745,53.25a13.84,13.84,0,0,0,0-9,10.42,10.42,0,0,0-5.67-6.07,11.91,11.91,0,0,0-9,0,10.42,10.42,0,0,0-5.67,6.07A13.06,13.06,0,0,0,723.83,48.73Z"/><path class="cls-1" d="M757.93,40.62q0-2.11-.13-4t-.13-3.36h4.88q0,1.25.07,2.51t.07,2.57h.13a8.91,8.91,0,0,1,1.48-2.18,10.71,10.71,0,0,1,2.28-1.88,12.16,12.16,0,0,1,3-1.32,12.33,12.33,0,0,1,3.56-.49,13.56,13.56,0,0,1,5.24.92A9.86,9.86,0,0,1,782,36a10.43,10.43,0,0,1,2.14,4,18,18,0,0,1,.69,5.11V64.17H779.7V45.63A9.88,9.88,0,0,0,778,39.5a6.3,6.3,0,0,0-5.34-2.24,10,10,0,0,0-4.32.86,7.65,7.65,0,0,0-3,2.44,10.94,10.94,0,0,0-1.71,3.76,19.3,19.3,0,0,0-.56,4.82v15h-5.15Z"/><path class="cls-1" d="M813.87,17.47h8.25l15.83,36.61h.13l16-36.61h8v46.7h-5.54V25h-.13L839.66,64.17h-3.36L819.54,25h-.13V64.17h-5.54Z"/><path class="cls-1" d="M871.05,37.26a14.51,14.51,0,0,1,5.64-3.59,19.77,19.77,0,0,1,6.63-1.15q6.86,0,9.89,3.23t3,9.83V58.83q0,1.32.13,2.74t.33,2.61h-4.95a10.78,10.78,0,0,1-.3-2.34q0-1.29,0-2.28h-.13a12.08,12.08,0,0,1-4.06,3.89,11.69,11.69,0,0,1-6.1,1.52,16.16,16.16,0,0,1-4.45-.59,11.14,11.14,0,0,1-3.63-1.75,8.62,8.62,0,0,1-2.47-2.87,8.2,8.2,0,0,1-.92-4,8.59,8.59,0,0,1,2-6,12,12,0,0,1,4.91-3.23,24.22,24.22,0,0,1,6.33-1.32q3.4-.26,6.23-.26h2v-.92a6.31,6.31,0,0,0-2-5.08,8.44,8.44,0,0,0-5.64-1.72,15.08,15.08,0,0,0-4.92.82,11.81,11.81,0,0,0-4.25,2.54ZM886,49.33a18.45,18.45,0,0,0-7.85,1.39,4.7,4.7,0,0,0-2.9,4.55,4.48,4.48,0,0,0,1.95,4.12A9,9,0,0,0,882,60.61a9.47,9.47,0,0,0,3.92-.76,8.24,8.24,0,0,0,2.8-2,8.67,8.67,0,0,0,1.71-2.94,12,12,0,0,0,.66-3.59v-2Z"/><path class="cls-1" d="M905.68,40.62q0-2.11-.13-4t-.13-3.36h4.88q0,1.25.07,2.51t.07,2.57h.13A8.91,8.91,0,0,1,912,36.2a10.71,10.71,0,0,1,2.28-1.88,12.16,12.16,0,0,1,3-1.32,12.33,12.33,0,0,1,3.56-.49,13.56,13.56,0,0,1,5.24.92A9.86,9.86,0,0,1,929.76,36a10.43,10.43,0,0,1,2.14,4,18,18,0,0,1,.69,5.11V64.17h-5.14V45.63a9.88,9.88,0,0,0-1.71-6.14,6.3,6.3,0,0,0-5.34-2.24,10,10,0,0,0-4.32.86,7.65,7.65,0,0,0-3,2.44,10.94,10.94,0,0,0-1.71,3.76,19.3,19.3,0,0,0-.56,4.82v15h-5.15Z"/><path class="cls-1" d="M940.65,37.26a14.51,14.51,0,0,1,5.64-3.59,19.77,19.77,0,0,1,6.63-1.15q6.86,0,9.89,3.23t3,9.83V58.83q0,1.32.13,2.74t.33,2.61h-4.95a10.78,10.78,0,0,1-.3-2.34q0-1.29,0-2.28h-.13a12.08,12.08,0,0,1-4.06,3.89,11.69,11.69,0,0,1-6.1,1.52,16.16,16.16,0,0,1-4.45-.59,11.14,11.14,0,0,1-3.63-1.75,8.62,8.62,0,0,1-2.47-2.87,8.2,8.2,0,0,1-.92-4,8.59,8.59,0,0,1,2-6,12,12,0,0,1,4.91-3.23,24.22,24.22,0,0,1,6.33-1.32q3.4-.26,6.23-.26h2v-.92a6.31,6.31,0,0,0-2-5.08A8.44,8.44,0,0,0,953,37.26a15.08,15.08,0,0,0-4.92.82,11.81,11.81,0,0,0-4.25,2.54Zm14.91,12.07a18.45,18.45,0,0,0-7.85,1.39,4.7,4.7,0,0,0-2.9,4.55,4.48,4.48,0,0,0,1.95,4.12,9,9,0,0,0,4.85,1.22,9.47,9.47,0,0,0,3.92-.76,8.24,8.24,0,0,0,2.8-2A8.67,8.67,0,0,0,960,54.9a12,12,0,0,0,.66-3.59v-2Z"/><path class="cls-1" d="M1006.08,62.78q0,8.44-4.32,12.83T989.26,80A24.1,24.1,0,0,1,981,78.68a19.41,19.41,0,0,1-7-4.55l3.69-4.22a18,18,0,0,0,5.18,4,15.84,15.84,0,0,0,12,.33,9,9,0,0,0,3.59-2.77,10.58,10.58,0,0,0,1.85-4,20.41,20.41,0,0,0,.53-4.68v-4h-.13A11.18,11.18,0,0,1,996,63.18a14.22,14.22,0,0,1-6.07,1.38,18.13,18.13,0,0,1-6.66-1.19,15.49,15.49,0,0,1-5.21-3.3,14.59,14.59,0,0,1-3.36-5,16.56,16.56,0,0,1-1.19-6.33,18.51,18.51,0,0,1,1.19-6.79A14.22,14.22,0,0,1,978,36.83a14.61,14.61,0,0,1,5.18-3.2,19.29,19.29,0,0,1,6.73-1.12,14.18,14.18,0,0,1,3.17.36A13.24,13.24,0,0,1,996.15,34a11,11,0,0,1,2.67,1.91,10.4,10.4,0,0,1,2,2.67h.13V33.3h5.15Zm-27-14A11,11,0,0,0,985.7,59a10.5,10.5,0,0,0,4.22.86,11.25,11.25,0,0,0,4.68-.92,10.36,10.36,0,0,0,5.61-6,12.46,12.46,0,0,0,.73-4.25,12.77,12.77,0,0,0-.79-4.58,10.6,10.6,0,0,0-2.24-3.59,9.91,9.91,0,0,0-3.5-2.34,11.9,11.9,0,0,0-4.49-.82,10.88,10.88,0,0,0-4.45.89A10.16,10.16,0,0,0,982,40.59a11.22,11.22,0,0,0-2.21,3.63A12.58,12.58,0,0,0,979,48.73Z"/><path class="cls-1" d="M1041.83,58.56a15.67,15.67,0,0,1-6.07,5,19.25,19.25,0,0,1-7.65,1.42,16,16,0,0,1-6.53-1.29,14.71,14.71,0,0,1-4.91-3.46,15.17,15.17,0,0,1-3.1-5.15,18.23,18.23,0,0,1-1.09-6.33,17.69,17.69,0,0,1,1.19-6.56A15.22,15.22,0,0,1,1017,37a14.82,14.82,0,0,1,5-3.33,16.56,16.56,0,0,1,6.33-1.19,15.76,15.76,0,0,1,5.94,1.09,12.87,12.87,0,0,1,4.65,3.17,14.23,14.23,0,0,1,3,5.08,20.54,20.54,0,0,1,1.06,6.83v1.65H1018a10.81,10.81,0,0,0,1,3.79,11,11,0,0,0,2.14,3.17,9.91,9.91,0,0,0,3.1,2.14,9.48,9.48,0,0,0,3.89.79,12.3,12.3,0,0,0,5.67-1.19,12.88,12.88,0,0,0,4.16-3.5ZM1037.41,46a8.87,8.87,0,0,0-2.57-6.33,9.24,9.24,0,0,0-6.73-2.38A9.51,9.51,0,0,0,1018,46Z"/><path class="cls-1" d="M1050.93,40.62q0-2.11-.13-4t-.13-3.36h4.88q0,1.25.07,2.51t.07,2.57h.13a8.91,8.91,0,0,1,1.48-2.18,10.71,10.71,0,0,1,2.28-1.88,12.16,12.16,0,0,1,3-1.32,12.33,12.33,0,0,1,3.56-.49,8.61,8.61,0,0,1,1.06.07,4.65,4.65,0,0,1,1.06.26l-.33,5.21a9.61,9.61,0,0,0-2.77-.4q-4.75,0-6.89,3.07t-2.14,8.41v15h-5.15Z"/><path class="cls-1" d="M0,19H17.23c8.81,0,22,5.89,22,22.43S26,63.81,17.23,63.81H0ZM5.32,58.87H15.46c10.26,0,18.06-5.2,18.06-17.49S25.72,23.89,15.46,23.89H5.32Z"/><path class="cls-1" d="M114.06,19h13.69c7.41,0,14.89,2.79,14.89,11,0,5.2-3,8.68-7.86,10.14v.13a11,11,0,0,1,10.14,11c0,9.88-9.19,12.55-17.49,12.55H114.06Zm5.32,19h7.35c5,0,10.2-1.08,10.2-7.29,0-5.51-4.82-6.78-9.63-6.78h-7.92Zm0,20.91h9c5.2,0,10.83-2.09,10.83-7.79,0-6.27-5.32-8.17-10.71-8.17h-9.12Z"/><path class="cls-1" d="M49.55,12,100.2,64.55l-5.32,5.14-8-8.28L79,69a19.09,19.09,0,0,1-13.66,5.39h0a19.17,19.17,0,0,1-13-33l5.29-5.08,5.15,5.32-5.3,5.09A11.76,11.76,0,0,0,65.43,67h0a11.73,11.73,0,0,0,8.4-3.32l7.9-7.63L49.55,22.71V12Z"/><path class="cls-1" d="M86.23,20.37V28a11.24,11.24,0,0,1,4.25,2.86,11.79,11.79,0,0,1-.31,16.66l-.69.64,5.18,5.29.65-.6a19.17,19.17,0,0,0-9.08-32.51Z"/><path class="cls-1" d="M54.38,4.56,50.71,8.08l5.14,5.32,3.67-3.52A8.85,8.85,0,1,1,71.81,22.61L68.17,26.1l5.14,5.32L77,27.94A16.25,16.25,0,1,0,54.38,4.56Z"/></svg>