<svg id="Layer_1" data-name="Layer 1" xmlns="http://www.w3.org/2000/svg" viewBox="0 0 384.06 80"><defs><style>.cls-1{fill:#fff;}</style></defs><title>web-product-logos-data-suply-compliance</title><path class="cls-1" d="M0,20.37H18.52c9.47,0,23.63,6.33,23.63,24.11S28,68.58,18.52,68.58H0Zm5.72,42.9h10.9c11,0,19.41-5.58,19.41-18.79s-8.38-18.8-19.41-18.8H5.72Z"/><path class="cls-1" d="M122.59,20.37H137.3c8,0,16,3,16,11.85,0,5.58-3.27,9.33-8.44,10.9v.14a11.78,11.78,0,0,1,10.9,11.85c0,10.62-9.87,13.48-18.79,13.48H122.59Zm5.72,20.43h7.9c5.38,0,11-1.16,11-7.83,0-5.92-5.18-7.29-10.35-7.29h-8.51Zm0,22.47H138c5.58,0,11.64-2.25,11.64-8.38,0-6.74-5.72-8.78-11.51-8.78h-9.81Z"/><path class="cls-1" d="M53.26,12.87l54.44,56.5L102,74.9,93.38,66l-8.49,8.2A20.52,20.52,0,0,1,70.2,80h0A20.61,20.61,0,0,1,56.26,44.56l5.69-5.46,5.53,5.72-5.7,5.47A12.64,12.64,0,0,0,70.32,72h0a12.61,12.61,0,0,0,9-3.56l8.49-8.21L53.25,24.41V12.87Z"/><path class="cls-1" d="M92.68,21.9v8.23a12.08,12.08,0,0,1,4.57,3.08,12.67,12.67,0,0,1-.33,17.91l-.74.68,5.57,5.68.7-.65A20.61,20.61,0,0,0,92.68,21.9Z"/><path class="cls-1" d="M58.45,4.9,54.5,8.68,60,14.41,64,10.63A9.51,9.51,0,1,1,77.18,24.31l-3.92,3.75,5.53,5.72L82.71,30A17.46,17.46,0,1,0,58.45,4.9Z"/><path class="cls-1" d="M215.79,24.71H199.4V68.85h-5.88V24.71H177.12V19.25h38.67Z"/><path class="cls-1" d="M229.59,35.22c10.09,0,17.51,7,17.51,17.23s-7.43,17.23-17.51,17.23-17.51-7-17.51-17.23S219.5,35.22,229.59,35.22Zm0,29.42c7.08,0,11.63-5.32,11.63-12.19s-4.55-12.19-11.63-12.19S218,45.59,218,52.46,222.52,64.65,229.59,64.65Z"/><path class="cls-1" d="M271.21,35.22c10.09,0,17.51,7,17.51,17.23s-7.43,17.23-17.51,17.23-17.51-7-17.51-17.23S261.12,35.22,271.21,35.22Zm0,29.42c7.08,0,11.63-5.32,11.63-12.19s-4.55-12.19-11.63-12.19-11.63,5.32-11.63,12.19S264.13,64.65,271.21,64.65Z"/><path class="cls-1" d="M297.69,15.89h5.46v53h-5.46Z"/><path class="cls-1" d="M314,15.89h5.46V50.49l14.92-14.43h7.78L326.34,51l17.44,17.86h-8.06L319.47,51.62V68.85H314Z"/><path class="cls-1" d="M352.26,19.25a4,4,0,0,1,4,4,4,4,0,1,1-8,0A4,4,0,0,1,352.26,19.25Zm-2.73,16.81H355V68.85h-5.46Z"/><path class="cls-1" d="M383.78,40.69h-9.67V57.08c0,4.2.07,7.57,4.9,7.57a10.64,10.64,0,0,0,4.83-1.12l.21,5a16.62,16.62,0,0,1-6.37,1.19c-7.78,0-9-4.2-9-11v-18h-7.15V36.06h7.15V26.75h5.46v9.32h9.67Z"/></svg>