<?xml version="1.0" encoding="utf-8"?>
<!-- Generator: Adobe Illustrator 21.1.0, SVG Export Plug-In . SVG Version: 6.00 Build 0)  -->
<svg version="1.1" xmlns="http://www.w3.org/2000/svg" xmlns:xlink="http://www.w3.org/1999/xlink" x="0px" y="0px"
	 viewBox="0 0 419.1 80" style="enable-background:new 0 0 419.1 80;" xml:space="preserve">
<style type="text/css">
	.st0{display:none;}
	.st1{display:inline;}
	.st2{fill:#FFFFFF;}
</style>
<g id="Layer_2" class="st0">
	<rect class="st1" width="419.1" height="80"/>
</g>
<g id="Layer_1">
	<g>
		<g>
			<path class="st2" d="M181.3,20.3h5.8v20.6h26V20.3h5.8V69H213V46.3h-26V69h-5.8V20.3z"/>
			<path class="st2" d="M223.8,52.9c0-2.5,0.4-4.8,1.3-6.9c0.9-2.1,2.1-3.8,3.6-5.3c1.5-1.5,3.3-2.6,5.4-3.5
				c2.1-0.8,4.4-1.2,6.9-1.2c2.5,0,4.8,0.4,6.9,1.2c2.1,0.8,3.9,2,5.4,3.5c1.5,1.5,2.7,3.3,3.6,5.3c0.9,2.1,1.3,4.4,1.3,6.9
				c0,2.5-0.4,4.8-1.3,6.9c-0.9,2.1-2.1,3.8-3.6,5.3c-1.5,1.5-3.3,2.6-5.4,3.5c-2.1,0.8-4.4,1.2-6.9,1.2c-2.5,0-4.8-0.4-6.9-1.2
				c-2.1-0.8-3.9-2-5.4-3.5c-1.5-1.5-2.7-3.3-3.6-5.3C224.3,57.7,223.8,55.4,223.8,52.9z M229.6,52.9c0,1.7,0.3,3.3,0.8,4.7
				c0.5,1.4,1.3,2.7,2.3,3.8c1,1.1,2.2,1.9,3.6,2.5c1.4,0.6,3,0.9,4.7,0.9c1.7,0,3.3-0.3,4.7-0.9c1.4-0.6,2.6-1.5,3.6-2.5
				c1-1.1,1.8-2.3,2.3-3.8c0.5-1.4,0.8-3,0.8-4.7c0-1.7-0.3-3.3-0.8-4.7c-0.5-1.4-1.3-2.7-2.3-3.8c-1-1.1-2.2-1.9-3.6-2.5
				c-1.4-0.6-3-0.9-4.7-0.9c-1.7,0-3.3,0.3-4.7,0.9c-1.4,0.6-2.6,1.5-3.6,2.5c-1,1.1-1.8,2.3-2.3,3.8
				C229.9,49.6,229.6,51.2,229.6,52.9z"/>
			<path class="st2" d="M263.4,52.9c0-2.5,0.4-4.8,1.3-6.9c0.9-2.1,2.1-3.8,3.6-5.3c1.5-1.5,3.3-2.6,5.4-3.5
				c2.1-0.8,4.4-1.2,6.9-1.2c2.5,0,4.8,0.4,6.9,1.2c2.1,0.8,3.9,2,5.4,3.5c1.5,1.5,2.7,3.3,3.6,5.3c0.9,2.1,1.3,4.4,1.3,6.9
				c0,2.5-0.4,4.8-1.3,6.9c-0.9,2.1-2.1,3.8-3.6,5.3c-1.5,1.5-3.3,2.6-5.4,3.5c-2.1,0.8-4.4,1.2-6.9,1.2c-2.5,0-4.8-0.4-6.9-1.2
				c-2.1-0.8-3.9-2-5.4-3.5c-1.5-1.5-2.7-3.3-3.6-5.3C263.9,57.7,263.4,55.4,263.4,52.9z M269.2,52.9c0,1.7,0.3,3.3,0.8,4.7
				c0.5,1.4,1.3,2.7,2.3,3.8c1,1.1,2.2,1.9,3.6,2.5c1.4,0.6,3,0.9,4.7,0.9c1.7,0,3.3-0.3,4.7-0.9c1.4-0.6,2.6-1.5,3.6-2.5
				c1-1.1,1.8-2.3,2.3-3.8c0.5-1.4,0.8-3,0.8-4.7c0-1.7-0.3-3.3-0.8-4.7c-0.5-1.4-1.3-2.7-2.3-3.8c-1-1.1-2.2-1.9-3.6-2.5
				c-1.4-0.6-3-0.9-4.7-0.9c-1.7,0-3.3,0.3-4.7,0.9c-1.4,0.6-2.6,1.5-3.6,2.5c-1,1.1-1.8,2.3-2.3,3.8
				C269.5,49.6,269.2,51.2,269.2,52.9z"/>
			<path class="st2" d="M318.9,69H313l-13.1-32.2h6.3l10,25.2h0.1l9.5-25.2h5.8L318.9,69z"/>
			<path class="st2" d="M364.9,63.1c-1.9,2.5-4,4.2-6.3,5.2c-2.3,1-4.9,1.5-8,1.5c-2.5,0-4.8-0.4-6.8-1.3c-2-0.9-3.7-2.1-5.1-3.6
				c-1.4-1.5-2.5-3.3-3.2-5.4c-0.8-2.1-1.1-4.3-1.1-6.6c0-2.5,0.4-4.8,1.2-6.8c0.8-2.1,2-3.9,3.4-5.4c1.5-1.5,3.2-2.6,5.2-3.5
				c2-0.8,4.2-1.2,6.6-1.2c2.2,0,4.3,0.4,6.2,1.1c1.9,0.8,3.5,1.9,4.8,3.3c1.4,1.4,2.4,3.2,3.1,5.3c0.7,2.1,1.1,4.5,1.1,7.1v1.7h-26
				c0.1,1.4,0.4,2.7,1,3.9c0.6,1.3,1.3,2.4,2.2,3.3c0.9,0.9,2,1.7,3.2,2.2c1.2,0.5,2.6,0.8,4.1,0.8c2.3,0,4.3-0.4,5.9-1.2
				c1.6-0.8,3-2,4.3-3.6L364.9,63.1z M360.3,50c-0.1-2.7-1-4.9-2.7-6.6c-1.7-1.6-4-2.5-7-2.5c-3,0-5.4,0.8-7.2,2.5
				c-1.8,1.6-2.9,3.8-3.3,6.6H360.3z"/>
			<path class="st2" d="M373.2,44.4c0-1.5,0-2.8-0.1-4.1c-0.1-1.3-0.1-2.4-0.1-3.5h5.1c0,0.9,0,1.7,0.1,2.6c0,0.9,0.1,1.8,0.1,2.7
				h0.1c0.4-0.8,0.9-1.5,1.5-2.3c0.7-0.7,1.5-1.4,2.4-2c0.9-0.6,1.9-1,3.1-1.4c1.1-0.3,2.4-0.5,3.7-0.5c0.4,0,0.7,0,1.1,0.1
				c0.4,0,0.7,0.1,1.1,0.3l-0.3,5.4c-0.9-0.3-1.9-0.4-2.9-0.4c-3.3,0-5.7,1.1-7.2,3.2c-1.5,2.1-2.2,5-2.2,8.8V69h-5.4V44.4z"/>
			<path class="st2" d="M398,60.5c1.1,1.3,2.2,2.4,3.5,3.2c1.3,0.8,2.9,1.2,4.8,1.2c0.8,0,1.7-0.1,2.5-0.3c0.8-0.2,1.6-0.5,2.3-0.9
				c0.7-0.4,1.2-0.9,1.6-1.5c0.4-0.6,0.6-1.4,0.6-2.2c0-0.9-0.2-1.6-0.6-2.1c-0.4-0.5-0.9-1-1.5-1.4c-0.6-0.4-1.4-0.7-2.2-0.9
				c-0.8-0.2-1.7-0.4-2.5-0.6c-1.5-0.3-3-0.7-4.3-1.1c-1.4-0.4-2.6-0.9-3.6-1.6c-1-0.7-1.9-1.5-2.5-2.6c-0.6-1.1-0.9-2.4-0.9-4.1
				c0-1.6,0.3-2.9,1-4.1c0.7-1.2,1.6-2.2,2.7-3c1.1-0.8,2.4-1.4,3.8-1.8c1.4-0.4,2.9-0.6,4.4-0.6c2.3,0,4.4,0.5,6.4,1.4
				c1.9,0.9,3.5,2.4,4.6,4.5l-4.5,3c-0.7-1.1-1.6-2.1-2.7-2.8c-1.1-0.7-2.5-1.1-4.1-1.1c-0.7,0-1.5,0.1-2.2,0.3
				c-0.8,0.2-1.4,0.5-2,0.8c-0.6,0.4-1.1,0.8-1.5,1.4c-0.4,0.6-0.6,1.2-0.6,2c0,0.7,0.2,1.3,0.7,1.8c0.4,0.5,1,0.9,1.8,1.3
				c0.8,0.4,1.6,0.7,2.6,1c1,0.3,2,0.5,3.1,0.7c1.4,0.3,2.8,0.6,4.1,1.1c1.3,0.4,2.4,1,3.4,1.8c1,0.7,1.7,1.6,2.3,2.7
				c0.6,1.1,0.8,2.5,0.8,4.1c0,1.8-0.4,3.4-1.1,4.7c-0.7,1.3-1.7,2.3-2.9,3.1c-1.2,0.8-2.6,1.4-4.1,1.8c-1.5,0.4-3.1,0.5-4.7,0.5
				c-2.7,0-5.1-0.4-7.1-1.3c-2-0.8-3.8-2.4-5.4-4.7L398,60.5z"/>
		</g>
		<g>
			<g>
				<path class="st2" d="M0,20.4h18.5c9.5,0,23.6,6.3,23.6,24.1c0,17.8-14.2,24.1-23.6,24.1H0V20.4z M5.7,63.3h10.9
					c11,0,19.4-5.6,19.4-18.8c0-13.2-8.4-18.8-19.4-18.8H5.7V63.3z"/>
			</g>
			<g>
				<path class="st2" d="M122.6,20.4h14.7c8,0,16,3,16,11.8c0,5.6-3.3,9.3-8.4,10.9v0.1c6.2,0.5,10.9,5.5,10.9,11.8
					c0,10.6-9.9,13.5-18.8,13.5h-14.4V20.4z M128.3,40.8h7.9c5.4,0,11-1.2,11-7.8c0-5.9-5.2-7.3-10.4-7.3h-8.5V40.8z M128.3,63.3
					h9.7c5.6,0,11.6-2.2,11.6-8.4c0-6.7-5.7-8.8-11.5-8.8h-9.8V63.3z"/>
			</g>
			<path class="st2" d="M53.3,12.9l54.4,56.5l-5.7,5.5L93.4,66l-8.5,8.2c-4,3.8-9.2,5.9-14.7,5.8l0,0c-5.5-0.1-10.6-2.3-14.5-6.3
				c-3.8-4-5.9-9.2-5.8-14.7c0.1-5.5,2.3-10.6,6.3-14.5l5.7-5.5l5.5,5.7l-5.7,5.5c-2.4,2.4-3.8,5.5-3.9,8.9c-0.1,3.4,1.2,6.6,3.5,9
				c2.3,2.4,5.5,3.8,8.9,3.9l0,0c3.4,0.1,6.6-1.2,9-3.6l8.5-8.2L53.3,24.4L53.3,12.9L53.3,12.9z"/>
			<path class="st2" d="M92.7,21.9v8.2c1.8,0.6,3.2,1.7,4.6,3.1c2.3,2.4,3.6,5.6,3.5,9c-0.1,3.4-1.4,6.5-3.9,8.9l-0.7,0.7l5.6,5.7
				l0.7-0.6c4-3.8,6.2-9,6.3-14.5c0.1-5.5-1.9-10.7-5.8-14.7C100.1,24.7,96.6,22.8,92.7,21.9z"/>
			<path class="st2" d="M58.4,4.9l-3.9,3.8l5.5,5.7l3.9-3.8c3.8-3.7,9.8-3.6,13.5,0.2c3.6,3.8,3.5,9.8-0.3,13.5l-3.9,3.8l5.5,5.7
				l3.9-3.8c6.9-6.7,7.1-17.8,0.4-24.7C76.5-1.6,65.4-1.8,58.4,4.9z"/>
		</g>
	</g>
</g>
</svg>
