<?xml version="1.0" encoding="utf-8"?>
<!-- Generator: Adobe Illustrator 21.1.0, SVG Export Plug-In . SVG Version: 6.00 Build 0)  -->
<svg version="1.1" xmlns="http://www.w3.org/2000/svg" xmlns:xlink="http://www.w3.org/1999/xlink" x="0px" y="0px"
	 viewBox="0 0 571 80" style="enable-background:new 0 0 571 80;" xml:space="preserve">
<style type="text/css">
	.st0{display:none;}
	.st1{display:inline;}
	.st2{fill:#FFFFFF;}
</style>
<g id="Layer_2" class="st0">
	<rect class="st1" width="571" height="80"/>
</g>
<g id="Layer_1">
	<g>
		<g>
			<g>
				<path class="st2" d="M0,20.4h18.5c9.5,0,23.6,6.3,23.6,24.1c0,17.8-14.2,24.1-23.6,24.1H0V20.4z M5.7,63.3h10.9
					c11,0,19.4-5.6,19.4-18.8c0-13.2-8.4-18.8-19.4-18.8H5.7V63.3z"/>
			</g>
			<g>
				<path class="st2" d="M122.6,20.4h14.7c8,0,16,3,16,11.8c0,5.6-3.3,9.3-8.4,10.9v0.1c6.2,0.5,10.9,5.5,10.9,11.8
					c0,10.6-9.9,13.5-18.8,13.5h-14.4V20.4z M128.3,40.8h7.9c5.4,0,11-1.2,11-7.8c0-5.9-5.2-7.3-10.4-7.3h-8.5V40.8z M128.3,63.3
					h9.7c5.6,0,11.6-2.2,11.6-8.4c0-6.7-5.7-8.8-11.5-8.8h-9.8V63.3z"/>
			</g>
			<path class="st2" d="M53.3,12.9l54.4,56.5l-5.7,5.5L93.4,66l-8.5,8.2c-4,3.8-9.2,5.9-14.7,5.8l0,0c-5.5-0.1-10.6-2.3-14.5-6.3
				c-3.8-4-5.9-9.2-5.8-14.7c0.1-5.5,2.3-10.6,6.3-14.5l5.7-5.5l5.5,5.7l-5.7,5.5c-2.4,2.4-3.8,5.5-3.9,8.9c-0.1,3.4,1.2,6.6,3.5,9
				c2.3,2.4,5.5,3.8,8.9,3.9l0,0c3.4,0.1,6.6-1.2,9-3.6l8.5-8.2L53.3,24.4L53.3,12.9L53.3,12.9z"/>
			<path class="st2" d="M92.7,21.9v8.2c1.8,0.6,3.2,1.7,4.6,3.1c2.3,2.4,3.6,5.6,3.5,9c-0.1,3.4-1.4,6.5-3.9,8.9l-0.7,0.7l5.6,5.7
				l0.7-0.6c4-3.8,6.2-9,6.3-14.5c0.1-5.5-1.9-10.7-5.8-14.7C100.1,24.7,96.6,22.8,92.7,21.9z"/>
			<path class="st2" d="M58.4,4.9l-3.9,3.8l5.5,5.7l3.9-3.8c3.8-3.7,9.8-3.6,13.5,0.2c3.6,3.8,3.5,9.8-0.3,13.5l-3.9,3.8l5.5,5.7
				l3.9-3.8c6.9-6.7,7.1-17.8,0.4-24.7C76.5-1.6,65.4-1.8,58.4,4.9z"/>
		</g>
		<g>
			<g>
				<path class="st2" d="M182.5,19.2h5.9v44.1h22.7v5.5h-28.6V19.2z"/>
				<path class="st2" d="M245.8,62.9c-3.9,5-8.5,6.8-14.6,6.8c-10.3,0-16.6-7.7-16.6-17.2c0-10.2,7.1-17.2,16.8-17.2
					c9.2,0,15.6,6.3,15.6,17.2v1.8h-26.5c0.4,5.7,4.8,10.5,10.7,10.5c4.7,0,7.8-1.7,10.4-5L245.8,62.9z M241.2,49.5
					c-0.2-5.5-3.9-9.2-9.9-9.2s-10,3.7-10.7,9.2H241.2z"/>
				<path class="st2" d="M255.1,40.3c3.4-3.4,8.3-5,13-5c9.7,0,13.7,4.6,13.7,13.9v14.1c0,1.9,0.2,4,0.5,5.7h-5.3
					c-0.3-1.5-0.3-3.5-0.3-4.9h-0.1c-2.2,3.4-5.8,5.7-10.8,5.7c-6.7,0-12.2-3.4-12.2-9.7c0-10.9,12.6-11.5,20.7-11.5h2.1v-1
					c0-4.8-3-7.2-8.1-7.2c-3.5,0-7.1,1.2-9.7,3.6L255.1,40.3z M270.9,53.1c-6.9,0-11.4,1.9-11.4,6.3c0,4.1,3.1,5.7,7.2,5.7
					c6.3,0,9.5-4.6,9.7-9.9v-2.1H270.9z"/>
				<path class="st2" d="M319.1,63H319c-2,3.7-6.7,6.7-12.6,6.7c-9.2,0-16.4-7.4-16.4-17.2c0-9.9,6.9-17.2,17.2-17.2
					c4.8,0,8.8,2.1,11.8,5.6h0.1V15.9h5.5v53h-5.5V63z M307.5,40.3c-7.1,0-11.6,5.3-11.6,12.2c0,6.9,4.6,12.2,11.6,12.2
					c7.1,0,11.6-5.3,11.6-12.2C319.1,45.6,314.6,40.3,307.5,40.3z"/>
				<path class="st2" d="M355.1,19.2h15.1c8.2,0,16.5,3.1,16.5,12.2c0,5.7-3.4,9.6-8.7,11.2v0.1c6.4,0.6,11.2,5.7,11.2,12.2
					c0,10.9-10.2,13.9-19.3,13.9h-14.8V19.2z M361,40.3h8.1c5.5,0,11.3-1.2,11.3-8.1c0-6.1-5.3-7.5-10.6-7.5H361V40.3z M361,63.4
					h9.9c5.7,0,12-2.3,12-8.6c0-6.9-5.9-9-11.8-9H361V63.4z"/>
				<path class="st2" d="M426.9,61.1c0,3,0.3,5.6,0.3,7.8H422c0-1.8-0.1-3.6-0.1-5.4h-0.1c-1.5,3.2-5.5,6.2-10.9,6.2
					c-8.6,0-12.5-5.5-12.5-13.4V36.1h5.5v19.7c0,5.5,2.4,8.9,7.5,8.9c7.1,0,10.2-5.1,10.2-12.6v-16h5.5V61.1z"/>
				<path class="st2" d="M440.5,19.2c2.2,0,4,1.8,4,4c0,2.3-1.7,4-4,4c-2.3,0-4-1.7-4-4C436.5,21.1,438.2,19.2,440.5,19.2z
					 M437.7,36.1h5.5v32.8h-5.5V36.1z"/>
				<path class="st2" d="M454.5,15.9h5.5v53h-5.5V15.9z"/>
				<path class="st2" d="M498.1,63H498c-2,3.7-6.7,6.7-12.6,6.7c-9.2,0-16.4-7.4-16.4-17.2c0-9.9,6.9-17.2,17.2-17.2
					c4.8,0,8.8,2.1,11.8,5.6h0.1V15.9h5.5v53h-5.5V63z M486.5,40.3c-7.1,0-11.6,5.3-11.6,12.2c0,6.9,4.6,12.2,11.6,12.2
					c7.1,0,11.6-5.3,11.6-12.2C498.1,45.6,493.6,40.3,486.5,40.3z"/>
				<path class="st2" d="M543,62.9c-3.9,5-8.5,6.8-14.6,6.8c-10.3,0-16.6-7.7-16.6-17.2c0-10.2,7.1-17.2,16.8-17.2
					c9.2,0,15.6,6.3,15.6,17.2v1.8h-26.5c0.4,5.7,4.8,10.5,10.7,10.5c4.7,0,7.8-1.7,10.4-5L543,62.9z M538.3,49.5
					c-0.2-5.5-3.9-9.2-9.9-9.2s-10,3.7-10.7,9.2H538.3z"/>
				<path class="st2" d="M552.6,43.8c0-3-0.3-5.6-0.3-7.8h5.2c0,1.8,0.1,3.6,0.1,5.4h0.1c1.5-3.2,5.5-6.2,10.9-6.2
					c0.7,0,1.5,0.1,2.2,0.4l-0.4,5.5c-0.9-0.3-2-0.4-2.9-0.4c-6.7,0-9.6,4.7-9.6,12.2v16h-5.5V43.8z"/>
			</g>
		</g>
	</g>
</g>
</svg>
