<?xml version="1.0" encoding="utf-8"?>
<!-- Generator: Adobe Illustrator 21.1.0, SVG Export Plug-In . SVG Version: 6.00 Build 0)  -->
<svg version="1.1" xmlns="http://www.w3.org/2000/svg" xmlns:xlink="http://www.w3.org/1999/xlink" x="0px" y="0px"
	 viewBox="0 0 704.5 80" style="enable-background:new 0 0 704.5 80;" xml:space="preserve">
<style type="text/css">
	.st0{display:none;}
	.st1{display:inline;}
	.st2{fill:#FFFFFF;}
</style>
<g id="Layer_2" class="st0">
	<rect y="0" class="st1" width="704.5" height="80"/>
</g>
<g id="Layer_1">
	<g>
		<g>
			<g>
				<path class="st2" d="M0,19h17.3c8.8,0,22.1,5.9,22.1,22.5c0,16.6-13.2,22.5-22.1,22.5H0V19z M5.3,59.1h10.2
					c10.3,0,18.1-5.2,18.1-17.6c0-12.3-7.8-17.6-18.1-17.6H5.3V59.1z"/>
			</g>
			<g>
				<path class="st2" d="M114.5,19h13.7c7.4,0,14.9,2.8,14.9,11.1c0,5.2-3.1,8.7-7.9,10.2v0.1c5.8,0.5,10.2,5.2,10.2,11.1
					c0,9.9-9.2,12.6-17.6,12.6h-13.4V19z M119.8,38.1h7.4c5,0,10.2-1.1,10.2-7.3c0-5.5-4.8-6.8-9.7-6.8h-7.9V38.1z M119.8,59.1h9
					c5.2,0,10.9-2.1,10.9-7.8c0-6.3-5.3-8.2-10.7-8.2h-9.2V59.1z"/>
			</g>
			<path class="st2" d="M49.7,12l50.8,52.8l-5.3,5.2l-8-8.3l-7.9,7.7c-3.7,3.6-8.6,5.5-13.7,5.4l0,0c-5.1-0.1-9.9-2.2-13.5-5.9
				c-3.6-3.7-5.5-8.6-5.4-13.7c0.1-5.1,2.2-9.9,5.9-13.5l5.3-5.1l5.2,5.3L57.7,47c-2.3,2.2-3.6,5.1-3.6,8.3
				c-0.1,3.2,1.1,6.1,3.3,8.4c2.2,2.3,5.1,3.5,8.3,3.6l0,0c3.2,0.1,6.2-1.1,8.4-3.3l7.9-7.7L49.7,22.8L49.7,12L49.7,12z"/>
			<path class="st2" d="M86.6,20.4v7.7c1.6,0.6,3,1.6,4.3,2.9c2.2,2.3,3.4,5.3,3.3,8.4c-0.1,3.2-1.3,6.1-3.6,8.3l-0.7,0.6l5.2,5.3
				l0.7-0.6c3.7-3.6,5.8-8.4,5.9-13.5c0.1-5.1-1.8-10-5.4-13.7C93.5,23.1,90.2,21.3,86.6,20.4z"/>
			<path class="st2" d="M54.6,4.6l-3.7,3.5l5.2,5.3l3.7-3.5c3.5-3.4,9.2-3.3,12.6,0.2c3.4,3.5,3.3,9.2-0.2,12.6l-3.7,3.5l5.2,5.3
				l3.7-3.5c6.5-6.3,6.7-16.6,0.4-23.1C71.4-1.5,61.1-1.7,54.6,4.6z"/>
		</g>
		<g>
			<g>
				<path class="st2" d="M164.1,18h6.2l14.3,38.1h0.1L199.4,18h5.8l-18.1,46.3h-5.3L164.1,18z"/>
				<path class="st2" d="M212.5,18c2.1,0,3.7,1.7,3.7,3.7c0,2.2-1.6,3.7-3.7,3.7c-2.2,0-3.7-1.6-3.7-3.7
					C208.8,19.7,210.4,18,212.5,18z M210,33.7h5.1v30.6H210V33.7z"/>
				<path class="st2" d="M225.9,56.3c2,2.5,4.3,4.1,7.9,4.1c3.2,0,6.7-1.4,6.7-4.7c0-3.3-3.3-4.1-6.5-4.8
					c-5.8-1.3-10.8-2.6-10.8-8.9c0-6,5.8-9,11.4-9c4.3,0,8.3,1.6,10.4,5.6l-4.3,2.8c-1.3-2.2-3.5-3.7-6.5-3.7c-2.8,0-6,1.4-6,4.3
					c0,2.6,3.7,3.7,7.7,4.4c5.4,1,10,3,10,9.2c0,6.9-6.1,9.6-12.2,9.6c-5.2,0-8.9-1.4-11.9-5.7L225.9,56.3z"/>
				<path class="st2" d="M256.1,18c2.1,0,3.7,1.7,3.7,3.7c0,2.2-1.6,3.7-3.7,3.7c-2.2,0-3.7-1.6-3.7-3.7C252.4,19.7,254,18,256.1,18
					z M253.5,33.7h5.1v30.6h-5.1V33.7z"/>
				<path class="st2" d="M285.5,38h-9v15.3c0,3.9,0.1,7.1,4.6,7.1c1.5,0,3.1-0.3,4.5-1l0.2,4.6c-1.8,0.8-4.1,1.1-6,1.1
					c-7.3,0-8.4-3.9-8.4-10.3V38h-6.7v-4.3h6.7V25h5.1v8.7h9V38z"/>
				<path class="st2" d="M306.4,32.9c9.4,0,16.4,6.5,16.4,16.1s-6.9,16.1-16.4,16.1C297,65.1,290,58.5,290,49S297,32.9,306.4,32.9z
					 M306.4,60.4c6.6,0,10.9-5,10.9-11.4c0-6.4-4.3-11.4-10.9-11.4s-10.9,5-10.9,11.4C295.5,55.4,299.8,60.4,306.4,60.4z"/>
				<path class="st2" d="M330.7,40.9c0-2.8-0.3-5.2-0.3-7.3h4.8c0,1.6,0.1,3.3,0.1,5h0.1c1.4-3,5.2-5.8,10.2-5.8
					c0.7,0,1.4,0.1,2.1,0.3l-0.3,5.2c-0.9-0.3-1.8-0.4-2.7-0.4c-6.2,0-9,4.4-9,11.4v14.9h-5.1V40.9z"/>
				<path class="st2" d="M372.8,18h5.5v46.3h-5.5V18z"/>
				<path class="st2" d="M388.9,40.9c0-2.8-0.3-5.2-0.3-7.3h4.8c0,1.6,0.1,3.3,0.1,5h0.1c1.4-3,5.2-5.8,10.2-5.8
					c8,0,11.6,5.1,11.6,12.5v18.9h-5.1V45.9c0-5.1-2.2-8.3-7-8.3c-6.6,0-9.5,4.8-9.5,11.8v14.9h-5.1V40.9z"/>
				<path class="st2" d="M442,38h-9v15.3c0,3.9,0.1,7.1,4.6,7.1c1.5,0,3.1-0.3,4.5-1l0.2,4.6c-1.8,0.8-4.1,1.1-6,1.1
					c-7.3,0-8.4-3.9-8.4-10.3V38h-6.7v-4.3h6.7V25h5.1v8.7h9V38z"/>
				<path class="st2" d="M475.7,58.7c-3.6,4.6-7.9,6.3-13.6,6.3c-9.6,0-15.5-7.2-15.5-16.1c0-9.5,6.7-16.1,15.7-16.1
					c8.6,0,14.5,5.9,14.5,16v1.6H452c0.4,5.3,4.4,9.8,10,9.8c4.4,0,7.3-1.6,9.7-4.6L475.7,58.7z M471.3,46.2
					c-0.2-5.2-3.6-8.6-9.2-8.6c-5.6,0-9.4,3.5-10,8.6H471.3z"/>
				<path class="st2" d="M485.1,14.8h5.1v49.5h-5.1V14.8z"/>
				<path class="st2" d="M500.8,14.8h5.1v49.5h-5.1V14.8z"/>
				<path class="st2" d="M519.1,18c2.1,0,3.7,1.7,3.7,3.7c0,2.2-1.6,3.7-3.7,3.7s-3.7-1.6-3.7-3.7C515.4,19.7,517,18,519.1,18z
					 M516.5,33.7h5.1v30.6h-5.1V33.7z"/>
				<path class="st2" d="M562.3,62.9c0,11.1-6,17.1-16.7,17.1c-6,0-10.7-1.6-15-5.8l3.7-4.2c3.2,3.5,6.7,5.3,11.4,5.3
					c9.2,0,11.6-5.9,11.6-12.4V59h-0.1c-2.4,3.9-6.7,5.7-10.8,5.7C536.7,64.7,530,58,530,49c0-10,6.5-16.1,16.3-16.1
					c4.1,0,8.8,2,10.8,6h0.1v-5.2h5.1V62.9z M546.3,60c7,0,10.9-5.2,10.9-11.1c0-6.6-4.4-11.3-10.9-11.3c-6.4,0-10.8,5-10.8,11.4
					C535.5,55.2,540.4,60,546.3,60z"/>
				<path class="st2" d="M599.1,58.7c-3.6,4.6-7.9,6.3-13.6,6.3c-9.6,0-15.5-7.2-15.5-16.1c0-9.5,6.7-16.1,15.7-16.1
					c8.6,0,14.5,5.9,14.5,16v1.6h-24.7c0.4,5.3,4.4,9.8,10,9.8c4.4,0,7.3-1.6,9.7-4.6L599.1,58.7z M594.7,46.2
					c-0.2-5.2-3.6-8.6-9.2-8.6c-5.6,0-9.4,3.5-10,8.6H594.7z"/>
				<path class="st2" d="M608.1,40.9c0-2.8-0.3-5.2-0.3-7.3h4.8c0,1.6,0.1,3.3,0.1,5h0.1c1.4-3,5.2-5.8,10.2-5.8
					c8,0,11.6,5.1,11.6,12.5v18.9h-5.1V45.9c0-5.1-2.2-8.3-7-8.3c-6.6,0-9.5,4.8-9.5,11.8v14.9h-5.1V40.9z"/>
				<path class="st2" d="M666.3,41.3c-2.2-2.6-4.6-3.7-7.7-3.7c-6.9,0-10.3,5.1-10.3,11.4s4.1,11.4,10.3,11.4c3.3,0,5.9-1.2,7.8-3.8
					l3.8,3.6c-2.9,3.4-7.1,4.9-11.6,4.9c-9.5,0-15.8-6.7-15.8-16.1c0-9.3,6.4-16.1,15.8-16.1c4.5,0,8.7,1.5,11.8,4.8L666.3,41.3z"/>
				<path class="st2" d="M703.4,58.7c-3.6,4.6-7.9,6.3-13.6,6.3c-9.6,0-15.5-7.2-15.5-16.1c0-9.5,6.7-16.1,15.7-16.1
					c8.6,0,14.5,5.9,14.5,16v1.6h-24.7c0.4,5.3,4.4,9.8,10,9.8c4.4,0,7.3-1.6,9.7-4.6L703.4,58.7z M699,46.2
					c-0.2-5.2-3.6-8.6-9.2-8.6c-5.6,0-9.4,3.5-10,8.6H699z"/>
			</g>
		</g>
	</g>
</g>
</svg>
