<?xml version="1.0" encoding="utf-8"?>
<!-- Generator: Adobe Illustrator 21.1.0, SVG Export Plug-In . SVG Version: 6.00 Build 0)  -->
<svg version="1.1" xmlns="http://www.w3.org/2000/svg" xmlns:xlink="http://www.w3.org/1999/xlink" x="0px" y="0px"
	 viewBox="0 0 792 80" style="enable-background:new 0 0 792 80;" xml:space="preserve">
<style type="text/css">
	.st0{display:none;}
	.st1{display:inline;}
	.st2{fill:#FFFFFF;}
</style>
<g id="Layer_2" class="st0">
	<rect class="st1" width="792" height="80"/>
</g>
<g id="Layer_1">
	<g>
		<g>
			<g>
				<path class="st2" d="M0,20.4h18.5c9.5,0,23.6,6.3,23.6,24.1c0,17.8-14.2,24.1-23.6,24.1H0V20.4z M5.7,63.3h10.9
					c11,0,19.4-5.6,19.4-18.8c0-13.2-8.4-18.8-19.4-18.8H5.7V63.3z"/>
			</g>
			<g>
				<path class="st2" d="M122.6,20.4h14.7c8,0,16,3,16,11.8c0,5.6-3.3,9.3-8.4,10.9v0.1c6.2,0.5,10.9,5.5,10.9,11.8
					c0,10.6-9.9,13.5-18.8,13.5h-14.4V20.4z M128.3,40.8h7.9c5.4,0,11-1.2,11-7.8c0-5.9-5.2-7.3-10.4-7.3h-8.5V40.8z M128.3,63.3
					h9.7c5.6,0,11.6-2.2,11.6-8.4c0-6.7-5.7-8.8-11.5-8.8h-9.8V63.3z"/>
			</g>
			<path class="st2" d="M53.3,12.9l54.4,56.5l-5.7,5.5L93.4,66l-8.5,8.2c-4,3.8-9.2,5.9-14.7,5.8l0,0c-5.5-0.1-10.6-2.3-14.5-6.3
				c-3.8-4-5.9-9.2-5.8-14.7c0.1-5.5,2.3-10.6,6.3-14.5l5.7-5.5l5.5,5.7l-5.7,5.5c-2.4,2.4-3.8,5.5-3.9,8.9c-0.1,3.4,1.2,6.6,3.5,9
				c2.3,2.4,5.5,3.8,8.9,3.9l0,0c3.4,0.1,6.6-1.2,9-3.6l8.5-8.2L53.3,24.4L53.3,12.9L53.3,12.9z"/>
			<path class="st2" d="M92.7,21.9v8.2c1.8,0.6,3.2,1.7,4.6,3.1c2.3,2.4,3.6,5.6,3.5,9c-0.1,3.4-1.4,6.5-3.9,8.9l-0.7,0.7l5.6,5.7
				l0.7-0.6c4-3.8,6.2-9,6.3-14.5c0.1-5.5-1.9-10.7-5.8-14.7C100.1,24.7,96.6,22.8,92.7,21.9z"/>
			<path class="st2" d="M58.4,4.9l-3.9,3.8l5.5,5.7l3.9-3.8c3.8-3.7,9.8-3.6,13.5,0.2c3.6,3.8,3.5,9.8-0.3,13.5l-3.9,3.8l5.5,5.7
				l3.9-3.8c6.9-6.7,7.1-17.8,0.4-24.7C76.5-1.6,65.4-1.8,58.4,4.9z"/>
		</g>
		<g>
			<g>
				<path class="st2" d="M182.5,19.2h8.8l16.8,38.9h0.1l17-38.9h8.5v49.6h-5.9V27.2h-0.1l-17.8,41.6h-3.6l-17.8-41.6h-0.1v41.6h-5.9
					V19.2z"/>
				<path class="st2" d="M244.7,40.3c3.4-3.4,8.3-5,13-5c9.7,0,13.7,4.6,13.7,13.9v14.1c0,1.9,0.2,4,0.5,5.7h-5.3
					c-0.3-1.5-0.3-3.5-0.3-4.9h-0.1c-2.2,3.4-5.8,5.7-10.8,5.7c-6.7,0-12.2-3.4-12.2-9.7c0-10.9,12.6-11.5,20.7-11.5h2.1v-1
					c0-4.8-3-7.2-8.1-7.2c-3.5,0-7.1,1.2-9.7,3.6L244.7,40.3z M260.5,53.1c-6.9,0-11.4,1.9-11.4,6.3c0,4.1,3.1,5.7,7.2,5.7
					c6.3,0,9.5-4.6,9.7-9.9v-2.1H260.5z"/>
				<path class="st2" d="M281.4,43.8c0-3-0.3-5.6-0.3-7.8h5.2c0,1.8,0.1,3.6,0.1,5.4h0.1c1.5-3.2,5.5-6.2,10.9-6.2
					c0.7,0,1.5,0.1,2.2,0.4l-0.3,5.5c-0.9-0.3-2-0.4-2.9-0.4c-6.7,0-9.6,4.7-9.6,12.2v16h-5.5V43.8z"/>
				<path class="st2" d="M306.1,15.9h5.5v34.6l14.9-14.4h7.8L318.4,51l17.4,17.9h-8.1l-16.3-17.2v17.2h-5.5V15.9z"/>
				<path class="st2" d="M370.4,62.9c-3.9,5-8.5,6.8-14.6,6.8c-10.3,0-16.6-7.7-16.6-17.2c0-10.2,7.1-17.2,16.8-17.2
					c9.2,0,15.6,6.3,15.6,17.2v1.8h-26.5c0.4,5.7,4.8,10.5,10.7,10.5c4.7,0,7.8-1.7,10.4-5L370.4,62.9z M365.7,49.5
					c-0.2-5.5-3.9-9.2-9.9-9.2c-6,0-10,3.7-10.7,9.2H365.7z"/>
				<path class="st2" d="M398,40.7h-9.7v16.4c0,4.2,0.1,7.6,4.9,7.6c1.6,0,3.4-0.4,4.8-1.1l0.2,5c-1.9,0.8-4.3,1.2-6.4,1.2
					c-7.8,0-9-4.2-9-11v-18h-7.1v-4.6h7.1v-9.3h5.5v9.3h9.7V40.7z"/>
				<path class="st2" d="M420.4,35.2c10.1,0,17.5,7,17.5,17.2s-7.4,17.2-17.5,17.2c-10.1,0-17.5-7-17.5-17.2S410.3,35.2,420.4,35.2z
					 M420.4,64.6c7.1,0,11.6-5.3,11.6-12.2c0-6.9-4.6-12.2-11.6-12.2c-7.1,0-11.6,5.3-11.6,12.2C408.7,59.3,413.3,64.6,420.4,64.6z"
					/>
				<path class="st2" d="M501.5,29.5c-2.9-4-7.6-6-12.4-6c-11.1,0-18.9,9.7-18.9,20.6c0,11.5,7.8,20.6,18.9,20.6
					c6,0,10.9-2.5,14.4-6.9l4.4,3.7c-4.4,6-10.9,8.7-18.8,8.7c-14.2,0-25.2-11-25.2-26.1c0-14.6,10.5-26.1,25.2-26.1
					c6.7,0,13.3,2.3,17.5,7.8L501.5,29.5z"/>
				<path class="st2" d="M530.8,35.2c10.1,0,17.5,7,17.5,17.2s-7.4,17.2-17.5,17.2c-10.1,0-17.5-7-17.5-17.2S520.7,35.2,530.8,35.2z
					 M530.8,64.6c7.1,0,11.6-5.3,11.6-12.2c0-6.9-4.6-12.2-11.6-12.2s-11.6,5.3-11.6,12.2C519.1,59.3,523.7,64.6,530.8,64.6z"/>
				<path class="st2" d="M556.8,43.8c0-3-0.3-5.6-0.3-7.8h5.2c0,1.8,0.1,3.6,0.1,5.4h0.1c1.5-3.2,5.5-6.2,10.9-6.2
					c8.6,0,12.5,5.5,12.5,13.4v20.2h-5.5V49.2c0-5.5-2.4-8.9-7.5-8.9c-7.1,0-10.2,5.1-10.2,12.6v16h-5.5V43.8z"/>
				<path class="st2" d="M595.7,43.8c0-3-0.3-5.6-0.3-7.8h5.2c0,1.8,0.1,3.6,0.1,5.4h0.1c1.5-3.2,5.5-6.2,10.9-6.2
					c8.6,0,12.5,5.5,12.5,13.4v20.2h-5.5V49.2c0-5.5-2.4-8.9-7.5-8.9c-7.1,0-10.2,5.1-10.2,12.6v16h-5.5V43.8z"/>
				<path class="st2" d="M663.9,62.9c-3.9,5-8.5,6.8-14.6,6.8c-10.3,0-16.6-7.7-16.6-17.2c0-10.2,7.1-17.2,16.8-17.2
					c9.2,0,15.6,6.3,15.6,17.2v1.8h-26.5c0.4,5.7,4.8,10.5,10.7,10.5c4.7,0,7.8-1.7,10.4-5L663.9,62.9z M659.2,49.5
					c-0.2-5.5-3.9-9.2-9.9-9.2c-6,0-10,3.7-10.7,9.2H659.2z"/>
				<path class="st2" d="M696.9,44.3c-2.3-2.8-5-4-8.3-4c-7.4,0-11.1,5.5-11.1,12.2s4.4,12.2,11.1,12.2c3.6,0,6.3-1.3,8.3-4.1
					l4.1,3.9c-3.2,3.6-7.6,5.3-12.4,5.3c-10.2,0-17-7.1-17-17.2c0-9.9,6.9-17.2,17-17.2c4.8,0,9.3,1.6,12.6,5.2L696.9,44.3z"/>
				<path class="st2" d="M725.3,40.7h-9.7v16.4c0,4.2,0.1,7.6,4.9,7.6c1.6,0,3.4-0.4,4.8-1.1l0.2,5c-1.9,0.8-4.3,1.2-6.4,1.2
					c-7.8,0-9-4.2-9-11v-18H703v-4.6h7.1v-9.3h5.5v9.3h9.7V40.7z"/>
				<path class="st2" d="M747.7,35.2c10.1,0,17.5,7,17.5,17.2s-7.4,17.2-17.5,17.2c-10.1,0-17.5-7-17.5-17.2S737.6,35.2,747.7,35.2z
					 M747.7,64.6c7.1,0,11.6-5.3,11.6-12.2c0-6.9-4.6-12.2-11.6-12.2S736,45.6,736,52.5C736,59.3,740.6,64.6,747.7,64.6z"/>
				<path class="st2" d="M773.6,43.8c0-3-0.3-5.6-0.3-7.8h5.2c0,1.8,0.1,3.6,0.1,5.4h0.1c1.5-3.2,5.5-6.2,10.9-6.2
					c0.7,0,1.5,0.1,2.2,0.4l-0.3,5.5c-0.9-0.3-2-0.4-2.9-0.4c-6.7,0-9.6,4.7-9.6,12.2v16h-5.5V43.8z"/>
			</g>
		</g>
	</g>
</g>
</svg>
