<?xml version="1.0" encoding="utf-8"?>
<!-- Generator: Adobe Illustrator 21.1.0, SVG Export Plug-In . SVG Version: 6.00 Build 0)  -->
<svg version="1.1" xmlns="http://www.w3.org/2000/svg" xmlns:xlink="http://www.w3.org/1999/xlink" x="0px" y="0px"
	 viewBox="0 0 702.9 80" style="enable-background:new 0 0 702.9 80;" xml:space="preserve">
<style type="text/css">
	.st0{display:none;}
	.st1{display:inline;}
	.st2{fill:#FFFFFF;}
</style>
<g id="Layer_2" class="st0">
	<rect class="st1" width="702.9" height="80"/>
</g>
<g id="Layer_1">
	<g>
		<g>
			<g>
				<path class="st2" d="M0,19.6h17.5c8.9,0,22.3,6,22.3,22.7C39.8,59.1,26.4,65,17.5,65H0V19.6z M5.4,60h10.3
					C26.1,60,34,54.8,34,42.3c0-12.5-7.9-17.7-18.3-17.7H5.4V60z"/>
			</g>
			<g>
				<path class="st2" d="M115.6,19.6h13.9c7.5,0,15.1,2.8,15.1,11.2c0,5.3-3.1,8.8-8,10.3v0.1c5.8,0.5,10.3,5.2,10.3,11.2
					c0,10-9.3,12.7-17.7,12.7h-13.6V19.6z M121,38.8h7.5c5.1,0,10.3-1.1,10.3-7.4c0-5.6-4.9-6.9-9.8-6.9h-8V38.8z M121,60h9.1
					c5.3,0,11-2.1,11-7.9c0-6.4-5.4-8.3-10.9-8.3H121V60z"/>
			</g>
			<path class="st2" d="M50.2,12.5l51.3,53.3L96.2,71l-8.1-8.4l-8,7.7c-3.7,3.6-8.7,5.6-13.9,5.5l0,0c-5.2-0.1-10-2.2-13.6-5.9
				C49,66.1,47,61.2,47.1,56c0.1-5.2,2.2-10,5.9-13.7l5.4-5.1l5.2,5.4l-5.4,5.2C56,50,54.7,53,54.6,56.2c-0.1,3.2,1.1,6.2,3.3,8.5
				c2.2,2.3,5.2,3.6,8.4,3.6l0,0c3.2,0.1,6.2-1.1,8.5-3.4l8-7.7L50.2,23.4L50.2,12.5L50.2,12.5z"/>
			<path class="st2" d="M87.4,21v7.8c1.7,0.6,3,1.6,4.3,2.9c2.2,2.3,3.4,5.3,3.3,8.5c-0.1,3.2-1.4,6.2-3.7,8.4l-0.7,0.6l5.3,5.4
				l0.7-0.6c3.7-3.6,5.9-8.5,5.9-13.7c0.1-5.2-1.8-10.1-5.4-13.8C94.4,23.7,91.1,21.8,87.4,21z"/>
			<path class="st2" d="M55.1,5l-3.7,3.6l5.2,5.4l3.7-3.6C63.9,6.9,69.6,7,73,10.6c3.4,3.6,3.3,9.3-0.2,12.7l-3.7,3.5l5.2,5.4
				l3.7-3.5c6.5-6.3,6.7-16.8,0.4-23.3C72.1-1.2,61.7-1.3,55.1,5z"/>
		</g>
		<g>
			<g>
				<path class="st2" d="M172.1,18.5h29.4v5.2h-23.9v14.7H200v5.2h-22.3v16.7h25v5.2h-30.6V18.5z"/>
				<path class="st2" d="M210.9,15.3h5.2v50h-5.2V15.3z"/>
				<path class="st2" d="M241,33.6c9.5,0,16.5,6.6,16.5,16.3s-7,16.3-16.5,16.3c-9.5,0-16.5-6.6-16.5-16.3S231.5,33.6,241,33.6z
					 M241,61.3c6.7,0,11-5,11-11.5c0-6.5-4.3-11.5-11-11.5s-11,5-11,11.5C230,56.3,234.3,61.3,241,61.3z"/>
				<path class="st2" d="M296.4,80.4h-5.2V60.8h-0.1c-2.8,3.3-6.6,5.3-11.1,5.3c-9.7,0-16.3-6.9-16.3-16.3c0-9.3,6.8-16.3,15.5-16.3
					c5.5,0,10,2.8,11.9,6.3h0.1v-5.5h5.2V80.4z M280.2,38.3c-6.7,0-11,5-11,11.5c0,6.5,4.3,11.5,11,11.5c6.7,0,11-5,11-11.5
					C291.2,43.4,286.9,38.3,280.2,38.3z"/>
				<path class="st2" d="M332.8,58c0,2.8,0.3,5.3,0.3,7.3h-4.9c0-1.7-0.1-3.4-0.1-5.1h-0.1c-1.4,3-5.2,5.9-10.3,5.9
					c-8.1,0-11.8-5.2-11.8-12.6V34.4h5.2v18.6c0,5.2,2.2,8.4,7.1,8.4c6.7,0,9.6-4.8,9.6-11.9V34.4h5.2V58z"/>
				<path class="st2" d="M342.2,38.3c3.2-3.2,7.8-4.8,12.3-4.8c9.1,0,13,4.4,13,13.1v13.3c0,1.8,0.2,3.8,0.5,5.4h-5
					c-0.3-1.4-0.3-3.3-0.3-4.6h-0.1c-2,3.2-5.5,5.4-10.2,5.4c-6.3,0-11.5-3.2-11.5-9.2c0-10.2,11.9-10.8,19.5-10.8h2v-0.9
					c0-4.5-2.8-6.8-7.7-6.8c-3.3,0-6.7,1.1-9.2,3.4L342.2,38.3z M357.1,50.4c-6.5,0-10.8,1.8-10.8,5.9c0,3.9,2.9,5.4,6.8,5.4
					c5.9,0,9-4.3,9.1-9.3v-2H357.1z"/>
				<path class="st2" d="M429,28.2c-2.8-3.8-7.2-5.7-11.7-5.7c-10.4,0-17.8,9.2-17.8,19.4c0,10.8,7.3,19.4,17.8,19.4
					c5.7,0,10.2-2.3,13.5-6.5l4.2,3.5c-4.2,5.6-10.2,8.2-17.7,8.2c-13.4,0-23.8-10.4-23.8-24.6c0-13.7,9.9-24.6,23.8-24.6
					c6.3,0,12.6,2.2,16.5,7.3L429,28.2z"/>
				<path class="st2" d="M456.5,33.6c9.5,0,16.5,6.6,16.5,16.3s-7,16.3-16.5,16.3c-9.5,0-16.5-6.6-16.5-16.3S447,33.6,456.5,33.6z
					 M456.5,61.3c6.7,0,11-5,11-11.5c0-6.5-4.3-11.5-11-11.5s-11,5-11,11.5C445.6,56.3,449.8,61.3,456.5,61.3z"/>
				<path class="st2" d="M481,41.7c0-2.8-0.3-5.3-0.3-7.3h4.9c0,1.7,0.1,3.4,0.1,5.1h0.1c1.4-3,5.2-5.9,10.3-5.9
					c8.1,0,11.8,5.2,11.8,12.6v19.1h-5.2V46.7c0-5.2-2.2-8.4-7.1-8.4c-6.7,0-9.6,4.8-9.6,11.9v15.1H481V41.7z"/>
				<path class="st2" d="M517.8,41.7c0-2.8-0.3-5.3-0.3-7.3h4.9c0,1.7,0.1,3.4,0.1,5.1h0.1c1.4-3,5.2-5.9,10.3-5.9
					c8.1,0,11.8,5.2,11.8,12.6v19.1h-5.2V46.7c0-5.2-2.2-8.4-7.1-8.4c-6.7,0-9.6,4.8-9.6,11.9v15.1h-5.2V41.7z"/>
				<path class="st2" d="M582.1,59.7c-3.6,4.7-8,6.4-13.7,6.4c-9.7,0-15.7-7.3-15.7-16.3c0-9.6,6.7-16.3,15.9-16.3
					c8.7,0,14.7,5.9,14.7,16.2v1.7h-25c0.4,5.4,4.5,9.9,10.1,9.9c4.4,0,7.4-1.6,9.8-4.7L582.1,59.7z M577.7,47.1
					c-0.2-5.2-3.6-8.7-9.3-8.7s-9.4,3.5-10.1,8.7H577.7z"/>
				<path class="st2" d="M613.3,42.1c-2.2-2.6-4.7-3.8-7.8-3.8c-6.9,0-10.4,5.2-10.4,11.5s4.2,11.5,10.4,11.5c3.4,0,5.9-1.2,7.9-3.8
					l3.8,3.6c-3,3.4-7.2,5-11.7,5c-9.6,0-16-6.7-16-16.3c0-9.4,6.5-16.3,16-16.3c4.6,0,8.8,1.5,11.9,4.9L613.3,42.1z"/>
				<path class="st2" d="M640,38.7h-9.1v15.5c0,4,0.1,7.1,4.6,7.1c1.5,0,3.2-0.3,4.6-1.1l0.2,4.7c-1.8,0.8-4.1,1.1-6,1.1
					c-7.3,0-8.5-4-8.5-10.4v-17H619v-4.4h6.7v-8.8h5.2v8.8h9.1V38.7z"/>
				<path class="st2" d="M661.1,33.6c9.5,0,16.5,6.6,16.5,16.3s-7,16.3-16.5,16.3c-9.5,0-16.5-6.6-16.5-16.3S651.6,33.6,661.1,33.6z
					 M661.1,61.3c6.7,0,11-5,11-11.5c0-6.5-4.3-11.5-11-11.5c-6.7,0-11,5-11,11.5C650.1,56.3,654.4,61.3,661.1,61.3z"/>
				<path class="st2" d="M685.6,41.7c0-2.8-0.3-5.3-0.3-7.3h4.9c0,1.7,0.1,3.4,0.1,5.1h0.1c1.4-3,5.2-5.9,10.3-5.9
					c0.7,0,1.4,0.1,2.1,0.3l-0.3,5.2c-0.9-0.3-1.9-0.4-2.8-0.4c-6.3,0-9.1,4.4-9.1,11.5v15.1h-5.2V41.7z"/>
			</g>
		</g>
	</g>
</g>
</svg>
