<?xml version="1.0" encoding="utf-8"?>
<!-- Generator: Adobe Illustrator 21.1.0, SVG Export Plug-In . SVG Version: 6.00 Build 0)  -->
<svg version="1.1" xmlns="http://www.w3.org/2000/svg" xmlns:xlink="http://www.w3.org/1999/xlink" x="0px" y="0px"
	 viewBox="0 0 976.7 80" style="enable-background:new 0 0 976.7 80;" xml:space="preserve">
<style type="text/css">
	.st0{display:none;}
	.st1{display:inline;}
	.st2{fill:#FFFFFF;}
</style>
<g id="Layer_2" class="st0">
	<rect class="st1" width="976.7" height="80"/>
</g>
<g id="Layer_1">
	<g>
		<g>
			<g>
				<path class="st2" d="M0,19.2h17.5c8.9,0,22.3,6,22.3,22.7c0,16.8-13.4,22.7-22.3,22.7H0V19.2z M5.4,59.7h10.3
					c10.4,0,18.3-5.3,18.3-17.7c0-12.5-7.9-17.7-18.3-17.7H5.4V59.7z"/>
			</g>
			<g>
				<path class="st2" d="M115.6,19.2h13.9c7.5,0,15.1,2.8,15.1,11.2c0,5.3-3.1,8.8-8,10.3v0.1c5.8,0.5,10.3,5.2,10.3,11.2
					c0,10-9.3,12.7-17.7,12.7h-13.6V19.2z M121,38.5h7.5c5.1,0,10.3-1.1,10.3-7.4c0-5.6-4.9-6.9-9.8-6.9h-8V38.5z M121,59.7h9.1
					c5.3,0,11-2.1,11-7.9c0-6.4-5.4-8.3-10.9-8.3H121V59.7z"/>
			</g>
			<path class="st2" d="M50.2,12.1l51.3,53.3l-5.4,5.2l-8.1-8.4l-8,7.7c-3.7,3.6-8.7,5.6-13.9,5.5l0,0c-5.2-0.1-10-2.2-13.6-5.9
				c-3.6-3.7-5.5-8.7-5.4-13.8c0.1-5.2,2.2-10,5.9-13.7l5.4-5.1l5.2,5.4l-5.4,5.2c-2.3,2.2-3.6,5.2-3.7,8.4C54.6,59,55.7,62,58,64.3
				c2.2,2.3,5.2,3.6,8.4,3.6l0,0c3.2,0.1,6.2-1.1,8.5-3.4l8-7.7L50.2,23L50.2,12.1L50.2,12.1z"/>
			<path class="st2" d="M87.4,20.7v7.8c1.7,0.6,3,1.6,4.3,2.9c2.2,2.3,3.4,5.3,3.3,8.5C95,43,93.7,46,91.4,48.2l-0.7,0.6l5.3,5.4
				l0.7-0.6c3.7-3.6,5.9-8.5,5.9-13.7c0.1-5.2-1.8-10.1-5.4-13.8C94.4,23.3,91.1,21.5,87.4,20.7z"/>
			<path class="st2" d="M55.1,4.6l-3.7,3.6l5.2,5.4l3.7-3.6c3.6-3.4,9.3-3.4,12.7,0.2c3.4,3.6,3.3,9.3-0.2,12.7l-3.7,3.5l5.2,5.4
				l3.7-3.5C84.5,22,84.7,11.5,78.4,5C72.1-1.5,61.7-1.7,55.1,4.6z"/>
		</g>
		<g>
			<g>
				<path class="st2" d="M166.7,18.2h6.1L183.5,57h0.1l11.5-38.9h6.2L212.8,57h0.1l10.8-38.9h5.8l-13.7,46.8h-6l-11.6-39.6h-0.1
					l-11.6,39.6h-6.1L166.7,18.2z"/>
				<path class="st2" d="M245.8,33.2c9.5,0,16.5,6.6,16.5,16.3s-7,16.3-16.5,16.3c-9.5,0-16.5-6.6-16.5-16.3S236.3,33.2,245.8,33.2z
					 M245.8,61c6.7,0,11-5,11-11.5c0-6.5-4.3-11.5-11-11.5s-11,5-11,11.5C234.8,55.9,239.1,61,245.8,61z"/>
				<path class="st2" d="M270.3,41.3c0-2.8-0.3-5.3-0.3-7.3h4.9c0,1.7,0.1,3.4,0.1,5.1h0.1c1.4-3,5.2-5.9,10.3-5.9
					c0.7,0,1.4,0.1,2.1,0.3l-0.3,5.2c-0.9-0.3-1.9-0.4-2.8-0.4c-6.3,0-9.1,4.4-9.1,11.5v15.1h-5.2V41.3z"/>
				<path class="st2" d="M293.6,15h5.2v32.6L312.8,34h7.3l-14.9,14.1l16.5,16.8h-7.6l-15.3-16.3v16.3h-5.2V15z"/>
				<path class="st2" d="M326.4,15h5.2v23.5h0.1c2.8-3.3,6.6-5.3,11.1-5.3c9.7,0,16.3,6.9,16.3,16.3c0,9.3-6.8,16.3-15.5,16.3
					c-5.6,0-10-2.8-11.9-6.3h-0.1v5.5h-5.2V15z M342.5,61c6.7,0,11-5,11-11.5c0-6.5-4.3-11.5-11-11.5s-11,5-11,11.5
					C331.5,55.9,335.8,61,342.5,61z"/>
				<path class="st2" d="M394.6,59.3c-3.6,4.7-8,6.4-13.7,6.4c-9.7,0-15.7-7.3-15.7-16.3c0-9.6,6.7-16.3,15.9-16.3
					c8.7,0,14.7,5.9,14.7,16.2v1.7h-25c0.4,5.4,4.5,9.9,10.1,9.9c4.4,0,7.4-1.6,9.8-4.7L394.6,59.3z M390.2,46.7
					c-0.2-5.2-3.6-8.7-9.3-8.7s-9.4,3.5-10.1,8.7H390.2z"/>
				<path class="st2" d="M403.7,41.3c0-2.8-0.3-5.3-0.3-7.3h4.9c0,1.7,0.1,3.4,0.1,5.1h0.1c1.4-3,5.2-5.9,10.3-5.9
					c8.1,0,11.8,5.2,11.8,12.6v19.1h-5.2V46.4c0-5.2-2.2-8.4-7.1-8.4c-6.7,0-9.6,4.8-9.6,11.9v15.1h-5.2V41.3z"/>
				<path class="st2" d="M462.5,41.7c-2.2-2.6-4.7-3.8-7.8-3.8c-6.9,0-10.4,5.2-10.4,11.5S448.4,61,454.7,61c3.4,0,5.9-1.2,7.9-3.8
					l3.8,3.6c-3,3.4-7.2,5-11.7,5c-9.6,0-16-6.7-16-16.3c0-9.4,6.5-16.3,16-16.3c4.6,0,8.8,1.5,11.9,4.9L462.5,41.7z"/>
				<path class="st2" d="M472.3,15h5.2v23.3h0.1c1.4-2.4,5.1-5.1,9.9-5.1c8.1,0,11.8,5.2,11.8,12.6v19.1h-5.2V46.4
					c0-5.2-2.2-8.4-7.1-8.4c-6.7,0-9.6,4.8-9.6,11.9v15.1h-5.2V15z"/>
				<path class="st2" d="M527.5,18.2h18c9.2,0,22.9,6.1,22.9,23.4c0,17.2-13.7,23.4-22.9,23.4h-18V18.2z M533,59.8h10.6
					c10.7,0,18.8-5.4,18.8-18.2c0-12.8-8.1-18.2-18.8-18.2H533V59.8z"/>
				<path class="st2" d="M576,38c3.2-3.2,7.8-4.8,12.3-4.8c9.1,0,13,4.4,13,13.1v13.3c0,1.8,0.2,3.8,0.5,5.4h-5
					c-0.3-1.4-0.3-3.3-0.3-4.6h-0.1c-2,3.2-5.5,5.4-10.2,5.4c-6.3,0-11.5-3.2-11.5-9.2c0-10.2,11.9-10.8,19.5-10.8h2v-0.9
					c0-4.5-2.8-6.8-7.7-6.8c-3.3,0-6.7,1.1-9.2,3.4L576,38z M590.9,50.1c-6.5,0-10.8,1.8-10.8,5.9c0,3.9,2.9,5.4,6.8,5.4
					c5.9,0,9-4.3,9.1-9.3v-2H590.9z"/>
				<path class="st2" d="M627.6,38.4h-9.1v15.5c0,4,0.1,7.1,4.6,7.1c1.5,0,3.2-0.3,4.6-1.1l0.2,4.7c-1.8,0.8-4.1,1.1-6,1.1
					c-7.3,0-8.5-4-8.5-10.4v-17h-6.7V34h6.7v-8.8h5.2V34h9.1V38.4z"/>
				<path class="st2" d="M633.5,38c3.2-3.2,7.8-4.8,12.3-4.8c9.1,0,13,4.4,13,13.1v13.3c0,1.8,0.2,3.8,0.5,5.4h-5
					c-0.3-1.4-0.3-3.3-0.3-4.6h-0.1c-2,3.2-5.5,5.4-10.2,5.4c-6.3,0-11.5-3.2-11.5-9.2c0-10.2,11.9-10.8,19.5-10.8h2v-0.9
					c0-4.5-2.8-6.8-7.7-6.8c-3.3,0-6.7,1.1-9.2,3.4L633.5,38z M648.5,50.1c-6.5,0-10.8,1.8-10.8,5.9c0,3.9,2.9,5.4,6.8,5.4
					c5.9,0,9-4.3,9.1-9.3v-2H648.5z"/>
				<path class="st2" d="M684.8,41.5c0-14.1,10.2-24.6,24.4-24.6c14.2,0,24.4,10.4,24.4,24.6c0,14.1-10.2,24.6-24.4,24.6
					C695.1,66.1,684.8,55.7,684.8,41.5z M727.8,41.5c0-10.8-7.5-19.4-18.5-19.4c-11,0-18.5,8.7-18.5,19.4c0,10.8,7.5,19.4,18.5,19.4
					C720.2,61,727.8,52.3,727.8,41.5z"/>
				<path class="st2" d="M741.4,34h5.2v4.5h0.1c2.8-3.3,6.6-5.3,11.1-5.3c9.7,0,16.3,6.9,16.3,16.3c0,9.3-6.8,16.3-15.5,16.3
					c-5.6,0-10-2.8-11.9-6.3h-0.1V80h-5.2V34z M757.6,61c6.7,0,11-5,11-11.5c0-6.5-4.3-11.5-11-11.5c-6.7,0-11,5-11,11.5
					C746.6,55.9,750.9,61,757.6,61z"/>
				<path class="st2" d="M799,38.4h-9.1v15.5c0,4,0.1,7.1,4.6,7.1c1.5,0,3.2-0.3,4.6-1.1l0.2,4.7c-1.8,0.8-4.1,1.1-6,1.1
					c-7.3,0-8.5-4-8.5-10.4v-17H778V34h6.7v-8.8h5.2V34h9.1V38.4z"/>
				<path class="st2" d="M808.4,18.2c2.1,0,3.8,1.7,3.8,3.8c0,2.2-1.6,3.8-3.8,3.8s-3.8-1.6-3.8-3.8
					C804.6,19.9,806.3,18.2,808.4,18.2z M805.8,34h5.2v30.9h-5.2V34z"/>
				<path class="st2" d="M821.2,41.3c0-2.8-0.3-5.3-0.3-7.3h4.9c0,1.7,0.1,3.4,0.1,5.1h0.1c1.4-3,5.2-5.9,10.3-5.9
					c6.7,0,8.8,3.8,9.8,5.9c2.2-3.6,5.1-5.9,9.8-5.9c8.9,0,11.8,5,11.8,13v18.8h-5.2V46.4c0-4.3-1.5-8.5-7.5-8.5c-4.4,0-8,3.6-8,9.1
					v17.8h-5.2V47.4c0-6.8-1.7-9.4-5.9-9.4c-6.7,0-9.6,4.8-9.6,11.9v15.1h-5.2V41.3z"/>
				<path class="st2" d="M880.5,18.2c2.1,0,3.8,1.7,3.8,3.8c0,2.2-1.6,3.8-3.8,3.8c-2.2,0-3.8-1.6-3.8-3.8
					C876.8,19.9,878.4,18.2,880.5,18.2z M877.9,34h5.2v30.9h-5.2V34z"/>
				<path class="st2" d="M890.4,60.9l18.2-22.5h-17.4V34h24.1v4l-18.2,22.6h18.6v4.4h-25.4V60.9z"/>
				<path class="st2" d="M950.3,59.3c-3.6,4.7-8,6.4-13.7,6.4c-9.7,0-15.7-7.3-15.7-16.3c0-9.6,6.7-16.3,15.9-16.3
					c8.7,0,14.7,5.9,14.7,16.2v1.7h-25c0.4,5.4,4.5,9.9,10.1,9.9c4.4,0,7.4-1.6,9.8-4.7L950.3,59.3z M945.9,46.7
					c-0.2-5.2-3.6-8.7-9.3-8.7s-9.4,3.5-10.1,8.7H945.9z"/>
				<path class="st2" d="M959.4,41.3c0-2.8-0.3-5.3-0.3-7.3h4.9c0,1.7,0.1,3.4,0.1,5.1h0.1c1.4-3,5.2-5.9,10.3-5.9
					c0.7,0,1.4,0.1,2.1,0.3l-0.3,5.2c-0.9-0.3-1.9-0.4-2.8-0.4c-6.3,0-9.1,4.4-9.1,11.5v15.1h-5.2V41.3z"/>
			</g>
		</g>
	</g>
</g>
</svg>
