<svg id="Layer_1" data-name="Layer 1" xmlns="http://www.w3.org/2000/svg" viewBox="0 0 822.81 80"><defs><style>.cls-1{fill:#fff;}</style></defs><title>Web_Product_Logos_Supply</title><path class="cls-1" d="M0,19H17.3c8.84,0,22.07,5.92,22.07,22.52S26.14,64.05,17.3,64.05H0ZM5.34,59.09H15.52c10.3,0,18.12-5.22,18.12-17.55S25.82,24,15.52,24H5.34Z"/><path class="cls-1" d="M114.49,19h13.73c7.45,0,14.95,2.8,14.95,11.07,0,5.21-3,8.71-7.89,10.17v.13a11,11,0,0,1,10.18,11.07c0,9.92-9.22,12.59-17.55,12.59H114.49Zm5.34,19.08h7.38c5,0,10.24-1.08,10.24-7.31,0-5.53-4.84-6.81-9.67-6.81h-8Zm0,21h9c5.21,0,10.88-2.1,10.88-7.82,0-6.3-5.35-8.21-10.75-8.21h-9.16Z"/><path class="cls-1" d="M49.74,12l50.84,52.77L95.23,70l-8-8.31L79.28,69.3a19.23,19.23,0,0,1-13.72,5.41h0a19.24,19.24,0,0,1-13-33.1l5.31-5.1L63,41.85,57.7,47a11.81,11.81,0,0,0,8,20.32h0A11.77,11.77,0,0,0,74.11,64L82,56.29,49.73,22.79V12Z"/><path class="cls-1" d="M86.56,20.45v7.69A11.39,11.39,0,0,1,90.82,31a11.83,11.83,0,0,1-.31,16.73l-.69.64L95,53.69l.66-.61a19.23,19.23,0,0,0-9.11-32.63Z"/><path class="cls-1" d="M54.58,4.58,50.9,8.11l5.16,5.34,3.68-3.52A8.88,8.88,0,1,1,72.08,22.7l-3.66,3.5,5.16,5.35L77.24,28A16.31,16.31,0,1,0,54.58,4.58Z"/><path class="cls-1" d="M192.43,26.16A9.61,9.61,0,0,0,184,21.9c-4.84,0-9.88,2.29-9.88,7.79,0,4.25,2.36,6.15,9.75,8.5,7.2,2.29,13.87,4.65,13.87,13.74s-7.91,13.55-16.29,13.55c-5.36,0-11.12-1.77-14.26-6.42l4.71-3.86c2,3.41,5.89,5.17,9.88,5.17,4.71,0,10.07-2.75,10.07-8,0-5.7-3.86-6.68-12.1-9.43-6.54-2.15-11.51-5-11.51-12.75,0-8.9,7.65-13.35,15.76-13.35,5.17,0,9.56,1.44,13,5.43Z"/><path class="cls-1" d="M232.6,57c0,2.81.27,5.23.27,7.26H228c0-1.64-.13-3.34-.13-5h-.13c-1.37,3-5.17,5.82-10.2,5.82-8.05,0-11.65-5.1-11.65-12.49V33.68H211V52.06c0,5.11,2.23,8.31,7,8.31,6.61,0,9.49-4.77,9.49-11.77V33.68h5.1Z"/><path class="cls-1" d="M242,33.68h5.1v4.45h.13a14.2,14.2,0,0,1,11-5.24c9.62,0,16.1,6.81,16.1,16.1S267.61,65.08,259,65.08c-5.5,0-9.88-2.74-11.78-6.21h-.13V79.21H242Zm16,26.69c6.61,0,10.86-5,10.86-11.38S264.6,37.6,258,37.6s-10.86,5-10.86,11.39S251.38,60.37,258,60.37Z"/><path class="cls-1" d="M282,33.68h5.1v4.45h.13a14.23,14.23,0,0,1,11-5.24c9.61,0,16.09,6.81,16.09,16.1S307.58,65.08,299,65.08c-5.49,0-9.88-2.74-11.78-6.21h-.13V79.21H282Zm16,26.69c6.61,0,10.86-5,10.86-11.38S304.57,37.6,298,37.6,287.1,42.58,287.1,49,291.36,60.37,298,60.37Z"/><path class="cls-1" d="M322.7,14.84h5.1V64.3h-5.1Z"/><path class="cls-1" d="M341,18a3.73,3.73,0,0,1,3.73,3.73,3.73,3.73,0,0,1-7.46,0A3.72,3.72,0,0,1,341,18Zm-2.55,15.7h5.1V64.3h-5.1Z"/><path class="cls-1" d="M381,58.74c-3.6,4.64-7.92,6.34-13.61,6.34-9.62,0-15.51-7.19-15.51-16.09,0-9.49,6.68-16.1,15.71-16.1,8.63,0,14.52,5.89,14.52,16v1.64H357.37c.39,5.3,4.45,9.81,10,9.81a11.42,11.42,0,0,0,9.75-4.64Zm-4.39-12.5c-.19-5.17-3.59-8.64-9.22-8.64s-9.36,3.47-10,8.64Z"/><path class="cls-1" d="M390,40.94c0-2.81-.26-5.23-.26-7.26h4.84c0,1.63.13,3.34.13,5h.13c1.37-3,5.17-5.83,10.21-5.83a6.11,6.11,0,0,1,2.09.33l-.33,5.17a9.67,9.67,0,0,0-2.75-.39c-6.21,0-9,4.38-9,11.38V64.3H390Z"/><path class="cls-1" d="M432.15,18H444c9,0,18.45,1.31,18.45,12.76,0,6.73-4.38,11.12-11.58,12.23L464,64.3h-6.74L444.71,43.49h-7.06V64.3h-5.5Zm5.5,20.41h4.9c6.09,0,14,0,14-7.65,0-6.68-5.82-7.66-11.18-7.66h-7.72Z"/><path class="cls-1" d="M474.22,18A3.73,3.73,0,0,1,478,21.71a3.73,3.73,0,1,1-7.46,0A3.73,3.73,0,0,1,474.22,18Zm-2.55,15.7h5.1V64.3h-5.1Z"/><path class="cls-1" d="M487.57,56.25c2,2.49,4.25,4.12,7.85,4.12,3.2,0,6.74-1.37,6.74-4.71s-3.28-4.12-6.55-4.84c-5.82-1.31-10.79-2.55-10.79-8.9,0-6,5.76-9,11.45-9,4.31,0,8.31,1.64,10.4,5.57l-4.25,2.81a7.3,7.3,0,0,0-6.48-3.67c-2.81,0-6,1.38-6,4.26,0,2.55,3.66,3.66,7.72,4.45,5.43,1,10,3,10,9.16,0,6.93-6.15,9.61-12.23,9.61-5.17,0-8.9-1.37-11.91-5.69Z"/><path class="cls-1" d="M514.78,14.84h5.11V47.16l13.93-13.48h7.26L526.3,47.61,542.59,64.3h-7.53L519.89,48.2V64.3h-5.11Z"/><path class="cls-1" d="M566.6,18h8.18l15.7,36.31h.13L606.44,18h8V64.3h-5.49V25.44h-.13L592.18,64.3h-3.34L572.23,25.44h-.14V64.3H566.6Z"/><path class="cls-1" d="M624.63,37.6a17.07,17.07,0,0,1,12.17-4.71c9,0,12.82,4.32,12.82,13V59a34.17,34.17,0,0,0,.46,5.3h-4.9a21.74,21.74,0,0,1-.33-4.58h-.13a11.58,11.58,0,0,1-10.08,5.36c-6.21,0-11.38-3.14-11.38-9.09,0-10.14,11.77-10.73,19.3-10.73h2v-.92c0-4.45-2.81-6.74-7.59-6.74a13.6,13.6,0,0,0-9.09,3.34Zm14.79,12c-6.48,0-10.67,1.76-10.67,5.89,0,3.86,2.88,5.3,6.74,5.3,5.89,0,8.9-4.26,9-9.23v-2Z"/><path class="cls-1" d="M659,40.94c0-2.81-.26-5.23-.26-7.26h4.84c0,1.63.13,3.34.13,5h.13c1.38-3,5.17-5.83,10.21-5.83,8.05,0,11.64,5.11,11.64,12.5V64.3h-5.1V45.91c0-5.1-2.22-8.31-7-8.31-6.61,0-9.49,4.78-9.49,11.78V64.3H659Z"/><path class="cls-1" d="M695,37.6a17.08,17.08,0,0,1,12.17-4.71c9,0,12.83,4.32,12.83,13V59a34.2,34.2,0,0,0,.45,5.3h-4.9a21.74,21.74,0,0,1-.33-4.58h-.13A11.58,11.58,0,0,1,705,65.08c-6.21,0-11.38-3.14-11.38-9.09,0-10.14,11.78-10.73,19.3-10.73h2v-.92c0-4.45-2.81-6.74-7.59-6.74a13.6,13.6,0,0,0-9.09,3.34Zm14.79,12c-6.48,0-10.66,1.76-10.66,5.89,0,3.86,2.88,5.3,6.74,5.3,5.88,0,8.89-4.26,9-9.23v-2Z"/><path class="cls-1" d="M759.87,62.92c0,11.06-6,17.08-16.69,17.08-5.95,0-10.73-1.57-15-5.82L731.8,70c3.21,3.47,6.67,5.3,11.38,5.3,9.16,0,11.58-5.89,11.58-12.37V59h-.13a12.52,12.52,0,0,1-10.79,5.69c-9.62,0-16.29-6.67-16.29-15.7,0-10,6.54-16.1,16.29-16.1,4.12,0,8.76,2,10.79,6h.13V33.68h5.11Zm-16-2.94c7,0,10.92-5.23,10.92-11.12,0-6.61-4.45-11.26-10.92-11.26S733,42.58,733,49A10.81,10.81,0,0,0,743.84,60Z"/><path class="cls-1" d="M796.64,58.74c-3.6,4.64-7.92,6.34-13.61,6.34-9.62,0-15.51-7.19-15.51-16.09,0-9.49,6.67-16.1,15.7-16.1,8.64,0,14.53,5.89,14.53,16v1.64H773c.39,5.3,4.45,9.81,10,9.81a11.43,11.43,0,0,0,9.75-4.64Zm-4.39-12.5c-.19-5.17-3.6-8.64-9.22-8.64s-9.36,3.47-10,8.64Z"/><path class="cls-1" d="M805.66,40.94c0-2.81-.26-5.23-.26-7.26h4.84c0,1.63.14,3.34.14,5h.13c1.37-3,5.16-5.83,10.2-5.83a6.12,6.12,0,0,1,2.1.33l-.33,5.17a9.67,9.67,0,0,0-2.75-.39c-6.21,0-9,4.38-9,11.38V64.3h-5.11Z"/></svg>