<svg id="Layer_1" data-name="Layer 1" xmlns="http://www.w3.org/2000/svg" viewBox="0 0 587.07 80"><defs><style>.cls-1{fill:#fff;}.cls-2{fill:none;stroke-width:4.45px;}.cls-2,.cls-3{stroke:#fff;}.cls-3{fill:#a7a9ac;stroke-width:2.97px;}</style></defs><title>Web_Product_Logos_Compliance</title><path class="cls-1" d="M0,19.35H17.47c8.93,0,22.29,6,22.29,22.74S26.4,64.83,17.47,64.83H0ZM5.39,59.82H15.67C26.08,59.82,34,54.55,34,42.09s-7.9-17.73-18.31-17.73H5.39Z"/><path class="cls-1" d="M115.62,19.35H129.5c7.51,0,15.09,2.83,15.09,11.18,0,5.27-3.08,8.8-8,10.27v.13A11.12,11.12,0,0,1,146.9,52.11c0,10-9.31,12.72-17.73,12.72H115.62ZM121,38.62h7.45c5.07,0,10.34-1.09,10.34-7.38,0-5.59-4.88-6.88-9.76-6.88h-8Zm0,21.2h9.12c5.26,0,11-2.12,11-7.9,0-6.36-5.39-8.29-10.85-8.29H121Z"/><path class="cls-1" d="M50.23,12.28l51.34,53.29-5.39,5.21-8.11-8.39-8,7.74a19.34,19.34,0,0,1-13.85,5.46h0A19.44,19.44,0,0,1,53.06,42.16L58.43,37l5.22,5.39-5.38,5.15a11.93,11.93,0,0,0,8,20.53h0a11.9,11.9,0,0,0,8.51-3.36l8-7.74L50.22,23.16V12.28Z"/><path class="cls-1" d="M87.41,20.79v7.77a11.26,11.26,0,0,1,4.31,2.9,12,12,0,0,1-.31,16.89l-.7.65L96,54.36l.66-.61a19.44,19.44,0,0,0-9.21-33Z"/><path class="cls-1" d="M55.12,4.77,51.4,8.33l5.22,5.4,3.72-3.57a9,9,0,1,1,12.45,12.9L69.1,26.6,74.31,32,78,28.46A16.47,16.47,0,1,0,55.12,4.77Z"/><path class="cls-1" d="M204.91,27.94a14.4,14.4,0,0,0-11.69-5.68c-10.44,0-17.84,9.19-17.84,19.43,0,10.83,7.33,19.42,17.84,19.42a16.46,16.46,0,0,0,13.54-6.54l4.16,3.5c-4.16,5.62-10.24,8.2-17.7,8.2-13.42,0-23.79-10.38-23.79-24.58,0-13.75,9.91-24.58,23.79-24.58,6.34,0,12.55,2.18,16.51,7.33Z"/><path class="cls-1" d="M232.46,33.36C242,33.36,249,40,249,49.62s-7,16.25-16.52,16.25S216,59.26,216,49.62,223,33.36,232.46,33.36Zm0,27.75c6.68,0,11-5,11-11.49s-4.29-11.5-11-11.5-11,5-11,11.5S225.79,61.11,232.46,61.11Z"/><path class="cls-1" d="M257,41.49c0-2.84-.27-5.29-.27-7.34h4.89c0,1.66.14,3.37.14,5.09h.13c1.39-3,5.22-5.88,10.31-5.88,6.67,0,8.78,3.77,9.77,5.88,2.25-3.63,5.09-5.88,9.78-5.88,8.86,0,11.76,5,11.76,13V65.08h-5.15V46.58c0-4.3-1.52-8.46-7.53-8.46-4.36,0-8,3.57-8,9.12V65.08h-5.15V47.57c0-6.81-1.72-9.45-6-9.45-6.67,0-9.58,4.82-9.58,11.89V65.08H257Z"/><path class="cls-1" d="M313,34.15h5.15v4.5h.14a14.31,14.31,0,0,1,11.1-5.29c9.71,0,16.25,6.87,16.25,16.26s-6.81,16.25-15.46,16.25c-5.55,0-10-2.78-11.89-6.28h-.14V80.14H313Zm16.12,27c6.67,0,11-5,11-11.49s-4.3-11.5-11-11.5-11,5-11,11.5S322.46,61.11,329.13,61.11Z"/><path class="cls-1" d="M354.11,15.13h5.15V65.08h-5.15Z"/><path class="cls-1" d="M372.54,18.3a3.76,3.76,0,0,1,3.77,3.76,3.77,3.77,0,1,1-7.53,0A3.76,3.76,0,0,1,372.54,18.3ZM370,34.15h5.16V65.08H370Z"/><path class="cls-1" d="M385,38.12a17.21,17.21,0,0,1,12.29-4.76c9.12,0,12.95,4.36,12.95,13.08V59.72a35,35,0,0,0,.46,5.36h-5a22.21,22.21,0,0,1-.33-4.63h-.13a11.71,11.71,0,0,1-10.18,5.42c-6.27,0-11.49-3.17-11.49-9.18,0-10.25,11.89-10.84,19.49-10.84h2v-.93c0-4.49-2.84-6.8-7.67-6.8a13.7,13.7,0,0,0-9.18,3.37Zm14.93,12.09c-6.54,0-10.76,1.78-10.76,5.95,0,3.9,2.9,5.35,6.8,5.35,5.95,0,9-4.3,9.12-9.32v-2Z"/><path class="cls-1" d="M419.65,41.49c0-2.84-.26-5.29-.26-7.34h4.89c0,1.66.13,3.37.13,5.09h.13c1.39-3,5.22-5.88,10.31-5.88,8.13,0,11.76,5.16,11.76,12.62v19.1h-5.15V46.51c0-5.15-2.25-8.39-7.07-8.39-6.68,0-9.58,4.82-9.58,11.89V65.08h-5.16Z"/><path class="cls-1" d="M478.39,41.89a9.48,9.48,0,0,0-7.8-3.77c-6.93,0-10.43,5.15-10.43,11.5s4.16,11.49,10.43,11.49a9.05,9.05,0,0,0,7.87-3.83l3.83,3.63a15,15,0,0,1-11.7,5c-9.58,0-16-6.74-16-16.25s6.47-16.26,16-16.26a15.73,15.73,0,0,1,11.9,4.89Z"/><path class="cls-1" d="M515.85,59.46c-3.63,4.69-8,6.41-13.74,6.41-9.71,0-15.66-7.27-15.66-16.25,0-9.58,6.74-16.26,15.86-16.26,8.72,0,14.67,6,14.67,16.19V51.2H492c.4,5.35,4.5,9.91,10.11,9.91A11.52,11.52,0,0,0,512,56.42Zm-4.42-12.62c-.2-5.22-3.64-8.72-9.32-8.72s-9.45,3.5-10.11,8.72Z"/><circle class="cls-2" cx="553.84" cy="40.48" r="23.75" transform="translate(304.5 536.66) rotate(-67.5)"/><polygon class="cls-3" points="548.11 56.12 540.03 46.97 541.63 45.56 548.23 53.04 565.9 28.72 567.39 30.25 548.11 56.12"/></svg>