<svg id="Layer_1" data-name="Layer 1" xmlns="http://www.w3.org/2000/svg" viewBox="0 0 271.59 80"><defs><style>.cls-1{fill:#fff;}</style></defs><title>web_product_logo_CreditAdvantage</title><path class="cls-1" d="M159.38,22.13a10.27,10.27,0,0,0-4-3.27,11.91,11.91,0,0,0-5-1.09,12.49,12.49,0,0,0-5.5,1.22,13.8,13.8,0,0,0-4.33,3.27A15,15,0,0,0,137.74,27a15.87,15.87,0,0,0-1,5.65,16.5,16.5,0,0,0,1,5.85,14.76,14.76,0,0,0,2.81,4.72,13.19,13.19,0,0,0,4.31,3.16,13.9,13.9,0,0,0,11.43-.12,13.36,13.36,0,0,0,4.51-3.73l3.2,2.69A14.76,14.76,0,0,1,158.14,50a18.74,18.74,0,0,1-7.73,1.52,18.13,18.13,0,0,1-7.19-1.42,17.68,17.68,0,0,1-5.81-3.92,18.16,18.16,0,0,1-3.85-6,20,20,0,0,1-1.39-7.55,20.06,20.06,0,0,1,1.34-7.4,17.76,17.76,0,0,1,9.55-10,18.07,18.07,0,0,1,7.35-1.47,19,19,0,0,1,7,1.32,12.87,12.87,0,0,1,5.65,4.31Z"/><path class="cls-1" d="M169.22,32.52c0-1.08,0-2.09-.1-3s-.1-1.8-.1-2.58h3.75c0,.64,0,1.28,0,1.92s.05,1.31.05,2h.1a6.89,6.89,0,0,1,1.14-1.67,8.39,8.39,0,0,1,1.75-1.45,9.11,9.11,0,0,1,2.28-1,9.6,9.6,0,0,1,2.74-.38,7.34,7.34,0,0,1,.81.05,3.43,3.43,0,0,1,.81.2l-.26,4a7.39,7.39,0,0,0-2.12-.31c-2.44,0-4.2.79-5.3,2.36a11.11,11.11,0,0,0-1.65,6.46V50.62h-3.95Z"/><path class="cls-1" d="M207.33,46.31a12,12,0,0,1-4.66,3.83,14.9,14.9,0,0,1-5.88,1.09,12.26,12.26,0,0,1-5-1A11.43,11.43,0,0,1,188,47.58a11.59,11.59,0,0,1-2.38-3.95,14,14,0,0,1-.84-4.87,13.49,13.49,0,0,1,.91-5,11.62,11.62,0,0,1,2.54-4,11.34,11.34,0,0,1,3.85-2.56,12.67,12.67,0,0,1,4.86-.91,12.11,12.11,0,0,1,4.57.84,9.78,9.78,0,0,1,3.57,2.43,11,11,0,0,1,2.31,3.9,15.81,15.81,0,0,1,.81,5.25V40H189a8.51,8.51,0,0,0,2.38,5.34A7.37,7.37,0,0,0,193.8,47a7.2,7.2,0,0,0,3,.61,9.54,9.54,0,0,0,4.36-.91A9.93,9.93,0,0,0,204.34,44Zm-3.39-9.68a6.84,6.84,0,0,0-2-4.87,7.12,7.12,0,0,0-5.17-1.82A7.29,7.29,0,0,0,189,36.63Z"/><path class="cls-1" d="M234.05,46.41H234a9,9,0,0,1-3.53,3.42,11,11,0,0,1-5.6,1.4,11.59,11.59,0,0,1-4.66-.94,11.33,11.33,0,0,1-3.78-2.61,12.28,12.28,0,0,1-2.51-4,14,14,0,0,1,0-9.94,12,12,0,0,1,2.54-3.95,11.18,11.18,0,0,1,3.93-2.61,13.26,13.26,0,0,1,5.09-.94,10.57,10.57,0,0,1,4.74,1.06,11.68,11.68,0,0,1,3.78,3h.1v-18H238V50.62h-3.95Zm0-7.65a10,10,0,0,0-.59-3.47,7.91,7.91,0,0,0-1.69-2.79,8.28,8.28,0,0,0-2.66-1.88,9.22,9.22,0,0,0-7,0,8.18,8.18,0,0,0-2.66,1.88,8.09,8.09,0,0,0-1.7,2.79,10.67,10.67,0,0,0,0,6.94A8.09,8.09,0,0,0,219.5,45a8,8,0,0,0,2.66,1.87,9.1,9.1,0,0,0,7,0A8.11,8.11,0,0,0,231.77,45a7.91,7.91,0,0,0,1.69-2.79A10,10,0,0,0,234.05,38.76Z"/><path class="cls-1" d="M244.79,17.62a2.8,2.8,0,0,1,.84-2,2.85,2.85,0,0,1,4.1,0,2.85,2.85,0,0,1-2,4.91,2.77,2.77,0,0,1-2.89-2.89Zm.91,9.28h4V50.62h-4Z"/><path class="cls-1" d="M270.49,30.24h-7V42.1c0,.78,0,1.5.05,2.16A4.31,4.31,0,0,0,264,46,2.74,2.74,0,0,0,265,47.15a3.87,3.87,0,0,0,2,.43,8.52,8.52,0,0,0,1.78-.2,7.63,7.63,0,0,0,1.72-.61l.15,3.6a9.26,9.26,0,0,1-2.25.66,15.34,15.34,0,0,1-2.36.2,8.63,8.63,0,0,1-3.4-.56,4.56,4.56,0,0,1-2-1.57,5.75,5.75,0,0,1-.94-2.51,22.38,22.38,0,0,1-.23-3.32v-13h-5.17V26.9h5.17V20.16h4V26.9h7Z"/><path class="cls-1" d="M139.83,67.55h1.35l5.15,12.1h-1.68l-1.23-3h-6l-1.25,3H134.5Zm.65,1.84h0l-2.52,6h4.94Z"/><path class="cls-1" d="M152,67.55h4.65a6.35,6.35,0,0,1,1.26.13,6.1,6.1,0,0,1,1.33.44,6.23,6.23,0,0,1,1.26.78,4.91,4.91,0,0,1,1.07,1.15,5.68,5.68,0,0,1,.73,1.55,6.53,6.53,0,0,1,.28,2,6.47,6.47,0,0,1-.28,2,5.55,5.55,0,0,1-.73,1.55,5.17,5.17,0,0,1-1.07,1.16,6.23,6.23,0,0,1-1.26.78,6.65,6.65,0,0,1-1.33.43,6.39,6.39,0,0,1-1.26.14H152Zm1.43,10.76h2.74a6.62,6.62,0,0,0,1.93-.27,4.07,4.07,0,0,0,1.54-.85,3.91,3.91,0,0,0,1-1.46,6.19,6.19,0,0,0,0-4.27,4,4,0,0,0-1-1.46,4.21,4.21,0,0,0-1.54-.85,6.62,6.62,0,0,0-1.93-.27h-2.74Z"/><path class="cls-1" d="M167.49,67.55h1.62l3.73,9.94h0l3.84-9.94h1.52l-4.73,12.1h-1.39Z"/><path class="cls-1" d="M187,67.55h1.35l5.15,12.1h-1.68l-1.23-3h-6l-1.25,3h-1.62Zm.65,1.84h0l-2.51,6h4.94Z"/><path class="cls-1" d="M199.39,67.55h1.81l7,10h0v-10h1.43v12.1h-1.81l-7-10.05h0V79.65h-1.44Z"/><path class="cls-1" d="M225.08,68.88h-4V79.65h-1.43V68.88h-4V67.55h9.43Z"/><path class="cls-1" d="M233.41,67.55h1.35l5.14,12.1h-1.67l-1.23-3H231l-1.25,3h-1.63Zm.65,1.84h0l-2.51,6h4.94Z"/><path class="cls-1" d="M256.08,78.83a8.79,8.79,0,0,1-2.2.85,10.24,10.24,0,0,1-2.33.28,7,7,0,0,1-2.6-.47,6,6,0,0,1-2-1.3,5.82,5.82,0,0,1-1.34-2,6.79,6.79,0,0,1-.48-2.59,6.47,6.47,0,0,1,.51-2.61A5.8,5.8,0,0,1,247,69a6.46,6.46,0,0,1,2.07-1.29,6.92,6.92,0,0,1,2.55-.46,7.42,7.42,0,0,1,2.3.36,5,5,0,0,1,2,1.23L254.79,70a4.11,4.11,0,0,0-1.49-1,4.75,4.75,0,0,0-1.81-.36,5,5,0,0,0-1.93.38A4.7,4.7,0,0,0,247,71.58a5.64,5.64,0,0,0,0,4,4.74,4.74,0,0,0,1,1.59,4.36,4.36,0,0,0,1.58,1.06,5.32,5.32,0,0,0,2,.37,7.08,7.08,0,0,0,1.54-.18,6.08,6.08,0,0,0,1.47-.52V74.21h-2.79V72.88h4.23Z"/><path class="cls-1" d="M263.36,67.55H271v1.33h-6.17v3.79h5.76V74h-5.76v4.3h6.48v1.34h-7.91Z"/><path class="cls-1" d="M0,15H13.64c7,0,17.41,4.67,17.41,17.76S20.62,50.47,13.64,50.47H0Zm4.21,31.6h8c8.13,0,14.29-4.11,14.29-13.84S20.37,18.87,12.24,18.87h-8Z"/><path class="cls-1" d="M90.3,15h10.83c5.87,0,11.79,2.21,11.79,8.73,0,4.11-2.41,6.87-6.22,8v.1a8.68,8.68,0,0,1,8,8.73c0,7.83-7.28,9.93-13.85,9.93H90.3ZM94.51,30h5.82c4,0,8.08-.85,8.08-5.77,0-4.36-3.81-5.37-7.63-5.37H94.51Zm0,16.55h7.13c4.11,0,8.57-1.65,8.57-6.17,0-5-4.21-6.47-8.47-6.47H94.51Z"/><path class="cls-1" d="M39.23,9.44l40.1,41.62-4.22,4.07-6.33-6.56-6.25,6a15.1,15.1,0,0,1-10.82,4.27h0a15.18,15.18,0,0,1-10.26-26.1l4.19-4L49.71,33l-4.2,4A9.32,9.32,0,0,0,51.8,53h0a9.32,9.32,0,0,0,6.65-2.62l6.25-6L39.22,17.93V9.44Z"/><path class="cls-1" d="M68.27,16.08v6.07a8.83,8.83,0,0,1,3.36,2.27,9.33,9.33,0,0,1-.24,13.19l-.55.5,4.1,4.19.52-.48a15.18,15.18,0,0,0-7.19-25.74Z"/><path class="cls-1" d="M43.05,3.57,40.14,6.35l4.08,4.22,2.9-2.79a7,7,0,1,1,9.73,10.08L54,20.62,58,24.84l2.88-2.77A12.86,12.86,0,1,0,43.05,3.57Z"/></svg>