<svg id="Layer_1" data-name="Layer 1" xmlns="http://www.w3.org/2000/svg" viewBox="0 0 322.13 80"><defs><style>.cls-1{fill:#fff;}</style></defs><title>Web_Product_Logos_Supply</title><path class="cls-1" d="M0,20.37H18.52c9.47,0,23.63,6.33,23.63,24.11S28,68.58,18.52,68.58H0Zm5.72,42.9h10.9c11,0,19.4-5.58,19.4-18.79s-8.37-18.8-19.4-18.8H5.72Z"/><path class="cls-1" d="M122.59,20.37H137.3c8,0,16,3,16,11.85,0,5.58-3.27,9.33-8.44,10.89v.14A11.78,11.78,0,0,1,155.75,55.1c0,10.62-9.87,13.48-18.79,13.48H122.59Zm5.72,20.43h7.9c5.38,0,11-1.16,11-7.83,0-5.93-5.17-7.29-10.35-7.29h-8.51Zm0,22.47H138c5.58,0,11.65-2.25,11.65-8.37,0-6.75-5.72-8.79-11.51-8.79h-9.81Z"/><path class="cls-1" d="M53.26,12.87l54.44,56.5L102,74.9,93.38,66l-8.49,8.2A20.53,20.53,0,0,1,70.2,80h0A20.61,20.61,0,0,1,56.26,44.56L62,39.1l5.53,5.71-5.69,5.47A12.64,12.64,0,0,0,70.32,72h0a12.61,12.61,0,0,0,9-3.56l8.49-8.21L53.25,24.41V12.87Z"/><path class="cls-1" d="M92.68,21.9v8.23a12.09,12.09,0,0,1,4.57,3.08,12.67,12.67,0,0,1-.34,17.91l-.74.68,5.57,5.69.7-.65A20.6,20.6,0,0,0,92.68,21.9Z"/><path class="cls-1" d="M58.45,4.9l-4,3.78L60,14.41,64,10.63A9.51,9.51,0,1,1,77.18,24.31l-3.92,3.75,5.53,5.72L82.71,30A17.46,17.46,0,1,0,58.45,4.9Z"/><path class="cls-1" d="M182.51,19.25h5.89v21h26.48v-21h5.88v49.6h-5.88V45.73H188.4V68.85h-5.89Z"/><path class="cls-1" d="M266.37,24.71H250V68.85h-5.89V24.71H227.7V19.25h38.67Z"/><path class="cls-1" d="M273.31,19.25H286c9.59,0,19.75,1.4,19.75,13.66,0,7.22-4.69,11.91-12.4,13.1l14.08,22.84h-7.21L286.76,46.57h-7.57V68.85h-5.88Zm5.88,21.86h5.25c6.52,0,15,0,15-8.2,0-7.14-6.24-8.2-12-8.2h-8.27Z"/><path class="cls-1" d="M316.11,19.25H322v49.6h-5.88Z"/></svg>