<svg id="Layer_1" data-name="Layer 1" xmlns="http://www.w3.org/2000/svg" viewBox="0 0 457.13 80"><defs><style>.cls-1{fill:#fff;}</style></defs><title>Web_Product_Logos_Compliance</title><path class="cls-1" d="M0,20.37H18.52c9.47,0,23.63,6.33,23.63,24.11S28,68.58,18.52,68.58H0Zm5.72,42.9h10.9c11,0,19.4-5.58,19.4-18.79s-8.37-18.8-19.4-18.8H5.72Z"/><path class="cls-1" d="M122.59,20.37H137.3c8,0,16,3,16,11.85,0,5.58-3.27,9.33-8.44,10.89v.14A11.78,11.78,0,0,1,155.75,55.1c0,10.62-9.87,13.48-18.79,13.48H122.59Zm5.72,20.43h7.9c5.38,0,11-1.16,11-7.83,0-5.93-5.17-7.29-10.35-7.29h-8.51Zm0,22.47H138c5.58,0,11.65-2.25,11.65-8.37,0-6.75-5.72-8.79-11.51-8.79h-9.81Z"/><path class="cls-1" d="M53.26,12.87l54.44,56.5L102,74.9,93.38,66l-8.49,8.2A20.53,20.53,0,0,1,70.2,80h0A20.61,20.61,0,0,1,56.26,44.56L62,39.1l5.53,5.71-5.69,5.47A12.64,12.64,0,0,0,70.32,72h0a12.61,12.61,0,0,0,9-3.56l8.49-8.21L53.25,24.41V12.87Z"/><path class="cls-1" d="M92.68,21.9v8.23a12.09,12.09,0,0,1,4.57,3.08,12.67,12.67,0,0,1-.34,17.91l-.74.68,5.57,5.69.7-.65A20.6,20.6,0,0,0,92.68,21.9Z"/><path class="cls-1" d="M58.45,4.9l-4,3.78L60,14.41,64,10.63A9.51,9.51,0,1,1,77.18,24.31l-3.92,3.75,5.53,5.72L82.71,30A17.46,17.46,0,1,0,58.45,4.9Z"/><path class="cls-1" d="M179.64,44.05c0-15,10.86-26.06,25.92-26.06s25.92,11.07,25.92,26.06-10.86,26.06-25.92,26.06S179.64,59,179.64,44.05Zm45.54,0c0-11.42-8-20.6-19.62-20.6S186,32.63,186,44.05s8,20.59,19.61,20.59S225.18,55.47,225.18,44.05Z"/><path class="cls-1" d="M240,43.84c0-3-.28-5.61-.28-7.78h5.19c0,1.75.13,3.57.13,5.4h.15c1.47-3.23,5.53-6.24,10.92-6.24,8.62,0,12.47,5.47,12.47,13.38V68.85h-5.46V49.16c0-5.46-2.38-8.89-7.5-8.89-7.07,0-10.16,5.11-10.16,12.61v16H240Z"/><path class="cls-1" d="M279.89,19.25H295c8.19,0,16.46,3.08,16.46,12.19,0,5.74-3.36,9.6-8.69,11.21v.14A12.11,12.11,0,0,1,314,55c0,10.93-10.16,13.87-19.33,13.87H279.89Zm5.89,21h8.12c5.54,0,11.28-1.2,11.28-8.06,0-6.1-5.32-7.5-10.65-7.5h-8.75Zm0,23.11h10c5.74,0,12-2.31,12-8.61,0-6.94-5.89-9-11.84-9H285.78Z"/><path class="cls-1" d="M338.67,35.22c10.09,0,17.51,7,17.51,17.24s-7.42,17.23-17.51,17.23-17.51-7-17.51-17.23S328.58,35.22,338.67,35.22Zm0,29.42c7.08,0,11.63-5.32,11.63-12.18s-4.55-12.19-11.63-12.19S327,45.59,327,52.46,331.59,64.64,338.67,64.64Z"/><path class="cls-1" d="M364.24,40.27a18.23,18.23,0,0,1,13-5.05c9.67,0,13.73,4.63,13.73,13.87V63.17a36.4,36.4,0,0,0,.49,5.68h-5.25a23.48,23.48,0,0,1-.35-4.91h-.14A12.39,12.39,0,0,1,375,69.69c-6.66,0-12.19-3.36-12.19-9.74,0-10.86,12.61-11.49,20.67-11.49h2.1v-1c0-4.76-3-7.21-8.13-7.21a14.56,14.56,0,0,0-9.74,3.57Zm15.83,12.82c-6.93,0-11.42,1.89-11.42,6.3,0,4.13,3.09,5.68,7.22,5.68,6.3,0,9.53-4.56,9.67-9.88v-2.1Z"/><path class="cls-1" d="M401,43.84c0-3-.28-5.61-.28-7.78h5.18c0,1.75.14,3.57.14,5.4h.14c1.47-3.23,5.54-6.24,10.93-6.24a6.49,6.49,0,0,1,2.24.35L419,41.11a10.29,10.29,0,0,0-2.94-.42c-6.65,0-9.6,4.69-9.6,12.19v16H401Z"/><path class="cls-1" d="M451.67,63h-.14c-2,3.72-6.73,6.66-12.61,6.66-9.18,0-16.39-7.43-16.39-17.23,0-10,6.93-17.24,17.23-17.24a15.19,15.19,0,0,1,11.77,5.61h.14V15.89h5.46v53h-5.46ZM440,40.27c-7.07,0-11.63,5.32-11.63,12.19S433,64.64,440,64.64s11.63-5.32,11.63-12.18S447.12,40.27,440,40.27Z"/></svg>