<?xml version="1.0" encoding="utf-8"?>
<!-- Generator: Adobe Illustrator 22.0.1, SVG Export Plug-In . SVG Version: 6.00 Build 0)  -->
<svg version="1.1" xmlns="http://www.w3.org/2000/svg" xmlns:xlink="http://www.w3.org/1999/xlink" x="0px" y="0px"
	 viewBox="0 0 711 80" style="enable-background:new 0 0 711 80;" xml:space="preserve">
<style type="text/css">
	.st0{display:none;}
	.st1{display:inline;}
	.st2{fill:#FFFFFF;}
</style>
<g id="Layer_2" class="st0">
	<rect class="st1" width="419.1" height="80"/>
	<rect y="114.5" class="st1" width="976.7" height="80"/>
	<rect y="233.1" class="st1" width="734.6" height="80"/>
	<rect y="353.4" class="st1" width="704.5" height="80"/>
	<rect y="467.8" class="st1" width="586.5" height="80"/>
	<rect y="597.2" class="st1" width="702.9" height="80"/>
	<rect y="714.4" class="st1" width="792" height="80"/>
	<rect y="842.9" class="st1" width="700.8" height="80"/>
	<rect x="1.9" y="961.8" class="st1" width="571" height="80"/>
	<rect x="1.9" y="1081.6" class="st1" width="365.5" height="80"/>
	<rect x="1.9" y="1201.6" class="st1" width="365.5" height="80"/>
</g>
<g id="Layer_1">
	<g>
		<g>
			<path class="st2" d="M0.5,19.8h17.3c8.8,0,22.1,5.9,22.1,22.5c0,16.6-13.2,22.5-22.1,22.5H0.5V19.8z M5.9,59.9H16
				c10.3,0,18.1-5.2,18.1-17.6c0-12.3-7.8-17.6-18.1-17.6H5.9V59.9z"/>
		</g>
		<g>
			<path class="st2" d="M115,19.8h13.7c7.4,0,14.9,2.8,14.9,11.1c0,5.2-3.1,8.7-7.9,10.2v0.1c5.8,0.5,10.2,5.2,10.2,11.1
				c0,9.9-9.2,12.6-17.6,12.6H115V19.8z M120.4,38.9h7.4c5,0,10.2-1.1,10.2-7.3c0-5.5-4.8-6.8-9.7-6.8h-7.9V38.9z M120.4,59.9h9
				c5.2,0,10.9-2.1,10.9-7.8c0-6.3-5.3-8.2-10.7-8.2h-9.2V59.9z"/>
		</g>
		<path class="st2" d="M50.3,12.8l50.8,52.8l-5.3,5.2l-8-8.3l-7.9,7.7c-3.7,3.6-8.6,5.5-13.7,5.4l0,0c-5.1-0.1-9.9-2.2-13.5-5.9
			c-3.6-3.7-5.5-8.6-5.4-13.7c0.1-5.1,2.2-9.9,5.9-13.5l5.3-5.1l5.2,5.3l-5.3,5.1c-2.3,2.2-3.6,5.1-3.6,8.3
			c-0.1,3.2,1.1,6.1,3.3,8.4c2.2,2.3,5.1,3.5,8.3,3.6l0,0c3.2,0.1,6.2-1.1,8.4-3.3l7.9-7.7L50.3,23.6L50.3,12.8L50.3,12.8z"/>
		<path class="st2" d="M87.1,21.3V29c1.6,0.6,3,1.6,4.3,2.9c2.2,2.3,3.4,5.3,3.3,8.4c-0.1,3.2-1.3,6.1-3.6,8.3l-0.7,0.6l5.2,5.3
			l0.7-0.6c3.7-3.6,5.8-8.4,5.9-13.5c0.1-5.1-1.8-10-5.4-13.7C94,23.9,90.7,22.1,87.1,21.3z"/>
		<path class="st2" d="M55.1,5.4l-3.7,3.5l5.2,5.3l3.7-3.5c3.5-3.4,9.2-3.3,12.6,0.2c3.4,3.5,3.3,9.2-0.2,12.6L68.9,27l5.2,5.3
			l3.7-3.5c6.5-6.3,6.7-16.6,0.4-23.1C71.9-0.7,61.6-0.9,55.1,5.4z"/>
	</g>
	<g>
		<g>
			<path class="st2" d="M193,27c-1.8-2.9-5.1-4.3-8.4-4.3c-4.8,0-9.9,2.3-9.9,7.8c0,4.3,2.4,6.1,9.7,8.5c7.2,2.3,13.9,4.6,13.9,13.7
				c0,9.2-7.9,13.5-16.3,13.5c-5.4,0-11.1-1.8-14.3-6.4l4.7-3.9c2,3.4,5.9,5.2,9.9,5.2c4.7,0,10.1-2.7,10.1-8
				c0-5.7-3.9-6.7-12.1-9.4c-6.5-2.2-11.5-5-11.5-12.8c0-8.9,7.7-13.3,15.8-13.3c5.2,0,9.6,1.4,13,5.4L193,27z"/>
			<path class="st2" d="M206.2,34.5h5.1v4.4h0.1c2.8-3.3,6.5-5.2,11-5.2c9.6,0,16.1,6.8,16.1,16.1c0,9.2-6.7,16.1-15.3,16.1
				c-5.5,0-9.9-2.7-11.8-6.2h-0.1V80h-5.1V34.5z M222.1,61.2c6.6,0,10.9-5,10.9-11.4c0-6.4-4.3-11.4-10.9-11.4
				c-6.6,0-10.9,5-10.9,11.4C211.3,56.2,215.5,61.2,222.1,61.2z"/>
			<path class="st2" d="M273.8,59.6c-3.6,4.6-7.9,6.3-13.6,6.3c-9.6,0-15.5-7.2-15.5-16.1c0-9.5,6.7-16.1,15.7-16.1
				c8.6,0,14.5,5.9,14.5,16v1.6h-24.7c0.4,5.3,4.4,9.8,10,9.8c4.4,0,7.3-1.6,9.7-4.6L273.8,59.6z M269.4,47.1
				c-0.2-5.2-3.6-8.6-9.2-8.6c-5.6,0-9.4,3.5-10,8.6H269.4z"/>
			<path class="st2" d="M282.8,41.8c0-2.8-0.3-5.2-0.3-7.3h4.8c0,1.6,0.1,3.3,0.1,5h0.1c1.4-3,5.2-5.8,10.2-5.8
				c8,0,11.6,5.1,11.6,12.5v18.9h-5.1V46.7c0-5.1-2.2-8.3-7-8.3c-6.6,0-9.5,4.8-9.5,11.8v14.9h-5.1V41.8z"/>
			<path class="st2" d="M344.6,59.7h-0.1c-1.9,3.5-6.3,6.2-11.8,6.2c-8.6,0-15.3-6.9-15.3-16.1c0-9.3,6.5-16.1,16.1-16.1
				c4.4,0,8.2,2,11,5.2h0.1V15.7h5.1v49.5h-5.1V59.7z M333.8,38.4c-6.6,0-10.9,5-10.9,11.4c0,6.4,4.3,11.4,10.9,11.4
				s10.9-5,10.9-11.4C344.6,43.4,340.4,38.4,333.8,38.4z"/>
			<path class="st2" d="M378.2,18.8h5.5v46.3h-5.5V18.8z"/>
			<path class="st2" d="M394.3,41.8c0-2.8-0.3-5.2-0.3-7.3h4.8c0,1.6,0.1,3.3,0.1,5h0.1c1.4-3,5.2-5.8,10.2-5.8
				c8,0,11.6,5.1,11.6,12.5v18.9h-5.1V46.7c0-5.1-2.2-8.3-7-8.3c-6.6,0-9.5,4.8-9.5,11.8v14.9h-5.1V41.8z"/>
			<path class="st2" d="M447.5,38.8h-9v15.3c0,3.9,0.1,7.1,4.6,7.1c1.5,0,3.1-0.3,4.5-1l0.2,4.6c-1.8,0.8-4.1,1.1-6,1.1
				c-7.3,0-8.4-3.9-8.4-10.3V38.8h-6.7v-4.3h6.7v-8.7h5.1v8.7h9V38.8z"/>
			<path class="st2" d="M481.1,59.6c-3.6,4.6-7.9,6.3-13.6,6.3c-9.6,0-15.5-7.2-15.5-16.1c0-9.5,6.7-16.1,15.7-16.1
				c8.6,0,14.5,5.9,14.5,16v1.6h-24.7c0.4,5.3,4.4,9.8,10,9.8c4.4,0,7.3-1.6,9.7-4.6L481.1,59.6z M476.7,47.1
				c-0.2-5.2-3.6-8.6-9.2-8.6c-5.6,0-9.4,3.5-10,8.6H476.7z"/>
			<path class="st2" d="M490.6,15.7h5.1v49.5h-5.1V15.7z"/>
			<path class="st2" d="M506.3,15.7h5.1v49.5h-5.1V15.7z"/>
			<path class="st2" d="M524.5,18.8c2.1,0,3.7,1.7,3.7,3.7c0,2.2-1.6,3.7-3.7,3.7s-3.7-1.6-3.7-3.7
				C520.8,20.5,522.4,18.8,524.5,18.8z M522,34.5h5.1v30.6H522V34.5z"/>
			<path class="st2" d="M567.8,63.7c0,11.1-6,17.1-16.7,17.1c-6,0-10.7-1.6-15-5.8l3.7-4.2c3.2,3.5,6.7,5.3,11.4,5.3
				c9.2,0,11.6-5.9,11.6-12.4v-3.9h-0.1c-2.4,3.9-6.7,5.7-10.8,5.7c-9.6,0-16.3-6.7-16.3-15.7c0-10,6.5-16.1,16.3-16.1
				c4.1,0,8.8,2,10.8,6h0.1v-5.2h5.1V63.7z M551.8,60.8c7,0,10.9-5.2,10.9-11.1c0-6.6-4.4-11.3-10.9-11.3c-6.4,0-10.8,5-10.8,11.4
				C541,56,545.8,60.8,551.8,60.8z"/>
			<path class="st2" d="M604.6,59.6c-3.6,4.6-7.9,6.3-13.6,6.3c-9.6,0-15.5-7.2-15.5-16.1c0-9.5,6.7-16.1,15.7-16.1
				c8.6,0,14.5,5.9,14.5,16v1.6h-24.7c0.4,5.3,4.4,9.8,10,9.8c4.4,0,7.3-1.6,9.7-4.6L604.6,59.6z M600.2,47.1
				c-0.2-5.2-3.6-8.6-9.2-8.6s-9.4,3.5-10,8.6H600.2z"/>
			<path class="st2" d="M613.6,41.8c0-2.8-0.3-5.2-0.3-7.3h4.8c0,1.6,0.1,3.3,0.1,5h0.1c1.4-3,5.2-5.8,10.2-5.8
				c8,0,11.6,5.1,11.6,12.5v18.9h-5.1V46.7c0-5.1-2.2-8.3-7-8.3c-6.6,0-9.5,4.8-9.5,11.8v14.9h-5.1V41.8z"/>
			<path class="st2" d="M671.7,42.2c-2.2-2.6-4.6-3.7-7.7-3.7c-6.9,0-10.3,5.1-10.3,11.4s4.1,11.4,10.3,11.4c3.3,0,5.9-1.2,7.8-3.8
				l3.8,3.6c-2.9,3.4-7.1,4.9-11.6,4.9c-9.5,0-15.8-6.7-15.8-16.1c0-9.3,6.4-16.1,15.8-16.1c4.5,0,8.7,1.5,11.8,4.8L671.7,42.2z"/>
			<path class="st2" d="M708.8,59.6c-3.6,4.6-7.9,6.3-13.6,6.3c-9.6,0-15.5-7.2-15.5-16.1c0-9.5,6.7-16.1,15.7-16.1
				c8.6,0,14.5,5.9,14.5,16v1.6h-24.7c0.4,5.3,4.4,9.8,10,9.8c4.4,0,7.3-1.6,9.7-4.6L708.8,59.6z M704.5,47.1
				c-0.2-5.2-3.6-8.6-9.2-8.6s-9.4,3.5-10,8.6H704.5z"/>
		</g>
	</g>
</g>
</svg>
