<?xml version="1.0" encoding="utf-8"?>
<!-- Generator: Adobe Illustrator 21.1.0, SVG Export Plug-In . SVG Version: 6.00 Build 0)  -->
<svg version="1.1" id="Layer_1" xmlns="http://www.w3.org/2000/svg" xmlns:xlink="http://www.w3.org/1999/xlink" x="0px" y="0px"
	 viewBox="0 0 457.1 80" style="enable-background:new 0 0 457.1 80;" xml:space="preserve">
<style type="text/css">
	.st0{fill:#FFFFFF;}
</style>
<title>web-product-logos-compliance</title>
<g id="Layer_1_1_">
	<path class="st0" d="M0,20.4h18.5c9.5,0,23.6,6.3,23.6,24.1S28,68.6,18.5,68.6H0V20.4z M5.7,63.3h10.9c11,0,19.4-5.6,19.4-18.8
		s-8.4-18.8-19.4-18.8H5.7V63.3z"/>
	<path class="st0" d="M122.6,20.4h14.7c8,0,16,3,16,11.9c0,5.6-3.3,9.3-8.4,10.9v0.1c6.2,0.5,11,5.6,10.9,11.8
		c0,10.6-9.9,13.5-18.8,13.5h-14.4V20.4z M128.3,40.8h7.9c5.4,0,11-1.2,11-7.8c0-5.9-5.2-7.3-10.4-7.3h-8.5L128.3,40.8z M128.3,63.3
		h9.7c5.6,0,11.6-2.2,11.6-8.4c0-6.7-5.7-8.8-11.5-8.8h-9.8L128.3,63.3z"/>
	<path class="st0" d="M53.3,12.9l54.4,56.5l-5.7,5.5L93.4,66l-8.5,8.2C81,78,75.7,80.1,70.2,80l0,0C58.8,79.8,49.8,70.4,50,59
		c0.1-5.5,2.4-10.7,6.3-14.5l5.7-5.5l5.5,5.7l-5.7,5.5c-5,4.9-5.1,12.9-0.3,17.9c2.3,2.4,5.5,3.8,8.8,3.8l0,0c3.4,0.1,6.6-1.2,9-3.6
		l8.5-8.2L53.2,24.4L53.3,12.9L53.3,12.9z"/>
	<path class="st0" d="M92.7,21.9v8.2c1.7,0.7,3.3,1.7,4.6,3.1c4.9,5,4.7,13.1-0.3,17.9l-0.7,0.7l5.6,5.7l0.7-0.7
		c8.2-7.9,8.4-21,0.5-29.1C100.2,24.8,96.6,22.8,92.7,21.9z"/>
	<path class="st0" d="M58.5,4.9l-4,3.8l5.5,5.7l4-3.8c3.6-3.8,9.6-4,13.4-0.4c3.8,3.6,4,9.6,0.4,13.4c-0.2,0.2-0.4,0.5-0.7,0.7
		l-3.9,3.8l5.5,5.7l3.9-3.8c7.1-6.5,7.6-17.6,1.1-24.7S66.2-2.3,59.1,4.3C58.9,4.5,58.7,4.7,58.5,4.9z"/>
	<path class="st0" d="M179.6,44c0-15,10.9-26.1,25.9-26.1s25.9,11.1,25.9,26.1s-10.9,26.1-25.9,26.1S179.6,59,179.6,44z M225.2,44
		c0-11.4-8-20.6-19.6-20.6s-19.6,9.2-19.6,20.6s8,20.6,19.6,20.6S225.2,55.5,225.2,44z"/>
	<path class="st0" d="M240,43.8c0-3-0.3-5.6-0.3-7.8h5.2c0,1.8,0.1,3.6,0.1,5.4h0.1c1.5-3.2,5.5-6.2,10.9-6.2
		c8.6,0,12.5,5.5,12.5,13.4v20.2h-5.5V49.2c0-5.5-2.4-8.9-7.5-8.9c-7.1,0-10.2,5.1-10.2,12.6v16H240V43.8z"/>
	<path class="st0" d="M279.9,19.2H295c8.2,0,16.5,3.1,16.5,12.2c0,5.7-3.4,9.6-8.7,11.2v0.1c6.4,0.5,11.3,5.8,11.2,12.2
		c0,10.9-10.2,13.9-19.3,13.9h-14.8V19.2z M285.8,40.2h8.1c5.5,0,11.3-1.2,11.3-8.1c0-6.1-5.3-7.5-10.6-7.5h-8.8V40.2z M285.8,63.4
		h10c5.7,0,12-2.3,12-8.6c0-6.9-5.9-9-11.8-9h-10.1L285.8,63.4z"/>
	<path class="st0" d="M338.7,35.2c10.1,0,17.5,7,17.5,17.2s-7.4,17.2-17.5,17.2s-17.5-7-17.5-17.2S328.6,35.2,338.7,35.2z
		 M338.7,64.6c7.1,0,11.6-5.3,11.6-12.2s-4.5-12.2-11.6-12.2S327,45.6,327,52.5S331.6,64.6,338.7,64.6z"/>
	<path class="st0" d="M364.2,40.3c3.5-3.3,8.2-5.1,13-5c9.7,0,13.7,4.6,13.7,13.9v14c0,1.9,0.2,3.8,0.5,5.7h-5.2
		c-0.3-1.6-0.4-3.3-0.4-4.9h-0.1c-2.3,3.7-6.4,5.8-10.7,5.8c-6.7,0-12.2-3.4-12.2-9.7c0-10.9,12.6-11.5,20.7-11.5h2.1v-1
		c0-4.8-3-7.2-8.1-7.2c-3.6,0-7,1.2-9.7,3.6L364.2,40.3z M380.1,53.1c-6.9,0-11.4,1.9-11.4,6.3c0,4.1,3.1,5.7,7.2,5.7
		c6.3,0,9.5-4.5,9.7-9.9v-2.1H380.1z"/>
	<path class="st0" d="M401,43.8c0-3-0.3-5.6-0.3-7.8h5.2c0,1.8,0.1,3.6,0.1,5.4h0.1c1.5-3.2,5.5-6.2,10.9-6.2c0.8,0,1.5,0.1,2.2,0.3
		l-0.4,5.5c-1-0.3-1.9-0.4-2.9-0.4c-6.6,0-9.6,4.7-9.6,12.2v16H401V43.8z"/>
	<path class="st0" d="M451.7,63h-0.1c-2,3.7-6.7,6.7-12.6,6.7c-9.2,0-16.4-7.4-16.4-17.2s6.9-17.2,17.2-17.2c4.6,0,8.9,2.1,11.8,5.6
		h0.1V15.9h5.5v53h-5.5L451.7,63z M440,40.3c-7.1,0-11.6,5.3-11.6,12.2S433,64.6,440,64.6s11.6-5.3,11.6-12.2S447.1,40.3,440,40.3z"
		/>
</g>
</svg>
