<svg id="Layer_1" data-name="Layer 1" xmlns="http://www.w3.org/2000/svg" viewBox="0 0 828.64 80"><defs><style>.cls-1{fill:#fff;}</style></defs><title>Web_Product_Logos_Supply</title><path class="cls-1" d="M0,19.21H17.46c8.93,0,22.29,6,22.29,22.74S26.39,64.69,17.46,64.69H0Zm5.4,40.47H15.67C26.07,59.68,34,54.41,34,42s-7.9-17.73-18.3-17.73H5.39Z"/><path class="cls-1" d="M115.62,19.21h13.87c7.51,0,15.09,2.83,15.09,11.18,0,5.27-3.08,8.8-8,10.27v.13A11.11,11.11,0,0,1,146.89,52c0,10-9.31,12.72-17.72,12.72H115.62ZM121,38.48h7.45c5.08,0,10.34-1.09,10.34-7.39,0-5.58-4.88-6.87-9.76-6.87h-8Zm0,21.2h9.12c5.27,0,11-2.12,11-7.9,0-6.36-5.39-8.29-10.85-8.29H121Z"/><path class="cls-1" d="M50.22,12.14l51.35,53.29-5.4,5.21-8.1-8.39-8,7.73a19.34,19.34,0,0,1-13.85,5.47h0A19.43,19.43,0,0,1,53.06,42l5.36-5.15,5.22,5.4-5.37,5.15a11.93,11.93,0,0,0,8,20.53h0a11.88,11.88,0,0,0,8.51-3.36l8-7.74L50.22,23V12.14Z"/><path class="cls-1" d="M87.41,20.65v7.77a11.41,11.41,0,0,1,4.31,2.9,11.94,11.94,0,0,1-.32,16.89l-.7.65L96,54.22l.66-.61a19.44,19.44,0,0,0-9.2-33Z"/><path class="cls-1" d="M55.12,4.63,51.4,8.19l5.21,5.4L60.33,10a9,9,0,1,1,12.46,12.9l-3.7,3.54,5.22,5.4L78,28.32A16.47,16.47,0,1,0,55.12,4.63Z"/><path class="cls-1" d="M194.33,26.42a9.7,9.7,0,0,0-8.52-4.3c-4.89,0-10,2.31-10,7.86,0,4.3,2.38,6.21,9.85,8.59,7.27,2.32,14,4.69,14,13.88s-8,13.67-16.46,13.67c-5.41,0-11.23-1.78-14.4-6.47l4.76-3.9c2,3.44,5.94,5.22,10,5.22,4.76,0,10.18-2.77,10.18-8.13,0-5.74-3.9-6.74-12.22-9.51-6.61-2.18-11.63-5.09-11.63-12.88,0-9,7.73-13.48,15.92-13.48,5.22,0,9.65,1.45,13.08,5.48Z"/><path class="cls-1" d="M234.9,57.6c0,2.84.27,5.29.27,7.34h-4.89c0-1.66-.13-3.37-.13-5.09H230c-1.39,3-5.22,5.88-10.31,5.88-8.13,0-11.76-5.16-11.76-12.62V34h5.15V52.58c0,5.15,2.25,8.39,7.07,8.39,6.67,0,9.58-4.82,9.58-11.89V34h5.15Z"/><path class="cls-1" d="M244.42,34h5.15v4.5h.14a14.31,14.31,0,0,1,11.1-5.29c9.71,0,16.25,6.87,16.25,16.25s-6.81,16.26-15.46,16.26c-5.55,0-10-2.78-11.89-6.28h-.14V80h-5.15Zm16.12,27c6.68,0,11-5,11-11.5S267.22,38,260.54,38s-11,5-11,11.49S253.87,61,260.54,61Z"/><path class="cls-1" d="M284.79,34h5.15v4.5h.14a14.31,14.31,0,0,1,11.1-5.29c9.71,0,16.25,6.87,16.25,16.25S310.63,65.73,302,65.73c-5.55,0-10-2.78-11.89-6.28h-.14V80h-5.15Zm16.12,27c6.68,0,11-5,11-11.5S307.59,38,300.91,38s-11,5-11,11.49S294.24,61,300.91,61Z"/><path class="cls-1" d="M325.89,15H331v50h-5.15Z"/><path class="cls-1" d="M344.32,18.16a3.76,3.76,0,0,1,3.77,3.76,3.77,3.77,0,1,1-7.53,0A3.76,3.76,0,0,1,344.32,18.16ZM341.75,34h5.15V64.94h-5.15Z"/><path class="cls-1" d="M384.76,59.32c-3.63,4.69-8,6.41-13.74,6.41-9.72,0-15.66-7.27-15.66-16.26,0-9.58,6.74-16.25,15.85-16.25,8.73,0,14.67,6,14.67,16.19v1.65h-25C361.3,56.41,365.4,61,371,61a11.5,11.5,0,0,0,9.84-4.69ZM380.33,46.7C380.13,41.48,376.7,38,371,38s-9.45,3.5-10.11,8.72Z"/><path class="cls-1" d="M393.88,41.35c0-2.84-.27-5.29-.27-7.34h4.89c0,1.66.14,3.37.14,5.09h.13c1.39-3,5.22-5.88,10.31-5.88a6.22,6.22,0,0,1,2.11.33l-.33,5.22a9.89,9.89,0,0,0-2.78-.4c-6.27,0-9.05,4.43-9.05,11.5V64.94h-5.15Z"/><path class="cls-1" d="M435.57,18.16h18c9.19,0,22.93,6.14,22.93,23.39s-13.74,23.39-22.93,23.39h-18Zm5.55,41.62h10.57c10.71,0,18.83-5.42,18.83-18.23s-8.12-18.24-18.83-18.24H441.12Z"/><path class="cls-1" d="M484.07,38a17.21,17.21,0,0,1,12.29-4.76c9.12,0,12.95,4.36,12.95,13.08V59.58a35,35,0,0,0,.46,5.36h-4.95a22.21,22.21,0,0,1-.33-4.63h-.14a11.68,11.68,0,0,1-10.17,5.42c-6.28,0-11.5-3.17-11.5-9.19,0-10.24,11.89-10.83,19.49-10.83h2v-.93c0-4.49-2.85-6.8-7.67-6.8a13.69,13.69,0,0,0-9.18,3.37ZM499,50.07c-6.54,0-10.77,1.78-10.77,6,0,3.89,2.91,5.35,6.81,5.35,5.94,0,9-4.3,9.12-9.32v-2Z"/><path class="cls-1" d="M535.67,38.37h-9.11V53.84c0,4,.06,7.13,4.62,7.13a10,10,0,0,0,4.56-1.06l.2,4.69a15.59,15.59,0,0,1-6,1.13c-7.33,0-8.52-4-8.52-10.38v-17h-6.74V34h6.74V25.23h5.16V34h9.11Z"/><path class="cls-1" d="M541.62,38a17.21,17.21,0,0,1,12.29-4.76c9.12,0,13,4.36,13,13.08V59.58a35,35,0,0,0,.46,5.36h-5a22.21,22.21,0,0,1-.33-4.63h-.14a11.68,11.68,0,0,1-10.17,5.42c-6.28,0-11.5-3.17-11.5-9.19,0-10.24,11.89-10.83,19.49-10.83h2v-.93c0-4.49-2.85-6.8-7.67-6.8a13.69,13.69,0,0,0-9.18,3.37Zm14.93,12.09c-6.54,0-10.77,1.78-10.77,6,0,3.89,2.91,5.35,6.81,5.35,5.94,0,9-4.3,9.12-9.32v-2Z"/><path class="cls-1" d="M617.8,26.42a9.7,9.7,0,0,0-8.52-4.3c-4.89,0-10,2.31-10,7.86,0,4.3,2.38,6.21,9.85,8.59,7.27,2.32,14,4.69,14,13.88s-8,13.67-16.46,13.67c-5.42,0-11.23-1.78-14.4-6.47l4.76-3.9C599,59.19,603,61,607,61c4.76,0,10.18-2.77,10.18-8.13,0-5.74-3.9-6.74-12.23-9.51-6.6-2.18-11.62-5.09-11.62-12.88,0-9,7.73-13.48,15.92-13.48,5.22,0,9.65,1.45,13.08,5.48Z"/><path class="cls-1" d="M659,59.32c-3.63,4.69-8,6.41-13.74,6.41-9.71,0-15.66-7.27-15.66-16.26,0-9.58,6.74-16.25,15.86-16.25,8.72,0,14.67,6,14.67,16.19v1.65h-25c.4,5.35,4.49,9.91,10.11,9.91a11.49,11.49,0,0,0,9.84-4.69ZM654.61,46.7c-.2-5.22-3.64-8.72-9.32-8.72s-9.45,3.5-10.11,8.72Z"/><path class="cls-1" d="M668.15,41.35c0-2.84-.26-5.29-.26-7.34h4.89c0,1.66.13,3.37.13,5.09H673c1.39-3,5.22-5.88,10.31-5.88a6.18,6.18,0,0,1,2.11.33l-.33,5.22a9.87,9.87,0,0,0-2.77-.4c-6.28,0-9.05,4.43-9.05,11.5V64.94h-5.16Z"/><path class="cls-1" d="M705.48,64.94H699.8L687.18,34h6l9.65,24.25H703L712.16,34h5.55Z"/><path class="cls-1" d="M726.3,18.16a3.76,3.76,0,0,1,3.76,3.76,3.77,3.77,0,1,1-7.53,0A3.76,3.76,0,0,1,726.3,18.16ZM723.72,34h5.15V64.94h-5.15Z"/><path class="cls-1" d="M761.12,41.74a9.5,9.5,0,0,0-7.8-3.76c-6.94,0-10.44,5.15-10.44,11.49S747,61,753.32,61a9,9,0,0,0,7.86-3.83L765,60.77a15,15,0,0,1-11.7,5c-9.58,0-16-6.74-16-16.26s6.48-16.25,16-16.25a15.69,15.69,0,0,1,11.89,4.89Z"/><path class="cls-1" d="M798.58,59.32c-3.63,4.69-8,6.41-13.74,6.41-9.72,0-15.66-7.27-15.66-16.26,0-9.58,6.74-16.25,15.86-16.25,8.72,0,14.66,6,14.66,16.19v1.65h-25c.39,5.35,4.49,9.91,10.11,9.91a11.5,11.5,0,0,0,9.84-4.69ZM794.15,46.7C794,41.48,790.52,38,784.84,38s-9.45,3.5-10.11,8.72Z"/><path class="cls-1" d="M808.36,56.81c2,2.51,4.3,4.16,7.93,4.16,3.24,0,6.8-1.39,6.8-4.76s-3.3-4.16-6.6-4.89c-5.88-1.32-10.9-2.57-10.9-9,0-6,5.81-9.12,11.56-9.12,4.36,0,8.39,1.65,10.5,5.62l-4.29,2.84a7.36,7.36,0,0,0-6.54-3.7c-2.84,0-6.08,1.39-6.08,4.29,0,2.58,3.7,3.7,7.8,4.5,5.48,1,10.1,3,10.1,9.25,0,7-6.21,9.71-12.35,9.71-5.22,0-9-1.39-12-5.75Z"/></svg>