<svg id="Layer_1" data-name="Layer 1" xmlns="http://www.w3.org/2000/svg" viewBox="0 0 271.59 80"><defs><style>.cls-1{fill:#fff;}</style></defs><title>web_product_logo_creditreporter</title><path class="cls-1" d="M160.08,22.11a10.3,10.3,0,0,0-4-3.27,11.75,11.75,0,0,0-5-1.09A12.5,12.5,0,0,0,145.59,19a14,14,0,0,0-4.34,3.28A15.22,15.22,0,0,0,138.41,27a16,16,0,0,0-1,5.66,16.51,16.51,0,0,0,1,5.86,14.78,14.78,0,0,0,2.82,4.72,13.63,13.63,0,0,0,15.76,3,13.59,13.59,0,0,0,4.52-3.73l3.19,2.69A14.87,14.87,0,0,1,158.84,50a18.92,18.92,0,0,1-7.74,1.52,18.26,18.26,0,0,1-7.21-1.42,17.74,17.74,0,0,1-5.81-3.94,18.08,18.08,0,0,1-3.86-6,20,20,0,0,1-1.39-7.56,20.36,20.36,0,0,1,1.34-7.41A17.84,17.84,0,0,1,151.1,13.79a19.12,19.12,0,0,1,7,1.32,13,13,0,0,1,5.66,4.31Z"/><path class="cls-1" d="M169.93,32.52c0-1.09,0-2.1-.1-3.05s-.1-1.81-.1-2.59h3.75c0,.65,0,1.29.05,1.93s.05,1.3.05,2h.11a6.89,6.89,0,0,1,1.14-1.67,8.1,8.1,0,0,1,1.75-1.45,9.87,9.87,0,0,1,2.28-1,9.65,9.65,0,0,1,2.74-.38,7.67,7.67,0,0,1,.82.05,4,4,0,0,1,.81.21l-.26,4a7.08,7.08,0,0,0-2.13-.31q-3.65,0-5.3,2.36a11.15,11.15,0,0,0-1.65,6.47V50.64h-4Z"/><path class="cls-1" d="M208.1,46.32a12,12,0,0,1-4.67,3.83,14.77,14.77,0,0,1-5.89,1.09,12.22,12.22,0,0,1-5-1,11.39,11.39,0,0,1-3.79-2.67,11.8,11.8,0,0,1-2.38-4,14,14,0,0,1-.84-4.87,13.58,13.58,0,0,1,.92-5,11.28,11.28,0,0,1,6.39-6.52,12.72,12.72,0,0,1,4.87-.92,12.11,12.11,0,0,1,4.57.84,9.88,9.88,0,0,1,3.58,2.44,10.85,10.85,0,0,1,2.31,3.91,15.81,15.81,0,0,1,.81,5.25V40H189.78a8.5,8.5,0,0,0,2.38,5.35A7.41,7.41,0,0,0,194.55,47a7.2,7.2,0,0,0,3,.61,9.48,9.48,0,0,0,4.37-.91A9.93,9.93,0,0,0,205.1,44Zm-3.4-9.69a6.82,6.82,0,0,0-2-4.87,7.11,7.11,0,0,0-5.18-1.83,7.31,7.31,0,0,0-7.76,6.7Z"/><path class="cls-1" d="M234.85,46.42h-.11a9,9,0,0,1-3.52,3.43,11,11,0,0,1-5.61,1.39,11.76,11.76,0,0,1-4.67-.93,11.3,11.3,0,0,1-3.78-2.62,11.9,11.9,0,0,1-2.51-4,13.88,13.88,0,0,1,0-9.94,11.79,11.79,0,0,1,2.53-4,11.48,11.48,0,0,1,3.94-2.62,13.54,13.54,0,0,1,5.1-.94A10.57,10.57,0,0,1,231,27.34a11.67,11.67,0,0,1,3.78,3h.11V12.27h4V50.64h-4Zm0-7.66a10.09,10.09,0,0,0-.59-3.48,8,8,0,0,0-4.36-4.67,9.24,9.24,0,0,0-7,0,8,8,0,0,0-4.36,4.67,10.56,10.56,0,0,0,0,7,8,8,0,0,0,4.36,4.67,9.24,9.24,0,0,0,7,0,8,8,0,0,0,4.36-4.67A10.09,10.09,0,0,0,234.85,38.76Z"/><path class="cls-1" d="M245.61,17.59a2.83,2.83,0,0,1,.83-2,2.79,2.79,0,0,1,2.06-.86,2.75,2.75,0,0,1,2.05.86,2.92,2.92,0,1,1-4.94,2Zm.91,9.29h4V50.64h-4Z"/><path class="cls-1" d="M271.34,30.23h-7V42.11c0,.78,0,1.5.05,2.16a4.49,4.49,0,0,0,.41,1.72,2.74,2.74,0,0,0,1.07,1.17,3.91,3.91,0,0,0,2,.43,8.5,8.5,0,0,0,1.77-.2,7.72,7.72,0,0,0,1.73-.61l.15,3.6a8.63,8.63,0,0,1-2.26.66,14.1,14.1,0,0,1-2.36.2,8.65,8.65,0,0,1-3.4-.55,4.62,4.62,0,0,1-2-1.58,5.83,5.83,0,0,1-.94-2.51,22.48,22.48,0,0,1-.23-3.32v-13H255.2V26.88h5.17V20.13h4v6.75h7Z"/><path class="cls-1" d="M.49,14.93H14.15c7,0,17.43,4.67,17.43,17.78S21.13,50.49,14.15,50.49H.49ZM4.71,46.57h8c8.14,0,14.32-4.12,14.32-13.86S20.88,18.85,12.74,18.85h-8Z"/><path class="cls-1" d="M90.91,14.93h10.85c5.87,0,11.8,2.21,11.8,8.74,0,4.12-2.41,6.88-6.23,8v.11a8.68,8.68,0,0,1,8,8.73c0,7.84-7.28,10-13.86,10H90.91ZM95.13,30H101c4,0,8.09-.86,8.09-5.78,0-4.37-3.82-5.37-7.63-5.37H95.13Zm0,16.57h7.13c4.12,0,8.59-1.66,8.59-6.18,0-5-4.22-6.48-8.49-6.48H95.13Z"/><path class="cls-1" d="M39.77,9.4,79.92,51.07,75.7,55.15l-6.34-6.56-6.26,6a15.11,15.11,0,0,1-10.83,4.28h0A15.2,15.2,0,0,1,42,32.77l4.2-4L50.26,33l-4.2,4a9.32,9.32,0,0,0,6.3,16h0A9.29,9.29,0,0,0,59,50.41l6.26-6L39.76,17.91V9.4Z"/><path class="cls-1" d="M68.85,16.05v6.08a8.86,8.86,0,0,1,3.37,2.27A9.34,9.34,0,0,1,72,37.61l-.55.5,4.11,4.2.52-.48a15.2,15.2,0,0,0-7.2-25.78Z"/><path class="cls-1" d="M43.6,3.52,40.69,6.31l4.07,4.22,2.91-2.79a7,7,0,1,1,9.74,10.09L54.52,20.6l4.08,4.22,2.89-2.77A12.88,12.88,0,1,0,43.6,3.52Z"/><path class="cls-1" d="M157.34,67.45h3.1c2.35,0,4.84.35,4.84,3.35a3.17,3.17,0,0,1-3,3.2l3.45,5.6h-1.77l-3.29-5.46h-1.85V79.6h-1.44Zm1.44,5.35h1.28c1.6,0,3.67,0,3.67-2,0-1.75-1.52-2-2.93-2h-2Z"/><path class="cls-1" d="M172.1,67.45h7.63v1.34h-6.19V72.6h5.78v1.34h-5.78v4.32H180V79.6H172.1Z"/><path class="cls-1" d="M186.56,67.45h3.6c2.23,0,4.25.79,4.25,3.33s-2.26,3.36-4,3.36H188V79.6h-1.44ZM188,72.8h2.43c1.45,0,2.44-.65,2.44-2s-1-2-2.44-2H188Z"/><path class="cls-1" d="M200.31,73.52a6.35,6.35,0,1,1,6.35,6.38A6.16,6.16,0,0,1,200.31,73.52Zm11.15,0a4.81,4.81,0,1,0-4.8,5A4.8,4.8,0,0,0,211.46,73.52Z"/><path class="cls-1" d="M219.61,67.45h3.1c2.35,0,4.84.35,4.84,3.35a3.17,3.17,0,0,1-3,3.2L228,79.6h-1.77l-3.29-5.46h-1.85V79.6h-1.44Zm1.44,5.35h1.28c1.6,0,3.67,0,3.67-2,0-1.75-1.52-2-2.93-2h-2Z"/><path class="cls-1" d="M242.21,68.79h-4V79.6h-1.44V68.79h-4V67.45h9.47Z"/><path class="cls-1" d="M248.2,67.45h7.63v1.34h-6.19V72.6h5.77v1.34h-5.77v4.32h6.5V79.6H248.2Z"/><path class="cls-1" d="M262.65,67.45h3.11c2.35,0,4.83.35,4.83,3.35a3.17,3.17,0,0,1-3,3.2L271,79.6h-1.76l-3.3-5.46h-1.85V79.6h-1.44Zm1.44,5.35h1.29c1.59,0,3.67,0,3.67-2,0-1.75-1.53-2-2.93-2h-2Z"/></svg>