<svg id="Layer_1" data-name="Layer 1" xmlns="http://www.w3.org/2000/svg" viewBox="0 0 364.99 80"><defs><style>.cls-1{fill:#fff;}</style></defs><title>Web_Product_Logos_Supply</title><path class="cls-1" d="M.4,21H18.92c9.46,0,23.63,6.33,23.63,24.11s-14.17,24.1-23.63,24.1H.4Zm5.72,42.9H17c11,0,19.41-5.58,19.41-18.79S28,26.28,17,26.28H6.12Z"/><path class="cls-1" d="M123,21H137.7c8,0,16,3,16,11.85,0,5.58-3.27,9.33-8.45,10.9v.13a11.78,11.78,0,0,1,10.9,11.85c0,10.62-9.87,13.48-18.8,13.48H123Zm5.72,20.43h7.9c5.38,0,11-1.16,11-7.83,0-5.92-5.18-7.29-10.35-7.29h-8.51Zm0,22.47h9.67C144,63.87,150,61.63,150,55.5c0-6.74-5.72-8.79-11.51-8.79h-9.8Z"/><path class="cls-1" d="M53.65,13.47,108.09,70l-5.72,5.53-8.6-8.9-8.49,8.2A20.51,20.51,0,0,1,70.6,80.6h0A20.61,20.61,0,0,1,56.65,45.16l5.69-5.46,5.54,5.71-5.7,5.47a12.64,12.64,0,0,0,8.54,21.76h0a12.63,12.63,0,0,0,9-3.56l8.48-8.21L53.65,25V13.47Z"/><path class="cls-1" d="M93.08,22.5v8.23a12.06,12.06,0,0,1,4.56,3.08,12.65,12.65,0,0,1-.33,17.91l-.74.68,5.57,5.69.7-.65A20.6,20.6,0,0,0,93.08,22.5Z"/><path class="cls-1" d="M58.84,5.51,54.9,9.28,60.42,15l4-3.78A9.51,9.51,0,1,1,77.58,24.91l-3.92,3.75,5.53,5.72,3.91-3.75A17.46,17.46,0,1,0,58.84,5.51Z"/><path class="cls-1" d="M182,19.85h19.05c9.74,0,24.31,6.52,24.31,24.8s-14.57,24.8-24.31,24.8H182ZM187.88,64h11.21c11.35,0,20-5.75,20-19.34s-8.62-19.33-20-19.33H187.88Z"/><path class="cls-1" d="M237.06,19.85a4,4,0,0,1,4,4,4,4,0,1,1-8,0A4,4,0,0,1,237.06,19.85Zm-2.73,16.81h5.47V69.45h-5.47Z"/><path class="cls-1" d="M250.65,44.44c0-3-.28-5.6-.28-7.78h5.19c0,1.76.14,3.58.14,5.4h.14c1.47-3.22,5.53-6.24,10.93-6.24a6.49,6.49,0,0,1,2.24.35l-.35,5.54a10.29,10.29,0,0,0-2.94-.42c-6.66,0-9.6,4.69-9.6,12.19v16h-5.47Z"/><path class="cls-1" d="M303.34,63.5c-3.86,5-8.48,6.79-14.58,6.79-10.29,0-16.6-7.71-16.6-17.23,0-10.16,7.15-17.24,16.81-17.24,9.25,0,15.56,6.31,15.56,17.17v1.75H278.05c.42,5.67,4.76,10.51,10.71,10.51a12.22,12.22,0,0,0,10.44-5Zm-4.7-13.39c-.21-5.53-3.85-9.24-9.88-9.24s-10,3.71-10.71,9.24Z"/><path class="cls-1" d="M336.33,44.86a10.06,10.06,0,0,0-8.26-4c-7.36,0-11.07,5.46-11.07,12.19s4.41,12.19,11.07,12.19a9.55,9.55,0,0,0,8.33-4.07L340.47,65a16,16,0,0,1-12.4,5.25c-10.16,0-17-7.14-17-17.23s6.87-17.24,17-17.24A16.65,16.65,0,0,1,340.68,41Z"/><path class="cls-1" d="M364.71,41.29H355V57.68c0,4.2.07,7.57,4.9,7.57a10.7,10.7,0,0,0,4.84-1.12l.21,5a16.68,16.68,0,0,1-6.38,1.19c-7.78,0-9-4.2-9-11v-18h-7.14V36.66h7.14V27.35H355v9.31h9.67Z"/></svg>