<svg id="Layer_1" data-name="Layer 1" xmlns="http://www.w3.org/2000/svg" viewBox="0 0 832.63 80"><defs><style>.cls-1{fill:#fff;}</style></defs><title>Web_Product_Logos_Supply</title><path class="cls-1" d="M0,18.93H17.3c8.84,0,22.07,5.91,22.07,22.51S26.14,64,17.3,64H0ZM5.34,59H15.52c10.3,0,18.12-5.22,18.12-17.56S25.82,23.89,15.52,23.89H5.34Z"/><path class="cls-1" d="M114.49,18.93h13.73c7.45,0,14.95,2.8,14.95,11.07,0,5.21-3,8.71-7.89,10.17v.13a11,11,0,0,1,10.18,11.06c0,9.93-9.22,12.6-17.55,12.6H114.49ZM119.83,38h7.38c5,0,10.24-1.08,10.24-7.31,0-5.54-4.84-6.81-9.67-6.81h-8Zm0,21h9c5.21,0,10.88-2.1,10.88-7.83,0-6.29-5.35-8.2-10.75-8.2h-9.16Z"/><path class="cls-1" d="M49.74,11.93l50.84,52.76-5.35,5.17-8-8.31L79.28,69.2a19.2,19.2,0,0,1-13.72,5.42h0a19.24,19.24,0,0,1-13-33.1l5.31-5.1L63,41.76l-5.32,5.1a11.81,11.81,0,0,0,8,20.33h0a11.77,11.77,0,0,0,8.43-3.33L82,56.2,49.73,22.7V11.93Z"/><path class="cls-1" d="M86.56,20.36v7.69a11.16,11.16,0,0,1,4.26,2.87,11.83,11.83,0,0,1-.31,16.73l-.69.64L95,53.59l.66-.6a19.23,19.23,0,0,0-9.11-32.63Z"/><path class="cls-1" d="M54.58,4.49,50.9,8l5.16,5.34,3.68-3.53A8.88,8.88,0,1,1,72.08,22.61l-3.66,3.5,5.16,5.34L77.24,28A16.31,16.31,0,1,0,54.58,4.49Z"/><path class="cls-1" d="M192.43,26.06A9.63,9.63,0,0,0,184,21.81c-4.84,0-9.88,2.29-9.88,7.78,0,4.26,2.36,6.15,9.75,8.51,7.2,2.29,13.87,4.65,13.87,13.74s-7.91,13.54-16.29,13.54c-5.36,0-11.12-1.76-14.26-6.41l4.71-3.86c2,3.4,5.89,5.17,9.88,5.17,4.71,0,10.07-2.75,10.07-8.05,0-5.69-3.86-6.67-12.1-9.42-6.54-2.16-11.51-5-11.51-12.76,0-8.89,7.65-13.34,15.76-13.34,5.17,0,9.56,1.44,13,5.43Z"/><path class="cls-1" d="M232.6,56.94c0,2.82.27,5.24.27,7.26H228c0-1.63-.13-3.33-.13-5h-.13c-1.37,3-5.17,5.82-10.2,5.82-8.05,0-11.65-5.1-11.65-12.5V33.59H211V52c0,5.1,2.23,8.31,7,8.31,6.61,0,9.49-4.78,9.49-11.78V33.59h5.1Z"/><path class="cls-1" d="M242,33.59h5.1V38h.13a14.19,14.19,0,0,1,11-5.23c9.62,0,16.1,6.8,16.1,16.09S267.61,65,259,65c-5.5,0-9.88-2.75-11.78-6.22h-.13V79.12H242Zm16,26.69c6.61,0,10.86-5,10.86-11.39S264.6,37.51,258,37.51s-10.86,5-10.86,11.38S251.38,60.28,258,60.28Z"/><path class="cls-1" d="M282,33.59h5.1V38h.13a14.22,14.22,0,0,1,11-5.23c9.61,0,16.09,6.8,16.09,16.09S307.58,65,299,65c-5.49,0-9.88-2.75-11.78-6.22h-.13V79.12H282Zm16,26.69c6.61,0,10.86-5,10.86-11.39S304.57,37.51,298,37.51s-10.86,5-10.86,11.38S291.36,60.28,298,60.28Z"/><path class="cls-1" d="M322.7,14.74h5.1V64.2h-5.1Z"/><path class="cls-1" d="M341,17.88a3.73,3.73,0,0,1,3.73,3.73,3.73,3.73,0,0,1-7.46,0A3.72,3.72,0,0,1,341,17.88ZM338.4,33.59h5.1V64.2h-5.1Z"/><path class="cls-1" d="M381,58.64c-3.6,4.65-7.92,6.35-13.61,6.35-9.62,0-15.51-7.2-15.51-16.1,0-9.48,6.68-16.09,15.71-16.09,8.63,0,14.52,5.89,14.52,16v1.64H357.37c.39,5.29,4.45,9.81,10,9.81a11.4,11.4,0,0,0,9.75-4.65ZM376.6,46.15c-.19-5.17-3.59-8.64-9.22-8.64s-9.36,3.47-10,8.64Z"/><path class="cls-1" d="M390,40.85c0-2.82-.26-5.24-.26-7.26h4.84c0,1.63.13,3.33.13,5h.13c1.37-3,5.17-5.82,10.21-5.82a6.11,6.11,0,0,1,2.09.33l-.33,5.17a9.34,9.34,0,0,0-2.75-.4c-6.21,0-9,4.39-9,11.39V64.2H390Z"/><path class="cls-1" d="M431.3,17.88h17.8c9.09,0,22.7,6.09,22.7,23.16S458.19,64.2,449.1,64.2H431.3Zm5.5,41.22h10.46c10.6,0,18.65-5.36,18.65-18.06s-8.05-18-18.65-18H436.8Z"/><path class="cls-1" d="M482.72,17.88a3.72,3.72,0,0,1,3.73,3.73,3.73,3.73,0,1,1-7.45,0A3.72,3.72,0,0,1,482.72,17.88Zm-2.55,15.71h5.11V64.2h-5.11Z"/><path class="cls-1" d="M509.35,64.2h-5.62l-12.5-30.61h5.95l9.56,24h.13l9.09-24h5.5Z"/><path class="cls-1" d="M554.3,58.64c-3.6,4.65-7.92,6.35-13.61,6.35-9.62,0-15.5-7.2-15.5-16.1,0-9.48,6.67-16.09,15.7-16.09,8.63,0,14.52,5.89,14.52,16v1.64H530.68c.39,5.29,4.45,9.81,10,9.81a11.4,11.4,0,0,0,9.75-4.65Zm-4.38-12.49c-.2-5.17-3.6-8.64-9.23-8.64s-9.36,3.47-10,8.64Z"/><path class="cls-1" d="M563.33,40.85c0-2.82-.26-5.24-.26-7.26h4.84c0,1.63.13,3.33.13,5h.13c1.37-3,5.17-5.82,10.21-5.82a6.11,6.11,0,0,1,2.09.33l-.33,5.17a9.34,9.34,0,0,0-2.75-.4c-6.21,0-9,4.39-9,11.39V64.2h-5.1Z"/><path class="cls-1" d="M587,56.16c2,2.48,4.25,4.12,7.85,4.12,3.21,0,6.74-1.37,6.74-4.71s-3.27-4.12-6.54-4.84c-5.82-1.31-10.8-2.55-10.8-8.9,0-5.95,5.76-9,11.45-9,4.32,0,8.31,1.64,10.41,5.56l-4.26,2.81a7.3,7.3,0,0,0-6.47-3.66c-2.82,0-6,1.38-6,4.25,0,2.55,3.66,3.67,7.72,4.45,5.43,1,10,3,10,9.16,0,6.94-6.15,9.62-12.24,9.62-5.17,0-8.89-1.37-11.9-5.69Z"/><path class="cls-1" d="M617.24,17.88A3.73,3.73,0,0,1,621,21.61a3.73,3.73,0,1,1-7.46,0A3.72,3.72,0,0,1,617.24,17.88Zm-2.55,15.71h5.1V64.2h-5.1Z"/><path class="cls-1" d="M646.68,37.9h-9V53.21c0,3.93.07,7.07,4.58,7.07a9.92,9.92,0,0,0,4.51-1.05l.2,4.65A15.63,15.63,0,0,1,641,65c-7.27,0-8.44-3.93-8.44-10.27V37.9h-6.68V33.59h6.68V24.88h5.1v8.71h9Z"/><path class="cls-1" d="M664.21,71.2c-2,5.17-4.05,8.71-10.2,8.71a11,11,0,0,1-4.58-.79l.65-4.45a10,10,0,0,0,3.6.53c3.34,0,4.58-2,5.69-5l2.09-5.76L648.77,33.59h6l9.48,24h.13l9.1-24H679Z"/><path class="cls-1" d="M702.75,17.88h17.79c9.1,0,22.71,6.09,22.71,23.16S729.64,64.2,720.54,64.2H702.75Zm5.49,41.22h10.47c10.6,0,18.65-5.36,18.65-18.06s-8.05-18-18.65-18H708.24Z"/><path class="cls-1" d="M750.77,37.51a17.07,17.07,0,0,1,12.17-4.71c9,0,12.82,4.32,12.82,13V58.91a34.15,34.15,0,0,0,.46,5.29h-4.91a22.36,22.36,0,0,1-.32-4.58h-.13A11.56,11.56,0,0,1,760.78,65c-6.21,0-11.38-3.14-11.38-9.09,0-10.15,11.77-10.73,19.3-10.73h2v-.92c0-4.45-2.81-6.74-7.59-6.74A13.55,13.55,0,0,0,754,40.85Zm14.79,12c-6.48,0-10.67,1.77-10.67,5.89,0,3.86,2.88,5.3,6.74,5.3,5.89,0,8.9-4.25,9-9.22v-2Z"/><path class="cls-1" d="M801.87,37.9h-9V53.21c0,3.93.07,7.07,4.58,7.07a9.92,9.92,0,0,0,4.51-1.05l.2,4.65a15.63,15.63,0,0,1-6,1.11c-7.27,0-8.44-3.93-8.44-10.27V37.9h-6.68V33.59h6.68V24.88h5.1v8.71h9Z"/><path class="cls-1" d="M807.76,37.51a17.06,17.06,0,0,1,12.16-4.71c9,0,12.83,4.32,12.83,13V58.91a33,33,0,0,0,.46,5.29H828.3a21.69,21.69,0,0,1-.33-4.58h-.13A11.56,11.56,0,0,1,817.77,65c-6.22,0-11.39-3.14-11.39-9.09,0-10.15,11.78-10.73,19.3-10.73h2v-.92c0-4.45-2.82-6.74-7.59-6.74a13.55,13.55,0,0,0-9.1,3.34Zm14.78,12c-6.48,0-10.66,1.77-10.66,5.89,0,3.86,2.88,5.3,6.74,5.3,5.88,0,8.89-4.25,9-9.22v-2Z"/></svg>