<svg id="Layer_1" data-name="Layer 1" xmlns="http://www.w3.org/2000/svg" viewBox="0 0 364.79 80"><defs><style>.cls-1{fill:#fff;}</style></defs><title>Web_Product_Logos_Compliance</title><path class="cls-1" d="M.2,20.37H18.72c9.47,0,23.63,6.33,23.63,24.11s-14.16,24.1-23.63,24.1H.2Zm5.72,42.9H16.81c11,0,19.41-5.58,19.41-18.79s-8.37-18.8-19.41-18.8H5.92Z"/><path class="cls-1" d="M122.79,20.37H137.5c8,0,16,3,16,11.85,0,5.58-3.27,9.33-8.44,10.89v.14A11.78,11.78,0,0,1,156,55.1c0,10.62-9.87,13.48-18.79,13.48H122.79Zm5.72,20.43h7.9c5.38,0,11-1.16,11-7.83,0-5.93-5.17-7.29-10.35-7.29h-8.51Zm0,22.47h9.67c5.58,0,11.64-2.25,11.64-8.37,0-6.75-5.72-8.79-11.51-8.79h-9.8Z"/><path class="cls-1" d="M53.45,12.87l54.44,56.5-5.72,5.53L93.58,66l-8.5,8.2A20.49,20.49,0,0,1,70.4,80h0A20.6,20.6,0,0,1,56.46,44.56l5.68-5.46,5.54,5.71L62,50.28A12.64,12.64,0,0,0,70.52,72h0a12.61,12.61,0,0,0,9-3.56l8.49-8.21L53.45,24.41V12.87Z"/><path class="cls-1" d="M92.88,21.9v8.23a12.17,12.17,0,0,1,4.57,3.08,12.67,12.67,0,0,1-.34,17.91l-.74.68,5.57,5.69.7-.65A20.6,20.6,0,0,0,92.88,21.9Z"/><path class="cls-1" d="M58.64,4.9,54.7,8.68l5.52,5.73,4-3.78A9.51,9.51,0,1,1,77.38,24.31l-3.92,3.75L79,33.78,82.9,30A17.46,17.46,0,1,0,58.64,4.9Z"/><path class="cls-1" d="M181.8,19.25h19.06c9.73,0,24.31,6.52,24.31,24.8s-14.58,24.8-24.31,24.8H181.8Zm5.89,44.13h11.2c11.35,0,20-5.74,20-19.33s-8.62-19.34-20-19.34h-11.2Z"/><path class="cls-1" d="M236.87,19.25a4,4,0,0,1,4,4,4,4,0,1,1-8,0A4,4,0,0,1,236.87,19.25Zm-2.74,16.81h5.47V68.85h-5.47Z"/><path class="cls-1" d="M250.46,43.84c0-3-.28-5.61-.28-7.78h5.18c0,1.75.14,3.58.14,5.4h.14c1.47-3.23,5.53-6.24,10.93-6.24a6.49,6.49,0,0,1,2.24.35l-.35,5.54a10.29,10.29,0,0,0-2.94-.42c-6.66,0-9.6,4.69-9.6,12.19v16h-5.46Z"/><path class="cls-1" d="M303.14,62.89c-3.86,5-8.48,6.8-14.57,6.8C278.27,69.69,272,62,272,52.46c0-10.16,7.15-17.24,16.82-17.24,9.24,0,15.55,6.31,15.55,17.17v1.75H277.85c.42,5.67,4.76,10.51,10.72,10.51a12.21,12.21,0,0,0,10.43-5Zm-4.7-13.38c-.21-5.53-3.85-9.24-9.87-9.24s-10,3.71-10.72,9.24Z"/><path class="cls-1" d="M336.13,44.26a10.06,10.06,0,0,0-8.26-4c-7.36,0-11.07,5.46-11.07,12.19s4.41,12.19,11.07,12.19a9.6,9.6,0,0,0,8.34-4.07l4.06,3.86a15.93,15.93,0,0,1-12.4,5.25c-10.16,0-16.95-7.15-16.95-17.23s6.86-17.24,16.95-17.24a16.64,16.64,0,0,1,12.61,5.19Z"/><path class="cls-1" d="M364.51,40.69h-9.67V57.08c0,4.2.07,7.57,4.9,7.57a10.52,10.52,0,0,0,4.84-1.13l.21,5a16.65,16.65,0,0,1-6.38,1.19c-7.77,0-9-4.2-9-11v-18h-7.15V36.06h7.15V26.75h5.46v9.31h9.67Z"/></svg>