<svg id="Layer_1" data-name="Layer 1" xmlns="http://www.w3.org/2000/svg" viewBox="0 0 788.68 80"><defs><style>.cls-1{fill:#fff;}</style></defs><title>Web_Product_Logos_Compliance</title><path class="cls-1" d="M0,19.21H17.47c8.93,0,22.29,6,22.29,22.74S26.4,64.69,17.47,64.69H0ZM5.39,59.68H15.67C26.08,59.68,34,54.41,34,42s-7.9-17.73-18.31-17.73H5.39Z"/><path class="cls-1" d="M115.62,19.21H129.5c7.51,0,15.09,2.83,15.09,11.18,0,5.27-3.08,8.8-8,10.27v.13A11.11,11.11,0,0,1,146.9,52c0,10-9.31,12.72-17.73,12.72H115.62ZM121,38.48h7.45c5.07,0,10.34-1.09,10.34-7.39,0-5.58-4.88-6.87-9.76-6.87h-8Zm0,21.2h9.12c5.26,0,11-2.12,11-7.9,0-6.36-5.39-8.29-10.85-8.29H121Z"/><path class="cls-1" d="M50.23,12.14l51.34,53.29-5.39,5.21-8.11-8.39-8,7.73a19.34,19.34,0,0,1-13.85,5.47h0A19.44,19.44,0,0,1,53.06,42l5.37-5.15,5.22,5.4-5.38,5.15a11.93,11.93,0,0,0,8,20.53h0a11.9,11.9,0,0,0,8.51-3.36l8-7.74L50.22,23V12.14Z"/><path class="cls-1" d="M87.41,20.65v7.77a11.26,11.26,0,0,1,4.31,2.9,12,12,0,0,1-.31,16.89l-.7.65L96,54.22l.66-.61a19.44,19.44,0,0,0-9.21-33Z"/><path class="cls-1" d="M55.12,4.63,51.4,8.19l5.22,5.4L60.34,10a9,9,0,1,1,12.45,12.9L69.1,26.46l5.21,5.4L78,28.32A16.47,16.47,0,1,0,55.12,4.63Z"/><path class="cls-1" d="M172.14,18.16h14.27c7.73,0,15.53,2.9,15.53,11.49,0,5.42-3.17,9.05-8.19,10.57v.14a11.42,11.42,0,0,1,10.57,11.49c0,10.31-9.58,13.09-18.24,13.09H172.14ZM177.69,38h7.66c5.22,0,10.64-1.13,10.64-7.6,0-5.75-5-7.07-10-7.07h-8.26Zm0,21.8h9.38c5.42,0,11.3-2.18,11.3-8.13,0-6.54-5.55-8.52-11.17-8.52h-9.51Z"/><path class="cls-1" d="M240.46,59.32c-3.63,4.69-8,6.41-13.74,6.41-9.72,0-15.66-7.27-15.66-16.26,0-9.58,6.74-16.25,15.86-16.25,8.72,0,14.66,6,14.66,16.19v1.65h-25C217,56.41,221.1,61,226.72,61a11.5,11.5,0,0,0,9.84-4.69ZM236,46.7c-.19-5.22-3.63-8.72-9.31-8.72s-9.45,3.5-10.11,8.72Z"/><path class="cls-1" d="M249.58,41.35c0-2.84-.26-5.29-.26-7.34h4.88c0,1.66.14,3.37.14,5.09h.13c1.39-3,5.22-5.88,10.31-5.88,8.12,0,11.76,5.15,11.76,12.62v19.1h-5.16V46.37c0-5.15-2.24-8.39-7.07-8.39-6.67,0-9.58,4.82-9.58,11.89V64.94h-5.15Z"/><path class="cls-1" d="M313.93,59.32c-3.63,4.69-8,6.41-13.74,6.41-9.71,0-15.66-7.27-15.66-16.26,0-9.58,6.74-16.25,15.86-16.25,8.72,0,14.67,6,14.67,16.19v1.65h-25c.4,5.35,4.5,9.91,10.11,9.91A11.52,11.52,0,0,0,310,56.28ZM309.51,46.7c-.2-5.22-3.64-8.72-9.32-8.72s-9.45,3.5-10.11,8.72Z"/><path class="cls-1" d="M338.38,38.37h-7.53V64.94H325.7V38.37H319V34h6.74V27.08c0-7.54,2.64-12.89,11-12.89a9.57,9.57,0,0,1,4,.79l-.73,4.63a10.49,10.49,0,0,0-3.5-.66c-5.35,0-5.55,3.9-5.55,9.25V34h7.53Zm7.34-20.21a3.76,3.76,0,0,1,3.76,3.76,3.77,3.77,0,1,1-7.53,0A3.76,3.76,0,0,1,345.72,18.16ZM343.14,34h5.15V64.94h-5.15Z"/><path class="cls-1" d="M380.54,41.74a9.5,9.5,0,0,0-7.8-3.76c-6.94,0-10.44,5.15-10.44,11.49S366.46,61,372.74,61a9,9,0,0,0,7.86-3.83l3.84,3.63a15,15,0,0,1-11.7,5c-9.58,0-16-6.74-16-16.26s6.48-16.25,16-16.25a15.69,15.69,0,0,1,11.89,4.89Z"/><path class="cls-1" d="M393.42,18.16a3.76,3.76,0,0,1,3.77,3.76,3.77,3.77,0,1,1-7.53,0A3.76,3.76,0,0,1,393.42,18.16ZM390.85,34H396V64.94h-5.15Z"/><path class="cls-1" d="M405.84,38a17.22,17.22,0,0,1,12.29-4.76c9.12,0,12.95,4.36,12.95,13.08V59.58a33.72,33.72,0,0,0,.47,5.36h-5a22.21,22.21,0,0,1-.33-4.63h-.13A11.71,11.71,0,0,1,416,65.73c-6.27,0-11.49-3.17-11.49-9.19,0-10.24,11.89-10.83,19.49-10.83h2v-.93c0-4.49-2.84-6.8-7.66-6.8a13.71,13.71,0,0,0-9.19,3.37Zm14.94,12.09c-6.55,0-10.77,1.78-10.77,6,0,3.89,2.9,5.35,6.8,5.35,5.95,0,9-4.3,9.12-9.32v-2Z"/><path class="cls-1" d="M441,15h5.15v50H441Z"/><path class="cls-1" d="M473,41.55C473,27.41,483.22,17,497.42,17s24.45,10.44,24.45,24.58-10.24,24.57-24.45,24.57S473,55.69,473,41.55Zm42.94,0c0-10.77-7.53-19.43-18.5-19.43s-18.5,8.66-18.5,19.43S486.45,61,497.42,61,515.92,52.32,515.92,41.55Z"/><path class="cls-1" d="M563,64.94H558l-8.79-23.79H549l-7.8,23.79h-5.29L525.9,34h5.68l7.07,23.79h.13l8-23.79h5.42l8.12,23.79h.14l7-23.79H573Z"/><path class="cls-1" d="M578.83,41.35c0-2.84-.27-5.29-.27-7.34h4.89c0,1.66.13,3.37.13,5.09h.14c1.38-3,5.21-5.88,10.3-5.88,8.13,0,11.76,5.15,11.76,12.62v19.1h-5.15V46.37c0-5.15-2.25-8.39-7.07-8.39C586.89,38,584,42.8,584,49.87V64.94h-5.15Z"/><path class="cls-1" d="M643.18,59.32c-3.63,4.69-8,6.41-13.74,6.41-9.71,0-15.66-7.27-15.66-16.26,0-9.58,6.74-16.25,15.86-16.25,8.72,0,14.67,6,14.67,16.19v1.65h-25c.4,5.35,4.49,9.91,10.11,9.91a11.49,11.49,0,0,0,9.84-4.69ZM638.76,46.7c-.2-5.22-3.64-8.72-9.32-8.72s-9.45,3.5-10.11,8.72Z"/><path class="cls-1" d="M652.3,41.35c0-2.84-.26-5.29-.26-7.34h4.89c0,1.66.13,3.37.13,5.09h.13c1.39-3,5.22-5.88,10.31-5.88a6.18,6.18,0,0,1,2.11.33l-.33,5.22a9.87,9.87,0,0,0-2.77-.4c-6.28,0-9.06,4.43-9.06,11.5V64.94H652.3Z"/><path class="cls-1" d="M676.22,56.81c2,2.51,4.29,4.16,7.93,4.16,3.24,0,6.8-1.39,6.8-4.76s-3.3-4.16-6.6-4.89c-5.88-1.32-10.91-2.57-10.91-9,0-6,5.82-9.12,11.57-9.12,4.36,0,8.39,1.65,10.5,5.62l-4.29,2.84a7.36,7.36,0,0,0-6.54-3.7c-2.84,0-6.08,1.39-6.08,4.29,0,2.58,3.7,3.7,7.79,4.5,5.49,1,10.11,3,10.11,9.25,0,7-6.21,9.71-12.35,9.71-5.22,0-9-1.39-12-5.75Z"/><path class="cls-1" d="M703.71,15h5.15V38.31H709c1.39-2.45,5.09-5.09,9.91-5.09,8.13,0,11.76,5.15,11.76,12.62v19.1h-5.15V46.37c0-5.15-2.25-8.39-7.07-8.39-6.67,0-9.58,4.82-9.58,11.89V64.94h-5.15Z"/><path class="cls-1" d="M743.48,18.16a3.76,3.76,0,0,1,3.77,3.76,3.77,3.77,0,1,1-7.53,0A3.76,3.76,0,0,1,743.48,18.16ZM740.91,34h5.15V64.94h-5.15Z"/><path class="cls-1" d="M756,34h5.15v4.5h.13a14.32,14.32,0,0,1,11.1-5.29c9.72,0,16.26,6.87,16.26,16.25s-6.81,16.26-15.46,16.26c-5.55,0-10-2.78-11.9-6.28h-.13V80H756Zm16.12,27c6.67,0,11-5,11-11.5S778.83,38,772.16,38s-11,5-11,11.49S765.48,61,772.16,61Z"/></svg>