<svg id="Layer_1" data-name="Layer 1" xmlns="http://www.w3.org/2000/svg" viewBox="0 0 461.34 80"><defs><style>.cls-1{fill:#fff;}</style></defs><title>Web_Product_Logos_Data</title><path class="cls-1" d="M0,19.21H17.47c8.93,0,22.29,6,22.29,22.74S26.4,64.69,17.47,64.69H0ZM5.39,59.68H15.67C26.08,59.68,34,54.41,34,42s-7.9-17.73-18.31-17.73H5.39Z"/><path class="cls-1" d="M115.62,19.21H129.5c7.51,0,15.09,2.83,15.09,11.18,0,5.27-3.08,8.8-8,10.27v.13A11.11,11.11,0,0,1,146.9,52c0,10-9.31,12.72-17.73,12.72H115.62ZM121,38.48h7.45c5.07,0,10.34-1.09,10.34-7.39,0-5.58-4.88-6.87-9.76-6.87h-8Zm0,21.2h9.12c5.26,0,11-2.12,11-7.9,0-6.36-5.39-8.29-10.85-8.29H121Z"/><path class="cls-1" d="M50.23,12.14l51.34,53.29-5.39,5.21-8.11-8.39-8,7.73a19.34,19.34,0,0,1-13.85,5.47h0A19.44,19.44,0,0,1,53.06,42l5.37-5.15,5.22,5.4-5.38,5.15a11.93,11.93,0,0,0,8,20.53h0a11.9,11.9,0,0,0,8.51-3.36l8-7.74L50.22,23V12.14Z"/><path class="cls-1" d="M87.41,20.65v7.77a11.26,11.26,0,0,1,4.31,2.9,12,12,0,0,1-.31,16.89l-.7.65L96,54.22l.66-.61a19.44,19.44,0,0,0-9.21-33Z"/><path class="cls-1" d="M55.12,4.63,51.4,8.19l5.22,5.4L60.34,10a9,9,0,1,1,12.45,12.9L69.1,26.46l5.21,5.4L78,28.32A16.47,16.47,0,1,0,55.12,4.63Z"/><path class="cls-1" d="M169.43,41.55c0-14.14,10.24-24.58,24.45-24.58s24.45,10.44,24.45,24.58-10.25,24.57-24.45,24.57S169.43,55.69,169.43,41.55Zm42.95,0c0-10.77-7.53-19.43-18.5-19.43s-18.5,8.66-18.5,19.43S182.91,61,193.88,61,212.38,52.32,212.38,41.55Z"/><path class="cls-1" d="M226.06,34h5.15v4.5h.13a14.32,14.32,0,0,1,11.1-5.29c9.72,0,16.26,6.87,16.26,16.25s-6.81,16.26-15.46,16.26c-5.55,0-10-2.78-11.9-6.28h-.13V80h-5.15Zm16.12,27c6.67,0,11-5,11-11.5S248.85,38,242.18,38s-11,5-11,11.49S235.51,61,242.18,61Z"/><path class="cls-1" d="M283.61,38.37h-9.12V53.84c0,4,.07,7.13,4.62,7.13a10,10,0,0,0,4.56-1.06l.2,4.69a15.54,15.54,0,0,1-6,1.13c-7.34,0-8.52-4-8.52-10.38v-17H262.6V34h6.74V25.23h5.15V34h9.12Z"/><path class="cls-1" d="M293,18.16a3.76,3.76,0,0,1,3.77,3.76,3.77,3.77,0,1,1-7.54,0A3.76,3.76,0,0,1,293,18.16ZM290.41,34h5.16V64.94h-5.16Z"/><path class="cls-1" d="M305.81,41.35c0-2.84-.27-5.29-.27-7.34h4.89c0,1.66.13,3.37.13,5.09h.14c1.38-3,5.22-5.88,10.3-5.88,6.68,0,8.79,3.77,9.78,5.88,2.25-3.63,5.09-5.88,9.78-5.88,8.86,0,11.76,5,11.76,13V64.94h-5.15V46.43c0-4.29-1.52-8.45-7.53-8.45-4.36,0-8,3.57-8,9.12V64.94h-5.15V47.43c0-6.81-1.72-9.45-5.95-9.45C313.87,38,311,42.8,311,49.87V64.94h-5.15Z"/><path class="cls-1" d="M365.14,18.16a3.76,3.76,0,0,1,3.77,3.76,3.77,3.77,0,1,1-7.53,0A3.76,3.76,0,0,1,365.14,18.16ZM362.56,34h5.16V64.94h-5.16Z"/><path class="cls-1" d="M375.05,60.9l18.17-22.53H375.85V34H400v4L381.79,60.57h18.63v4.37H375.05Z"/><path class="cls-1" d="M434.91,59.32c-3.63,4.69-8,6.41-13.74,6.41-9.71,0-15.66-7.27-15.66-16.26,0-9.58,6.74-16.25,15.86-16.25,8.72,0,14.67,6,14.67,16.19v1.65h-25c.4,5.35,4.49,9.91,10.11,9.91A11.52,11.52,0,0,0,431,56.28ZM430.49,46.7c-.2-5.22-3.64-8.72-9.32-8.72s-9.45,3.5-10.11,8.72Z"/><path class="cls-1" d="M444,41.35c0-2.84-.26-5.29-.26-7.34h4.89c0,1.66.13,3.37.13,5.09h.13c1.39-3,5.22-5.88,10.31-5.88a6.18,6.18,0,0,1,2.11.33L461,38.77a9.87,9.87,0,0,0-2.77-.4c-6.28,0-9.05,4.43-9.05,11.5V64.94H444Z"/></svg>