<svg id="Layer_1" data-name="Layer 1" xmlns="http://www.w3.org/2000/svg" viewBox="0 0 994.18 80"><defs><style>.cls-1{fill:#fff;}</style></defs><title>Web_Product_Logos_Compliance</title><path class="cls-1" d="M0,20.35H18.52c9.47,0,23.63,6.34,23.63,24.11S28,68.57,18.52,68.57H0ZM5.72,63.26h10.9c11,0,19.4-5.59,19.4-18.8s-8.37-18.79-19.4-18.79H5.72Z"/><path class="cls-1" d="M122.59,20.35H137.3c8,0,16,3,16,11.85,0,5.59-3.27,9.33-8.44,10.9v.14a11.76,11.76,0,0,1,10.89,11.84c0,10.63-9.87,13.49-18.79,13.49H122.59Zm5.72,20.43h7.9c5.38,0,11-1.15,11-7.83,0-5.92-5.17-7.28-10.35-7.28h-8.51Zm0,22.48H138c5.58,0,11.65-2.25,11.65-8.38,0-6.74-5.72-8.78-11.51-8.78h-9.81Z"/><path class="cls-1" d="M53.26,12.85,107.7,69.36,102,74.88,93.38,66l-8.49,8.2A20.56,20.56,0,0,1,70.2,80h0A20.61,20.61,0,0,1,56.26,44.54L62,39.08l5.53,5.72-5.69,5.46A12.65,12.65,0,0,0,70.32,72h0a12.62,12.62,0,0,0,9-3.57l8.49-8.2L53.25,24.39V12.85Z"/><path class="cls-1" d="M92.68,21.88v8.23a12.09,12.09,0,0,1,4.57,3.08,12.67,12.67,0,0,1-.34,17.91l-.74.69,5.57,5.68.7-.64a20.61,20.61,0,0,0-9.76-34.95Z"/><path class="cls-1" d="M58.45,4.89l-4,3.78L60,14.39,64,10.61A9.51,9.51,0,1,1,77.18,24.29L73.26,28l5.53,5.72L82.71,30A17.46,17.46,0,1,0,58.45,4.89Z"/><path class="cls-1" d="M224.69,65.47a38.25,38.25,0,0,1-18.57,4.62c-15.41,0-26.48-10.5-26.48-26.06S191.48,18,206.33,18c6.52,0,12.82,1.75,17.52,6.52l-4.42,4.62a18.62,18.62,0,0,0-13.52-5.67c-11.35,0-20,8.54-20,20.59,0,11.84,8.33,20.6,20.52,20.6a29.16,29.16,0,0,0,12.33-2.87V46.56H207.38V41.09h17.31Z"/><path class="cls-1" d="M236.53,15.87H242v53h-5.46Z"/><path class="cls-1" d="M268.47,35.21c10.09,0,17.52,7,17.52,17.23s-7.43,17.23-17.52,17.23S251,62.67,251,52.44,258.38,35.21,268.47,35.21Zm0,29.42c7.08,0,11.63-5.32,11.63-12.19s-4.55-12.19-11.63-12.19-11.63,5.32-11.63,12.19S261.4,64.63,268.47,64.63Z"/><path class="cls-1" d="M294.18,15.87h5.47V40.81h.14a15.19,15.19,0,0,1,11.77-5.6c10.29,0,17.23,7.28,17.23,17.23s-7.22,17.23-16.39,17.23c-5.89,0-10.58-2.94-12.61-6.65h-.14v5.81h-5.47Zm17.1,48.76c7.07,0,11.63-5.32,11.63-12.19s-4.56-12.19-11.63-12.19-11.63,5.32-11.63,12.19S304.2,64.63,311.28,64.63Z"/><path class="cls-1" d="M336.85,40.25a18.24,18.24,0,0,1,13-5c9.66,0,13.73,4.62,13.73,13.87V63.16a36.38,36.38,0,0,0,.49,5.67h-5.26a23.44,23.44,0,0,1-.35-4.9h-.14a12.38,12.38,0,0,1-10.78,5.74c-6.66,0-12.19-3.36-12.19-9.73,0-10.86,12.61-11.49,20.66-11.49h2.1v-1c0-4.77-3-7.22-8.12-7.22a14.54,14.54,0,0,0-9.74,3.57Zm15.83,12.82c-6.94,0-11.42,1.89-11.42,6.31,0,4.13,3.08,5.67,7.22,5.67,6.3,0,9.52-4.55,9.66-9.88v-2.1Z"/><path class="cls-1" d="M374.12,15.87h5.46v53h-5.46Z"/><path class="cls-1" d="M410.9,19.23h12.68c9.59,0,19.75,1.4,19.75,13.66,0,7.22-4.69,11.91-12.4,13.1L445,68.83H437.8L424.35,46.56h-7.57V68.83H410.9Zm5.88,21.86H422c6.51,0,15,0,15-8.2,0-7.14-6.24-8.19-12-8.19h-8.27Z"/><path class="cls-1" d="M482,62.88c-3.85,5-8.47,6.79-14.57,6.79-10.3,0-16.6-7.7-16.6-17.23,0-10.16,7.14-17.23,16.81-17.23,9.25,0,15.55,6.3,15.55,17.16v1.75H456.71c.42,5.68,4.77,10.51,10.72,10.51a12.22,12.22,0,0,0,10.44-5ZM477.31,49.5c-.21-5.54-3.85-9.25-9.88-9.25s-10,3.71-10.72,9.25Z"/><path class="cls-1" d="M494.47,40.67h-7.14V36.05h7.14V28.69c0-8,2.81-13.66,11.63-13.66a10.08,10.08,0,0,1,4.21.84l-.77,4.91a11.11,11.11,0,0,0-3.72-.71c-5.67,0-5.88,4.14-5.88,9.81v6.17h8v4.62h-8V68.83h-5.47Z"/><path class="cls-1" d="M543,62.88c-3.85,5-8.48,6.79-14.57,6.79-10.3,0-16.6-7.7-16.6-17.23,0-10.16,7.14-17.23,16.81-17.23,9.25,0,15.55,6.3,15.55,17.16v1.75H517.73c.42,5.68,4.76,10.51,10.72,10.51a12.22,12.22,0,0,0,10.44-5ZM538.33,49.5c-.21-5.54-3.86-9.25-9.88-9.25s-10,3.71-10.72,9.25Z"/><path class="cls-1" d="M552.69,43.82c0-3-.28-5.6-.28-7.77h5.18c0,1.75.14,3.57.14,5.39h.14c1.47-3.22,5.54-6.23,10.93-6.23a6.49,6.49,0,0,1,2.24.35l-.35,5.53a10.29,10.29,0,0,0-2.94-.42c-6.65,0-9.6,4.69-9.6,12.19v16h-5.46Z"/><path class="cls-1" d="M605.37,62.88c-3.85,5-8.48,6.79-14.57,6.79-10.3,0-16.6-7.7-16.6-17.23,0-10.16,7.14-17.23,16.81-17.23,9.25,0,15.55,6.3,15.55,17.16v1.75H580.08c.42,5.68,4.76,10.51,10.72,10.51a12.22,12.22,0,0,0,10.44-5ZM600.68,49.5c-.21-5.54-3.86-9.25-9.88-9.25s-10,3.71-10.72,9.25Z"/><path class="cls-1" d="M615,43.82c0-3-.28-5.6-.28-7.77h5.18c0,1.75.14,3.57.14,5.39h.14c1.48-3.22,5.54-6.23,10.93-6.23,8.62,0,12.47,5.46,12.47,13.38V68.83h-5.46V49.15c0-5.47-2.38-8.9-7.5-8.9-7.07,0-10.16,5.11-10.16,12.61v16H615Z"/><path class="cls-1" d="M677.32,44.24a10.08,10.08,0,0,0-8.27-4c-7.35,0-11.07,5.46-11.07,12.19s4.42,12.19,11.07,12.19a9.57,9.57,0,0,0,8.34-4.06l4.06,3.85a15.92,15.92,0,0,1-12.4,5.25c-10.16,0-16.95-7.14-16.95-17.23S659,35.21,669.05,35.21a16.65,16.65,0,0,1,12.61,5.18Z"/><path class="cls-1" d="M717,62.88c-3.85,5-8.48,6.79-14.57,6.79-10.3,0-16.6-7.7-16.6-17.23,0-10.16,7.14-17.23,16.81-17.23,9.25,0,15.55,6.3,15.55,17.16v1.75H691.75c.42,5.68,4.76,10.51,10.72,10.51a12.22,12.22,0,0,0,10.44-5ZM712.35,49.5c-.21-5.54-3.86-9.25-9.88-9.25s-10,3.71-10.72,9.25Z"/><path class="cls-1" d="M770.7,28a10.3,10.3,0,0,0-9-4.55c-5.19,0-10.58,2.45-10.58,8.33,0,4.56,2.52,6.59,10.44,9.11,7.7,2.45,14.85,5,14.85,14.71s-8.48,14.5-17.44,14.5c-5.75,0-11.91-1.89-15.28-6.86l5.05-4.14c2.1,3.65,6.3,5.54,10.58,5.54,5,0,10.78-2.94,10.78-8.62,0-6.09-4.13-7.14-13-10.08-7-2.32-12.33-5.4-12.33-13.67,0-9.52,8.2-14.29,16.89-14.29,5.53,0,10.23,1.54,13.87,5.82Z"/><path class="cls-1" d="M800.76,35.21c10.09,0,17.51,7,17.51,17.23s-7.42,17.23-17.51,17.23-17.52-7-17.52-17.23S790.67,35.21,800.76,35.21Zm0,29.42c7.07,0,11.63-5.32,11.63-12.19s-4.56-12.19-11.63-12.19-11.63,5.32-11.63,12.19S793.68,64.63,800.76,64.63Z"/><path class="cls-1" d="M827.24,15.87h5.46v53h-5.46Z"/><path class="cls-1" d="M872.15,61.06c0,3,.28,5.6.28,7.77h-5.19c0-1.75-.14-3.57-.14-5.39H867c-1.47,3.22-5.53,6.23-10.93,6.23-8.61,0-12.47-5.46-12.47-13.38V36.05H849V55.73c0,5.47,2.38,8.9,7.49,8.9,7.08,0,10.16-5.11,10.16-12.61v-16h5.47Z"/><path class="cls-1" d="M900.45,40.67h-9.67V57.06c0,4.21.07,7.57,4.9,7.57a10.64,10.64,0,0,0,4.84-1.12l.21,5a16.61,16.61,0,0,1-6.38,1.19c-7.77,0-9-4.2-9-11v-18h-7.15V36.05h7.15V26.73h5.46v9.32h9.67Z"/><path class="cls-1" d="M910.4,19.23a4,4,0,0,1,4,4,4,4,0,0,1-8,0A4,4,0,0,1,910.4,19.23Zm-2.74,16.82h5.47V68.83h-5.47Z"/><path class="cls-1" d="M939.61,35.21c10.09,0,17.51,7,17.51,17.23s-7.42,17.23-17.51,17.23-17.52-7-17.52-17.23S929.52,35.21,939.61,35.21Zm0,29.42c7.07,0,11.63-5.32,11.63-12.19s-4.56-12.19-11.63-12.19S928,45.57,928,52.44,932.53,64.63,939.61,64.63Z"/><path class="cls-1" d="M965.6,43.82c0-3-.28-5.6-.28-7.77h5.18c0,1.75.14,3.57.14,5.39h.14c1.47-3.22,5.54-6.23,10.93-6.23,8.62,0,12.47,5.46,12.47,13.38V68.83h-5.46V49.15c0-5.47-2.38-8.9-7.5-8.9-7.07,0-10.16,5.11-10.16,12.61v16H965.6Z"/></svg>