<?xml version="1.0" encoding="utf-8"?>
<!-- Generator: Adobe Illustrator 21.1.0, SVG Export Plug-In . SVG Version: 6.00 Build 0)  -->
<svg version="1.1" id="Layer_1" xmlns="http://www.w3.org/2000/svg" xmlns:xlink="http://www.w3.org/1999/xlink" x="0px" y="0px"
	 viewBox="0 0 364.8 80" style="enable-background:new 0 0 364.8 80;" xml:space="preserve">
<style type="text/css">
	.st0{fill:#FFFFFF;}
</style>
<title>web-product-logos-compliance</title>
<g id="Layer_1_1_">
	<path class="st0" d="M0.2,20.4h18.5c9.5,0,23.6,6.3,23.6,24.1S28.2,68.6,18.7,68.6H0.2V20.4z M5.9,63.3h10.9
		c11,0,19.4-5.6,19.4-18.8s-8.4-18.8-19.4-18.8H5.9L5.9,63.3z"/>
	<path class="st0" d="M122.8,20.4h14.7c8,0,16,3,16,11.9c0,5.6-3.3,9.3-8.4,10.9v0.1c6.2,0.4,11,5.6,10.9,11.8
		c0,10.6-9.9,13.5-18.8,13.5h-14.4V20.4z M128.5,40.8h7.9c5.4,0,11-1.2,11-7.8c0-5.9-5.2-7.3-10.4-7.3h-8.5L128.5,40.8z M128.5,63.3
		h9.7c5.6,0,11.6-2.2,11.6-8.4c0-6.7-5.7-8.8-11.5-8.8h-9.8L128.5,63.3z"/>
	<path class="st0" d="M53.5,12.9l54.4,56.5l-5.7,5.5L93.6,66l-8.5,8.2c-3.9,3.8-9.2,5.9-14.7,5.8l0,0C59,79.8,50,70.4,50.2,59
		c0.1-5.5,2.4-10.7,6.3-14.5l5.7-5.5l5.5,5.7L62,50.3c-5,4.9-5.1,12.9-0.3,17.9c2.3,2.4,5.5,3.8,8.8,3.8l0,0c3.4,0.1,6.6-1.2,9-3.6
		l8.5-8.2L53.5,24.4V12.9z"/>
	<path class="st0" d="M92.9,21.9v8.2c1.7,0.7,3.3,1.7,4.6,3.1c4.9,5,4.7,13.1-0.3,17.9l-0.7,0.7l5.6,5.7l0.7-0.7
		c8.2-7.9,8.4-21,0.5-29.1C100.4,24.8,96.8,22.8,92.9,21.9z"/>
	<path class="st0" d="M58.6,4.9l-3.9,3.8l5.5,5.7l3.9-3.8C68,7,74,7.1,77.6,10.9c3.6,3.8,3.5,9.8-0.2,13.4l0,0l-3.9,3.8l5.5,5.7
		l3.9-3.8C90,23.5,90.5,12.4,84,5.3S66.4-2.3,59.3,4.3C59.1,4.5,58.9,4.7,58.6,4.9z"/>
	<path class="st0" d="M181.8,19.2h19.1c9.7,0,24.3,6.5,24.3,24.8s-14.6,24.8-24.3,24.8h-19.1V19.2z M187.7,63.4h11.2
		c11.4,0,20-5.7,20-19.3s-8.6-19.3-20-19.3h-11.2L187.7,63.4z"/>
	<path class="st0" d="M236.9,19.2c2.2,0,4,1.8,4,4s-1.8,4-4,4s-4-1.8-4-4S234.7,19.2,236.9,19.2z M234.1,36.1h5.5v32.8h-5.5V36.1z"
		/>
	<path class="st0" d="M250.5,43.8c0-3-0.3-5.6-0.3-7.8h5.2c0,1.8,0.1,3.6,0.1,5.4h0.1c1.5-3.2,5.5-6.2,10.9-6.2
		c0.8,0,1.5,0.1,2.2,0.3l-0.4,5.5c-1-0.3-1.9-0.4-2.9-0.4c-6.7,0-9.6,4.7-9.6,12.2v16h-5.5L250.5,43.8z"/>
	<path class="st0" d="M303.1,62.9c-3.9,5-8.5,6.8-14.6,6.8c-10.3,0-16.6-7.7-16.6-17.2c0-10.2,7.1-17.2,16.8-17.2
		c9.2,0,15.5,6.3,15.5,17.2v1.8h-26.5c0.4,5.7,4.8,10.5,10.7,10.5c4.1,0.2,8-1.7,10.4-5L303.1,62.9z M298.5,49.5
		c-0.2-5.5-3.9-9.2-9.9-9.2s-10,3.7-10.7,9.2H298.5z"/>
	<path class="st0" d="M336.1,44.3c-2-2.6-5-4.1-8.3-4c-7.4,0-11.1,5.5-11.1,12.2s4.4,12.2,11.1,12.2c3.3,0.2,6.4-1.4,8.3-4.1
		l4.1,3.9c-3.2,3.5-7.7,5.4-12.4,5.2c-10.2,0-17-7.2-17-17.2s6.9-17.2,17-17.2c4.7-0.2,9.3,1.7,12.6,5.2L336.1,44.3z"/>
	<path class="st0" d="M364.5,40.7h-9.7v16.4c0,4.2,0.1,7.6,4.9,7.6c1.7,0,3.3-0.4,4.8-1.1l0.2,5c-2,0.8-4.2,1.2-6.4,1.2
		c-7.8,0-9-4.2-9-11v-18h-7.1v-4.7h7.1v-9.3h5.5v9.3h9.7L364.5,40.7z"/>
</g>
</svg>
