<?xml version="1.0" encoding="utf-8"?>
<!-- Generator: Adobe Illustrator 19.1.1, SVG Export Plug-In . SVG Version: 6.00 Build 0)  -->
<svg version="1.1" xmlns="http://www.w3.org/2000/svg" xmlns:xlink="http://www.w3.org/1999/xlink" x="0px" y="0px"
	 viewBox="0 0 77 68" style="enable-background:new 0 0 77 68;" xml:space="preserve">
<style type="text/css">
	.st0{fill:none;stroke:#409DBA;stroke-miterlimit:10;}
	.st1{display:none;}
	.st2{display:inline;fill:none;stroke:#D85616;stroke-miterlimit:10;}
</style>
<g id="Layer_1">
	<g>
		<polygon class="st0" points="-18.8,22.9 0.5,11.8 19.7,22.9 19.7,45.1 0.5,56.2 -18.8,45.1 		"/>
		<polygon class="st0" points="39,56.3 58.2,45.2 77.5,56.3 77.5,78.5 58.2,89.6 39,78.5 		"/>
		<polygon class="st0" points="0.5,56.3 19.7,45.2 39,56.3 39,78.5 19.7,89.6 0.5,78.5 		"/>
		<polygon class="st0" points="19.7,22.9 39,11.8 58.2,22.9 58.2,45.1 39,56.2 19.7,45.1 		"/>
		<polygon class="st0" points="58.2,22.9 77.5,11.7 96.8,22.9 96.8,45.1 77.5,56.2 58.2,45.1 		"/>
		<polygon class="st0" points="0.5,-10.5 19.7,-21.6 39,-10.5 39,11.7 19.7,22.8 0.5,11.7 		"/>
		<polygon class="st0" points="39,-10.5 58.2,-21.6 77.5,-10.5 77.5,11.7 58.2,22.8 39,11.7 		"/>
	</g>
</g>
<g id="Layer_2">
</g>
<g id="Layer_3" class="st1">
	<rect x="-0.9" y="2" class="st2" width="77.6" height="68"/>
</g>
</svg>
