<?xml version="1.0" encoding="utf-8"?>
<!-- Generator: Adobe Illustrator 19.1.0, SVG Export Plug-In . SVG Version: 6.00 Build 0)  -->
<svg version="1.1" id="Layer_2_1_" xmlns="http://www.w3.org/2000/svg" xmlns:xlink="http://www.w3.org/1999/xlink" x="0px" y="0px"
	 viewBox="-429 229 100 103" style="enable-background:new -429 229 100 103;" xml:space="preserve">
<style type="text/css">
	.st0{fill:#3aa0c1;}
</style>
<g>
	<path class="st0" d="M-404,231c4.9,0,7.8-0.9,10.2-2h-1.6c-2.2,0.9-4.8,1.5-8.9,1.4c-3.7-0.1-6.3-0.7-8.4-1.4h-1.8
		c2.4,1.1,5.4,2,10.3,2C-404.1,231-404,231-404,231z"/>
	<path class="st0" d="M-354.8,231c4.8,0,7.8-0.9,10.2-2h-1.6c-2.1,0.8-4.8,1.4-8.7,1.4c-4,0-6.7-0.6-8.9-1.4h-1.5
		C-362.7,230.1-359.7,231.1-354.8,231z"/>
	<path class="st0" d="M-404.2,237.9c0.1,0,0.1,0,0.2,0c6.3,0,9.4-1.6,12.4-3.1c2.9-1.5,5.9-3,12.2-3s9.3,1.5,12.1,3
		c3,1.5,6.1,3.1,12.5,3.1c6.5,0,9.6-1.7,12.6-3.2c3.1-1.6,6-3.1,12.4-3.1c0.3,0,0.5,0,0.8,0v-0.7c-0.3,0-0.5,0-0.8,0
		c-6.5,0-9.7,1.6-12.7,3.2c-2.9,1.5-6,3.1-12.3,3.1s-9.2-1.4-12.2-3c-3-1.5-6-3.1-12.5-3.1c-6.4,0-9.5,1.6-12.5,3.1
		c-3.1,1.6-5.9,3-12.2,3c-6.4,0-9.4-1.6-12.4-3.1c-3-1.6-6-3.2-12.4-3.2v0.7c6.2,0,9.1,1.5,12.1,3.1
		C-413.9,236.2-410.7,237.8-404.2,237.9z"/>
	<path class="st0" d="M-404.2,244.8c6.5,0,9.6-1.5,12.6-3.1c2.9-1.5,5.9-3,12.2-3c6.3,0,9.3,1.5,12.1,3c2.9,1.5,6,3.1,12.3,3.1
		c0.1,0,0.1,0,0.2,0c6.5,0,9.6-1.7,12.6-3.2c3.1-1.6,6-3.1,12.4-3.1c0.3,0,0.5,0,0.8,0v-0.7c-0.3,0-0.5,0-0.8,0
		c-6.5,0-9.7,1.6-12.7,3.2c-2.9,1.5-6,3.1-12.3,3.1c-6.3,0-9.2-1.4-12.2-3c-3-1.5-6-3.1-12.5-3.1c-6.4,0-9.5,1.6-12.5,3.1
		c-3.1,1.6-5.9,3-12.2,3c-6.4,0-9.4-1.6-12.4-3.1s-6-3.1-12.4-3.2v0.7c6.2,0,9.1,1.5,12.1,3.1C-413.9,243.2-410.7,244.8-404.2,244.8
		z"/>
	<path class="st0" d="M-404.2,251.7c0.1,0,0.1,0,0.2,0c6.3,0,9.4-1.6,12.4-3.1c2.9-1.5,5.9-3,12.2-3s9.3,1.5,12.1,3
		c3,1.5,6.1,3.1,12.5,3.1c6.5,0,9.6-1.7,12.6-3.2c3.1-1.6,6-3.1,12.4-3.1c0.3,0,0.5,0,0.8,0v-0.7c-0.3,0-0.5,0-0.8,0
		c-6.5,0-9.7,1.6-12.7,3.2c-2.9,1.5-6,3.1-12.3,3.1s-9.2-1.4-12.2-3c-3-1.5-6-3.1-12.5-3.1c-6.4,0-9.5,1.6-12.5,3.1
		c-3.1,1.6-5.9,3-12.2,3c-6.4,0-9.4-1.6-12.4-3.1s-6-3.1-12.4-3.2v0.7c6.2,0,9.1,1.5,12.1,3.1C-413.9,250-410.7,251.6-404.2,251.7z"
		/>
	<path class="st0" d="M-404.2,258.5c0.1,0,0.1,0,0.2,0c6.3,0,9.4-1.6,12.4-3.1c2.9-1.5,5.9-3,12.2-3s9.3,1.5,12.1,3
		c3,1.5,6.1,3.1,12.5,3.1c6.5,0,9.6-1.7,12.6-3.2c3.1-1.6,6-3.1,12.4-3.1c0.3,0,0.5,0,0.8,0v-0.7c-0.3,0-0.5,0-0.8,0
		c-6.5,0-9.7,1.6-12.7,3.2c-2.9,1.5-6,3.1-12.3,3.1s-9.2-1.4-12.2-3c-3-1.5-6-3.1-12.5-3.1c-6.4,0-9.5,1.6-12.5,3.1
		c-3.1,1.6-5.9,3-12.2,3c-6.4,0-9.4-1.6-12.4-3.1s-6-3.1-12.4-3.2v0.7c6.2,0,9.1,1.5,12.1,3.1C-413.9,256.8-410.7,258.5-404.2,258.5
		z"/>
	<path class="st0" d="M-404.2,265.3c0.1,0,0.1,0,0.2,0c6.3,0,9.4-1.6,12.4-3.1c2.9-1.5,5.9-3,12.2-3s9.3,1.5,12.1,3
		c3,1.5,6.1,3.1,12.5,3.1c6.5,0,9.6-1.7,12.6-3.2c3.1-1.6,6-3.1,12.4-3.1c0.3,0,0.5,0,0.8,0v-0.7c-0.3,0-0.5,0-0.8,0
		c-6.5,0-9.7,1.6-12.7,3.2c-2.9,1.5-6,3.1-12.3,3.1s-9.2-1.4-12.2-3c-3-1.5-6-3.1-12.5-3.1c-6.4,0-9.5,1.6-12.5,3.1
		c-3.1,1.6-5.9,3-12.2,3c-6.4,0-9.4-1.6-12.4-3.1s-6-3.1-12.4-3.2v0.7c6.2,0,9.1,1.5,12.1,3.1C-413.9,263.7-410.7,265.3-404.2,265.3
		z"/>
	<path class="st0" d="M-404.2,272.2c0.1,0,0.1,0,0.2,0c6.3,0,9.4-1.6,12.4-3.1c2.9-1.5,5.9-3,12.2-3s9.3,1.5,12.1,3
		c3,1.5,6.1,3.1,12.5,3.1c6.5,0,9.6-1.7,12.6-3.2c3.1-1.6,6-3.1,12.4-3.1c0.3,0,0.5,0,0.8,0v-0.7c-0.3,0-0.5,0-0.8,0
		c-6.5,0-9.7,1.6-12.7,3.2c-2.9,1.5-6,3.1-12.3,3.1s-9.2-1.4-12.2-3c-3-1.5-6-3.1-12.5-3.1c-6.4,0-9.5,1.6-12.5,3.1
		c-3.1,1.6-5.9,3-12.2,3c-6.4,0-9.4-1.6-12.4-3.1s-6-3.1-12.4-3.2v0.7c6.2,0,9.1,1.5,12.1,3.1C-413.9,270.5-410.7,272.1-404.2,272.2
		z"/>
	<path class="st0" d="M-404.2,279c0.1,0,0.1,0,0.2,0c6.3,0,9.4-1.6,12.4-3.1c2.9-1.5,5.9-3,12.2-3s9.3,1.5,12.1,3
		c3,1.5,6.1,3.1,12.5,3.1c6.5,0,9.6-1.7,12.6-3.2c3.1-1.6,6-3.1,12.4-3.1c0.3,0,0.5,0,0.8,0V272c-0.3,0-0.5,0-0.8,0
		c-6.5,0-9.7,1.6-12.7,3.2c-2.9,1.5-6,3.1-12.3,3.1s-9.2-1.4-12.2-3c-3-1.5-6-3.1-12.5-3.1c-6.4,0-9.5,1.6-12.5,3.1
		c-3.1,1.6-5.9,3-12.2,3c-6.4,0-9.4-1.6-12.4-3.1s-6-3.1-12.4-3.2v0.7c6.2,0,9.1,1.5,12.1,3.1C-413.9,277.3-410.7,278.9-404.2,279z"
		/>
	<path class="st0" d="M-404.2,285.8c0.1,0,0.1,0,0.2,0c6.3,0,9.4-1.6,12.4-3.1c2.9-1.5,5.9-3,12.2-3s9.3,1.5,12.1,3
		c3,1.5,6.1,3.1,12.5,3.1c6.5,0,9.6-1.7,12.6-3.2c3.1-1.6,6-3.1,12.4-3.1c0.3,0,0.5,0,0.8,0v-0.7c-0.3,0-0.5,0-0.8,0
		c-6.5,0-9.7,1.6-12.7,3.2c-2.9,1.5-6,3.1-12.3,3.1s-9.2-1.4-12.2-3c-3-1.5-6-3.1-12.5-3.1c-6.4,0-9.5,1.6-12.5,3.1
		c-3.1,1.6-5.9,3-12.2,3c-6.4,0-9.4-1.6-12.4-3.1s-6-3.1-12.4-3.2v0.7c6.2,0,9.1,1.5,12.1,3.1C-413.9,284.1-410.7,285.8-404.2,285.8
		z"/>
	<path class="st0" d="M-404.2,292.6c0.1,0,0.1,0,0.2,0c6.3,0,9.4-1.6,12.4-3.1c2.9-1.5,5.9-3,12.2-3s9.3,1.5,12.1,3
		c3,1.5,6.1,3.1,12.5,3.1c6.5,0,9.6-1.7,12.6-3.2c3.1-1.6,6-3.1,12.4-3.1c0.3,0,0.5,0,0.8,0v-0.7c-0.3,0-0.5,0-0.8,0
		c-6.5,0-9.7,1.6-12.7,3.2c-2.9,1.5-6,3.1-12.3,3.1s-9.2-1.4-12.2-3c-3-1.5-6-3.1-12.5-3.1c-6.4,0-9.5,1.6-12.5,3.1
		c-3.1,1.6-5.9,3-12.2,3c-6.4,0-9.4-1.6-12.4-3.1s-6-3.1-12.4-3.2v0.7c6.2,0,9.1,1.5,12.1,3.1S-410.7,292.6-404.2,292.6z"/>
	<path class="st0" d="M-404.2,299.5c0.1,0,0.1,0,0.2,0c6.3,0,9.4-1.6,12.4-3.1c2.9-1.5,5.9-3,12.2-3s9.3,1.5,12.1,3
		c3,1.5,6.1,3.1,12.5,3.1c6.5,0,9.6-1.7,12.6-3.2c3.1-1.6,6-3.1,12.4-3.1c0.3,0,0.5,0,0.8,0v-0.7c-0.3,0-0.5,0-0.8,0
		c-6.5,0-9.7,1.6-12.7,3.2c-2.9,1.5-6,3.1-12.3,3.1s-9.2-1.4-12.2-3c-3-1.5-6-3.1-12.5-3.1c-6.4,0-9.5,1.6-12.5,3.1
		c-3.1,1.6-5.9,3-12.2,3c-6.4,0-9.4-1.6-12.4-3.1s-6-3.1-12.4-3.2v0.7c6.2,0,9.1,1.5,12.1,3.1C-413.9,297.8-410.7,299.4-404.2,299.5
		z"/>
	<path class="st0" d="M-404.2,306.3c0.1,0,0.1,0,0.2,0c6.3,0,9.4-1.6,12.4-3.1c2.9-1.5,5.9-3,12.2-3s9.3,1.5,12.1,3
		c3,1.5,6.1,3.1,12.5,3.1c6.5,0,9.6-1.7,12.6-3.2c3.1-1.6,6-3.1,12.4-3.1c0.3,0,0.5,0,0.8,0v-0.7c-0.3,0-0.5,0-0.8,0
		c-6.5,0-9.7,1.6-12.7,3.2c-2.9,1.5-6,3.1-12.3,3.1s-9.2-1.4-12.2-3c-3-1.5-6-3.1-12.5-3.1c-6.4,0-9.5,1.6-12.5,3.1
		c-3.1,1.6-5.9,3-12.2,3c-6.4,0-9.4-1.6-12.4-3.1s-6-3.1-12.4-3.2v0.7c6.2,0,9.1,1.5,12.1,3.1C-413.9,304.6-410.7,306.3-404.2,306.3
		z"/>
	<path class="st0" d="M-404.2,313.1c0.1,0,0.1,0,0.2,0c6.3,0,9.4-1.6,12.4-3.1c2.9-1.5,5.9-3,12.2-3s9.3,1.5,12.1,3
		c3,1.5,6.1,3.1,12.5,3.1c6.5,0,9.6-1.7,12.6-3.2c3.1-1.6,6-3.1,12.4-3.1c0.3,0,0.5,0,0.8,0v-0.7c-0.3,0-0.5,0-0.8,0
		c-6.5,0-9.7,1.6-12.7,3.2c-2.9,1.5-6,3.1-12.3,3.1s-9.2-1.4-12.2-3c-3-1.5-6-3.1-12.5-3.1c-6.4,0-9.5,1.6-12.5,3.1
		c-3.1,1.6-5.9,3-12.2,3c-6.4,0-9.4-1.6-12.4-3.1s-6-3.1-12.4-3.2v0.7c6.2,0,9.1,1.5,12.1,3.1S-410.7,313.1-404.2,313.1z"/>
	<path class="st0" d="M-404.2,320c0.1,0,0.1,0,0.2,0c6.3,0,9.4-1.6,12.4-3.1c2.9-1.5,5.9-3,12.2-3s9.3,1.5,12.1,3
		c3,1.5,6.1,3.1,12.5,3.1c6.5,0,9.6-1.7,12.6-3.2c3.1-1.6,6-3.1,12.4-3.1c0.3,0,0.5,0,0.8,0V313c-0.3,0-0.5,0-0.8,0
		c-6.5,0-9.7,1.6-12.7,3.2c-2.9,1.5-6,3.1-12.3,3.1s-9.2-1.4-12.2-3c-3-1.5-6-3.1-12.5-3.1c-6.4,0-9.5,1.6-12.5,3.1
		c-3.1,1.6-5.9,3-12.2,3c-6.4,0-9.4-1.6-12.4-3.1s-6-3.1-12.4-3.2v0.7c6.2,0,9.1,1.5,12.1,3.1C-413.9,318.3-410.7,319.9-404.2,320z"
		/>
	<path class="st0" d="M-404.2,326.8c0.1,0,0.1,0,0.2,0c6.3,0,9.4-1.6,12.4-3.1c2.9-1.5,5.9-3,12.2-3s9.3,1.5,12.1,3
		c3,1.5,6.1,3.1,12.5,3.1c6.5,0,9.6-1.7,12.6-3.2c3.1-1.6,6-3.1,12.4-3.1c0.3,0,0.5,0,0.8,0v-0.7c-0.3,0-0.5,0-0.8,0
		c-6.5,0-9.7,1.6-12.7,3.2c-2.9,1.5-6,3.1-12.3,3.1s-9.2-1.4-12.2-3c-3-1.5-6-3.1-12.5-3.1c-6.4,0-9.5,1.6-12.5,3.1
		c-3.1,1.6-5.9,3-12.2,3c-6.4,0-9.4-1.6-12.4-3.1s-6-3.1-12.4-3.2v0.7c6.2,0,9.1,1.5,12.1,3.1C-413.9,325.1-410.7,326.8-404.2,326.8
		z"/>
	<path class="st0" d="M-367,329.9c-3-1.5-6-3.1-12.5-3.1c-6.4,0-9.5,1.6-12.5,3.1c-1.6,0.8-3.1,1.6-5,2.1h2.3c1.1-0.5,2.1-1,3.1-1.5
		c2.9-1.5,5.9-3,12.2-3c6.3,0,9.3,1.5,12.1,3c1,0.5,2,1,3.1,1.5h2.2C-364,331.4-365.5,330.7-367,329.9z"/>
	<path class="st0" d="M-416.6,329.7c-3-1.5-6-3.1-12.4-3.2v0.7c6.2,0,9.1,1.5,12.1,3.1c1.1,0.6,2.2,1.1,3.4,1.6h2.2
		C-413.4,331.4-415,330.6-416.6,329.7z"/>
	<path class="st0" d="M-342.5,329.7c-1.6,0.8-3.2,1.7-5.4,2.3h2.3c1.3-0.5,2.4-1.1,3.4-1.6c3.1-1.6,6-3.1,12.4-3.1
		c0.3,0,0.5,0,0.8,0v-0.8c-0.3,0-0.5,0-0.8,0C-336.4,326.5-339.5,328.2-342.5,329.7z"/>
</g>
</svg>
