<?xml version="1.0" encoding="utf-8"?>
<!-- Generator: Adobe Illustrator 19.1.0, SVG Export Plug-In . SVG Version: 6.00 Build 0)  -->
<svg version="1.1" xmlns="http://www.w3.org/2000/svg" xmlns:xlink="http://www.w3.org/1999/xlink" x="0px" y="0px"
	 viewBox="0 0 104 286" style="enable-background:new 0 0 104 286;" xml:space="preserve" width="104px" height="286px">
<style type="text/css">
	.st0{fill:none;stroke:#73AF53;stroke-width:2;stroke-linecap:round;stroke-linejoin:round;stroke-miterlimit:10;}
	.st1{fill:#73AF53;}
	.st2{fill:none;stroke:#3095B4;stroke-width:2.2195;stroke-linecap:round;stroke-miterlimit:10;}
	.st3{fill:none;stroke:#3095B4;stroke-width:2;stroke-linecap:round;stroke-linejoin:round;stroke-miterlimit:10;}
	.st4{fill:#3095B4;}
	.st5{fill:none;stroke:#3095B4;stroke-linecap:round;stroke-miterlimit:10;}
	.st6{fill:none;stroke:#FFFFFF;stroke-width:2.2195;stroke-linecap:round;stroke-miterlimit:10;}
	.st7{fill:none;stroke:#FFFFFF;stroke-width:2;stroke-linecap:round;stroke-linejoin:round;stroke-miterlimit:10;}
	.st8{fill:#FFFFFF;}
	.st9{fill:none;stroke:#FFFFFF;stroke-linecap:round;stroke-miterlimit:10;}
	.st10{fill:none;stroke:#000000;stroke-width:2.2195;stroke-linecap:round;stroke-miterlimit:10;}
	.st11{fill:none;stroke:#000000;stroke-width:2;stroke-linecap:round;stroke-linejoin:round;stroke-miterlimit:10;}
	.st12{fill:none;stroke:#000000;stroke-linecap:round;stroke-miterlimit:10;}
	.st13{fill:#231F20;}
	.st14{fill:none;stroke:#231F20;stroke-width:2;stroke-linecap:round;stroke-linejoin:round;stroke-miterlimit:10;}
	.st15{fill:none;stroke:#025172;stroke-width:2.2195;stroke-linecap:round;stroke-miterlimit:10;}
	.st16{fill:none;stroke:#025172;stroke-width:2;stroke-linecap:round;stroke-linejoin:round;stroke-miterlimit:10;}
	.st17{fill:#025172;}
	.st18{fill:none;stroke:#025172;stroke-linecap:round;stroke-miterlimit:10;}
</style>
<g id="vertical_guides">
</g>
<g id="check">
	<g>
		<polyline class="st0" points="17.9,269.8 11.6,276.2 8.1,272.7 		"/>
		<g>
			<path class="st1" d="M13,262c6.1,0,11,4.9,11,11s-4.9,11-11,11c-6.1,0-11-4.9-11-11S6.9,262,13,262 M13,261c-6.6,0-12,5.4-12,12
				c0,6.6,5.4,12,12,12c6.6,0,12-5.4,12-12C25,266.4,19.6,261,13,261L13,261z"/>
		</g>
	</g>
</g>
<g id="light_blue">
	<g id="close">
		<g>
			<line class="st2" x1="5.6" y1="238.1" x2="21.2" y2="253.6"/>
			<line class="st2" x1="21.2" y1="238.1" x2="5.6" y2="253.6"/>
		</g>
	</g>
	<g id="dropdown">
		<polyline class="st3" points="19,218.8 13,224.8 7,218.8 		"/>
		<polyline class="st3" points="19,199.3 13,193.3 7,199.3 		"/>
	</g>
	<g id="arrow_right">
		<polyline class="st3" points="8,160.2 18,169.2 8,178.2 		"/>
	</g>
	<g id="arrow_left">
		<polyline class="st3" points="18,152.7 8,143.7 18,134.8 		"/>
	</g>
	<g id="circle_arrow_right">
		<g>
			<g>
				<path class="st4" d="M13,54c6.1,0,11,4.9,11,11s-4.9,11-11,11S2,71.1,2,65S6.9,54,13,54 M13,53C6.4,53,1,58.4,1,65
					c0,6.6,5.4,12,12,12s12-5.4,12-12C25,58.4,19.6,53,13,53L13,53z"/>
			</g>
			<polyline class="st3" points="11.4,70.3 17.2,65 11.4,59.7 			"/>
		</g>
		<g>
			<g>
				<path class="st4" d="M13,79.9c6.1,0,11,4.9,11,11s-4.9,11-11,11s-11-4.9-11-11S6.9,79.9,13,79.9 M13,78.9c-6.6,0-12,5.4-12,12
					s5.4,12,12,12c6.6,0,12-5.4,12-12S19.6,78.9,13,78.9L13,78.9z"/>
			</g>
			<polyline class="st3" points="18.3,92.5 13,86.7 7.7,92.5 			"/>
		</g>
		<g>
			<g>
				<path class="st4" d="M13,105.9c6.1,0,11,4.9,11,11s-4.9,11-11,11s-11-4.9-11-11S6.9,105.9,13,105.9 M13,104.9
					c-6.6,0-12,5.4-12,12s5.4,12,12,12c6.6,0,12-5.4,12-12S19.6,104.9,13,104.9L13,104.9z"/>
			</g>
			<polyline class="st3" points="7.7,115.3 13,121 18.3,115.3 			"/>
		</g>
	</g>
	<g id="circle_arrow_left">
		<g>
			<g>
				<path class="st4" d="M13,28c6.1,0,11,4.9,11,11s-4.9,11-11,11S2,45.1,2,39S6.9,28,13,28 M13,27C6.4,27,1,32.4,1,39
					c0,6.6,5.4,12,12,12s12-5.4,12-12C25,32.4,19.6,27,13,27L13,27z"/>
			</g>
			<polyline class="st3" points="14.6,33.7 8.8,39 14.6,44.3 			"/>
		</g>
	</g>
	<g id="add">
		<g>
			<line class="st5" x1="13" y1="8.5" x2="13" y2="17.5"/>
			<g>
				<line class="st5" x1="17.5" y1="13" x2="8.5" y2="13"/>
				<g>
					<path class="st4" d="M13,2c6.1,0,11,4.9,11,11s-4.9,11-11,11C6.9,24,2,19.1,2,13S6.9,2,13,2 M13,1C6.4,1,1,6.4,1,13
						c0,6.6,5.4,12,12,12c6.6,0,12-5.4,12-12C25,6.4,19.6,1,13,1L13,1z"/>
				</g>
			</g>
		</g>
	</g>
</g>
<g id="white">
	<g id="close_copy">
		<g>
			<line class="st6" x1="31.7" y1="238.1" x2="47.3" y2="253.6"/>
			<line class="st6" x1="47.3" y1="238.1" x2="31.7" y2="253.6"/>
		</g>
	</g>
	<g id="dropdown_copy">
		<polyline class="st7" points="45,218.8 39,224.8 33,218.8 		"/>
		<polyline class="st7" points="45,199.3 39,193.3 33,199.3 		"/>
	</g>
	<g id="arrow_right_copy">
		<polyline class="st7" points="34,160.2 44,169.2 34,178.2 		"/>
	</g>
	<g id="arrow_left_copy">
		<polyline class="st7" points="44,152.7 34,143.7 44,134.8 		"/>
	</g>
	<g id="circle_arrow_right_copy">
		<g>
			<g>
				<path class="st8" d="M39,54c6.1,0,11,4.9,11,11s-4.9,11-11,11s-11-4.9-11-11S32.9,54,39,54 M39,53c-6.6,0-12,5.4-12,12
					c0,6.6,5.4,12,12,12s12-5.4,12-12C51,58.4,45.6,53,39,53L39,53z"/>
			</g>
			<polyline class="st7" points="37.4,70.3 43.2,65 37.4,59.7 			"/>
		</g>
	</g>
	<g id="circle_arrow_left_copy">
		<g>
			<g>
				<path class="st8" d="M39,28c6.1,0,11,4.9,11,11s-4.9,11-11,11s-11-4.9-11-11S32.9,28,39,28 M39,27c-6.6,0-12,5.4-12,12
					c0,6.6,5.4,12,12,12s12-5.4,12-12C51,32.4,45.6,27,39,27L39,27z"/>
			</g>
			<polyline class="st7" points="40.6,33.7 34.8,39 40.6,44.3 			"/>
		</g>
	</g>
	<g id="add_copy">
		<g>
			<line class="st9" x1="39" y1="8.5" x2="39" y2="17.5"/>
			<g>
				<line class="st9" x1="43.5" y1="13" x2="34.5" y2="13"/>
				<g>
					<path class="st8" d="M39,2c6.1,0,11,4.9,11,11s-4.9,11-11,11c-6.1,0-11-4.9-11-11S32.9,2,39,2 M39,1c-6.6,0-12,5.4-12,12
						c0,6.6,5.4,12,12,12c6.6,0,12-5.4,12-12C51,6.4,45.6,1,39,1L39,1z"/>
				</g>
			</g>
		</g>
		<g>
			<g>
				<path class="st8" d="M38.7,79.9c6.1,0,11,4.9,11,11c0,6.1-4.9,11-11,11s-11-4.9-11-11C27.7,84.8,32.7,79.9,38.7,79.9 M38.7,78.9
					c-6.6,0-12,5.4-12,12s5.4,12,12,12c6.6,0,12-5.4,12-12S45.3,78.9,38.7,78.9L38.7,78.9z"/>
			</g>
			<polyline class="st7" points="44,92.5 38.7,86.7 33.4,92.5 			"/>
		</g>
		<g>
			<g>
				<path class="st8" d="M38.7,105.9c6.1,0,11,4.9,11,11s-4.9,11-11,11s-11-4.9-11-11S32.7,105.9,38.7,105.9 M38.7,104.9
					c-6.6,0-12,5.4-12,12s5.4,12,12,12c6.6,0,12-5.4,12-12S45.3,104.9,38.7,104.9L38.7,104.9z"/>
			</g>
			<polyline class="st7" points="33.4,115.3 38.7,121 44,115.3 			"/>
		</g>
	</g>
</g>
<g id="black">
	<g id="close_copy_2">
		<g>
			<line class="st10" x1="56.8" y1="238.1" x2="72.4" y2="253.6"/>
			<line class="st10" x1="72.4" y1="238.1" x2="56.8" y2="253.6"/>
		</g>
	</g>
	<g id="dropdown_copy_2">
		<polyline class="st11" points="71,218.8 65,224.8 59,218.8 		"/>
		<polyline class="st11" points="71,199.3 65,193.3 59,199.3 		"/>
	</g>
	<g id="arrow_right_copy_2">
		<polyline class="st11" points="60,160.2 70,169.2 60,178.2 		"/>
	</g>
	<g id="arrow_left_copy_2">
		<polyline class="st11" points="70,152.7 60,143.7 70,134.8 		"/>
	</g>
	<g id="circle_arrow_right_copy_2">
		<g>
			<g>
				<path d="M65,54c6.1,0,11,4.9,11,11s-4.9,11-11,11s-11-4.9-11-11S58.9,54,65,54 M65,53c-6.6,0-12,5.4-12,12c0,6.6,5.4,12,12,12
					s12-5.4,12-12C77,58.4,71.6,53,65,53L65,53z"/>
			</g>
			<polyline class="st11" points="63.4,70.3 69.2,65 63.4,59.7 			"/>
		</g>
	</g>
	<g id="circle_arrow_left_copy_2">
		<g>
			<g>
				<path d="M65,28c6.1,0,11,4.9,11,11s-4.9,11-11,11s-11-4.9-11-11S58.9,28,65,28 M65,27c-6.6,0-12,5.4-12,12c0,6.6,5.4,12,12,12
					s12-5.4,12-12C77,32.4,71.6,27,65,27L65,27z"/>
			</g>
			<polyline class="st11" points="66.6,33.7 60.8,39 66.6,44.3 			"/>
		</g>
	</g>
	<g id="add_copy_2">
		<g>
			<line class="st12" x1="65" y1="8.5" x2="65" y2="17.5"/>
			<g>
				<line class="st12" x1="69.5" y1="13" x2="60.5" y2="13"/>
				<g>
					<path d="M65,2c6.1,0,11,4.9,11,11s-4.9,11-11,11c-6.1,0-11-4.9-11-11S58.9,2,65,2 M65,1c-6.6,0-12,5.4-12,12
						c0,6.6,5.4,12,12,12c6.6,0,12-5.4,12-12C77,6.4,71.6,1,65,1L65,1z"/>
				</g>
			</g>
		</g>
	</g>
	<g>
		<g>
			<path class="st13" d="M64.9,79.9c6.1,0,11,4.9,11,11c0,6.1-4.9,11-11,11s-11-4.9-11-11C53.9,84.8,58.9,79.9,64.9,79.9 M64.9,78.9
				c-6.6,0-12,5.4-12,12s5.4,12,12,12c6.6,0,12-5.4,12-12S71.5,78.9,64.9,78.9L64.9,78.9z"/>
		</g>
		<polyline class="st14" points="70.2,92.5 64.9,86.7 59.6,92.5 		"/>
	</g>
	<g>
		<g>
			<path class="st13" d="M64.9,105.9c6.1,0,11,4.9,11,11s-4.9,11-11,11s-11-4.9-11-11S58.8,105.9,64.9,105.9 M64.9,104.9
				c-6.6,0-12,5.4-12,12s5.4,12,12,12c6.6,0,12-5.4,12-12S71.5,104.9,64.9,104.9L64.9,104.9z"/>
		</g>
		<polyline class="st14" points="59.6,115.3 64.9,121 70.2,115.3 		"/>
	</g>
</g>
<g id="dark_blue">
	<g id="close_copy_3">
		<g>
			<line class="st15" x1="83.3" y1="238.1" x2="98.9" y2="253.6"/>
			<line class="st15" x1="98.9" y1="238.1" x2="83.3" y2="253.6"/>
		</g>
	</g>
	<g id="dropdown_copy_3">
		<polyline class="st16" points="97.5,218.8 91.5,224.8 85.5,218.8 		"/>
		<polyline class="st16" points="97.5,199.3 91.5,193.3 85.5,199.3 		"/>
	</g>
	<g id="arrow_right_copy_3">
		<polyline class="st16" points="86.5,160.2 96.5,169.2 86.5,178.2 		"/>
	</g>
	<g id="arrow_left_copy_3">
		<polyline class="st16" points="96.5,152.7 86.5,143.7 96.5,134.8 		"/>
	</g>
	<g id="circle_arrow_right_copy_3">
		<g>
			<g>
				<path class="st17" d="M91.5,54c6.1,0,11,4.9,11,11s-4.9,11-11,11s-11-4.9-11-11S85.4,54,91.5,54 M91.5,53c-6.6,0-12,5.4-12,12
					c0,6.6,5.4,12,12,12s12-5.4,12-12C103.5,58.4,98.1,53,91.5,53L91.5,53z"/>
			</g>
			<polyline class="st16" points="89.9,70.3 95.7,65 89.9,59.7 			"/>
		</g>
	</g>
	<g id="circle_arrow_left_copy_3">
		<g>
			<g>
				<path class="st17" d="M91.5,28c6.1,0,11,4.9,11,11s-4.9,11-11,11s-11-4.9-11-11S85.4,28,91.5,28 M91.5,27c-6.6,0-12,5.4-12,12
					c0,6.6,5.4,12,12,12s12-5.4,12-12C103.5,32.4,98.1,27,91.5,27L91.5,27z"/>
			</g>
			<polyline class="st16" points="93.1,33.7 87.3,39 93.1,44.3 			"/>
		</g>
	</g>
	<g id="add_copy_3">
		<g>
			<line class="st18" x1="91.5" y1="8.5" x2="91.5" y2="17.5"/>
			<g>
				<line class="st18" x1="96" y1="13" x2="87" y2="13"/>
				<g>
					<path class="st17" d="M91.5,2c6.1,0,11,4.9,11,11s-4.9,11-11,11c-6.1,0-11-4.9-11-11S85.4,2,91.5,2 M91.5,1
						c-6.6,0-12,5.4-12,12c0,6.6,5.4,12,12,12c6.6,0,12-5.4,12-12C103.5,6.4,98.1,1,91.5,1L91.5,1z"/>
				</g>
			</g>
		</g>
	</g>
	<g>
		<g>
			<path class="st17" d="M91.4,79.9c6.1,0,11,4.9,11,11s-4.9,11-11,11s-11-4.9-11-11S85.4,79.9,91.4,79.9 M91.4,78.9
				c-6.6,0-12,5.4-12,12s5.4,12,12,12c6.6,0,12-5.4,12-12S98,78.9,91.4,78.9L91.4,78.9z"/>
		</g>
		<polyline class="st16" points="96.7,92.5 91.4,86.7 86.1,92.5 		"/>
	</g>
	<g>
		<g>
			<path class="st17" d="M91.4,105.9c6.1,0,11,4.9,11,11s-4.9,11-11,11s-11-4.9-11-11S85.4,105.9,91.4,105.9 M91.4,104.9
				c-6.6,0-12,5.4-12,12s5.4,12,12,12c6.6,0,12-5.4,12-12S98,104.9,91.4,104.9L91.4,104.9z"/>
		</g>
		<polyline class="st16" points="86.1,115.3 91.4,121 96.7,115.3 		"/>
	</g>
</g>
</svg>
