<?xml version="1.0" encoding="utf-8"?>
<!-- Generator: Adobe Illustrator 19.1.1, SVG Export Plug-In . SVG Version: 6.00 Build 0)  -->
<svg version="1.1" id="Layer_1" xmlns="http://www.w3.org/2000/svg" xmlns:xlink="http://www.w3.org/1999/xlink" x="0px" y="0px"
	 viewBox="0 0 4176 144" style="enable-background:new 0 0 4176 144;" xml:space="preserve">
<style type="text/css">
	.st0{fill:#4296B3;}
	.st1{fill:none;stroke:#4296B3;stroke-width:2;stroke-linejoin:round;}
	.st2{fill:none;stroke:#4296B3;stroke-width:2;stroke-linecap:round;stroke-linejoin:round;}
	.st3{fill:none;}
	.st4{fill:none;stroke:#4296B4;stroke-width:2;stroke-linecap:round;stroke-linejoin:round;}
	.st5{fill:#4296B4;}
	.st6{fill:none;stroke:#4296B4;stroke-width:2;stroke-linejoin:round;}
	.st7{clip-path:url(#SVGID_2_);fill:#4296B4;}
	.st8{clip-path:url(#SVGID_4_);fill:#4296B4;}
	.st9{clip-path:url(#SVGID_6_);fill:#4296B4;}
	.st10{clip-path:url(#SVGID_8_);fill:#4296B4;}
	.st11{clip-path:url(#SVGID_10_);fill:#4296B4;}
	.st12{clip-path:url(#SVGID_12_);fill:#4296B4;}
	.st13{clip-path:url(#SVGID_14_);fill:#4296B4;}
</style>
<g>
	<g>
		<path class="st0" d="M113.1,39.1H30.9c-2.5,0-4.6,2.1-4.6,4.6v48.3c0,2.5,2.1,4.6,4.6,4.6h36.1v6.5H45.7c-0.6,0-1,0.4-1,1
			c0,0.6,0.4,1,1,1h52.5c0.6,0,1-0.4,1-1c0-0.6-0.4-1-1-1H76.9v-6.5h36.1c2.5,0,4.6-2.1,4.6-4.6V43.6
			C117.7,41.1,115.6,39.1,113.1,39.1z M30.9,41.1h82.1c1.4,0,2.6,1.2,2.6,2.6v42.8H28.3V43.6C28.3,42.2,29.5,41.1,30.9,41.1z
			 M74.9,102.9h-5.9v-6.5h5.9V102.9z M113.1,94.5H30.9c-1.4,0-2.6-1.2-2.6-2.6v-3.5h87.3v3.5C115.7,93.3,114.5,94.5,113.1,94.5z"/>
		<path class="st0" d="M69.9,58.4h32.5c0.6,0,1-0.4,1-1s-0.4-1-1-1H69.9c-0.6,0-1,0.4-1,1S69.3,58.4,69.9,58.4z"/>
		<path class="st0" d="M69.9,67.7h32.5c0.6,0,1-0.4,1-1s-0.4-1-1-1H69.9c-0.6,0-1,0.4-1,1S69.3,67.7,69.9,67.7z"/>
		<path class="st0" d="M69.9,77.2h32.5c0.6,0,1-0.4,1-1c0-0.6-0.4-1-1-1H69.9c-0.6,0-1,0.4-1,1C68.9,76.7,69.3,77.2,69.9,77.2z"/>
		<path class="st0" d="M49.4,79c6.8,0,12.4-5.6,12.4-12.4c0-1.8-0.4-3.5-1.1-5c0,0,0,0,0-0.1c0,0,0,0,0-0.1c-2-4.3-6.3-7.3-11.3-7.3
			c-6.8,0-12.4,5.6-12.4,12.4S42.5,79,49.4,79z M49.4,77c-1.8,0-3.6-0.5-5.1-1.3l5.7-8.3l9.2-4.1c0.4,1,0.6,2.2,0.6,3.3
			C59.8,72.3,55.1,77,49.4,77z M58.4,61.4l-8,3.6v-8.8C53.8,56.5,56.8,58.6,58.4,61.4z M48.4,56.2v10.1l-5.7,8.3
			c-2.3-1.9-3.7-4.8-3.7-8C39,61.2,43.1,56.7,48.4,56.2z"/>
	</g>
</g>
<g>
	<rect x="192.6" y="89.8" class="st1" width="17.7" height="16.7"/>
	<rect x="210.3" y="78" class="st1" width="17.7" height="28.5"/>
	<rect x="228" y="60.2" class="st1" width="17.7" height="46.3"/>
	<path class="st2" d="M185.8,79.6c0,0,26-8.8,29.1-40.1"/>
	<polyline class="st2" points="203.6,47.4 214.9,37.5 223.5,48.8 	"/>
</g>
<g>
	<circle class="st2" cx="357.1" cy="65.5" r="21.8"/>
	<line class="st2" x1="370.2" y1="83.6" x2="386.1" y2="100.3"/>
	<circle class="st2" cx="357.1" cy="59.3" r="6"/>
	<path class="st2" d="M367.3,72.8v2c0,0.3-0.2,0.6-0.5,0.8c-1,0.5-3.9,1.4-9.7,1.4c-5.8,0-8.7-1-9.7-1.4c-0.3-0.1-0.5-0.5-0.5-0.8
		v-2c0-3,2.3-5.5,5.2-5.8c0.1,0,0.2,0,0.3,0.1c1.3,1,3,1.5,4.7,1.5c1.8,0,3.4-0.6,4.7-1.5c0.1-0.1,0.2-0.1,0.3-0.1
		C365.1,67.4,367.3,69.9,367.3,72.8z"/>
</g>
<g>
	<g>
		<path class="st3" d="M527.5,48.6c-2.3-0.1-14-0.9-22.4-7.9c-0.2-0.2-0.5-0.3-0.8-0.3c-0.3,0-0.6,0-0.9,0.3
			c-8.4,6.9-20.1,7.8-22.4,7.9c-0.8,0.1-1.4,0.8-1.4,1.7v16.3c0,25.3,23.1,36.4,24.1,36.8c0.4,0.2,0.9,0.2,1.2,0
			c1-0.5,24.1-11.6,24.1-36.8V50.3C528.9,49.4,528.3,48.7,527.5,48.6z M517.7,63.1l-16,19.1c-0.2,0.2-0.4,0.3-0.7,0.4c0,0,0,0-0.1,0
			c-0.3,0-0.5-0.1-0.7-0.3l-6.1-5.7c-0.4-0.4-0.4-1,0-1.4c0.4-0.4,1-0.4,1.4,0l5.4,5l15.3-18.3c0.4-0.4,1-0.5,1.4-0.1
			C518,62,518,62.7,517.7,63.1z"/>
		<path class="st0" d="M527.7,46.6c0,0-0.1,0-0.1,0c-2.2-0.1-13.3-0.9-21.2-7.4c-0.6-0.5-1.3-0.7-2.2-0.7c-0.8,0-1.5,0.3-2.1,0.7
			c-7.9,6.5-19.1,7.3-21.2,7.4c0,0-0.1,0-0.1,0c-1.8,0.2-3.2,1.8-3.2,3.7v16.3c0,26.5,24.2,38.2,25.2,38.6c0.5,0.2,1,0.3,1.5,0.3
			c0.5,0,1-0.1,1.5-0.3c1-0.5,25.2-12.1,25.2-38.6V50.3C530.9,48.4,529.5,46.8,527.7,46.6z M528.9,66.6c0,25.3-23.1,36.4-24.1,36.8
			c-0.4,0.2-0.8,0.2-1.2,0c-1-0.5-24.1-11.6-24.1-36.8V50.3c0-0.9,0.6-1.6,1.4-1.7c2.3-0.1,14-0.9,22.4-7.9c0.3-0.2,0.6-0.3,0.9-0.3
			c0.3,0,0.6,0.1,0.8,0.3c8.4,6.9,20.1,7.8,22.4,7.9c0.8,0.1,1.4,0.8,1.4,1.7L528.9,66.6L528.9,66.6z"/>
		<path class="st0" d="M516.1,61.8l-15.3,18.3l-5.4-5c-0.4-0.4-1-0.4-1.4,0c-0.4,0.4-0.4,1,0,1.4l6.1,5.7c0.2,0.2,0.4,0.3,0.7,0.3
			c0,0,0,0,0.1,0c0.3,0,0.5-0.1,0.7-0.4l16-19.1c0.4-0.4,0.3-1.1-0.1-1.4C517.1,61.3,516.5,61.4,516.1,61.8z"/>
	</g>
</g>
<g>
	<g>
		<path class="st0" d="M664.8,69.5c-10.5,0-19.1,8.6-19.1,19.1c0,10.5,8.6,19.1,19.1,19.1c10.5,0,19.1-8.6,19.1-19.1
			C683.9,78.1,675.3,69.5,664.8,69.5z M664.8,105.7c-9.4,0-17.1-7.7-17.1-17.1c0-9.4,7.7-17.1,17.1-17.1c9.4,0,17.1,7.7,17.1,17.1
			C681.9,98,674.2,105.7,664.8,105.7z"/>
		<path class="st0" d="M665.5,80.3C665.5,80.3,665.5,80.3,665.5,80.3l-0.7-0.7l-6.7,6.7c-0.4,0.4-0.4,1,0,1.4
			c0.2,0.2,0.5,0.3,0.7,0.3c0.3,0,0.5-0.1,0.7-0.3l4.3-4.3v12.7c0,0.6,0.4,1,1,1c0.6,0,1-0.4,1-1V83.5l4.3,4.3c0.4,0.4,1,0.4,1.4,0
			c0.4-0.4,0.4-1,0-1.4L665.5,80.3z"/>
		<path class="st0" d="M642.2,72.6c-15,0-27.6-5.1-27.6-11.1v-7.3c4.3,4.9,14.9,8.3,27.6,8.3c12.8,0,23.4-3.4,27.6-8.3V63
			c0,0.6,0.4,1,1,1s1-0.4,1-1V49.4c0,0,0,0,0,0c-0.1-7.3-13.1-13-29.6-13c-16.5,0-29.5,5.7-29.6,13c0,0,0,0,0,0v39.2
			c0,6.8,11.2,12.3,26.6,13c0,0,0,0,0,0c0.5,0,1-0.4,1-1c0-0.6-0.4-1-1-1c-13.8-0.6-24.7-5.4-24.7-11v-8.8c3.7,4.2,12.3,7.4,23,8.1
			c0,0,0,0,0.1,0c0.5,0,1-0.4,1-0.9c0-0.6-0.4-1-0.9-1.1c-13-0.9-23.2-5.7-23.2-10.9v-8.8c4.3,4.9,14.9,8.3,27.6,8.3
			c0.6,0,1-0.4,1-1C643.2,73,642.7,72.6,642.2,72.6z M642.2,38.3c16.5,0,27.6,5.7,27.6,11.1c0,6-12.7,11.1-27.6,11.1
			c-15,0-27.6-5.1-27.6-11.1C614.6,44.1,625.7,38.3,642.2,38.3z"/>
	</g>
</g>
<g>
	<g>
		<path class="st3" d="M816.8,54.3h-63.5c-4.2,0-7.7,3.4-7.7,7.7v1.3h78.9V62C824.4,57.8,821,54.3,816.8,54.3z"/>
		<path class="st3" d="M745.5,97.4c0,4.2,3.4,7.7,7.7,7.7h63.5c4.2,0,7.7-3.4,7.7-7.7V75.1h-78.9V97.4z M781.1,81.3H812
			c0.6,0,1,0.4,1,1s-0.4,1-1,1h-30.9c-0.6,0-1-0.4-1-1S780.6,81.3,781.1,81.3z M781.1,87.8H812c0.6,0,1,0.4,1,1s-0.4,1-1,1h-30.9
			c-0.6,0-1-0.4-1-1S780.6,87.8,781.1,87.8z M781.1,94.6H812c0.6,0,1,0.4,1,1s-0.4,1-1,1h-30.9c-0.6,0-1-0.4-1-1
			S780.6,94.6,781.1,94.6z"/>
		<rect x="745.5" y="65.3" class="st3" width="78.9" height="7.8"/>
		<path class="st0" d="M816.8,52.3h-63.5c-5.3,0-9.7,4.3-9.7,9.7v35.4c0,5.3,4.3,9.7,9.7,9.7h63.5c5.3,0,9.7-4.3,9.7-9.7V62
			C826.4,56.7,822.1,52.3,816.8,52.3z M824.4,97.4c0,4.2-3.4,7.7-7.7,7.7h-63.5c-4.2,0-7.7-3.4-7.7-7.7V75.1h78.9L824.4,97.4
			L824.4,97.4z M824.4,73.1h-78.9v-7.8h78.9L824.4,73.1L824.4,73.1z M824.4,63.3h-78.9V62c0-4.2,3.4-7.7,7.7-7.7h63.5
			c4.2,0,7.7,3.4,7.7,7.7C824.4,62,824.4,63.3,824.4,63.3z"/>
		<path class="st0" d="M781.1,83.3H812c0.6,0,1-0.4,1-1s-0.4-1-1-1h-30.9c-0.6,0-1,0.4-1,1S780.6,83.3,781.1,83.3z"/>
		<path class="st0" d="M781.1,89.8H812c0.6,0,1-0.4,1-1s-0.4-1-1-1h-30.9c-0.6,0-1,0.4-1,1S780.6,89.8,781.1,89.8z"/>
		<path class="st0" d="M781.1,96.6H812c0.6,0,1-0.4,1-1s-0.4-1-1-1h-30.9c-0.6,0-1,0.4-1,1S780.6,96.6,781.1,96.6z"/>
		<path class="st0" d="M832,36.9h-63.5c-5.3,0-9.7,4.3-9.7,9.7c0,0.6,0.4,1,1,1s1-0.4,1-1c0-4.2,3.4-7.7,7.7-7.7H832
			c4.2,0,7.7,3.4,7.7,7.7V82c0,4.2-3.4,7.7-7.7,7.7c-0.6,0-1,0.4-1,1s0.4,1,1,1c5.3,0,9.7-4.3,9.7-9.7V46.6
			C841.7,41.3,837.3,36.9,832,36.9z"/>
	</g>
</g>
<g>
	<path class="st2" d="M891.7,107.1c-2,0-3.7-1.7-3.7-3.7V40.7c0-2.1,1.6-3.7,3.7-3.7h89.9c2,0,3.7,1.7,3.7,3.7v62.7
		c0,2.1-1.6,3.7-3.7,3.7H891.7z"/>
	<path class="st2" d="M897.5,42.1h79.4v59.9h-79.4V42.1z M892.9,69.2v5.5 M980.6,70V73"/>
	<path class="st2" d="M943.7,74.3l5.8,15.4h-11.7L943.7,74.3z M952.4,66.7l8.8,23h-17.5L952.4,66.7z M960.5,72.2l6.6,17.4h-13.3
		L960.5,72.2z"/>
	<path class="st2" d="M905.9,54.3h30.3 M905.9,62.1h30.3 M905.9,70h30.7"/>
</g>
<g>
	<g>
		<path class="st3" d="M1094.7,49h-38.1c-1.5,0-2.6,1.2-2.6,2.6v50.3c0,1.5,1.2,2.6,2.6,2.6h38.1c1.5,0,2.6-1.2,2.6-2.6V51.6
			C1097.4,50.2,1096.2,49,1094.7,49z M1059.7,57.4h29.7c0.6,0,1,0.4,1,1s-0.4,1-1,1h-29.7c-0.6,0-1-0.4-1-1S1059.2,57.4,1059.7,57.4
			z M1059.7,64.7h29.7c0.6,0,1,0.4,1,1c0,0.6-0.4,1-1,1h-29.7c-0.6,0-1-0.4-1-1C1058.7,65.1,1059.2,64.7,1059.7,64.7z M1059.6,78.1
			h29.7c0.6,0,1,0.4,1,1s-0.4,1-1,1h-29.7c-0.6,0-1-0.4-1-1S1059,78.1,1059.6,78.1z M1090.5,98.1c0,0.6-0.4,1-1,1h-29.9
			c-0.6,0-1-0.4-1-1V86.4c0-0.6,0.4-1,1-1h29.9c0.6,0,1,0.4,1,1V98.1z M1089.5,73.2h-29.7c-0.6,0-1-0.4-1-1c0-0.6,0.4-1,1-1h29.7
			c0.6,0,1,0.4,1,1C1090.5,72.8,1090,73.2,1089.5,73.2z"/>
		<path class="st3" d="M1060.6,97.1h27.9v-9.7h-27.9V97.1z M1063.1,89.3h23.1c0.6,0,1,0.4,1,1s-0.4,1-1,1h-23.1c-0.6,0-1-0.4-1-1
			S1062.5,89.3,1063.1,89.3z M1063.1,93.3h23.1c0.6,0,1,0.4,1,1s-0.4,1-1,1h-23.1c-0.6,0-1-0.4-1-1S1062.5,93.3,1063.1,93.3z"/>
		<path class="st0" d="M1059.6,80.1h29.7c0.6,0,1-0.4,1-1s-0.4-1-1-1h-29.7c-0.6,0-1,0.4-1,1S1059,80.1,1059.6,80.1z"/>
		<path class="st0" d="M1089.5,71.2h-29.7c-0.6,0-1,0.4-1,1c0,0.6,0.4,1,1,1h29.7c0.6,0,1-0.4,1-1
			C1090.5,71.7,1090,71.2,1089.5,71.2z"/>
		<path class="st0" d="M1089.5,85.4h-29.9c-0.6,0-1,0.4-1,1v11.7c0,0.6,0.4,1,1,1h29.9c0.6,0,1-0.4,1-1V86.4
			C1090.5,85.9,1090,85.4,1089.5,85.4z M1088.5,97.1h-27.9v-9.7h27.9V97.1z"/>
		<path class="st0" d="M1063.1,91.3h23.1c0.6,0,1-0.4,1-1s-0.4-1-1-1h-23.1c-0.6,0-1,0.4-1,1S1062.5,91.3,1063.1,91.3z"/>
		<path class="st0" d="M1063.1,95.3h23.1c0.6,0,1-0.4,1-1s-0.4-1-1-1h-23.1c-0.6,0-1,0.4-1,1S1062.5,95.3,1063.1,95.3z"/>
		<path class="st0" d="M1102.9,37.4h-38.3c-2.5,0-4.6,2-4.6,4.6v2.6c0,0.6,0.4,1,1,1s1-0.4,1-1V42c0-1.4,1.1-2.6,2.6-2.6h38.3
			c1.4,0,2.6,1.1,2.6,2.6v54c0,1.4-1.1,2.6-2.6,2.6h-0.8c-0.6,0-1,0.4-1,1s0.4,1,1,1h0.8c2.5,0,4.6-2,4.6-4.6V42
			C1107.5,39.5,1105.5,37.4,1102.9,37.4z"/>
		<path class="st0" d="M1059.7,66.7h29.7c0.6,0,1-0.4,1-1c0-0.6-0.4-1-1-1h-29.7c-0.6,0-1,0.4-1,1
			C1058.7,66.2,1059.2,66.7,1059.7,66.7z"/>
		<path class="st0" d="M1059.7,59.4h29.7c0.6,0,1-0.4,1-1s-0.4-1-1-1h-29.7c-0.6,0-1,0.4-1,1S1059.2,59.4,1059.7,59.4z"/>
		<path class="st0" d="M1094.7,47h-38.1c-2.6,0-4.6,2.1-4.6,4.6v50.3c0,2.6,2.1,4.6,4.6,4.6h38.1c2.6,0,4.6-2.1,4.6-4.6V51.6
			C1099.4,49.1,1097.3,47,1094.7,47z M1097.4,101.9c0,1.5-1.2,2.6-2.6,2.6h-38.1c-1.5,0-2.6-1.2-2.6-2.6V51.6c0-1.5,1.2-2.6,2.6-2.6
			h38.1c1.5,0,2.6,1.2,2.6,2.6L1097.4,101.9L1097.4,101.9z"/>
	</g>
</g>
<g>
	<g>
		<path class="st3" d="M1242.6,89.1c0,2.2-1.8,3.9-3.9,3.9h-30c-2.2,0-3.9-1.7-4-3.9h-21.9c-1.1,0-2-0.4-2.8-0.9V103
			c0,1.6,1.3,2.8,2.8,2.8h81.7c1.6,0,2.8-1.3,2.8-2.8V88.2c-0.8,0.6-1.8,0.9-2.8,0.9H1242.6z"/>
		<path class="st3" d="M1238.7,91c1.1,0,1.9-0.9,1.9-1.9h-33.9c0,1.1,0.9,1.9,2,1.9H1238.7z"/>
		<path class="st3" d="M1237.8,38.5c0-0.2-0.1-0.3-0.3-0.3h-27.7c-0.2,0-0.3,0.1-0.3,0.3v6.5h28.3V38.5z"/>
		<path class="st3" d="M1264.5,46.9h-81.7c-1.6,0-2.8,1.3-2.8,2.8v34.5c0,1.6,1.3,2.8,2.8,2.8h81.7c1.6,0,2.8-1.3,2.8-2.8V49.8
			C1267.4,48.2,1266.1,46.9,1264.5,46.9z"/>
		<path class="st0" d="M1264.5,44.9h-24.7v-6.5c0-1.3-1-2.3-2.3-2.3h-27.7c-1.3,0-2.3,1-2.3,2.3v6.5h-24.7c-2.7,0-4.8,2.2-4.8,4.8
			V103c0,2.7,2.2,4.8,4.8,4.8h81.7c2.7,0,4.8-2.2,4.8-4.8V49.8C1269.4,47.1,1267.2,44.9,1264.5,44.9z M1209.5,38.5
			c0-0.2,0.1-0.3,0.3-0.3h27.7c0.2,0,0.3,0.1,0.3,0.3v6.5h-28.3V38.5z M1267.4,103c0,1.6-1.3,2.8-2.8,2.8h-81.7
			c-1.6,0-2.8-1.3-2.8-2.8V88.2c0.8,0.6,1.8,0.9,2.8,0.9h21.9c0,2.2,1.8,3.9,4,3.9h30c2.2,0,3.9-1.7,3.9-3.9h21.9
			c1.1,0,2-0.4,2.8-0.9V103z M1206.7,89.1h33.9c0,1.1-0.9,1.9-1.9,1.9h-30C1207.6,91,1206.7,90.2,1206.7,89.1z M1267.4,84.3
			c0,1.6-1.3,2.8-2.8,2.8h-81.7c-1.6,0-2.8-1.3-2.8-2.8V49.8c0-1.6,1.3-2.8,2.8-2.8h81.7c1.6,0,2.8,1.3,2.8,2.8V84.3z"/>
	</g>
</g>
<g>
	<g>
		<path class="st4" d="M1411.9,87.7c0,3.2-2.6,5.8-5.8,5.8h-73.3c-3.2,0-5.8-2.6-5.8-5.8v-43c0-3.2,2.6-5.8,5.8-5.8h73.3
			c3.2,0,5.8,2.6,5.8,5.8V87.7z"/>
		<line class="st4" x1="1351.2" y1="105.1" x2="1388.6" y2="105.1"/>
		<line class="st4" x1="1363.6" y1="93.5" x2="1360.7" y2="104.3"/>
		<line class="st4" x1="1375.2" y1="93.5" x2="1378.4" y2="104.3"/>
		<circle class="st4" cx="1352.7" cy="82" r="3.8"/>
		<circle class="st4" cx="1339.2" cy="65.1" r="3.8"/>
		<circle class="st4" cx="1367.5" cy="56.7" r="3.8"/>
		<circle class="st4" cx="1383.4" cy="70.2" r="3.8"/>
		<circle class="st4" cx="1398.4" cy="54.6" r="3.8"/>
		<line class="st4" x1="1350.5" y1="79" x2="1341.5" y2="68"/>
		<line class="st4" x1="1342.9" y1="63.4" x2="1364" y2="57.8"/>
		<line class="st4" x1="1370.4" y1="59.2" x2="1380.4" y2="68"/>
		<line class="st4" x1="1386.2" y1="67.2" x2="1395.7" y2="57.8"/>
	</g>
</g>
<g>
	<g>
		<path class="st3" d="M1480.9,104.2h18V68.8h-18V104.2z M1484.7,72.9h10.3c0.5,0,0.9,0.4,0.9,0.9c0,0.5-0.4,0.9-0.9,0.9h-10.3
			c-0.5,0-0.9-0.4-0.9-0.9C1483.8,73.3,1484.2,72.9,1484.7,72.9z M1484.7,78.4h10.3c0.5,0,0.9,0.4,0.9,0.9c0,0.5-0.4,0.9-0.9,0.9
			h-10.3c-0.5,0-0.9-0.4-0.9-0.9C1483.8,78.8,1484.2,78.4,1484.7,78.4z M1484.7,84.4h10.3c0.5,0,0.9,0.4,0.9,0.9s-0.4,0.9-0.9,0.9
			h-10.3c-0.5,0-0.9-0.4-0.9-0.9S1484.2,84.4,1484.7,84.4z"/>
		<rect x="1509.3" y="47.3" class="st3" width="10.6" height="20.5"/>
		<rect x="1492" y="39.8" class="st3" width="8.1" height="15.5"/>
		<path class="st3" d="M1529,85.1h14.3V57.2H1529V85.1z M1531.6,61.3h9.1c0.5,0,0.9,0.4,0.9,0.9s-0.4,0.9-0.9,0.9h-9.1
			c-0.5,0-0.9-0.4-0.9-0.9S1531.1,61.3,1531.6,61.3z M1531.6,66.8h9.1c0.5,0,0.9,0.4,0.9,0.9s-0.4,0.9-0.9,0.9h-9.1
			c-0.5,0-0.9-0.4-0.9-0.9S1531.1,66.8,1531.6,66.8z M1531.6,72.8h9.1c0.5,0,0.9,0.4,0.9,0.9c0,0.5-0.4,0.9-0.9,0.9h-9.1
			c-0.5,0-0.9-0.4-0.9-0.9C1530.7,73.2,1531.1,72.8,1531.6,72.8z"/>
		<path class="st5" d="M1544.2,55.4h-16c-0.5,0-0.9,0.4-0.9,0.9v12.6l-5.6-5.4V46.4c0-0.5-0.4-0.9-0.9-0.9h-12.3
			c-0.5,0-0.9,0.4-0.9,0.9v6.3l-5.6-5.4V39c0-0.5-0.4-0.9-0.9-0.9h-9.9c-0.5,0-0.9,0.4-0.9,0.9v17.3c0,0.5,0.4,0.9,0.9,0.9h9.9
			c0.5,0,0.9-0.4,0.9-0.9v-6.6l5.6,5.4v13.5c0,0.5,0.4,0.9,0.9,0.9h12.3c0.5,0,0.9-0.4,0.9-0.9v-2.7l5.6,5.4v3.7L1500.6,90v-22
			c0-0.5-0.4-0.9-0.9-0.9H1480c-0.5,0-0.9,0.4-0.9,0.9V105c0,0.5,0.4,0.9,0.9,0.9h19.7c0.5,0,0.9-0.4,0.9-0.9V92l26.6-14.9v8.8
			c0,0.5,0.4,0.9,0.9,0.9h16c0.5,0,0.9-0.4,0.9-0.9V56.3C1545,55.8,1544.6,55.4,1544.2,55.4z M1500.1,55.4h-8.1V39.8h8.1V55.4z
			 M1519.8,67.7h-10.6V47.3h10.6L1519.8,67.7L1519.8,67.7z M1498.8,104.2h-18V68.8h18V104.2z M1543.3,85.1H1529V57.2h14.3
			L1543.3,85.1L1543.3,85.1z"/>
		<path class="st5" d="M1484.7,74.7h10.3c0.5,0,0.9-0.4,0.9-0.9c0-0.5-0.4-0.9-0.9-0.9h-10.3c-0.5,0-0.9,0.4-0.9,0.9
			C1483.8,74.3,1484.2,74.7,1484.7,74.7z"/>
		<path class="st5" d="M1484.7,80.2h10.3c0.5,0,0.9-0.4,0.9-0.9c0-0.5-0.4-0.9-0.9-0.9h-10.3c-0.5,0-0.9,0.4-0.9,0.9
			C1483.8,79.8,1484.2,80.2,1484.7,80.2z"/>
		<path class="st5" d="M1484.7,86.2h10.3c0.5,0,0.9-0.4,0.9-0.9s-0.4-0.9-0.9-0.9h-10.3c-0.5,0-0.9,0.4-0.9,0.9
			S1484.2,86.2,1484.7,86.2z"/>
		<path class="st5" d="M1531.6,63.1h9.1c0.5,0,0.9-0.4,0.9-0.9s-0.4-0.9-0.9-0.9h-9.1c-0.5,0-0.9,0.4-0.9,0.9
			S1531.1,63.1,1531.6,63.1z"/>
		<path class="st5" d="M1531.6,68.6h9.1c0.5,0,0.9-0.4,0.9-0.9s-0.4-0.9-0.9-0.9h-9.1c-0.5,0-0.9,0.4-0.9,0.9
			S1531.1,68.6,1531.6,68.6z"/>
		<path class="st5" d="M1531.6,74.6h9.1c0.5,0,0.9-0.4,0.9-0.9c0-0.5-0.4-0.9-0.9-0.9h-9.1c-0.5,0-0.9,0.4-0.9,0.9
			C1530.7,74.2,1531.1,74.6,1531.6,74.6z"/>
	</g>
</g>
<g>
	<path class="st5" d="M1696.7,83l-24.1-24.1c-0.3-0.3-0.7-0.4-1.1-0.2c-0.4,0.2-0.6,0.5-0.6,0.9v11.2h-30.6c-0.6,0-1,0.4-1,1V82
		l-19.8-20.8l20.9-21.3v10.8c0,0.6,0.4,1,1,1h23.6c0.6,0,1-0.4,1-1s-0.4-1-1-1h-22.6V37.5c0-0.4-0.2-0.8-0.6-0.9
		c-0.4-0.2-0.8-0.1-1.1,0.2l-23.2,23.7c-0.4,0.4-0.4,1,0,1.4l22.2,23.3c0.3,0.3,0.7,0.4,1.1,0.2c0.4-0.2,0.6-0.5,0.6-0.9V72.8h30.6
		c0.6,0,1-0.4,1-1V62l21.7,21.7l-20.4,20.4V93.3c0-0.6-0.4-1-1-1h-22.8c-0.6,0-1,0.4-1,1s0.4,1,1,1h21.8v12.2c0,0.4,0.2,0.8,0.6,0.9
		c0.1,0.1,0.3,0.1,0.4,0.1c0.3,0,0.5-0.1,0.7-0.3l22.8-22.8C1697.1,84,1697.1,83.4,1696.7,83z"/>
</g>
<g>
	<g>
		<path class="st5" d="M1778,53.3l5.1-5.1l-0.1,32.3c0,0.6,0.4,1,1,1c0,0,0,0,0,0c0.6,0,1-0.4,1-1l0.1-32.3l5.1,5.1
			c0.4,0.4,1,0.4,1.4,0c0.2-0.2,0.3-0.5,0.3-0.7c0-0.3-0.1-0.5-0.3-0.7l-6.8-6.8c0,0,0,0,0,0c-0.2-0.2-0.4-0.3-0.6-0.3c0,0,0,0,0,0
			c0,0,0,0,0,0c-0.1,0-0.1,0-0.2,0c-0.2,0-0.4,0.1-0.5,0.2c0,0,0,0-0.1,0.1l-6.8,6.8c-0.4,0.4-0.4,1,0,1.4
			C1777,53.6,1777.6,53.6,1778,53.3z"/>
		<path class="st5" d="M1796.3,67.1l5.1-5.1l-0.1,27.8c0,0.6,0.4,1,1,1c0,0,0,0,0,0c0.6,0,1-0.4,1-1l0.1-27.8l5.1,5.1
			c0.4,0.4,1,0.4,1.4,0c0.2-0.2,0.3-0.5,0.3-0.7c0-0.3-0.1-0.5-0.3-0.7l-6.8-6.8c0,0,0,0,0,0c-0.2-0.2-0.4-0.3-0.6-0.3c0,0,0,0,0,0
			c-0.1,0-0.1,0-0.2,0c0,0,0,0,0,0c-0.2,0-0.4,0.1-0.5,0.2c0,0,0,0-0.1,0.1l-6.8,6.8c-0.4,0.4-0.4,1,0,1.4
			C1795.3,67.5,1795.9,67.5,1796.3,67.1z"/>
		<path class="st5" d="M1815.2,84.5l5.1-5.1l-0.1,17.5c0,0.6,0.4,1,1,1c0,0,0,0,0,0c0.6,0,1-0.4,1-1l0.1-17.5l5.1,5.1
			c0.4,0.4,1,0.4,1.4,0c0.2-0.2,0.3-0.5,0.3-0.7c0-0.3-0.1-0.5-0.3-0.7l-6.8-6.8c0,0,0,0,0,0c-0.2-0.2-0.4-0.3-0.6-0.3h0h0
			c-0.1,0-0.1,0-0.2,0c-0.2,0-0.4,0.1-0.5,0.2c0,0,0,0-0.1,0.1l-6.8,6.8c-0.4,0.4-0.4,1,0,1.4C1814.2,84.9,1814.8,84.9,1815.2,84.5z
			"/>
		<path class="st5" d="M1830.3,100.7H1771V42.3c0-0.6-0.4-1-1-1s-1,0.4-1,1v59.4c0,0.6,0.4,1,1,1c0.2,0,0.3,0,0.4-0.1
			c0.1,0.1,0.3,0.1,0.4,0.1h59.4c0.6,0,1-0.4,1-1S1830.8,100.7,1830.3,100.7z"/>
	</g>
</g>
<g>
	<path class="st5" d="M1945.4,38.3c-18.8,0-27.8,10.6-28.2,11.1c-0.2,0.2-0.2,0.4-0.2,0.7v21.2c0,17.9,16.5,28.5,23.5,32.3
		c0.5,0.3,1.1,0.1,1.4-0.4c0.3-0.5,0.1-1.2-0.4-1.4c-8.4-4.4-22.4-14.2-22.4-30.4V50.5c1.5-1.6,9.7-9.7,25.3-10v64.2
		c0,0.6,0.5,1.1,1.1,1.1c0.3,0,0.6-0.1,0.8-0.4c3.4-1.5,27.6-12.7,27.6-34.4v-21c0-0.2-0.1-0.5-0.2-0.7c-0.3-0.4-7.8-9.2-23.4-10.8
		c-0.6,0-1.1,0.4-1.2,0.9c-0.1,0.6,0.4,1.1,0.9,1.2c13.2,1.3,20.4,8.3,21.8,9.8v20.6c0,18.8-19.7,29.4-25.3,31.9V39.4
		C1946.5,38.8,1946,38.3,1945.4,38.3z"/>
	<path class="st5" d="M1957.8,69.7h-0.8h-0.9c-1.3,0-2.3-0.9-2.3-2.1s1-2.1,2.3-2.1h1.7c1.3,0,2.3,0.9,2.3,2.1h2.1
		c0-2.3-1.9-4.1-4.2-4.2v-2.1h-2.1v2.1c-2.4,0.1-4.2,1.9-4.2,4.2c0,2.3,2,4.2,4.5,4.2h0.9h0.8c1.3,0,2.3,0.9,2.3,2.1
		c0,1.2-1,2.1-2.3,2.1h-1.7c-1.3,0-2.3-0.9-2.3-2.1h-2.1c0,2.3,1.9,4.1,4.2,4.2v2.1h2.1v-2.1c2.4-0.1,4.2-1.9,4.2-4.2
		C1962.3,71.6,1960.3,69.7,1957.8,69.7"/>
</g>
<g>
	<path class="st5" d="M2128,62.9l-38.7-25.9c-0.3-0.2-0.8-0.2-1.1,0L2049.4,63c-0.4,0.2-0.5,0.7-0.4,1.1c0.1,0.4,0.5,0.7,1,0.7h7.9
		v32.8h-6c-0.6,0-1,0.4-1,1v7.5c0,0.6,0.4,1,1,1h73.7c0.6,0,1-0.4,1-1v-7.5c0-0.6-0.4-1-1-1h-6V64.8l7.9,0c0.4,0,0.8-0.3,1-0.7
		C2128.6,63.6,2128.4,63.2,2128,62.9z M2059.9,64.8h18v32.8h-18V64.8z M2079.9,97.6V64.8h10.1l7.9,0v32.8H2079.9z M2124.6,105.1
		h-71.7v-5.5h71.7V105.1z M2117.6,97.6h-17.7V64.8l17.7,0V97.6z M2053.3,62.8l35.4-23.7l35.4,23.7L2053.3,62.8z"/>
</g>
<g>
	<g>
		<path class="st5" d="M2205.5,87.7c-0.3-0.8-0.9-1.4-1.7-1.7l-0.1-0.1v-7.4h-1.7v7.4l-0.1,0.1c-1.1,0.4-1.9,1.5-1.9,2.7
			c0,1.6,1.3,2.9,2.9,2.9c1.2,0,2.3-0.7,2.7-1.9l0.1-0.1h5.5v-1.7h-5.5L2205.5,87.7z"/>
		<path class="st5" d="M2217,51.4l13.9-7.8l0.1,0.1c0.3,0.2,0.6,0.4,0.9,0.5l0.1,0.1V52h1.7v-7.7l0.1-0.1c0.3-0.1,0.5-0.2,0.8-0.4
			l0.1-0.1l13.7,7.7l0.8-1.5l-13.6-7.7l0-0.2c0-0.2,0.1-0.3,0.1-0.5c0-1.6-1.3-2.9-2.9-2.9c-1.6,0-2.9,1.3-2.9,2.9
			c0,0.1,0,0.2,0,0.2l0,0.3l-14,7.9L2217,51.4z"/>
		<path class="st5" d="M2263.5,86l-0.1-0.1v-7.4h-1.7V86l-0.1,0.1c-0.8,0.3-1.4,0.9-1.7,1.7l-0.1,0.1h-5.4v1.7h5.4l0.1,0.1
			c0.4,1.1,1.5,1.9,2.7,1.9c1.6,0,2.9-1.3,2.9-2.9C2265.4,87.5,2264.6,86.4,2263.5,86z"/>
		<path class="st6" d="M2217.4,76.3l-0.1-0.9c0-0.2,0-1.1,0-2.4l0-0.6c0-5.1,0-6.3-0.1-6.7c-0.2-0.6-0.7-1.8-1.3-2.2
			c-0.5-0.5-1.1-0.6-2.1-1c-0.9-0.3-1.9-0.5-3.2-0.7c-0.6-0.1-1.1-0.2-1.6-0.3l-1-0.2l1-0.2c1.6-0.4,2.8-0.9,3.8-1.5l0.8-0.5
			l-0.5-0.7c-2-2.8-2-5.2-2-5.3c0,0,0.3-3.5,0-5.5c-0.3-2.6-1.2-3.8-1.9-4.3c-0.4-0.3-0.8-0.4-1.2-0.5l-0.1,0l-0.1-0.1
			c-0.7-0.7-2-1.6-4.6-1.6c-1,0-2.1,0.1-3.3,0.4c-4.3,1-5.5,3-6.1,6.1c-0.2,0.7-0.1,3.2,0,5.3v0.4c-0.1,0.8-0.4,2.7-1.9,4.9
			l-0.5,0.7l0.8,0.5c0.9,0.6,2.1,1.1,3.5,1.4l0.9,0.2l-1,0.3c-0.7,0.2-1.4,0.4-2.7,0.6l-0.2,0c-0.7,0.1-1.4,0.3-1.9,0.4
			c-1.2,0.1-2.7,0.9-3.4,3l-0.2,1.2l0.1,0.1l0,0c0,0.4,0,1.7-0.1,3l0,0.9c-0.1,4.9-0.1,4.9,0.1,5.2l0.3,0.4h29.1L2217.4,76.3z"/>
		<path class="st6" d="M2277.9,73.6l0-2.2c0-6.7,0-6.8-0.2-7.4c-0.3-0.7-0.5-1.2-1.1-1.8c-0.5-0.4-1.1-0.6-2.1-1
			c-0.2-0.1-0.5-0.1-0.8-0.2c-0.3-0.1-0.7-0.2-1.2-0.3c-0.3-0.1-0.6-0.1-0.8-0.1l-1.4-0.3c-0.5-0.1-1-0.2-1.5-0.3l-0.6-0.2l0.2-0.3
			c0.5-0.6,1.1-1.7,1.5-3.6l0-0.1l0.1,0c1.1-0.5,1.7-1.9,1.8-2.8c0-0.4,0-2.2-0.8-3.1c-0.1-0.1-0.1-0.1-0.2-0.2l-0.1-0.1l0-0.1
			c0.2-1.5,0.2-2.5,0.2-3.1c0-0.4-0.1-0.9-0.2-1.1c-0.3-1.8-0.8-3-1.7-3.6c-0.4-0.2-0.7-0.4-1.1-0.4l-0.1,0l-0.1-0.1
			c-0.5-0.6-1.7-1.5-4.2-1.5c-0.9,0-1.9,0.1-3,0.4c-3.3,0.7-4.9,2.2-5.5,5.2l0,0.1c-0.1,0.2-0.1,0.4-0.1,0.6l-0.1,0.3h0l0,0.2
			c0,0.6,0,1.5,0.2,2.9l0,0.1l-0.1,0.1c-0.1,0-0.1,0.1-0.2,0.2c-0.9,1-0.8,3.1-0.8,3.1c0,0.8,0.6,1.8,1.2,2.4
			c0.2,0.2,0.4,0.3,0.6,0.4l0.1,0l0,0.1c0.3,1.8,0.9,2.8,1.4,3.4l0.2,0.3l-0.3,0.1c-0.2,0.1-0.4,0.1-0.7,0.2
			c-0.6,0.2-1.1,0.3-1.7,0.4l-4,0.8c-0.6,0.1-1.2,0.5-1.7,0.9c-0.6,0.6-1,1.3-1.3,2.2l-0.2,1l0.1,0.1l0,0c0,0.4,0,1.2,0,2.2
			l-0.1,3.6c0,1.3-0.1,2.4,0,3l0.1,0.8l30.6,0.1l0-1.8L2277.9,73.6L2277.9,73.6z"/>
		<path class="st6" d="M2253,90.4c-0.4-0.8-0.7-1.6-1.4-2.3c-0.7-0.6-1.4-0.8-2.5-1.2l-0.3-0.1c-0.3-0.1-0.7-0.2-1.1-0.3
			c-0.5-0.1-1.1-0.2-1.6-0.3c-0.4-0.1-0.7-0.1-1.1-0.2l-1-0.2c-0.3,0-0.5-0.1-0.8-0.2c-0.6-0.1-1.4-0.3-2-0.4
			c-0.4-0.1-0.7-0.2-0.9-0.3l-0.1-0.1l0-0.1c0-0.1,0-0.1,0-0.2v-0.1l0.1-0.1c0.6-0.6,1.7-2.2,2.2-5.2l0-0.1l0.1,0
			c1.4-0.5,2.3-2.4,2.4-3.5c0,0,0.2-2.7-1-4c-0.1-0.1-0.3-0.2-0.4-0.3l-0.1-0.1l0-0.1c0.3-2.1,0.4-3.5,0.3-4.4
			c-0.1-0.5-0.2-1.1-0.3-1.5c-0.3-2.3-1.1-3.9-2.2-4.7c-0.5-0.3-1-0.5-1.5-0.5l-0.1,0l-0.1-0.1c-0.6-0.8-2.2-2-5.6-2
			c-1.2,0-2.6,0.2-4,0.5c-5,1.1-6.5,3.5-7.3,6.8l0,0.2c-0.1,0.3-0.1,0.5-0.2,0.8l0,0h0l0,0.3l0,0.2c-0.1,0.8,0,2.1,0.3,4.4l0,0.1
			l-0.1,0.1c-0.1,0.1-0.3,0.2-0.4,0.3c-1.1,1.2-1,3.9-1,4c0.1,1.1,1,3.1,2.4,3.5l0.1,0l0,0.1c0.5,2.9,1.6,4.4,2.2,5.1l0.1,0.1v0.1
			l0,0.1l0,0.1l-0.1,0c-0.2,0.1-0.7,0.3-1.5,0.5l-0.3,0.1c-0.7,0.2-1.3,0.3-2,0.5l-5.5,1c-0.8,0.2-1.5,0.6-2.2,1.2
			c-0.7,0.7-1.2,1.6-1.6,2.7l-0.1,0.4c0,0.2-0.1,0.4-0.1,0.7l0,0.3l0.1,0.1c0,0.5,0,1.9,0,2.8l-0.1,5.2c0,1.9-0.1,3.3,0,3.8l0.2,1.1
			l40.6,0.1l0-1l0.1-0.2c0-0.5,0-1.9,0-3.5c0-8.6,0-9.4-0.2-9.8L2253,90.4z"/>
	</g>
</g>
<g>
	<g>
		<path class="st3" d="M2375.5,34.3h-45.8c-0.4,0-0.7,0.3-0.7,0.7v28.7c0,0.4,0.3,0.7,0.7,0.7h45.8c0.4,0,0.7-0.3,0.7-0.7V35.1
			C2376.2,34.7,2375.9,34.3,2375.5,34.3z"/>
		<path class="st3" d="M2425.2,71.9h-45.8c-0.4,0-0.7,0.3-0.7,0.7v28.7c0,0.4,0.3,0.7,0.7,0.7h45.8c0.4,0,0.7-0.3,0.7-0.7V72.6
			C2425.9,72.2,2425.6,71.9,2425.2,71.9z"/>
		<path class="st5" d="M2425.2,69.9h-20.5V51.2c0-1.6-1.3-3-3-3h-23.5V35.1c0-1.5-1.2-2.7-2.7-2.7h-45.8c-1.5,0-2.7,1.2-2.7,2.7
			v28.7c0,1.5,1.2,2.7,2.7,2.7h22.5v5.6h-12.5c-0.6,0-1,0.4-1,1s0.4,1,1,1h26.7c0.6,0,1-0.4,1-1s-0.4-1-1-1h-12.2v-5.6h21.3
			c1.5,0,2.7-1.2,2.7-2.7V50.3h23.5c0.5,0,1,0.4,1,1v18.6h-23.2c-1.5,0-2.7,1.2-2.7,2.7v28.7c0,1.5,1.2,2.7,2.7,2.7h22.5v5.6h-12.5
			c-0.6,0-1,0.4-1,1s0.4,1,1,1h26.7c0.6,0,1-0.4,1-1s-0.4-1-1-1h-12.2v-5.6h21.3c1.5,0,2.7-1.2,2.7-2.7V72.6
			C2427.9,71.1,2426.7,69.9,2425.2,69.9z M2376.2,63.8c0,0.4-0.3,0.7-0.7,0.7h-45.8c-0.4,0-0.7-0.3-0.7-0.7V35.1
			c0-0.4,0.3-0.7,0.7-0.7h45.8c0.4,0,0.7,0.3,0.7,0.7V63.8z M2425.9,101.3c0,0.4-0.3,0.7-0.7,0.7h-45.8c-0.4,0-0.7-0.3-0.7-0.7V72.6
			c0-0.4,0.3-0.7,0.7-0.7h45.8c0.4,0,0.7,0.3,0.7,0.7L2425.9,101.3L2425.9,101.3z"/>
	</g>
</g>
<g>
	<g>
		<rect x="2492.6" y="64.2" class="st3" width="3" height="19.1"/>
		<rect x="2501.5" y="58" class="st3" width="3" height="25.3"/>
		<rect x="2509.1" y="93.5" class="st3" width="23" height="3.7"/>
		<rect x="2510.5" y="68.4" class="st3" width="3" height="14.9"/>
		<path class="st3" d="M2557.2,46.7h-73.1c-1.3,0-2.3,1-2.3,2.3v40.4c0,1.3,1,2.3,2.3,2.3h73.1c1.3,0,2.3-1,2.3-2.3V48.9
			C2559.5,47.7,2558.5,46.7,2557.2,46.7z M2497.4,84.2c0,0.5-0.4,0.9-0.9,0.9h-4.8c-0.5,0-0.9-0.4-0.9-0.9V63.3
			c0-0.5,0.4-0.9,0.9-0.9h4.8c0.5,0,0.9,0.4,0.9,0.9V84.2z M2506.3,84.2c0,0.5-0.4,0.9-0.9,0.9h-4.8c-0.5,0-0.9-0.4-0.9-0.9V57.1
			c0-0.5,0.4-0.9,0.9-0.9h4.8c0.5,0,0.9,0.4,0.9,0.9L2506.3,84.2L2506.3,84.2z M2515.3,84.2c0,0.5-0.4,0.9-0.9,0.9h-4.8
			c-0.5,0-0.9-0.4-0.9-0.9V67.5c0-0.5,0.4-0.9,0.9-0.9h4.8c0.5,0,0.9,0.4,0.9,0.9V84.2z M2550.3,80.9h-25.1c-0.5,0-0.9-0.4-0.9-0.9
			c0-0.5,0.4-0.9,0.9-0.9h25.1c0.5,0,0.9,0.4,0.9,0.9C2551.2,80.5,2550.8,80.9,2550.3,80.9z M2550.3,71.5h-25.1
			c-0.5,0-0.9-0.4-0.9-0.9s0.4-0.9,0.9-0.9h25.1c0.5,0,0.9,0.4,0.9,0.9S2550.8,71.5,2550.3,71.5z M2550.3,63.2h-25.1
			c-0.5,0-0.9-0.4-0.9-0.9s0.4-0.9,0.9-0.9h25.1c0.5,0,0.9,0.4,0.9,0.9S2550.8,63.2,2550.3,63.2z"/>
		<path class="st5" d="M2557.2,44.9h-73.1c-2.3,0-4.1,1.8-4.1,4.1v40.4c0,2.3,1.8,4.1,4.1,4.1h23.3v3.9h-10.2
			c-0.5,0-0.9,0.4-0.9,0.9s0.4,0.9,0.9,0.9h46.8c0.5,0,0.9-0.4,0.9-0.9s-0.4-0.9-0.9-0.9h-10v-3.9h23.3c2.3,0,4.1-1.8,4.1-4.1V48.9
			C2561.3,46.7,2559.5,44.9,2557.2,44.9z M2532.2,97.1h-23v-3.7h23V97.1z M2559.5,89.4c0,1.3-1,2.3-2.3,2.3h-73.1
			c-1.3,0-2.3-1-2.3-2.3V48.9c0-1.3,1-2.3,2.3-2.3h73.1c1.3,0,2.3,1,2.3,2.3C2559.5,48.9,2559.5,89.4,2559.5,89.4z"/>
		<path class="st5" d="M2496.5,62.4h-4.8c-0.5,0-0.9,0.4-0.9,0.9v20.9c0,0.5,0.4,0.9,0.9,0.9h4.8c0.5,0,0.9-0.4,0.9-0.9V63.3
			C2497.4,62.8,2497,62.4,2496.5,62.4z M2495.6,83.3h-3V64.2h3V83.3z"/>
		<path class="st5" d="M2505.4,56.2h-4.8c-0.5,0-0.9,0.4-0.9,0.9v27.1c0,0.5,0.4,0.9,0.9,0.9h4.8c0.5,0,0.9-0.4,0.9-0.9V57.1
			C2506.3,56.6,2505.9,56.2,2505.4,56.2z M2504.5,83.3h-3V58h3V83.3z"/>
		<path class="st5" d="M2514.5,66.6h-4.8c-0.5,0-0.9,0.4-0.9,0.9v16.7c0,0.5,0.4,0.9,0.9,0.9h4.8c0.5,0,0.9-0.4,0.9-0.9V67.5
			C2515.3,67,2514.9,66.6,2514.5,66.6z M2513.6,83.3h-3V68.4h3V83.3z"/>
		<path class="st5" d="M2550.3,61.4h-25.1c-0.5,0-0.9,0.4-0.9,0.9s0.4,0.9,0.9,0.9h25.1c0.5,0,0.9-0.4,0.9-0.9
			S2550.8,61.4,2550.3,61.4z"/>
		<path class="st5" d="M2550.3,69.7h-25.1c-0.5,0-0.9,0.4-0.9,0.9s0.4,0.9,0.9,0.9h25.1c0.5,0,0.9-0.4,0.9-0.9
			S2550.8,69.7,2550.3,69.7z"/>
		<path class="st5" d="M2550.3,79.1h-25.1c-0.5,0-0.9,0.4-0.9,0.9s0.4,0.9,0.9,0.9h25.1c0.5,0,0.9-0.4,0.9-0.9
			C2551.2,79.5,2550.8,79.1,2550.3,79.1z"/>
	</g>
</g>
<g>
	<g>
		<path class="st3" d="M2664.3,43.4c1.8,0,3.2-1.5,3.2-3.3s-1.5-3.3-3.2-3.3s-3.3,1.5-3.3,3.3S2662.6,43.4,2664.3,43.4z"/>
		<path class="st3" d="M2653.3,49.4h22.1c0.8,0,1.5-0.7,1.5-1.5v-5.4c0-0.8-0.7-1.5-1.5-1.5h-3.4c-0.5,0-1-0.4-1-1l-0.1-1
			c-0.5-3.3-3.3-5.7-6.7-5.7c-3.3,0-6.2,2.5-6.7,5.7l-0.1,1.1c-0.1,0.5-0.5,0.9-1,0.9h-3.2c-0.8,0-1.3,0.8-1.3,1.5V48
			C2651.9,48.8,2652.5,49.4,2653.3,49.4z M2664.3,34.9c2.9,0,5.2,2.4,5.2,5.3s-2.4,5.3-5.2,5.3c-2.9,0-5.3-2.4-5.3-5.3
			S2661.4,34.9,2664.3,34.9z"/>
		<path class="st5" d="M2664.3,45.4c2.9,0,5.2-2.4,5.2-5.3s-2.4-5.3-5.2-5.3c-2.9,0-5.3,2.4-5.3,5.3S2661.4,45.4,2664.3,45.4z
			 M2664.3,36.9c1.8,0,3.2,1.5,3.2,3.3c0,1.8-1.5,3.3-3.2,3.3s-3.3-1.5-3.3-3.3S2662.6,36.9,2664.3,36.9z"/>
		<path class="st5" d="M2653.3,51.4h22.1c1.9,0,3.5-1.6,3.5-3.5v-5.4c0-1.9-1.6-3.5-3.5-3.5h-2.4l0-0.2c0,0,0-0.1,0-0.1
			c-0.7-4.3-4.3-7.4-8.7-7.4c-4.3,0-8,3.2-8.7,7.5l0,0.2h-2.3c-1.8,0-3.3,1.6-3.3,3.5V48C2649.9,49.9,2651.4,51.4,2653.3,51.4z
			 M2651.9,42.6c0-0.7,0.5-1.5,1.3-1.5h3.2c0.5,0,0.9-0.4,1-0.9l0.1-1.1c0.5-3.3,3.4-5.7,6.7-5.7c3.3,0,6.1,2.4,6.7,5.7l0.1,1
			c0,0.5,0.5,1,1,1h3.4c0.8,0,1.5,0.7,1.5,1.5V48c0,0.8-0.7,1.5-1.5,1.5h-22.1c-0.7,0-1.3-0.7-1.3-1.5V42.6z"/>
		<polygon class="st5" points="2686.2,74.9 2684.4,73.1 2663.1,101.2 2654.4,92.5 2652.5,94.2 2662.9,104.8 		"/>
		<path class="st5" d="M2688.3,42.6h-8v2h8c2.2,0,4,1.8,4,4v58c0,2.2-1.8,4-4,4H2641c-2.2,0-4-1.8-4-4v-58c0-2.2,1.8-4,4-4h7.7v-2
			h-7.7c-3.3,0-6,2.7-6,6v58c0,3.3,2.7,6,6,6h47.3c3.3,0,6-2.7,6-6v-58C2694.3,45.3,2691.6,42.6,2688.3,42.6z"/>
		<path class="st5" d="M2685.2,58.2h-41.1c-0.6,0-1,0.4-1,1s0.4,1,1,1h41.1c0.6,0,1-0.4,1-1S2685.7,58.2,2685.2,58.2z"/>
		<path class="st5" d="M2685.2,67.2h-41.1c-0.6,0-1,0.4-1,1s0.4,1,1,1h41.1c0.6,0,1-0.4,1-1S2685.7,67.2,2685.2,67.2z"/>
		<path class="st5" d="M2644.1,78.2h23.1c0.6,0,1-0.4,1-1s-0.4-1-1-1h-23.1c-0.6,0-1,0.4-1,1S2643.5,78.2,2644.1,78.2z"/>
		<path class="st5" d="M2644.1,87.2h23.1c0.6,0,1-0.4,1-1s-0.4-1-1-1h-23.1c-0.6,0-1,0.4-1,1S2643.5,87.2,2644.1,87.2z"/>
	</g>
</g>
<g>
	<g>
		<path class="st3" d="M2816.3,86.9h19.8v-14h-19.8V86.9z M2820.2,76.2h12.9c0.6,0,1,0.4,1,1c0,0.6-0.4,1-1,1h-12.9
			c-0.6,0-1-0.4-1-1C2819.2,76.7,2819.6,76.2,2820.2,76.2z M2820.2,81.7h12.9c0.6,0,1,0.4,1,1c0,0.6-0.4,1-1,1h-12.9
			c-0.6,0-1-0.4-1-1C2819.2,82.2,2819.6,81.7,2820.2,81.7z"/>
		<path class="st3" d="M2788.6,78.4l-0.1,0c-6,0-10.9,4.9-11,10.9c-0.1,6.1,4.8,11.1,10.9,11.2l0.1,0c6,0,10.9-4.9,11-10.9
			c0-2.9-1.1-5.7-3.1-7.8C2794.3,79.7,2791.5,78.5,2788.6,78.4z M2788.5,95.6C2788.5,95.6,2788.4,95.6,2788.5,95.6
			c-1.7,0-3.3-0.7-4.4-1.9c-1.1-1.2-1.8-2.7-1.8-4.4c0-3.3,2.8-6.1,6.2-6.1c1.7,0,3.3,0.7,4.4,1.9c1.1,1.2,1.8,2.7,1.7,4.4
			C2794.6,92.9,2791.8,95.6,2788.5,95.6z"/>
		<path class="st3" d="M2803.5,95l0.8-3.6c0.1-0.3,0.2-0.5,0.4-0.6l3-1.9l-1.6-6.9l-3.5-0.4c-0.3,0-0.5-0.2-0.7-0.4l-2.3-2.9
			c-0.2-0.2-0.2-0.5-0.2-0.7l0.4-3.5l-6.4-3.1l-2.5,2.5c-0.2,0.2-0.4,0.3-0.7,0.3h-3.7c-0.3,0-0.5-0.1-0.7-0.3l-2.5-2.5l-6.4,3.1
			l0.4,3.5c0,0.3,0,0.5-0.2,0.7l-2.3,2.9c-0.2,0.2-0.4,0.3-0.7,0.4l-3.5,0.4l-1.6,6.9l3,1.9c0.2,0.1,0.4,0.4,0.4,0.6l0.8,3.6
			c0.1,0.3,0,0.5-0.1,0.8l-1.9,3l4.4,5.5l3.4-1.2c0.3-0.1,0.5-0.1,0.8,0l3.3,1.6c0.2,0.1,0.4,0.3,0.5,0.6l1.2,3.4h7.1l1.2-3.4
			c0.1-0.3,0.3-0.5,0.5-0.6l3.3-1.6c0.2-0.1,0.5-0.1,0.8,0l3.3,1.2l4.4-5.5l-1.9-3C2803.5,95.5,2803.5,95.3,2803.5,95z
			 M2788.5,102.5L2788.5,102.5l-0.2,0c-7.2-0.1-13-6-12.9-13.2c0.1-7.1,5.9-12.9,13-12.9l0.2,0c3.5,0,6.7,1.4,9.2,3.9
			c2.4,2.5,3.7,5.8,3.7,9.2C2801.4,96.7,2795.6,102.5,2788.5,102.5z"/>
		<path class="st3" d="M2788.5,85.3L2788.5,85.3c-2.3,0-4.2,1.8-4.2,4.1c0,1.1,0.4,2.2,1.2,2.9c0.8,0.8,1.8,1.2,2.9,1.3l0.1,1v-1
			c2.3,0,4.1-1.8,4.2-4.1c0-1.1-0.4-2.2-1.2-2.9C2790.7,85.8,2789.6,85.3,2788.5,85.3z"/>
		<path class="st5" d="M2788.6,76.4l-0.2,0c-7.1,0-12.9,5.8-13,12.9c-0.1,7.2,5.7,13.1,12.9,13.2l0.2,0h0c7.1,0,12.9-5.8,13-12.9
			c0-3.5-1.3-6.8-3.7-9.2C2795.4,77.9,2792.1,76.5,2788.6,76.4z M2788.5,100.5l-0.1,0c-6.1-0.1-11-5.1-10.9-11.2
			c0.1-6,5-10.9,11-10.9l0.1,0c2.9,0,5.7,1.2,7.8,3.3c2.1,2.1,3.2,4.9,3.1,7.8C2799.4,95.6,2794.5,100.5,2788.5,100.5z"/>
		<path class="st5" d="M2805.6,95l0.6-2.8l3.3-2c0.4-0.2,0.5-0.7,0.4-1.1l-1.9-8.3c-0.1-0.4-0.4-0.7-0.9-0.8l-3.8-0.4l-1.8-2.2
			l0.4-3.8c0-0.4-0.2-0.8-0.6-1l-7.7-3.7c-0.4-0.2-0.8-0.1-1.1,0.2l-2.7,2.7h-2.9l-2.7-2.7c-0.3-0.3-0.8-0.4-1.1-0.2l-7.7,3.7
			c-0.4,0.2-0.6,0.6-0.6,1l0.4,3.8l-1.8,2.2l-3.8,0.4c-0.4,0-0.8,0.4-0.9,0.8l-1.9,8.3c-0.1,0.4,0.1,0.8,0.4,1.1l3.3,2l0.6,2.8
			l-2,3.3c-0.2,0.4-0.2,0.8,0.1,1.2l5.3,6.6c0.3,0.3,0.7,0.5,1.1,0.3l3.6-1.3l2.6,1.2l1.3,3.6c0.1,0.4,0.5,0.7,0.9,0.7h8.5
			c0.4,0,0.8-0.3,0.9-0.7l1.3-3.6l2.6-1.2l3.6,1.3c0.4,0.1,0.8,0,1.1-0.3l5.3-6.6c0.3-0.3,0.3-0.8,0.1-1.2L2805.6,95z M2801.1,104.3
			l-3.3-1.2c-0.3-0.1-0.5-0.1-0.8,0l-3.3,1.6c-0.2,0.1-0.4,0.3-0.5,0.6l-1.2,3.4h-7.1l-1.2-3.4c-0.1-0.3-0.3-0.5-0.5-0.6l-3.3-1.6
			c-0.2-0.1-0.5-0.1-0.8,0l-3.4,1.2l-4.4-5.5l1.9-3c0.1-0.2,0.2-0.5,0.1-0.8l-0.8-3.6c-0.1-0.3-0.2-0.5-0.4-0.6l-3-1.9l1.6-6.9
			l3.5-0.4c0.3,0,0.5-0.2,0.7-0.4l2.3-2.9c0.2-0.2,0.2-0.5,0.2-0.7l-0.4-3.5l6.4-3.1l2.5,2.5c0.2,0.2,0.4,0.3,0.7,0.3h3.7
			c0.3,0,0.5-0.1,0.7-0.3l2.5-2.5l6.4,3.1l-0.4,3.5c0,0.3,0,0.5,0.2,0.7l2.3,2.9c0.2,0.2,0.4,0.3,0.7,0.4l3.5,0.4l1.6,6.9l-3,1.9
			c-0.2,0.1-0.4,0.4-0.4,0.6l-0.8,3.6c-0.1,0.3,0,0.5,0.1,0.8l1.9,3L2801.1,104.3z"/>
		<path class="st5" d="M2788.5,83.3c-3.4,0-6.1,2.7-6.2,6.1c0,1.6,0.6,3.2,1.8,4.4c1.1,1.2,2.7,1.8,4.3,1.9c0,0,0.1,0,0.1,0
			c3.4,0,6.1-2.7,6.2-6.1c0-1.6-0.6-3.2-1.7-4.4C2791.7,84,2790.2,83.3,2788.5,83.3z M2788.5,93.6v1V93.6c-1.2,0-2.2-0.5-3-1.3
			c-0.8-0.8-1.2-1.8-1.2-2.9c0-2.3,1.9-4.1,4.2-4.1l0,0c1.1,0,2.1,0.5,2.9,1.3c0.8,0.8,1.2,1.8,1.2,2.9
			C2792.6,91.8,2790.7,93.6,2788.5,93.6z"/>
		<path class="st5" d="M2796.2,64.6h40.8c0.6,0,1-0.4,1-1c0-0.6-0.4-1-1-1h-40.8c-0.6,0-1,0.4-1,1
			C2795.2,64.1,2795.6,64.6,2796.2,64.6z"/>
		<path class="st5" d="M2796.4,53.1c-0.6,0-1,0.4-1,1s0.4,1,1,1h40.8c0.6,0,1-0.4,1-1s-0.4-1-1-1H2796.4z"/>
		<path class="st5" d="M2837.2,70.9h-21.8c-0.6,0-1,0.4-1,1v16c0,0.6,0.4,1,1,1h21.8c0.6,0,1-0.4,1-1v-16
			C2838.2,71.3,2837.7,70.9,2837.2,70.9z M2836.2,86.9h-19.8v-14h19.8C2836.2,72.9,2836.2,86.9,2836.2,86.9z"/>
		<path class="st5" d="M2820.2,78.2h12.9c0.6,0,1-0.4,1-1c0-0.6-0.4-1-1-1h-12.9c-0.6,0-1,0.4-1,1
			C2819.2,77.8,2819.6,78.2,2820.2,78.2z"/>
		<path class="st5" d="M2820.2,83.7h12.9c0.6,0,1-0.4,1-1c0-0.6-0.4-1-1-1h-12.9c-0.6,0-1,0.4-1,1
			C2819.2,83.3,2819.6,83.7,2820.2,83.7z"/>
		<path class="st5" d="M2843.2,33.3h-52.5c-3.2,0-5.9,2.6-5.9,5.9v25.6c0,0.6,0.4,1,1,1s1-0.4,1-1V39.2c0-2.1,1.7-3.9,3.9-3.9h52.5
			c2.1,0,3.9,1.7,3.9,3.9v51.5c0,2.1-1.7,3.9-3.9,3.9H2810c-0.6,0-1,0.4-1,1c0,0.6,0.4,1,1,1h33.2c3.2,0,5.9-2.6,5.9-5.9V39.2
			C2849.1,36,2846.4,33.3,2843.2,33.3z"/>
		<path class="st5" d="M2837.1,44.1h-40.8c-0.6,0-1,0.4-1,1s0.4,1,1,1h40.8c0.6,0,1-0.4,1-1S2837.7,44.1,2837.1,44.1z"/>
	</g>
</g>
<g>
	<g>
		<path class="st3" d="M2980.9,66.8c5.4,0,9.7-4.4,9.7-9.7s-4.4-9.7-9.7-9.7s-9.7,4.4-9.7,9.7C2971.2,62.4,2975.5,66.8,2980.9,66.8z
			"/>
		<path class="st3" d="M2931,69.6c-2.5,1.9-5.5,2.9-8.6,2.9c-3.1,0-6.1-1-8.6-2.9c-4.4,0.6-7.8,4.5-7.8,9.3v3.5
			c0,0.1,0.2,0.4,0.3,0.4c1.6,0.7,6.3,2.4,16.1,2.4c0.2,0,0.3,0,0.5,0c0.8-6.8,5.5-12.4,11.8-14.2
			C2933.5,70.3,2932.3,69.8,2931,69.6z"/>
		<path class="st3" d="M2951.6,73.4c6.9,0,12.5-5.6,12.5-12.5c0-6.9-5.6-12.5-12.5-12.5c-6.9,0-12.5,5.6-12.5,12.5
			C2939.1,67.9,2944.7,73.4,2951.6,73.4z"/>
		<path class="st3" d="M2922.4,66.8c5.1,0,9.3-4.4,9.3-9.7s-4.2-9.7-9.3-9.7c-5.1,0-9.3,4.4-9.3,9.7
			C2913.1,62.4,2917.3,66.8,2922.4,66.8z"/>
		<path class="st3" d="M2989.8,69.6c-2.6,1.9-5.7,2.9-8.9,2.9c-3.2,0-6.3-1-8.9-2.9c-1.4,0.2-2.7,0.7-3.9,1.4
			c6.6,1.8,11.5,7.4,12.3,14.2c0.2,0,0.3,0,0.5,0c10.3,0,15.2-1.7,16.8-2.4c0.1-0.1,0.3-0.3,0.3-0.4v-3.5
			C2998,74.1,2994.5,70.2,2989.8,69.6z"/>
		<path class="st3" d="M2962.7,76.5c-3.2,2.4-7.1,3.6-11.1,3.6c-4,0-7.9-1.3-11.2-3.6c-6,0.7-10.6,5.8-10.6,11.9v4.4
			c0,0.3,0.3,0.7,0.5,0.8c2.1,0.9,8.3,3.1,21.2,3.1c12.9,0,19.2-2.1,21.3-3.1c0.2-0.1,0.5-0.5,0.5-0.8v-4.4
			C2973.3,82.3,2968.8,77.2,2962.7,76.5z"/>
		<path class="st5" d="M2951.6,75.4c8,0,14.5-6.5,14.5-14.5s-6.5-14.5-14.5-14.5c-8,0-14.5,6.5-14.5,14.5S2943.6,75.4,2951.6,75.4z
			 M2951.6,48.5c6.9,0,12.5,5.6,12.5,12.5c0,6.9-5.6,12.5-12.5,12.5c-6.9,0-12.5-5.6-12.5-12.5C2939.1,54.1,2944.7,48.5,2951.6,48.5
			z"/>
		<path class="st5" d="M2962.9,74.5c0,0-0.1,0-0.2,0c-0.4,0-0.9,0.1-1.2,0.4c-2.9,2.1-6.4,3.3-10,3.3c-3.6,0-7-1.1-10-3.3
			c-0.3-0.2-0.8-0.4-1.2-0.4c0,0-0.1,0-0.2,0c-7.1,0.8-12.4,6.8-12.4,13.9v4.4c0,1.1,0.7,2.2,1.7,2.6c2.7,1.2,9.2,3.2,22.1,3.2
			c12.8,0,19.3-2,22.1-3.2c1-0.4,1.7-1.5,1.7-2.6v-4.4C2975.3,81.3,2970,75.3,2962.9,74.5z M2973.3,92.8c0,0.3-0.3,0.7-0.5,0.8
			c-2.1,0.9-8.3,3.1-21.3,3.1c-12.9,0-19.2-2.1-21.2-3.1c-0.2-0.1-0.5-0.5-0.5-0.8v-4.4c0-6.1,4.6-11.2,10.6-11.9
			c3.3,2.4,7.1,3.6,11.2,3.6c4,0,7.9-1.3,11.1-3.6c6.1,0.7,10.6,5.8,10.6,11.9L2973.3,92.8L2973.3,92.8z"/>
		<path class="st5" d="M2989.9,67.6c-0.4,0-0.9,0.1-1.2,0.3c-2.3,1.7-5,2.5-7.8,2.5c-2.8,0-5.5-0.9-7.8-2.5
			c-0.3-0.2-0.7-0.3-1.1-0.3c0,0-0.1,0-0.2,0c-2.5,0.3-4.9,1.5-6.7,3.3c-0.3,0.3-0.4,0.7-0.2,1c0.1,0.4,0.4,0.6,0.8,0.7
			c7,0.9,12.3,6.7,12.8,13.7c0,0.5,0.5,0.9,1,0.9l0.4,0c0.4,0,0.7,0,1.1,0c10.3,0,15.5-1.6,17.6-2.6c0.8-0.4,1.5-1.3,1.5-2.3v-3.5
			C3000,73.1,2995.7,68.2,2989.9,67.6z M2998,82.4c0,0.1-0.2,0.4-0.3,0.4c-1.6,0.7-6.6,2.4-16.8,2.4c-0.2,0-0.4,0-0.5,0
			c-0.8-6.8-5.7-12.4-12.3-14.2c1.2-0.8,2.5-1.3,3.9-1.4c2.6,1.9,5.7,2.9,8.9,2.9c3.2,0,6.3-1,8.9-2.9c4.7,0.6,8.2,4.5,8.2,9.3
			L2998,82.4L2998,82.4z"/>
		<path class="st5" d="M2980.9,68.8c6.5,0,11.7-5.3,11.7-11.7s-5.3-11.7-11.7-11.7c-6.5,0-11.7,5.3-11.7,11.7
			S2974.4,68.8,2980.9,68.8z M2980.9,47.3c5.4,0,9.7,4.4,9.7,9.7c0,5.4-4.4,9.7-9.7,9.7s-9.7-4.4-9.7-9.7
			C2971.2,51.7,2975.5,47.3,2980.9,47.3z"/>
		<path class="st5" d="M2937,72.6c0.4-0.1,0.7-0.3,0.8-0.7c0.1-0.4,0-0.7-0.2-1c-1.8-1.8-4.1-3-6.5-3.3c-0.4,0-0.9,0.1-1.2,0.3
			c-2.2,1.7-4.8,2.5-7.5,2.5c-2.7,0-5.3-0.9-7.5-2.5c-0.3-0.2-0.8-0.4-1.2-0.3c-5.5,0.7-9.7,5.5-9.7,11.3v3.5c0,0.9,0.6,1.9,1.4,2.3
			c2.1,1,7.1,2.6,17,2.6c0.4,0,0.7,0,1,0l0.4,0c0.5,0,1-0.4,1-0.9C2925.2,79.3,2930.3,73.5,2937,72.6z M2922.8,85.2
			c-0.2,0-0.3,0-0.5,0c-9.8,0-14.6-1.7-16.1-2.4c-0.1,0-0.3-0.3-0.3-0.4v-3.5c0-4.7,3.4-8.7,7.8-9.3c2.5,1.9,5.5,2.9,8.6,2.9
			c3.1,0,6.1-1,8.6-2.9c1.3,0.2,2.6,0.7,3.7,1.4C2928.3,72.8,2923.6,78.4,2922.8,85.2z"/>
		<path class="st5" d="M2922.4,68.8c6.2,0,11.3-5.3,11.3-11.7s-5.1-11.7-11.3-11.7c-6.2,0-11.3,5.3-11.3,11.7
			S2916.2,68.8,2922.4,68.8z M2922.4,47.3c5.1,0,9.3,4.4,9.3,9.7c0,5.4-4.2,9.7-9.3,9.7c-5.1,0-9.3-4.4-9.3-9.7
			C2913.1,51.7,2917.3,47.3,2922.4,47.3z"/>
	</g>
</g>
<g>
	<g>
		<path class="st3" d="M3129.2,43.7h-65c-2.3,0-4.1,1.9-4.1,4.1v38.1c0,2.3,1.9,4.1,4.1,4.1h65c2.3,0,4.1-1.9,4.1-4.1V47.8
			C3133.3,45.5,3131.4,43.7,3129.2,43.7z M3128.9,66c0,0.5-0.5,1-1,1c0,0,0,0,0,0c-0.6,0-1-0.5-1-1l0.5-10.3l-21.9,19.7
			c-0.3,0.3-0.8,0.3-1.2,0.1l-18.5-11.8l-19.2,19.1c-0.2,0.2-0.5,0.3-0.7,0.3c-0.3,0-0.5-0.1-0.7-0.3c-0.4-0.4-0.4-1,0-1.4
			l19.7-19.6c0.3-0.3,0.8-0.4,1.2-0.1l18.6,11.9l21.6-19.4h-11.5c-0.6,0-1-0.4-1-1s0.4-1,1-1h13.7c0.3,0,0.5,0.1,0.7,0.3
			c0.2,0.2,0.3,0.5,0.3,0.7L3128.9,66z"/>
		<polygon class="st3" points="3090,100.3 3103.4,100.3 3101,92 3092.2,92 		"/>
		<path class="st5" d="M3128.5,52h-13.7c-0.6,0-1,0.4-1,1s0.4,1,1,1h11.5l-21.6,19.4l-18.6-11.9c-0.4-0.3-0.9-0.2-1.2,0.1
			l-19.7,19.6c-0.4,0.4-0.4,1,0,1.4c0.2,0.2,0.5,0.3,0.7,0.3c0.3,0,0.5-0.1,0.7-0.3l19.2-19.1l18.5,11.8c0.4,0.2,0.9,0.2,1.2-0.1
			l21.9-19.7l-0.5,10.3c0,0.6,0.4,1,1,1c0,0,0,0,0,0c0.5,0,1-0.4,1-1l0.6-13c0-0.3-0.1-0.5-0.3-0.7C3129.1,52.1,3128.8,52,3128.5,52
			z"/>
		<path class="st5" d="M3129.2,41.7h-65c-3.4,0-6.1,2.8-6.1,6.1v38.1c0,3.4,2.8,6.1,6.1,6.1h26l-2.2,8.3h-7.5c-0.6,0-1,0.4-1,1
			c0,0.6,0.4,1,1,1h33.2c0.6,0,1-0.4,1-1c0-0.6-0.4-1-1-1h-8.1l-2.4-8.3h26.1c3.4,0,6.1-2.8,6.1-6.1V47.8
			C3135.3,44.4,3132.5,41.7,3129.2,41.7z M3103.4,100.3H3090l2.2-8.3h8.8L3103.4,100.3z M3133.3,85.9c0,2.3-1.9,4.1-4.1,4.1h-65
			c-2.3,0-4.1-1.9-4.1-4.1V47.8c0-2.3,1.9-4.1,4.1-4.1h65c2.3,0,4.1,1.9,4.1,4.1V85.9z"/>
	</g>
</g>
<g>
	<g>
		<g>
			<defs>
				<rect id="SVGID_1_" x="3206" y="38.2" width="67.9" height="67.6"/>
			</defs>
			<clipPath id="SVGID_2_">
				<use xlink:href="#SVGID_1_"  style="overflow:visible;"/>
			</clipPath>
			<path class="st7" d="M3223.8,87.8h-0.8h-0.8c-1.3,0-2.3-0.9-2.3-2.1c0-1.2,1-2.1,2.3-2.1h1.7c1.3,0,2.3,0.9,2.3,2.1h2.1
				c0-2.3-1.9-4.1-4.2-4.2v-2.1h-2.1v2.1c-2.4,0.1-4.2,1.9-4.2,4.2c0,2.3,2,4.2,4.5,4.2h0.8h0.8c1.3,0,2.3,0.9,2.3,2.1
				c0,1.2-1,2.1-2.3,2.1h-1.7c-1.3,0-2.3-0.9-2.3-2.1h-2.1c0,2.3,1.9,4.1,4.2,4.2v2.1h2.1v-2.1c2.4-0.1,4.2-1.9,4.2-4.2
				C3228.3,89.7,3226.3,87.8,3223.8,87.8"/>
		</g>
		<g>
			<defs>
				<rect id="SVGID_3_" x="3206" y="38.2" width="67.9" height="67.6"/>
			</defs>
			<clipPath id="SVGID_4_">
				<use xlink:href="#SVGID_3_"  style="overflow:visible;"/>
			</clipPath>
			<path class="st8" d="M3223,103.7c-8.2,0-14.9-6.6-14.9-14.8c0-8.2,6.7-14.8,14.9-14.8c8.2,0,14.9,6.6,14.9,14.8
				C3237.8,97.1,3231.2,103.7,3223,103.7 M3223,72c-9.4,0-17,7.6-17,16.9c0,9.3,7.6,16.9,17,16.9c9.4,0,17-7.6,17-16.9
				C3240,79.6,3232.4,72,3223,72"/>
		</g>
		<g>
			<defs>
				<rect id="SVGID_5_" x="3206" y="38.2" width="67.9" height="67.6"/>
			</defs>
			<clipPath id="SVGID_6_">
				<use xlink:href="#SVGID_5_"  style="overflow:visible;"/>
			</clipPath>
			<path class="st9" d="M3257.8,54h-0.8h-0.9c-1.3,0-2.3-0.9-2.3-2.1s1-2.1,2.3-2.1h1.7c1.3,0,2.3,0.9,2.3,2.1h2.1
				c0-2.3-1.9-4.1-4.2-4.2v-2.1h-2.1v2.1c-2.4,0.1-4.2,1.9-4.2,4.2c0,2.3,2,4.2,4.5,4.2h0.9h0.8c1.3,0,2.3,0.9,2.3,2.1
				c0,1.2-1,2.1-2.3,2.1h-1.7c-1.3,0-2.3-0.9-2.3-2.1h-2.1c0,2.3,1.9,4.1,4.2,4.2v2.1h2.1v-2.1c2.4-0.1,4.2-1.9,4.2-4.2
				C3262.3,55.9,3260.3,54,3257.8,54"/>
		</g>
		<g>
			<defs>
				<rect id="SVGID_7_" x="3206" y="38.2" width="67.9" height="67.6"/>
			</defs>
			<clipPath id="SVGID_8_">
				<use xlink:href="#SVGID_7_"  style="overflow:visible;"/>
			</clipPath>
			<path class="st10" d="M3366.4,67.3h-0.8h-0.8c-1.3,0-2.3-0.9-2.3-2.1s1-2.1,2.3-2.1h1.7c1.3,0,2.3,0.9,2.3,2.1h2.1
				c0-2.3-1.9-4.1-4.2-4.2v-2.1h-2.1V61c-2.4,0.1-4.2,1.9-4.2,4.2c0,2.3,2,4.2,4.5,4.2h0.8h0.8c1.3,0,2.3,0.9,2.3,2.1
				c0,1.2-1,2.1-2.3,2.1h-1.7c-1.3,0-2.3-0.9-2.3-2.1h-2.1c0,2.3,1.9,4.1,4.2,4.2v2.1h2.1v-2.1c2.4-0.1,4.2-1.9,4.2-4.2
				C3370.9,69.2,3368.9,67.3,3366.4,67.3"/>
		</g>
		<g>
			<defs>
				<rect id="SVGID_9_" x="3206" y="38.2" width="67.9" height="67.6"/>
			</defs>
			<clipPath id="SVGID_10_">
				<use xlink:href="#SVGID_9_"  style="overflow:visible;"/>
			</clipPath>
			<path class="st11" d="M3257,69.9c-8.2,0-14.9-6.6-14.9-14.8c0-8.2,6.7-14.8,14.9-14.8c8.2,0,14.9,6.6,14.9,14.8
				C3271.8,63.2,3265.1,69.9,3257,69.9 M3257,38.2c-9.4,0-17,7.6-17,16.9c0,9.3,7.6,16.9,17,16.9c9.4,0,17-7.6,17-16.9
				C3273.9,45.8,3266.3,38.2,3257,38.2"/>
		</g>
		<g>
			<defs>
				<rect id="SVGID_11_" x="3206" y="38.2" width="67.9" height="67.6"/>
			</defs>
			<clipPath id="SVGID_12_">
				<use xlink:href="#SVGID_11_"  style="overflow:visible;"/>
			</clipPath>
			<path class="st12" d="M3209.1,67.4c2.1-8.7,7.5-14.2,16.6-16.6l1.6-0.4v-1.6v-1.2l7.6,7.6l-7.6,7.6v-1.2v-2.1h-2.1
				C3219.4,59.3,3213.5,62.4,3209.1,67.4 M3237.8,55.1l-12.7-12.7v6.3c-12.6,3.4-19.1,12.6-19.1,27.5c3.6-8.5,11.5-14.8,19.1-14.8
				v6.3L3237.8,55.1z"/>
		</g>
		<g>
			<defs>
				<rect id="SVGID_13_" x="3206" y="38.2" width="67.9" height="67.6"/>
			</defs>
			<clipPath id="SVGID_14_">
				<use xlink:href="#SVGID_13_"  style="overflow:visible;"/>
			</clipPath>
			<path class="st13" d="M3254.3,93.2l-1.6,0.4v1.6v1.2l-7.6-7.6l7.6-7.6v1.2v2.1h2.1c5.8,0,11.6-3.1,16.1-8.1
				C3268.8,85.3,3263.3,90.8,3254.3,93.2 M3254.8,82.6v-6.3l-12.7,12.7l12.7,12.7v-6.3c12.6-3.4,19.1-12.6,19.1-27.5
				C3270.4,76.2,3262.5,82.6,3254.8,82.6"/>
		</g>
	</g>
</g>
<g>
	<g>
		<path class="st3" d="M3368.6,42.2c-15.2,0-27.6,12.4-27.6,27.6c0,7.2,2.7,14,7.7,19.1c0.3,0.3,0.4,0.9,0.1,1.3
			c-3.1,4.6-4.5,6.6-6.3,9.6c2.5-0.8,4.8-1.6,6.9-2.4c3.7-1.3,6.3-2.2,7.8-2.4c0.2,0,0.3,0,0.5,0.1c3.5,1.5,7.2,2.3,11,2.3
			c15.2,0,27.6-12.4,27.6-27.6S3383.9,42.2,3368.6,42.2z M3353.5,73.9c-1.8,0-3.3-1.5-3.3-3.3s1.5-3.3,3.3-3.3s3.3,1.5,3.3,3.3
			C3356.9,72.4,3355.4,73.9,3353.5,73.9z M3368.6,73.9c-1.8,0-3.3-1.5-3.3-3.3s1.5-3.3,3.3-3.3c1.8,0,3.3,1.5,3.3,3.3
			S3370.5,73.9,3368.6,73.9z M3383.5,73.9c-1.8,0-3.3-1.5-3.3-3.3s1.5-3.3,3.3-3.3c1.8,0,3.3,1.5,3.3,3.3
			C3386.8,72.4,3385.3,73.9,3383.5,73.9z"/>
		<path class="st3" d="M3416.6,45h-21.1c8,9,11.7,18.4,11.1,27.8c-0.7,11.4-7.5,19.6-10.9,23h18.1c0.2,0,0.3,0,0.5,0.1
			c0.1,0,7,3.6,11.3,5.4c-0.3-2-0.6-3-0.9-4.5c-0.2-0.9-0.4-1.9-0.7-3.3c-0.1-0.3,0-0.7,0.3-0.9c1.9-2,3-4.6,3-7.3V55.5
			C3427.2,49.7,3422.4,45,3416.6,45z"/>
		<path class="st5" d="M3368.6,40.2c-16.3,0-29.6,13.3-29.6,29.6c0,7.4,2.7,14.5,7.7,19.9c-3.5,5.1-4.7,6.9-7.3,11.3
			c-0.2,0.4-0.2,0.8,0.1,1.1c0.2,0.2,0.5,0.4,0.8,0.4c0.1,0,0.2,0,0.3,0c3.5-1.1,6.8-2.3,9.5-3.2c3.2-1.1,5.8-2,7-2.2
			c3.7,1.6,7.5,2.3,11.6,2.3c16.3,0,29.6-13.3,29.6-29.6S3385,40.2,3368.6,40.2z M3368.6,97.4c-3.8,0-7.5-0.8-11-2.3
			c-0.2-0.1-0.3-0.1-0.5-0.1c-1.4,0.1-4.1,1.1-7.8,2.4c-2.1,0.7-4.4,1.6-6.9,2.4c1.9-3.1,3.2-5.1,6.3-9.6c0.3-0.4,0.2-0.9-0.1-1.3
			c-5-5.2-7.7-12-7.7-19.1c0-15.2,12.4-27.6,27.6-27.6c15.2,0,27.6,12.4,27.6,27.6S3383.9,97.4,3368.6,97.4z"/>
		<circle class="st5" cx="3353.5" cy="70.6" r="3.3"/>
		<circle class="st5" cx="3368.6" cy="70.6" r="3.3"/>
		<circle class="st5" cx="3383.5" cy="70.6" r="3.3"/>
		<path class="st5" d="M3429.2,55.5c0-6.9-5.6-12.6-12.6-12.6h-23.4c-0.4,0-0.8,0.2-0.9,0.6s-0.1,0.8,0.2,1.1
			c8.6,9.1,12.7,18.5,12.1,28c-0.9,14-11.9,23.3-12,23.4c-0.3,0.3-0.4,0.7-0.3,1.1c0.1,0.4,0.5,0.7,0.9,0.7h20.4
			c1.4,0.7,9.2,4.7,12.9,6c0.1,0,0.2,0.1,0.3,0.1c0.2,0,0.5-0.1,0.6-0.2c0.3-0.2,0.4-0.6,0.3-0.9c-0.5-3.3-0.8-4.4-1.2-6.3
			c-0.2-0.7-0.4-1.6-0.6-2.8c2-2.3,3.2-5.2,3.2-8.3L3429.2,55.5L3429.2,55.5z M3427.2,85.3c0,2.8-1.1,5.4-3,7.3
			c-0.2,0.2-0.3,0.6-0.3,0.9c0.3,1.4,0.5,2.5,0.7,3.3c0.3,1.5,0.6,2.5,0.9,4.5c-4.3-1.8-11.2-5.3-11.3-5.4c-0.1-0.1-0.3-0.1-0.5-0.1
			h-18.1c3.4-3.4,10.2-11.7,10.9-23c0.6-9.4-3.2-18.8-11.1-27.8h21.1c5.8,0,10.6,4.7,10.6,10.6C3427.2,55.5,3427.2,85.3,3427.2,85.3
			z"/>
	</g>
</g>
<g>
	<g>
		<path class="st3" d="M3559.1,60.3l-5,6.2c-0.2,0.2-0.5,0.4-0.8,0.4l-11.1,0.2l-14.6,10.7c-0.3,0.2-0.7,0.2-1,0.1l-7.3-3
			l-17.8,14.1v3.6h57.5V60.3z"/>
		<path class="st5" d="M3564.6,101.1H3494V41.9c0-0.6-0.4-1-1-1s-1,0.4-1,1v60.1c0,0.6,0.4,1,1,1h71.6c0.6,0,1-0.4,1-1
			S3565.2,101.1,3564.6,101.1z"/>
		<path class="st5" d="M3500.6,94.6h59.5c0.6,0,1-0.4,1-1V57.4c0-0.4-0.3-0.8-0.7-0.9c-0.4-0.1-0.8,0-1.1,0.3l-6.5,8l-10.9,0.2
			c-0.2,0-0.4,0.1-0.6,0.2l-14.4,10.5l-7.4-3c-0.3-0.1-0.7-0.1-1,0.1l-18.6,14.8c-0.2,0.2-0.4,0.5-0.4,0.8v5.1
			C3499.6,94.1,3500,94.6,3500.6,94.6z M3501.6,88.9l17.8-14.1l7.3,3c0.3,0.1,0.7,0.1,1-0.1l14.6-10.7l11.1-0.2
			c0.3,0,0.6-0.1,0.8-0.4l5-6.2v32.3h-57.5L3501.6,88.9L3501.6,88.9z"/>
		<path class="st5" d="M3519.1,59.6l7.7,3.5c0.3,0.1,0.7,0.1,1-0.1l14.1-10l10.1-0.4c0.3,0,0.5-0.1,0.7-0.3l6.3-7.3l-1.5-1.3l-6,7
			l-9.9,0.4c-0.2,0-0.4,0.1-0.5,0.2l-13.9,9.8l-7.7-3.5c-0.4-0.2-0.8-0.1-1.1,0.1l-18.4,15.6l1.3,1.5L3519.1,59.6z"/>
	</g>
</g>
<g>
	<g>
		<path class="st3" d="M3671.8,90.9c-4.1,0-7.4,3.3-7.4,7.4c0,4.1,3.3,7.4,7.4,7.4c4.1,0,7.4-3.3,7.4-7.4
			C3679.2,94.2,3675.9,90.9,3671.8,90.9z M3671.8,103.6c-2.9,0-5.2-2.4-5.2-5.2c0-2.9,2.4-5.2,5.2-5.2c2.9,0,5.2,2.4,5.2,5.2
			C3677.1,101.2,3674.7,103.6,3671.8,103.6z"/>
		<path class="st3" d="M3653,90.9c-4.1,0-7.4,3.3-7.4,7.4c0,4.1,3.3,7.4,7.4,7.4c4.1,0,7.4-3.3,7.4-7.4
			C3660.4,94.2,3657.1,90.9,3653,90.9z M3653,103.6c-2.9,0-5.2-2.4-5.2-5.2c0-2.9,2.4-5.2,5.2-5.2c2.9,0,5.2,2.4,5.2,5.2
			C3658.3,101.2,3655.9,103.6,3653,103.6z"/>
		<path class="st3" d="M3671.8,95.1c-1.8,0-3.2,1.5-3.2,3.2c0,1.8,1.5,3.2,3.2,3.2c1.8,0,3.2-1.5,3.2-3.2
			C3675.1,96.5,3673.6,95.1,3671.8,95.1z"/>
		<path class="st3" d="M3705.7,97.1l-18.8-0.1c-0.6,0-1-0.4-1-1V75.5c0-0.1,0-0.1,0-0.2V40c0,0,0-0.1,0-0.1c-0.2-0.9-1-1.6-1.9-1.6
			c-0.9,0-1.7,0.7-1.9,1.6c0,0,0,0.1,0,0.1v39.5c0,0.4-0.3,0.8-0.7,0.9l-0.2,0.1c-0.4,0.1-0.8,0-1.1-0.3l-0.1-0.1
			c-0.1-0.1-0.3-0.3-0.4-0.5l-2.1-2.7c-1.4-1.8-2.8-3.7-4.3-5.5c-0.5-0.7-0.8-1.4-0.8-2.2c0-7.7,0-15.5,0-23.3l0-0.7
			c0-1,0-2-0.2-2.9c-0.6-2.4-2.4-3.9-5.1-3.9c-6.2,0-12.4,0-18.6,0c-3.2,0-5.3,2.1-5.3,5.3l0,2.7c0,6.2,0,12.6,0,18.9
			c0,1.1-0.1,2.6-1.4,3.9c-0.3,0.3-0.6,0.7-0.9,1.1l-0.3,0.5c-1.3,1.8-1.9,3.6-1.9,5.6c0,3,0,9.6,0,9.6c0,0.1,0,0.1,0,0.2l0,14.5
			h2.2c-0.2-0.9-0.3-1.9-0.3-2.8c0-6.9,5.6-12.5,12.5-12.5c3.4,0,6.7,1.4,9,3.8c2.4-2.5,5.6-3.8,9-3.8c6.9,0,12.5,5.6,12.5,12.5
			c0,0.9-0.1,1.9-0.3,2.8l21.9,0c0,0,0.1,0,0.1,0c1-0.1,1.8-0.9,1.8-1.9C3707.5,98,3706.7,97.2,3705.7,97.1z M3667.3,56v4.8
			c0,0.1,0,0.3,0,0.4l0,0.2c0,0.5-0.5,0.9-1,0.9h-16.4c-0.6,0-1-0.4-1-1l0-16.4c0-0.5,0.1-1.3,0.6-1.8c0.6-0.6,1.3-0.6,1.8-0.6
			c4.5,0,9,0,13.4,0c1.7,0,2.6,0.8,2.6,2.4C3667.3,50.3,3667.3,52.4,3667.3,56z"/>
		<path class="st3" d="M3653,95.1c-1.8,0-3.2,1.5-3.2,3.2c0,1.8,1.5,3.2,3.2,3.2c1.8,0,3.2-1.5,3.2-3.2
			C3656.3,96.5,3654.8,95.1,3653,95.1z"/>
		<path class="st3" d="M3665.2,44.5c0,0-0.2,0-0.5,0c-4.5,0-9,0-13.4,0c-0.3,0-0.4,0-0.4,0c0,0,0,0.1,0,0.4l0,15.4h14.4V56
			c0-3.6,0-5.7,0-11.1C3665.2,44.7,3665.2,44.5,3665.2,44.5z"/>
		<path class="st5" d="M3653,88.9c-5.2,0-9.4,4.2-9.4,9.4c0,5.2,4.2,9.4,9.4,9.4c5.2,0,9.4-4.2,9.4-9.4
			C3662.4,93.1,3658.2,88.9,3653,88.9z M3653,105.7c-4.1,0-7.4-3.3-7.4-7.4c0-4.1,3.3-7.4,7.4-7.4c4.1,0,7.4,3.3,7.4,7.4
			C3660.4,102.4,3657.1,105.7,3653,105.7z"/>
		<path class="st5" d="M3653,93.1c-2.9,0-5.2,2.4-5.2,5.2s2.4,5.2,5.2,5.2c2.9,0,5.2-2.4,5.2-5.2C3658.3,95.4,3655.9,93.1,3653,93.1
			z M3653,101.6c-1.8,0-3.2-1.5-3.2-3.2c0-1.8,1.5-3.2,3.2-3.2c1.8,0,3.2,1.5,3.2,3.2C3656.3,100.1,3654.8,101.6,3653,101.6z"/>
		<path class="st5" d="M3671.8,88.9c-5.2,0-9.4,4.2-9.4,9.4c0,5.2,4.2,9.4,9.4,9.4c5.2,0,9.4-4.2,9.4-9.4
			C3681.2,93.1,3677,88.9,3671.8,88.9z M3671.8,105.7c-4.1,0-7.4-3.3-7.4-7.4c0-4.1,3.3-7.4,7.4-7.4c4.1,0,7.4,3.3,7.4,7.4
			C3679.2,102.4,3675.9,105.7,3671.8,105.7z"/>
		<path class="st5" d="M3671.8,93.1c-2.9,0-5.2,2.4-5.2,5.2s2.4,5.2,5.2,5.2c2.9,0,5.2-2.4,5.2-5.2
			C3677.1,95.4,3674.7,93.1,3671.8,93.1z M3671.8,101.6c-1.8,0-3.2-1.5-3.2-3.2c0-1.8,1.5-3.2,3.2-3.2c1.8,0,3.2,1.5,3.2,3.2
			C3675.1,100.1,3673.6,101.6,3671.8,101.6z"/>
		<path class="st5" d="M3705.8,95.1l-17.8-0.1V75.7c0-0.1,0-0.1,0-0.2V39.7c0-0.2-0.1-0.3-0.1-0.5c-0.5-1.7-2-2.9-3.8-2.9
			c-1.8,0-3.3,1.2-3.8,2.8c-0.1,0.2-0.2,0.3-0.2,0.5v37.3l-0.9-1.1c-1.4-1.8-2.9-3.7-4.3-5.5c-0.2-0.3-0.3-0.6-0.3-1
			c0-7.8,0-15.5,0-23.3l0-0.7c0-1.1,0-2.2-0.2-3.3c-0.8-3.3-3.5-5.4-7-5.4c-6.2,0-12.4,0-18.6,0c-4.3,0-7.3,3-7.3,7.3l0,2.7
			c0,6.2,0,12.6,0,18.9c0,1.2-0.2,1.9-0.8,2.5c-0.4,0.4-0.7,0.9-1.1,1.4l-0.3,0.4c-1.5,2.1-2.3,4.4-2.3,6.8c0,2.8,0,8.6,0,9.5
			c0,0.1,0,0.1,0,0.2l0,15.6c0,0.6,0.4,1,1,1h4.5c0,0,0,0,0,0c0.5,0,1-0.4,1-1c0-0.2,0-0.4-0.1-0.5c-0.4-1.1-0.5-2.2-0.5-3.3
			c0-5.8,4.7-10.5,10.5-10.5c3.2,0,6.2,1.4,8.2,4c0.2,0.2,0.5,0.4,0.8,0.4l0,0c0.3,0,0.6-0.1,0.8-0.4c2-2.5,5-4,8.2-4
			c5.8,0,10.5,4.7,10.5,10.5c0,1.2-0.2,2.3-0.6,3.5c-0.1,0.3-0.1,0.6,0.1,0.9c0.2,0.3,0.5,0.4,0.8,0.4h19.1h0l4.3,0
			c0.1,0,0.2,0,0.3,0c1.9-0.2,3.4-1.9,3.4-3.9C3709.5,97,3707.9,95.3,3705.8,95.1z M3705.7,100.9
			C3705.7,100.9,3705.6,100.9,3705.7,100.9l-22,0c0.2-0.9,0.3-1.9,0.3-2.8c0-6.9-5.6-12.5-12.5-12.5c-3.4,0-6.7,1.4-9,3.8
			c-2.4-2.5-5.6-3.8-9-3.8c-6.9,0-12.5,5.6-12.5,12.5c0,0.9,0.1,1.9,0.3,2.8h-2.2l0-14.5c0-0.1,0-0.1,0-0.2c0,0,0-6.6,0-9.6
			c0-2,0.6-3.8,1.9-5.6l0.3-0.5c0.3-0.4,0.6-0.8,0.9-1.1c1.2-1.3,1.4-2.8,1.4-3.9c0-6.3,0-12.7,0-18.9l0-2.7c0-3.2,2.1-5.3,5.3-5.3
			c6.2,0,12.4,0,18.6,0c2.7,0,4.5,1.4,5.1,3.9c0.2,0.9,0.2,1.8,0.2,2.9l0,0.7c0,7.8,0,15.5,0,23.3c0,0.8,0.2,1.5,0.8,2.2
			c1.4,1.8,2.9,3.6,4.3,5.5l2.1,2.7c0.1,0.2,0.3,0.3,0.4,0.5l0.1,0.1c0.3,0.3,0.7,0.4,1.1,0.3l0.2-0.1c0.4-0.1,0.7-0.5,0.7-0.9V40
			c0,0,0-0.1,0-0.1c0.2-0.9,1-1.6,1.9-1.6c0.9,0,1.7,0.7,1.9,1.6c0,0,0,0.1,0,0.1v35.3c0,0.1,0,0.1,0,0.2V96c0,0.6,0.4,1,1,1
			l18.8,0.1c1,0.1,1.8,0.9,1.8,1.9C3707.5,100,3706.7,100.9,3705.7,100.9z"/>
		<path class="st5" d="M3664.7,42.5c-4.5,0-9,0-13.4,0c-0.5,0-1.3,0.1-1.8,0.6c-0.6,0.6-0.6,1.3-0.6,1.8l0,16.4c0,0.6,0.4,1,1,1
			h16.4c0.5,0,1-0.4,1-0.9l0-0.2c0-0.2,0-0.3,0-0.4V56c0-3.6,0-5.7,0-11.1C3667.2,43.3,3666.4,42.5,3664.7,42.5z M3665.3,56v4.3
			h-14.4l0-15.4c0-0.3,0-0.4,0-0.4c0,0,0.2,0,0.4,0c4.5,0,9,0,13.4,0c0.3,0,0.5,0,0.5,0c0,0,0,0.2,0,0.4
			C3665.3,50.3,3665.3,52.4,3665.3,56z"/>
	</g>
</g>
<g>
	<g>
		<path class="st3" d="M3796,88.3h-6.4c-2.9,0-5.3,2.4-5.3,5.3s2.4,5.3,5.3,5.3h6.4c2.9,0,5.3-2.4,5.3-5.3S3798.9,88.3,3796,88.3z"
			/>
		<path class="st3" d="M3786.7,66.4h-6.4c-2.9,0-5.3,2.4-5.3,5.3c0,2.9,2.4,5.3,5.3,5.3h6.4c2.9,0,5.3-2.4,5.3-5.3
			C3792,68.7,3789.6,66.4,3786.7,66.4z"/>
		<path class="st3" d="M3801.3,50.5c0-2.9-2.4-5.3-5.3-5.3h-6.4c-2.9,0-5.3,2.4-5.3,5.3c0,2.9,2.4,5.3,5.3,5.3h6.4
			C3798.9,55.7,3801.3,53.4,3801.3,50.5z"/>
		<path class="st3" d="M3838.6,55.7h6.4c2.9,0,5.3-2.4,5.3-5.3c0-2.9-2.4-5.3-5.3-5.3h-6.4c-2.9,0-5.3,2.4-5.3,5.3
			C3833.4,53.4,3835.7,55.7,3838.6,55.7z"/>
		<path class="st3" d="M3854.1,66.4h-6.4c-2.9,0-5.3,2.4-5.3,5.3c0,2.9,2.4,5.3,5.3,5.3h6.4c2.9,0,5.3-2.4,5.3-5.3
			C3859.4,68.7,3857,66.4,3854.1,66.4z"/>
		<path class="st3" d="M3833.4,93.5c0,2.9,2.4,5.3,5.3,5.3h6.4c2.9,0,5.3-2.4,5.3-5.3s-2.4-5.3-5.3-5.3h-6.4
			C3835.7,88.3,3833.4,90.6,3833.4,93.5z"/>
		<path class="st3" d="M3817.2,61.2c-5.8,0-10.5,4.7-10.5,10.5s4.7,10.5,10.5,10.5s10.5-4.7,10.5-10.5
			C3827.7,65.9,3823,61.2,3817.2,61.2z"/>
		<path class="st5" d="M3854.1,64.4h-6.4c-3.7,0-6.7,2.7-7.2,6.3h-10.8c-0.2-2.6-1.2-5-2.8-6.9l7.5-7.5c1.2,0.9,2.7,1.5,4.3,1.5h6.4
			c4,0,7.3-3.3,7.3-7.3s-3.3-7.3-7.3-7.3h-6.4c-4,0-7.3,3.3-7.3,7.3c0,1.7,0.6,3.2,1.5,4.4l-7.4,7.4c-2.2-2-5.1-3.1-8.3-3.1
			c-3.1,0-5.9,1.1-8.1,3l-7.3-7.3c0.9-1.2,1.5-2.7,1.5-4.4c0-4-3.3-7.3-7.3-7.3h-6.4c-4,0-7.3,3.3-7.3,7.3s3.3,7.3,7.3,7.3h6.4
			c1.6,0,3.2-0.6,4.4-1.5l7.3,7.3c-1.7,1.9-2.7,4.4-2.9,7.1h-10.8c-0.5-3.5-3.5-6.3-7.2-6.3h-6.4c-4,0-7.3,3.3-7.3,7.3
			s3.3,7.3,7.3,7.3h6.4c3.7,0,6.7-2.7,7.2-6.3h10.8c0.2,2.8,1.4,5.3,3.1,7.3l-7.7,7.7c-1.2-0.8-2.6-1.3-4.2-1.3h-6.4
			c-4,0-7.3,3.3-7.3,7.3s3.3,7.3,7.3,7.3h6.4c4,0,7.3-3.3,7.3-7.3c0-1.7-0.6-3.3-1.6-4.6l7.6-7.6c2.2,1.8,4.9,2.8,7.9,2.8
			c3.1,0,5.9-1.1,8.1-3l7.8,7.8c-1,1.3-1.7,2.9-1.7,4.6c0,4,3.3,7.3,7.3,7.3h6.4c4,0,7.3-3.3,7.3-7.3s-3.3-7.3-7.3-7.3h-6.4
			c-1.5,0-3,0.5-4.1,1.3l-7.8-7.8c1.7-1.9,2.7-4.4,2.9-7.1h10.8c0.5,3.5,3.5,6.3,7.2,6.3h6.4c4,0,7.3-3.3,7.3-7.3
			C3861.4,67.6,3858.1,64.4,3854.1,64.4z M3838.6,45.2h6.4c2.9,0,5.3,2.4,5.3,5.3c0,2.9-2.4,5.3-5.3,5.3h-6.4
			c-2.9,0-5.3-2.4-5.3-5.3C3833.4,47.5,3835.7,45.2,3838.6,45.2z M3789.5,55.7c-2.9,0-5.3-2.4-5.3-5.3c0-2.9,2.4-5.3,5.3-5.3h6.4
			c2.9,0,5.3,2.4,5.3,5.3c0,2.9-2.4,5.3-5.3,5.3H3789.5z M3786.7,76.9h-6.4c-2.9,0-5.3-2.4-5.3-5.3c0-2.9,2.4-5.3,5.3-5.3h6.4
			c2.9,0,5.3,2.4,5.3,5.3C3792,74.6,3789.6,76.9,3786.7,76.9z M3796,98.8h-6.4c-2.9,0-5.3-2.4-5.3-5.3s2.4-5.3,5.3-5.3h6.4
			c2.9,0,5.3,2.4,5.3,5.3S3798.9,98.8,3796,98.8z M3845.1,88.3c2.9,0,5.3,2.4,5.3,5.3s-2.4,5.3-5.3,5.3h-6.4c-2.9,0-5.3-2.4-5.3-5.3
			s2.4-5.3,5.3-5.3H3845.1z M3817.2,82.1c-5.8,0-10.5-4.7-10.5-10.5c0-5.8,4.7-10.5,10.5-10.5s10.5,4.7,10.5,10.5
			S3823,82.1,3817.2,82.1z M3854.1,76.9h-6.4c-2.9,0-5.3-2.4-5.3-5.3c0-2.9,2.4-5.3,5.3-5.3h6.4c2.9,0,5.3,2.4,5.3,5.3
			C3859.4,74.6,3857,76.9,3854.1,76.9z"/>
	</g>
</g>
<g>
	<g>
		<path class="st3" d="M3987.6,51c-3.1,0-5.6,2.5-5.6,5.6c0,3.1,2.5,5.6,5.6,5.6c3.1,0,5.6-2.5,5.6-5.6
			C3993.2,53.5,3990.7,51,3987.6,51z"/>
		<path class="st3" d="M3943.6,67.5c-6.1,0-11.1,5-11.1,11.1c0,6.1,5,11.1,11.1,11.1c6.1,0,11.1-5,11.1-11.1
			C3954.7,72.5,3949.7,67.5,3943.6,67.5z"/>
		<path class="st3" d="M3969.5,75l-5.7-1.4c-0.7-0.2-1.5-0.9-1.8-1.7l-0.7-1.8c-0.3-0.6-0.3-1.7,0.1-2.3l3.1-5
			c0.4-0.7,0.3-1.8-0.3-2.4l-2.6-2.6c-0.5-0.4-1.7-0.6-2.3-0.2l-5,3.1c-0.6,0.4-1.7,0.4-2.4,0.1l-1.8-0.7c-0.6-0.2-1.4-1-1.5-1.7
			l-1.4-5.7c-0.2-0.8-1-1.5-1.8-1.6c0,0-0.7-0.1-1.8-0.1c-1.1,0-1.8,0.1-1.8,0.1c-0.8,0.1-1.6,0.8-1.8,1.6l-1.4,5.7
			c-0.2,0.7-0.9,1.5-1.7,1.8l-1.8,0.7c-0.3,0.1-0.7,0.2-1,0.2c-0.3,0-0.9,0-1.3-0.3l-5-3.1c-0.7-0.4-1.8-0.3-2.4,0.3l-2.6,2.6
			c-0.5,0.6-0.6,1.6-0.2,2.3l3.1,5c0.4,0.7,0.4,1.7,0.1,2.4l-0.7,1.8c-0.2,0.6-1,1.4-1.7,1.5l-5.7,1.4c-0.8,0.2-1.5,1-1.6,1.8
			c0,0-0.1,0.7-0.1,1.8c0,1.1,0.1,1.8,0.1,1.8c0.1,0.8,0.8,1.6,1.6,1.8l5.7,1.4c0.7,0.2,1.5,0.9,1.8,1.7l0.7,1.8
			c0.3,0.6,0.3,1.7-0.1,2.3l-3.1,5c-0.4,0.7-0.3,1.7,0.3,2.4l2.6,2.6c0.5,0.4,1.7,0.6,2.3,0.2l5-3.1c0.3-0.2,0.8-0.3,1.3-0.3
			c0.4,0,0.8,0.1,1.1,0.2l1.8,0.7c0.6,0.2,1.4,1,1.5,1.7l1.4,5.7c0.2,0.8,1,1.5,1.8,1.6c0,0,0.7,0.1,1.8,0.1c1.1,0,1.8-0.1,1.8-0.1
			c0.8-0.1,1.6-0.8,1.8-1.6l1.4-5.7c0.2-0.7,0.9-1.5,1.6-1.8l1.8-0.8c0.3-0.1,0.7-0.2,1-0.2c0.3,0,0.9,0,1.3,0.3l5,3.1
			c0.7,0.4,1.8,0.3,2.4-0.3l2.6-2.6c0.5-0.6,0.6-1.6,0.2-2.3l-3.1-5c-0.4-0.6-0.4-1.7-0.1-2.4l0.7-1.8c0.2-0.6,1-1.4,1.7-1.5
			l5.7-1.4c0.8-0.2,1.5-1,1.6-1.8c0,0,0.1-0.7,0.1-1.8c0-1-0.1-1.7-0.1-1.8C3971,76,3970.3,75.2,3969.5,75z M3943.6,91.7
			c-7.2,0-13.1-5.9-13.1-13.1c0-7.2,5.9-13.1,13.1-13.1c7.2,0,13.1,5.9,13.1,13.1C3956.7,85.8,3950.8,91.7,3943.6,91.7z"/>
		<path class="st3" d="M4005.6,58.5l-3.6-1.9c-0.4-0.2-0.8-0.8-0.9-1.4l-0.2-1.4c-0.1-0.4,0.1-1.1,0.5-1.5l2.9-2.8
			c0.4-0.4,0.5-1.2,0.2-1.7l-1.3-2.1c-0.3-0.4-1-0.7-1.6-0.5l-4,1.2c-0.5,0.2-1.1-0.1-1.5-0.4l-1.1-0.8c-0.4-0.2-0.7-0.9-0.7-1.4
			l0-4.1c0-0.6-0.4-1.2-1-1.4c0,0-0.5-0.2-1.2-0.4c-0.7-0.2-1.2-0.3-1.2-0.3c0,0-0.2,0-0.2,0c-0.5,0-1.1,0.3-1.3,0.8l-1.9,3.6
			c-0.3,0.5-0.9,0.8-1.4,0.9l-1.4,0.2c-0.5,0.1-1.1-0.2-1.4-0.5l-2.8-2.9c-0.4-0.4-1.1-0.5-1.7-0.2l-2.1,1.3c-0.4,0.3-0.7,1-0.5,1.5
			l1.2,3.9c0.2,0.5,0,1.2-0.4,1.6l-0.8,1.1c-0.3,0.4-0.9,0.7-1.4,0.7l-4.1,0c-0.6,0-1.2,0.4-1.4,1c0,0-0.2,0.5-0.4,1.2
			c-0.2,0.7-0.3,1.2-0.3,1.2c-0.1,0.6,0.3,1.3,0.8,1.5l3.6,1.9c0.5,0.2,0.8,0.8,0.9,1.4l0.2,1.4c0.1,0.4-0.1,1.1-0.5,1.5l-2.9,2.9
			c-0.4,0.4-0.5,1.2-0.2,1.7l1.3,2.1c0.3,0.4,1,0.7,1.5,0.5l4-1.2c0.1,0,0.2,0,0.3,0c0.4,0,0.9,0.2,1.2,0.4l1.1,0.8
			c0.4,0.2,0.7,0.9,0.7,1.4l0,4.1c0,0.6,0.4,1.2,1,1.4c0,0,0.5,0.2,1.2,0.4c0.7,0.2,1.2,0.3,1.2,0.3c0,0,0.2,0,0.2,0
			c0.5,0,1.1-0.3,1.3-0.8l1.9-3.6c0.3-0.5,0.9-0.8,1.4-0.9l1.4-0.2c0.4-0.1,1.1,0.1,1.4,0.5l2.8,2.9c0.4,0.4,1.1,0.5,1.7,0.2
			l2.1-1.3c0.4-0.3,0.7-1,0.5-1.6l-1.2-3.9c-0.1-0.5,0-1.2,0.4-1.6l0.8-1.1c0.2-0.4,0.9-0.7,1.4-0.7l4.1,0c0.6,0,1.2-0.4,1.4-1
			c0,0,0.2-0.5,0.4-1.2c0.2-0.7,0.3-1.2,0.3-1.2C4006.5,59.5,4006.1,58.8,4005.6,58.5z M3987.6,64.2c-4.2,0-7.6-3.4-7.6-7.6
			c0-4.2,3.4-7.6,7.6-7.6c4.2,0,7.6,3.4,7.6,7.6C3995.2,60.8,3991.8,64.2,3987.6,64.2z"/>
		<path class="st5" d="M3970,73l-5.7-1.4c-0.1,0-0.3-0.3-0.4-0.4l-0.8-1.9c0-0.1,0-0.4,0-0.5l3.1-5c0.9-1.5,0.7-3.5-0.5-4.8
			l-2.6-2.6c-1.2-1.1-3.4-1.3-4.7-0.4l-5,3.1c-0.1,0-0.4,0.1-0.6,0l-1.9-0.8c-0.1,0-0.3-0.2-0.3-0.3l-1.4-5.7
			c-0.4-1.6-1.9-2.9-3.6-3.1c0,0-0.8-0.1-2-0.1c-1.2,0-2,0.1-2,0.1c-1.7,0.2-3.2,1.5-3.6,3.1l-1.4,5.7c0,0.1-0.3,0.3-0.4,0.4
			l-1.9,0.8c0,0-0.1,0-0.2,0c-0.2,0-0.3,0-0.3,0l-5-3.1c-1.4-0.8-3.5-0.7-4.8,0.5l-2.6,2.6c-1.1,1.3-1.3,3.3-0.4,4.7l3.1,5
			c0.1,0.1,0.1,0.4,0,0.6l-0.8,1.9c0,0.1-0.3,0.3-0.3,0.3l-5.7,1.4c-1.6,0.4-2.9,1.9-3.1,3.6c0,0-0.1,0.8-0.1,2c0,1.2,0.1,2,0.1,2
			c0.1,1.7,1.4,3.2,3.1,3.6l5.7,1.4c0.1,0,0.3,0.3,0.4,0.4l0.8,1.9c0,0.1,0,0.4,0,0.5l-3.1,5c-0.9,1.5-0.7,3.5,0.5,4.8l2.6,2.6
			c0.7,0.6,1.7,1,2.7,1c0.8,0,1.5-0.2,2-0.5l5-3.1c0.1,0,0.4-0.1,0.6,0l1.9,0.8c0.1,0,0.3,0.3,0.3,0.3l1.4,5.7
			c0.4,1.6,1.9,2.9,3.6,3.1c0,0,0.8,0.1,2,0.1c1.2,0,2-0.1,2-0.1c1.7-0.2,3.2-1.4,3.6-3.1l1.4-5.7c0-0.1,0.3-0.3,0.4-0.4l1.9-0.8
			c0,0,0.1,0,0.2,0c0.2,0,0.3,0,0.3,0l5,3.1c1.4,0.9,3.5,0.7,4.8-0.5l2.6-2.6c1.1-1.3,1.3-3.3,0.4-4.7l-3.1-5
			c-0.1-0.1-0.1-0.4,0-0.6l0.8-1.9c0-0.1,0.3-0.3,0.3-0.3l5.7-1.4c1.6-0.4,2.9-1.9,3.1-3.6c0,0,0.1-0.8,0.1-2c0-1.1-0.1-1.9-0.1-2
			C3972.9,74.9,3971.7,73.4,3970,73z M3971.1,80.4c-0.1,0.8-0.8,1.6-1.6,1.8l-5.7,1.4c-0.7,0.2-1.5,0.9-1.7,1.5l-0.7,1.8
			c-0.3,0.7-0.3,1.8,0.1,2.4l3.1,5c0.4,0.7,0.3,1.8-0.2,2.3l-2.6,2.6c-0.6,0.6-1.7,0.7-2.4,0.3l-5-3.1c-0.4-0.3-1-0.3-1.3-0.3
			c-0.3,0-0.7,0-1,0.2l-1.8,0.8c-0.8,0.3-1.5,1.1-1.6,1.8l-1.4,5.7c-0.2,0.8-1,1.5-1.8,1.6c0,0-0.7,0.1-1.8,0.1
			c-1.1,0-1.8-0.1-1.8-0.1c-0.8-0.1-1.6-0.8-1.8-1.6l-1.4-5.7c-0.2-0.7-0.9-1.5-1.5-1.7l-1.8-0.7c-0.3-0.2-0.7-0.2-1.1-0.2
			c-0.5,0-1,0.1-1.3,0.3l-5,3.1c-0.6,0.4-1.8,0.3-2.3-0.2l-2.6-2.6c-0.6-0.7-0.7-1.7-0.3-2.4l3.1-5c0.4-0.6,0.4-1.7,0.1-2.3
			l-0.7-1.8c-0.3-0.7-1-1.5-1.8-1.7l-5.7-1.4c-0.8-0.2-1.5-1-1.6-1.8c0,0-0.1-0.7-0.1-1.8c0-1.1,0.1-1.8,0.1-1.8
			c0.1-0.8,0.8-1.6,1.6-1.8l5.7-1.4c0.7-0.2,1.5-0.9,1.7-1.5l0.7-1.8c0.3-0.7,0.3-1.8-0.1-2.4l-3.1-5c-0.4-0.7-0.3-1.7,0.2-2.3
			l2.6-2.6c0.6-0.5,1.8-0.7,2.4-0.3l5,3.1c0.4,0.3,1,0.3,1.3,0.3c0.3,0,0.7,0,1-0.2l1.8-0.7c0.8-0.3,1.5-1,1.7-1.8l1.4-5.7
			c0.2-0.8,1-1.5,1.8-1.6c0,0,0.7-0.1,1.8-0.1c1.1,0,1.8,0.1,1.8,0.1c0.8,0.1,1.6,0.8,1.8,1.6l1.4,5.7c0.2,0.7,0.9,1.5,1.5,1.7
			l1.8,0.7c0.7,0.3,1.8,0.3,2.4-0.1l5-3.1c0.6-0.4,1.8-0.3,2.3,0.2l2.6,2.6c0.6,0.7,0.7,1.7,0.3,2.4l-3.1,5
			c-0.4,0.6-0.4,1.7-0.1,2.3l0.7,1.8c0.3,0.7,1,1.5,1.8,1.7l5.7,1.4c0.8,0.2,1.5,1,1.6,1.8c0,0.1,0.1,0.8,0.1,1.8
			C3971.2,79.7,3971.1,80.4,3971.1,80.4z"/>
		<path class="st5" d="M3943.6,65.5c-7.2,0-13.1,5.9-13.1,13.1c0,7.2,5.9,13.1,13.1,13.1c7.2,0,13.1-5.9,13.1-13.1
			C3956.7,71.4,3950.8,65.5,3943.6,65.5z M3943.6,89.7c-6.1,0-11.1-5-11.1-11.1c0-6.1,5-11.1,11.1-11.1c6.1,0,11.1,5,11.1,11.1
			C3954.7,84.7,3949.7,89.7,3943.6,89.7z"/>
		<path class="st5" d="M4006.5,56.8l-3.5-1.8l-0.2-1.2l2.8-2.7c1-1,1.3-2.7,0.6-4.1l-1.3-2.2c-0.8-1.1-2.5-1.8-3.8-1.3l-3.7,1.1
			l-1-0.7l0-3.9c0-1.4-1-2.8-2.3-3.3c0,0-0.6-0.2-1.4-0.4c-0.8-0.2-1.4-0.3-1.4-0.3c-0.1,0-0.4,0-0.5,0c-1.3,0-2.5,0.7-3.1,1.8
			l-1.8,3.5l-1.2,0.2l-2.7-2.8c-1-1-2.7-1.3-4.1-0.6l-2.2,1.3c-1.2,0.8-1.8,2.4-1.3,3.8l1.2,3.7l-0.7,1l-3.9,0c-1.4,0-2.8,1-3.3,2.3
			c0,0-0.2,0.5-0.4,1.4c-0.2,0.8-0.3,1.4-0.3,1.4c-0.2,1.4,0.5,2.9,1.8,3.6l3.5,1.8l0.2,1.2l-2.8,2.7c-1,1-1.3,2.7-0.6,4.1l1.3,2.2
			c0.6,0.9,1.7,1.5,2.9,1.5c0.3,0,0.6,0,0.9-0.1l3.8-1.1l1,0.7l0,3.9c0,1.4,1,2.8,2.3,3.3c0,0,0.5,0.2,1.4,0.4
			c0.8,0.2,1.4,0.3,1.4,0.3c0.1,0,0.4,0,0.5,0c1.3,0,2.5-0.7,3.1-1.8l1.8-3.5l1.2-0.2l2.7,2.8c1,1,2.7,1.4,4.1,0.6l2.2-1.3
			c1.2-0.8,1.8-2.4,1.3-3.8l-1.2-3.7l0.7-1l3.9,0c1.4,0,2.8-1,3.3-2.3c0,0,0.2-0.6,0.4-1.4c0.2-0.8,0.3-1.4,0.3-1.4
			C4008.6,58.9,4007.8,57.4,4006.5,56.8z M4006.1,61.3c-0.2,0.7-0.3,1.2-0.4,1.2c-0.2,0.5-0.8,1-1.4,1l-4.1,0
			c-0.5,0-1.1,0.3-1.4,0.7l-0.8,1.1c-0.3,0.4-0.5,1.1-0.4,1.6l1.2,3.9c0.2,0.6-0.1,1.3-0.5,1.6l-2.1,1.3c-0.6,0.3-1.3,0.2-1.7-0.2
			l-2.8-2.9c-0.3-0.4-1-0.6-1.4-0.5l-1.4,0.2c-0.5,0-1.1,0.4-1.4,0.9l-1.9,3.6c-0.2,0.4-0.8,0.8-1.3,0.8c-0.1,0-0.2,0-0.2,0
			c0,0-0.5-0.1-1.2-0.3c-0.7-0.2-1.2-0.3-1.2-0.4c-0.5-0.2-1-0.8-1-1.4l0-4.1c0-0.5-0.3-1.2-0.7-1.4l-1.1-0.8
			c-0.3-0.3-0.8-0.4-1.2-0.4c-0.1,0-0.2,0-0.3,0l-4,1.2c-0.5,0.2-1.3-0.1-1.5-0.5l-1.3-2.1c-0.3-0.5-0.2-1.3,0.2-1.7l2.9-2.9
			c0.3-0.4,0.6-1.1,0.5-1.5L3974,58c-0.1-0.5-0.4-1.1-0.9-1.4l-3.6-1.9c-0.5-0.3-0.8-0.9-0.8-1.5c0,0,0.1-0.5,0.3-1.2
			c0.2-0.7,0.3-1.2,0.4-1.2c0.2-0.5,0.8-1,1.4-1l4.1,0c0.5,0,1.1-0.3,1.4-0.7l0.8-1.1c0.4-0.4,0.5-1.1,0.4-1.6l-1.2-3.9
			c-0.2-0.5,0.1-1.3,0.5-1.5l2.1-1.3c0.6-0.3,1.3-0.2,1.7,0.2l2.8,2.9c0.3,0.3,0.9,0.6,1.4,0.5l1.4-0.2c0.5,0,1.1-0.4,1.4-0.9
			l1.9-3.6c0.2-0.4,0.8-0.8,1.3-0.8c0,0,0.2,0,0.2,0c0,0,0.5,0.1,1.2,0.3c0.7,0.2,1.2,0.3,1.2,0.4c0.5,0.2,1,0.8,1,1.4l0,4.1
			c0,0.5,0.3,1.1,0.7,1.4l1.1,0.8c0.4,0.3,1,0.5,1.5,0.4l4-1.2c0.5-0.2,1.3,0.1,1.6,0.5l1.3,2.1c0.3,0.6,0.2,1.3-0.2,1.7l-2.9,2.8
			c-0.4,0.3-0.6,1.1-0.5,1.5l0.2,1.4c0.1,0.5,0.4,1.1,0.9,1.4l3.6,1.9c0.5,0.3,0.8,0.9,0.8,1.5C4006.4,60.1,4006.3,60.6,4006.1,61.3
			z"/>
		<path class="st5" d="M3987.6,49c-4.2,0-7.6,3.4-7.6,7.6c0,4.2,3.4,7.6,7.6,7.6c4.2,0,7.6-3.4,7.6-7.6
			C3995.2,52.4,3991.8,49,3987.6,49z M3987.6,62.2c-3.1,0-5.6-2.5-5.6-5.6s2.5-5.6,5.6-5.6c3.1,0,5.6,2.5,5.6,5.6
			C3993.2,59.7,3990.7,62.2,3987.6,62.2z"/>
	</g>
</g>
<g>
	<g>
		<path class="st5" d="M4128.2,79.2c-4.5,0-8.6,2.2-11.1,5.6c-2.4-1.9-4-4.8-4.6-6c1.4-1.5,5.2-6,6.7-10.7c1-1.1,5.6-6.3,2.6-10.9
			c-0.2-0.3-0.5-0.6-0.7-0.8c-0.1-0.1-0.2-0.2-0.3-0.3c0.1-2.9-1.5-9-5.4-13.3c-3.2-3.5-7.3-5.4-12.1-5.5l-0.5,0
			c-4.9,0.2-9,2-12.2,5.5c-3.9,4.3-5.6,10.4-5.4,13.3c-0.1,0.1-0.2,0.2-0.3,0.3c-0.2,0.2-0.5,0.5-0.7,0.8c-3,4.6,1.6,9.8,2.6,10.9
			c1.5,4.7,5.4,9.3,6.7,10.7c-0.6,1.5-2.7,6.1-7.3,7.2c-17.8,3.2-18,12.1-18,12.5c0,0.6,0.4,1,1,1h46.8v-0.5c2.2,4.6,7,7.8,12.4,7.8
			c7.6,0,13.8-6.2,13.8-13.8S4135.8,79.2,4128.2,79.2z M4114.4,93c0,1.6,0.3,3.1,0.8,4.5h-45c0.7-2.2,3.5-7.3,16.2-9.5
			c6.8-1.6,8.9-8.8,9-9.1c0.1-0.3,0-0.7-0.2-1c-0.1-0.1-5.2-5.4-6.7-10.6c0-0.2-0.1-0.3-0.3-0.4c0,0-4.9-4.9-2.5-8.6
			c0.1-0.1,0.2-0.3,0.4-0.4c0.4-0.4,1-0.9,1-1.7c-0.1-2.1,1.2-7.9,4.9-12c2.8-3.1,6.4-4.7,10.7-4.9l0.5,0c4.3,0.1,7.9,1.8,10.7,4.9
			c3.8,4.2,5.1,9.9,4.9,12c-0.1,0.8,0.5,1.3,1,1.7c0.1,0.1,0.3,0.3,0.4,0.4c2.4,3.7-2.4,8.5-2.5,8.6c-0.1,0.1-0.2,0.3-0.3,0.4
			c-1.5,5.2-6.7,10.5-6.7,10.6c-0.3,0.3-0.4,0.7-0.2,1.1c0.1,0.2,2.1,4.8,5.6,7.5C4115,88.4,4114.4,90.6,4114.4,93z M4128.2,104.8
			c-6.5,0-11.8-5.3-11.8-11.8c0-6.5,5.3-11.8,11.8-11.8c6.5,0,11.8,5.3,11.8,11.8C4140,99.5,4134.7,104.8,4128.2,104.8z"/>
		<polygon class="st5" points="4129.2,87.7 4127.2,87.7 4127.2,92.5 4122.4,92.5 4122.4,94.5 4127.2,94.5 4127.2,99.3 4129.2,99.3 
			4129.2,94.5 4134,94.5 4134,92.5 4129.2,92.5 		"/>
	</g>
</g>
</svg>
