<svg xmlns="http://www.w3.org/2000/svg" width="145" height="40" viewBox="0 0 145 40"><title>  BTN_Chat</title><desc>  Created with Sketch.</desc><g fill="none"><rect x="0.5" y="0.5" width="144" height="39" rx="19.5" stroke="#005173"/><path d="M84.3 24.5C84.1 24.8 83.8 25.2 83.4 25.5 83.1 25.8 82.7 26 82.3 26.3 81.8 26.5 81.3 26.7 80.8 26.8 80.3 26.9 79.8 27 79.2 27 78.2 27 77.2 26.8 76.3 26.5 75.5 26.1 74.7 25.6 74.1 25 73.4 24.3 72.9 23.6 72.5 22.7 72.2 21.8 72 20.8 72 19.8 72 18.7 72.2 17.8 72.5 16.9 72.9 16 73.4 15.3 74.1 14.6 74.7 14 75.5 13.5 76.3 13.1 77.2 12.8 78.2 12.6 79.2 12.6 80.1 12.6 80.9 12.7 81.8 13.1 82.6 13.4 83.4 14 84 14.8L82.8 15.7C82.6 15.4 82.4 15.2 82.2 15 81.9 14.8 81.6 14.6 81.3 14.4 81 14.3 80.7 14.1 80.3 14 79.9 13.9 79.6 13.9 79.2 13.9 78.3 13.9 77.5 14 76.8 14.3 76.1 14.7 75.5 15.1 75 15.6 74.5 16.2 74.2 16.8 73.9 17.5 73.7 18.3 73.5 19 73.5 19.8 73.5 20.6 73.7 21.3 73.9 22 74.2 22.8 74.5 23.4 75 23.9 75.5 24.5 76.1 24.9 76.8 25.2 77.5 25.6 78.3 25.7 79.2 25.7 79.6 25.7 79.9 25.7 80.3 25.6 80.6 25.6 81 25.4 81.3 25.3 81.7 25.1 82 24.9 82.3 24.7 82.6 24.4 82.9 24.1 83.2 23.7L84.3 24.5ZM86.2 12L87.5 12 87.5 19 87.5 19C87.7 18.8 87.9 18.6 88.1 18.4 88.3 18.1 88.6 18 88.8 17.8 89.1 17.7 89.4 17.6 89.7 17.5 90 17.4 90.3 17.3 90.6 17.3 91.8 17.3 92.6 17.7 93.2 18.3 93.8 18.9 94 19.8 94 20.9L94 26.7 92.8 26.7 92.8 21.6C92.8 20.6 92.6 19.9 92.2 19.3 91.9 18.8 91.2 18.5 90.3 18.5 90.2 18.5 90 18.5 89.7 18.6 89.4 18.6 89.1 18.8 88.8 19 88.4 19.2 88.2 19.6 87.9 20.1 87.6 20.5 87.5 21.2 87.5 22L87.5 26.7 86.2 26.7 86.2 12ZM102.3 22.1C101.9 22.1 101.5 22.2 101 22.2 100.6 22.2 100.1 22.3 99.6 22.4 99.2 22.5 98.8 22.7 98.5 23 98.2 23.2 98 23.6 98 24.1 98 24.4 98.1 24.6 98.2 24.8 98.3 25 98.5 25.2 98.7 25.3 98.9 25.5 99.1 25.6 99.4 25.6 99.6 25.7 99.9 25.7 100.2 25.7 100.6 25.7 101 25.6 101.4 25.5 101.7 25.3 102 25.1 102.2 24.9 102.5 24.6 102.6 24.3 102.8 23.9 102.9 23.6 102.9 23.2 102.9 22.8L102.9 22.1 102.3 22.1ZM102.9 21.1L102.9 20.9C102.9 19.3 102.1 18.5 100.6 18.5 99.5 18.5 98.6 18.9 97.8 19.6L97 18.7C97.9 17.8 99.2 17.3 100.9 17.3 101.3 17.3 101.7 17.4 102.2 17.5 102.6 17.7 102.9 17.9 103.2 18.1 103.5 18.4 103.8 18.7 103.9 19.1 104.1 19.5 104.2 20 104.2 20.6L104.2 24.6C104.2 25 104.2 25.3 104.3 25.7 104.3 26.1 104.3 26.4 104.4 26.7L103.1 26.7C103.1 26.4 103 26.2 103 25.9 103 25.7 103 25.4 103 25.2L103 25.2C102.6 25.8 102.1 26.2 101.6 26.5 101.1 26.8 100.5 26.9 99.7 26.9 99.3 26.9 98.9 26.8 98.6 26.7 98.2 26.6 97.9 26.4 97.6 26.2 97.3 26 97 25.7 96.9 25.4 96.7 25.1 96.6 24.7 96.6 24.2 96.6 23.5 96.8 22.9 97.2 22.5 97.6 22.1 98 21.8 98.6 21.6 99.2 21.3 99.8 21.2 100.5 21.2 101.1 21.1 101.7 21.1 102.3 21.1L102.9 21.1ZM111.9 18.7L109.3 18.7 109.3 24.1C109.3 24.4 109.3 24.7 109.4 24.9 109.4 25.1 109.5 25.3 109.7 25.4 109.8 25.5 109.9 25.6 110.1 25.7 110.2 25.7 110.4 25.7 110.6 25.7 110.8 25.7 111.1 25.7 111.3 25.6 111.5 25.6 111.7 25.5 111.9 25.4L112 26.6C111.5 26.8 110.9 26.9 110.3 26.9 110 26.9 109.8 26.9 109.5 26.8 109.2 26.7 109 26.6 108.8 26.4 108.5 26.2 108.4 26 108.2 25.7 108.1 25.4 108 25 108 24.5L108 18.7 106.1 18.7 106.1 17.6 108 17.6 108 15 109.3 15 109.3 17.6 111.9 17.6 111.9 18.7ZM59.8 25.5C59.6 25.7 59.5 25.9 59.5 26.2L59.9 29.3 57.8 27C57.6 26.9 57.5 26.8 57.3 26.8 57.2 26.8 57.2 26.8 57.1 26.8 56.2 27.1 55.3 27.2 54.4 27.2 50.2 27.2 46.8 24.6 46.8 21.4 46.8 18.2 50.2 15.7 54.4 15.7 58.6 15.7 62 18.2 62 21.4 62 23 61.2 24.4 59.8 25.5ZM41.6 27.6C41.4 27.5 41.2 27.6 41 27.8L37.1 32 37.8 26.2C37.8 25.9 37.7 25.7 37.5 25.5 35.2 23.8 34 21.5 34 19.1 34 14.1 39.3 10 45.8 10 49.9 10 53.7 11.7 55.9 14.3 55.4 14.3 54.9 14.2 54.4 14.2 49.5 14.2 45.5 17.5 45.5 21.4 45.5 24 47.1 26.3 49.9 27.6 47.2 28.4 44.3 28.4 41.6 27.6Z" fill="#005173"/></g></svg>