<?xml version="1.0" encoding="utf-8"?>
<!-- Generator: Adobe Illustrator 19.1.0, SVG Export Plug-In . SVG Version: 6.00 Build 0)  -->
<svg version="1.1" id="Layer_1" xmlns="http://www.w3.org/2000/svg" xmlns:xlink="http://www.w3.org/1999/xlink" x="0px" y="0px"
	 viewBox="-47 130 241 30" style="enable-background:new -47 130 241 30;" xml:space="preserve">
<style type="text/css">
	.st0{fill:#3095B4;}
</style>
<title>IC_Chat_CreditReporter</title>
<desc>Created with Sketch.</desc>
<g id="Page-1">
	<g id="IC_Chat_CreditReporter">
		<path class="st0" d="M-37.3,147.9c-1.2-0.1-2.4-0.5-3.4-1c-0.8,0-3.3,1.5-6.3,0c2-1.4,2.6-3.4,2.2-4.5c-0.4-1.1-0.7-2.2-0.7-3.4
			c0-4.9,4-9,9-9s9,4,9,9c0,0,0,0,0,0c-0.7,0.1-1.4,0.2-2,0.4c0-0.1,0-0.2,0-0.3c0-3.9-3.2-7.1-7.2-7.1s-6.8,3.2-6.8,7.1
			c0,1,0,2.2,1,3.3c0.5,0.5-0.5,3.1-1.5,3.6c2,0,3-1.1,3.5-1.5c1,1,2.5,1.5,3.7,1.5C-37,146.6-37.2,147.2-37.3,147.9z M-26.5,159.8
			c-5.5,0-10-4.5-10-9.9c0-5.5,4.5-9.9,10-9.9s10,4.5,10,9.9c0,1.7-0.4,3.2-1.1,4.6c-0.4,0.8-0.9,3.3,1.6,4.8c-4,1.5-6.5,0-6.7-0.2
			C-23.9,159.6-25.2,159.8-26.5,159.8z M-26.5,157.9c1.1,0,3,0,4-1c0.2,0.2,0.5,1.5,3.5,1.5c-1-1.5-0.7-4.1-0.4-4.8
			c0.6-1.1,0.9-2.4,0.9-3.7c0-4.4-3.6-8-8-8s-8,3.6-8,8S-30.9,157.9-26.5,157.9z"/>
		<path id="Start-a-Live-Chat" class="st0" d="M12,148.3c0.3,0.5,0.7,0.8,1.2,1c0.5,0.2,1,0.3,1.5,0.3c0.3,0,0.6,0,0.9-0.1
			c0.3-0.1,0.6-0.2,0.8-0.4c0.2-0.2,0.4-0.4,0.6-0.7c0.2-0.3,0.2-0.6,0.2-0.9c0-0.5-0.2-0.9-0.5-1.1c-0.3-0.3-0.7-0.5-1.2-0.6
			c-0.5-0.2-1-0.3-1.5-0.5c-0.5-0.2-1-0.4-1.5-0.7c-0.5-0.3-0.8-0.7-1.2-1.2c-0.3-0.5-0.5-1.1-0.5-2c0-0.4,0.1-0.8,0.2-1.2
			c0.2-0.4,0.4-0.8,0.8-1.2c0.3-0.3,0.8-0.6,1.3-0.9c0.5-0.2,1.2-0.4,2-0.4c0.7,0,1.4,0.1,2,0.3c0.6,0.2,1.2,0.6,1.7,1.2l-1.4,1.3
			c-0.2-0.3-0.5-0.6-0.9-0.8c-0.4-0.2-0.8-0.3-1.3-0.3c-0.5,0-0.9,0.1-1.2,0.2c-0.3,0.1-0.6,0.3-0.8,0.5c-0.2,0.2-0.3,0.4-0.4,0.6
			c-0.1,0.2-0.1,0.4-0.1,0.6c0,0.5,0.2,1,0.5,1.2c0.3,0.3,0.7,0.5,1.2,0.7c0.5,0.2,1,0.3,1.5,0.5c0.5,0.1,1,0.3,1.5,0.6
			c0.5,0.3,0.8,0.6,1.2,1c0.3,0.4,0.5,1,0.5,1.8c0,0.6-0.1,1.2-0.4,1.7s-0.5,0.9-0.9,1.2s-0.9,0.6-1.4,0.8c-0.5,0.2-1.1,0.3-1.7,0.3
			c-0.8,0-1.6-0.1-2.3-0.4c-0.7-0.3-1.3-0.7-1.7-1.3L12,148.3z M25.9,143.9h-2.3v3.9c0,0.2,0,0.5,0,0.7c0,0.2,0.1,0.4,0.1,0.6
			c0.1,0.2,0.2,0.3,0.4,0.4s0.4,0.2,0.7,0.2c0.2,0,0.4,0,0.6-0.1c0.2,0,0.4-0.1,0.6-0.2v1.5c-0.2,0.1-0.4,0.2-0.7,0.2
			s-0.5,0.1-0.7,0.1c-0.6,0-1.1-0.1-1.4-0.3s-0.6-0.4-0.8-0.7s-0.3-0.6-0.3-0.9c0-0.3,0-0.7,0-1v-4.4h-1.9v-1.4H22v-2.4h1.6v2.4h2.3
			V143.9z M28.1,143.5c0.5-0.4,1-0.7,1.6-0.9c0.6-0.2,1.2-0.3,1.8-0.3c0.6,0,1.2,0.1,1.6,0.2c0.5,0.2,0.8,0.4,1.1,0.6
			c0.3,0.3,0.5,0.6,0.6,0.9c0.1,0.3,0.2,0.7,0.2,1.1v4.4c0,0.3,0,0.6,0,0.8s0,0.5,0.1,0.7h-1.4c0-0.4-0.1-0.9-0.1-1.3h0
			c-0.4,0.6-0.8,0.9-1.3,1.2c-0.5,0.2-1.1,0.3-1.7,0.3c-0.4,0-0.8-0.1-1.1-0.2s-0.7-0.3-0.9-0.5c-0.3-0.2-0.5-0.5-0.6-0.8
			c-0.2-0.3-0.2-0.7-0.2-1.1c0-0.6,0.1-1,0.4-1.4c0.2-0.4,0.6-0.7,1-0.9c0.4-0.2,0.9-0.4,1.5-0.5c0.6-0.1,1.2-0.2,1.8-0.2h1.2v-0.4
			c0-0.2,0-0.4-0.1-0.6c-0.1-0.2-0.2-0.4-0.4-0.6c-0.2-0.2-0.4-0.3-0.6-0.4c-0.3-0.1-0.6-0.2-0.9-0.2c-0.3,0-0.6,0-0.8,0.1
			s-0.4,0.1-0.6,0.2c-0.2,0.1-0.4,0.2-0.5,0.3c-0.2,0.1-0.3,0.2-0.5,0.3L28.1,143.5z M32.7,146.9c-0.4,0-0.8,0-1.2,0.1
			c-0.4,0-0.8,0.1-1.1,0.2c-0.3,0.1-0.6,0.3-0.8,0.5c-0.2,0.2-0.3,0.5-0.3,0.8c0,0.5,0.2,0.8,0.5,1.1c0.3,0.2,0.8,0.3,1.3,0.3
			c0.4,0,0.8-0.1,1.1-0.2c0.3-0.2,0.6-0.3,0.8-0.6s0.3-0.5,0.4-0.8c0.1-0.3,0.1-0.6,0.1-0.9v-0.5H32.7z M37.5,142.5h1.6v1.3h0
			c0.1-0.2,0.3-0.4,0.4-0.6c0.2-0.2,0.4-0.3,0.6-0.5c0.2-0.1,0.5-0.2,0.7-0.3s0.5-0.1,0.8-0.1s0.5,0,0.7,0.1l-0.1,1.7
			c-0.1,0-0.3-0.1-0.4-0.1c-0.1,0-0.3,0-0.4,0c-0.8,0-1.4,0.2-1.8,0.7c-0.4,0.4-0.6,1.1-0.6,2.1v4.3h-1.6V142.5z M48.9,143.9h-2.3
			v3.9c0,0.2,0,0.5,0,0.7c0,0.2,0.1,0.4,0.1,0.6c0.1,0.2,0.2,0.3,0.4,0.4s0.4,0.2,0.7,0.2c0.2,0,0.4,0,0.6-0.1
			c0.2,0,0.4-0.1,0.6-0.2v1.5c-0.2,0.1-0.4,0.2-0.7,0.2c-0.3,0-0.5,0.1-0.7,0.1c-0.6,0-1.1-0.1-1.4-0.3s-0.6-0.4-0.8-0.7
			c-0.2-0.3-0.3-0.6-0.3-0.9c0-0.3,0-0.7,0-1v-4.4h-1.9v-1.4h1.9v-2.4h1.6v2.4h2.3V143.9z M56.2,143.5c0.5-0.4,1-0.7,1.6-0.9
			s1.2-0.3,1.8-0.3c0.6,0,1.2,0.1,1.6,0.2c0.4,0.2,0.8,0.4,1.1,0.6c0.3,0.3,0.5,0.6,0.6,0.9c0.1,0.3,0.2,0.7,0.2,1.1v4.4
			c0,0.3,0,0.6,0,0.8c0,0.3,0,0.5,0.1,0.7h-1.4c0-0.4-0.1-0.9-0.1-1.3h0c-0.4,0.6-0.8,0.9-1.3,1.2c-0.5,0.2-1.1,0.3-1.7,0.3
			c-0.4,0-0.8-0.1-1.1-0.2c-0.4-0.1-0.7-0.3-0.9-0.5c-0.3-0.2-0.5-0.5-0.6-0.8c-0.2-0.3-0.2-0.7-0.2-1.1c0-0.6,0.1-1,0.4-1.4
			c0.2-0.4,0.6-0.7,1-0.9c0.4-0.2,0.9-0.4,1.5-0.5c0.6-0.1,1.2-0.2,1.8-0.2h1.2v-0.4c0-0.2,0-0.4-0.1-0.6s-0.2-0.4-0.4-0.6
			c-0.2-0.2-0.4-0.3-0.6-0.4c-0.3-0.1-0.6-0.2-0.9-0.2c-0.3,0-0.6,0-0.8,0.1s-0.4,0.1-0.6,0.2c-0.2,0.1-0.4,0.2-0.5,0.3
			c-0.2,0.1-0.3,0.2-0.4,0.3L56.2,143.5z M60.8,146.9c-0.4,0-0.8,0-1.2,0.1s-0.8,0.1-1.1,0.2c-0.3,0.1-0.6,0.3-0.8,0.5
			c-0.2,0.2-0.3,0.5-0.3,0.8c0,0.5,0.2,0.8,0.5,1.1c0.3,0.2,0.8,0.3,1.3,0.3c0.4,0,0.8-0.1,1.1-0.2c0.3-0.2,0.6-0.3,0.8-0.6
			c0.2-0.2,0.3-0.5,0.4-0.8c0.1-0.3,0.1-0.6,0.1-0.9v-0.5H60.8z M71.1,138.3h1.7v11.1h5.8v1.6h-7.6V138.3z M80.3,142.5h1.6v8.5h-1.6
			V142.5z M79.9,139.4c0-0.3,0.1-0.6,0.4-0.8c0.2-0.2,0.5-0.4,0.8-0.4s0.6,0.1,0.8,0.4c0.2,0.2,0.4,0.5,0.4,0.8
			c0,0.3-0.1,0.6-0.4,0.8c-0.2,0.2-0.5,0.4-0.8,0.4s-0.6-0.1-0.8-0.4C80,140,79.9,139.7,79.9,139.4z M83.5,142.5h1.9L88,149l2.4-6.5
			h1.7l-3.3,8.5H87L83.5,142.5z M94.9,147.3c0,0.4,0.1,0.7,0.2,1s0.4,0.6,0.6,0.8c0.3,0.2,0.6,0.4,0.9,0.5c0.3,0.1,0.7,0.2,1.1,0.2
			c0.5,0,0.9-0.1,1.3-0.4c0.4-0.2,0.7-0.5,1-0.9l1.2,0.9c-0.9,1.2-2.2,1.7-3.8,1.7c-0.7,0-1.3-0.1-1.8-0.3c-0.5-0.2-1-0.5-1.4-0.9
			c-0.4-0.4-0.7-0.9-0.9-1.4c-0.2-0.5-0.3-1.1-0.3-1.8s0.1-1.2,0.3-1.8s0.5-1,0.9-1.4c0.4-0.4,0.9-0.7,1.4-0.9
			c0.5-0.2,1.1-0.3,1.8-0.3c0.8,0,1.4,0.1,1.9,0.4c0.5,0.3,1,0.6,1.3,1c0.3,0.4,0.6,0.9,0.7,1.4c0.1,0.5,0.2,1.1,0.2,1.6v0.6H94.9z
			 M100,146c0-0.4-0.1-0.7-0.2-1c-0.1-0.3-0.3-0.6-0.5-0.8c-0.2-0.2-0.5-0.4-0.8-0.5s-0.7-0.2-1.1-0.2c-0.4,0-0.8,0.1-1.1,0.2
			c-0.3,0.2-0.6,0.3-0.8,0.6s-0.4,0.5-0.5,0.8c-0.1,0.3-0.2,0.6-0.2,0.9H100z M118.2,141c-0.4-0.5-0.8-0.8-1.4-1.1
			c-0.6-0.3-1.1-0.4-1.7-0.4c-0.7,0-1.4,0.1-2,0.4c-0.6,0.3-1.1,0.6-1.5,1.1s-0.7,1-1,1.6c-0.2,0.6-0.3,1.3-0.3,2
			c0,0.7,0.1,1.3,0.3,1.9s0.5,1.1,0.9,1.6c0.4,0.5,0.9,0.8,1.5,1.1c0.6,0.3,1.3,0.4,2,0.4c0.7,0,1.4-0.1,1.9-0.4
			c0.6-0.3,1-0.7,1.4-1.3l1.5,1.1c-0.1,0.1-0.3,0.3-0.5,0.6c-0.2,0.2-0.6,0.5-1,0.7s-0.9,0.5-1.4,0.6s-1.2,0.3-1.9,0.3
			c-1,0-1.9-0.2-2.7-0.6c-0.8-0.4-1.5-0.9-2.1-1.5c-0.6-0.6-1-1.3-1.3-2.1c-0.3-0.8-0.4-1.6-0.4-2.4c0-1,0.2-1.9,0.5-2.7
			c0.3-0.8,0.8-1.6,1.4-2.2s1.3-1.1,2.1-1.4s1.7-0.5,2.7-0.5c0.8,0,1.7,0.2,2.5,0.5c0.8,0.3,1.5,0.8,2,1.5L118.2,141z M121.6,137.4
			h1.6v6.4h0c0.2-0.5,0.6-0.8,1.1-1.1c0.5-0.3,1.1-0.4,1.7-0.4c0.4,0,0.8,0.1,1.2,0.2c0.4,0.1,0.7,0.3,1,0.6c0.3,0.3,0.5,0.6,0.7,1
			c0.2,0.4,0.3,0.9,0.3,1.5v5.5h-1.6v-5c0-0.4-0.1-0.7-0.2-1c-0.1-0.3-0.3-0.5-0.4-0.7c-0.2-0.2-0.4-0.3-0.6-0.4s-0.5-0.1-0.7-0.1
			c-0.3,0-0.6,0.1-0.9,0.2c-0.3,0.1-0.5,0.3-0.8,0.5c-0.2,0.2-0.4,0.5-0.5,0.9c-0.1,0.4-0.2,0.8-0.2,1.3v4.4h-1.6V137.4z
			 M131.8,143.5c0.5-0.4,1-0.7,1.6-0.9c0.6-0.2,1.2-0.3,1.8-0.3c0.6,0,1.2,0.1,1.6,0.2c0.4,0.2,0.8,0.4,1.1,0.6
			c0.3,0.3,0.5,0.6,0.6,0.9c0.1,0.3,0.2,0.7,0.2,1.1v4.4c0,0.3,0,0.6,0,0.8c0,0.3,0,0.5,0.1,0.7h-1.4c0-0.4-0.1-0.9-0.1-1.3h0
			c-0.4,0.6-0.8,0.9-1.3,1.2c-0.5,0.2-1.1,0.3-1.7,0.3c-0.4,0-0.8-0.1-1.1-0.2s-0.7-0.3-0.9-0.5c-0.3-0.2-0.5-0.5-0.6-0.8
			c-0.2-0.3-0.2-0.7-0.2-1.1c0-0.6,0.1-1,0.4-1.4c0.2-0.4,0.6-0.7,1-0.9c0.4-0.2,0.9-0.4,1.5-0.5c0.6-0.1,1.2-0.2,1.8-0.2h1.2v-0.4
			c0-0.2,0-0.4-0.1-0.6s-0.2-0.4-0.4-0.6c-0.2-0.2-0.4-0.3-0.6-0.4c-0.3-0.1-0.6-0.2-0.9-0.2c-0.3,0-0.6,0-0.8,0.1
			c-0.2,0.1-0.4,0.1-0.6,0.2c-0.2,0.1-0.4,0.2-0.5,0.3c-0.2,0.1-0.3,0.2-0.4,0.3L131.8,143.5z M136.4,146.9c-0.4,0-0.8,0-1.2,0.1
			c-0.4,0-0.8,0.1-1.1,0.2c-0.3,0.1-0.6,0.3-0.8,0.5c-0.2,0.2-0.3,0.5-0.3,0.8c0,0.5,0.2,0.8,0.5,1.1c0.3,0.2,0.8,0.3,1.3,0.3
			c0.4,0,0.8-0.1,1.1-0.2c0.3-0.2,0.6-0.3,0.8-0.6s0.3-0.5,0.4-0.8c0.1-0.3,0.1-0.6,0.1-0.9v-0.5H136.4z M145.8,143.9h-2.3v3.9
			c0,0.2,0,0.5,0,0.7c0,0.2,0.1,0.4,0.1,0.6c0.1,0.2,0.2,0.3,0.4,0.4s0.4,0.2,0.7,0.2c0.2,0,0.4,0,0.6-0.1c0.2,0,0.4-0.1,0.6-0.2
			v1.5c-0.2,0.1-0.4,0.2-0.7,0.2s-0.5,0.1-0.7,0.1c-0.6,0-1.1-0.1-1.4-0.3c-0.3-0.2-0.6-0.4-0.8-0.7s-0.3-0.6-0.3-0.9
			c0-0.3,0-0.7,0-1v-4.4H140v-1.4h1.9v-2.4h1.6v2.4h2.3V143.9z"/>
	</g>
</g>
</svg>
