<?xml version="1.0" encoding="UTF-8"?>
<svg width="145px" height="40px" viewBox="0 0 145 40" version="1.1" xmlns="http://www.w3.org/2000/svg" xmlns:xlink="http://www.w3.org/1999/xlink">
    <!-- Generator: Sketch 46.2 (44496) - http://www.bohemiancoding.com/sketch -->
    <title>IC_ChatLg_Keyline_Roll</title>
    <desc>Created with Sketch.</desc>
    <defs></defs>
    <g id="Page-1" stroke="none" stroke-width="1" fill="none" fill-rule="evenodd">
        <g id="IC_ChatLg_Keyline_Roll">
            <path d="M20,0.5 L125,0.5 C135.77,0.5 144.5,9.23 144.5,20 C144.5,30.77 135.77,39.5 125,39.5 L20,39.5 C9.23,39.5 0.5,30.77 0.5,20 C0.5,9.23 9.23,0.5 20,0.5 Z" id="Stroke-1" stroke="#3095B4" fill="#3095B4"></path>
            <path d="M41.6001,27.5996 C41.4001,27.4996 41.2001,27.5996 41.0001,27.7996 L37.1001,31.9996 L37.8001,26.2006 C37.8001,25.9006 37.7001,25.7006 37.5001,25.4996 C35.2001,23.7996 34.0001,21.4996 34.0001,19.0996 C34.0001,14.0996 39.3001,9.9996 45.8001,9.9996 C49.9001,9.9996 53.7001,11.7006 55.9001,14.2996 C55.4001,14.2996 54.9001,14.2006 54.4001,14.2006 C49.5001,14.2006 45.5001,17.4996 45.5001,21.4006 C45.5001,23.9996 47.1001,26.2996 49.9001,27.5996 C47.2001,28.4006 44.3001,28.4006 41.6001,27.5996 L41.6001,27.5996 Z M59.8001,25.4996 C59.6001,25.7006 59.5001,25.9006 59.5001,26.2006 L59.9001,29.2996 L57.8001,26.9996 C57.6001,26.9006 57.5001,26.7996 57.3001,26.7996 L57.1001,26.7996 C56.2001,27.0996 55.3001,27.2006 54.4001,27.2006 C50.2001,27.2006 46.8001,24.5996 46.8001,21.4006 C46.8001,18.2006 50.2001,15.7006 54.4001,15.7006 C58.6001,15.7006 62.0001,18.2006 62.0001,21.4006 C62.0001,22.9996 61.2001,24.4006 59.8001,25.4996 L59.8001,25.4996 Z M111.9001,18.7006 L109.3001,18.7006 L109.3001,24.0996 C109.3001,24.4006 109.3001,24.7006 109.4001,24.9006 C109.4001,25.0996 109.5001,25.2996 109.7001,25.4006 C109.8001,25.4996 109.9001,25.5996 110.1001,25.7006 L110.6001,25.7006 C110.8001,25.7006 111.1001,25.7006 111.3001,25.5996 C111.5001,25.5996 111.7001,25.4996 111.9001,25.4006 L112.0001,26.5996 C111.5001,26.7996 110.9001,26.9006 110.3001,26.9006 C110.0001,26.9006 109.8001,26.9006 109.5001,26.7996 C109.2001,26.7006 109.0001,26.5996 108.8001,26.4006 C108.5001,26.2006 108.4001,25.9996 108.2001,25.7006 C108.1001,25.4006 108.0001,24.9996 108.0001,24.4996 L108.0001,18.7006 L106.1001,18.7006 L106.1001,17.5996 L108.0001,17.5996 L108.0001,14.9996 L109.3001,14.9996 L109.3001,17.5996 L111.9001,17.5996 L111.9001,18.7006 Z M102.9001,21.0996 L102.9001,20.8996 C102.9001,19.2996 102.1001,18.4996 100.6001,18.4996 C99.5001,18.4996 98.6001,18.8996 97.8001,19.5996 L97.0001,18.7006 C97.9001,17.7996 99.2001,17.2996 100.9001,17.2996 C101.3001,17.2996 101.7001,17.3996 102.2001,17.4996 C102.6001,17.7006 102.9001,17.8996 103.2001,18.0996 C103.5001,18.3996 103.8001,18.7006 103.9001,19.0996 C104.1001,19.4996 104.2001,19.9996 104.2001,20.5996 L104.2001,24.5996 C104.2001,24.9996 104.2001,25.2996 104.3001,25.7006 C104.3001,26.0996 104.3001,26.4006 104.4001,26.7006 L103.1001,26.7006 C103.1001,26.4006 103.0001,26.2006 103.0001,25.9006 L103.0001,25.2006 C102.6001,25.7996 102.1001,26.2006 101.6001,26.4996 C101.1001,26.7996 100.5001,26.9006 99.7001,26.9006 C99.3001,26.9006 98.9001,26.7996 98.6001,26.7006 C98.2001,26.5996 97.9001,26.4006 97.6001,26.2006 C97.3001,25.9996 97.0001,25.7006 96.9001,25.4006 C96.7001,25.0996 96.6001,24.7006 96.6001,24.2006 C96.6001,23.4996 96.8001,22.9006 97.2001,22.4996 C97.6001,22.0996 98.0001,21.7996 98.6001,21.5996 C99.2001,21.2996 99.8001,21.2006 100.5001,21.2006 C101.1001,21.0996 101.7001,21.0996 102.3001,21.0996 L102.9001,21.0996 Z M102.3001,22.0996 C101.9001,22.0996 101.5001,22.2006 101.0001,22.2006 C100.6001,22.2006 100.1001,22.2996 99.6001,22.4006 C99.2001,22.4996 98.8001,22.7006 98.5001,22.9996 C98.2001,23.2006 98.0001,23.5996 98.0001,24.0996 C98.0001,24.4006 98.1001,24.5996 98.2001,24.7996 C98.3001,24.9996 98.5001,25.2006 98.7001,25.2996 C98.9001,25.4996 99.1001,25.5996 99.4001,25.5996 C99.6001,25.7006 99.9001,25.7006 100.2001,25.7006 C100.6001,25.7006 101.0001,25.5996 101.4001,25.4996 C101.7001,25.2996 102.0001,25.0996 102.2001,24.9006 C102.5001,24.5996 102.6001,24.2996 102.8001,23.9006 C102.9001,23.5996 102.9001,23.2006 102.9001,22.7996 L102.9001,22.0996 L102.3001,22.0996 Z M86.2001,11.9996 L87.5001,11.9996 L87.5001,18.9996 C87.7001,18.7996 87.9001,18.5996 88.1001,18.3996 C88.3001,18.0996 88.6001,17.9996 88.8001,17.7996 C89.1001,17.7006 89.4001,17.5996 89.7001,17.4996 C90.0001,17.3996 90.3001,17.2996 90.6001,17.2996 C91.8001,17.2996 92.6001,17.7006 93.2001,18.2996 C93.8001,18.8996 94.0001,19.7996 94.0001,20.8996 L94.0001,26.7006 L92.8001,26.7006 L92.8001,21.5996 C92.8001,20.5996 92.6001,19.8996 92.2001,19.2996 C91.9001,18.7996 91.2001,18.4996 90.3001,18.4996 C90.2001,18.4996 90.0001,18.4996 89.7001,18.5996 C89.4001,18.5996 89.1001,18.7996 88.8001,18.9996 C88.4001,19.2006 88.2001,19.5996 87.9001,20.0996 C87.6001,20.4996 87.5001,21.2006 87.5001,21.9996 L87.5001,26.7006 L86.2001,26.7006 L86.2001,11.9996 Z M84.3001,24.4996 C84.1001,24.7996 83.8001,25.2006 83.4001,25.4996 C83.1001,25.7996 82.7001,25.9996 82.3001,26.2996 C81.8001,26.4996 81.3001,26.7006 80.8001,26.7996 C80.3001,26.9006 79.8001,26.9996 79.2001,26.9996 C78.2001,26.9996 77.2001,26.7996 76.3001,26.4996 C75.5001,26.0996 74.7001,25.5996 74.1001,24.9996 C73.4001,24.2996 72.9001,23.5996 72.5001,22.7006 C72.2001,21.7996 72.0001,20.7996 72.0001,19.7996 C72.0001,18.7006 72.2001,17.7996 72.5001,16.8996 C72.9001,15.9996 73.4001,15.2996 74.1001,14.5996 C74.7001,13.9996 75.5001,13.4996 76.3001,13.0996 C77.2001,12.7996 78.2001,12.5996 79.2001,12.5996 C80.1001,12.5996 80.9001,12.7006 81.8001,13.0996 C82.6001,13.3996 83.4001,13.9996 84.0001,14.7996 L82.8001,15.7006 C82.6001,15.3996 82.4001,15.2006 82.2001,14.9996 C81.9001,14.7996 81.6001,14.5996 81.3001,14.3996 C81.0001,14.2996 80.7001,14.0996 80.3001,13.9996 C79.9001,13.8996 79.6001,13.8996 79.2001,13.8996 C78.3001,13.8996 77.5001,13.9996 76.8001,14.2996 C76.1001,14.7006 75.5001,15.0996 75.0001,15.5996 C74.5001,16.2006 74.2001,16.7996 73.9001,17.4996 C73.7001,18.2996 73.5001,18.9996 73.5001,19.7996 C73.5001,20.5996 73.7001,21.2996 73.9001,21.9996 C74.2001,22.7996 74.5001,23.4006 75.0001,23.9006 C75.5001,24.4996 76.1001,24.9006 76.8001,25.2006 C77.5001,25.5996 78.3001,25.7006 79.2001,25.7006 C79.6001,25.7006 79.9001,25.7006 80.3001,25.5996 C80.6001,25.5996 81.0001,25.4006 81.3001,25.2996 C81.7001,25.0996 82.0001,24.9006 82.3001,24.7006 C82.6001,24.4006 82.9001,24.0996 83.2001,23.7006 L84.3001,24.4996 Z" id="Fill-3" fill="#FFFFFF"></path>
        </g>
    </g>
</svg>