<?xml version="1.0" encoding="UTF-8"?>
<svg width="129px" height="129px" viewBox="0 0 129 129" version="1.1" xmlns="http://www.w3.org/2000/svg" xmlns:xlink="http://www.w3.org/1999/xlink">
    <!-- Generator: Sketch 47.1 (45422) - http://www.bohemiancoding.com/sketch -->
    <title>IC_AccSegment</title>
    <desc>Created with Sketch.</desc>
    <defs></defs>
    <g id="Page-1" stroke="none" stroke-width="1" fill="none" fill-rule="evenodd">
        <g id="CReporter_OD_LP_082917-Copy" transform="translate(-1161.000000, -1742.000000)">
            <g id="IC_AccSegment" transform="translate(1161.000000, 1742.000000)">
                <path d="M64.5,0 C28.877,0 0,28.877 0,64.5 C0,100.123 28.877,129 64.5,129 C100.122,129 129,100.123 129,64.5 C129,28.877 100.122,0 64.5,0 M64.5,2 C98.962,2 127,30.038 127,64.5 C127,98.963 98.962,127 64.5,127 C30.037,127 2,98.963 2,64.5 C2,30.038 30.037,2 64.5,2" id="Fill-1-Copy" fill="#2F94B3"></path>
                <path d="M58.4520499,75.2489228 C57.8210208,76.5291724 57.0191503,77.6712447 56.0291138,78.6394044 L62.4117925,81.3025331 C62.761027,81.4482488 62.9260116,81.8494852 62.7802959,82.1987197 C62.6345802,82.5479542 62.2333438,82.7129388 61.8841093,82.5672231 L54.4925917,79.4831633 C54.0117176,79.2825219 53.9218977,78.6398214 54.3293409,78.3150341 C55.5513809,77.3409032 56.5060225,76.0974718 57.2228883,74.6430746 C57.8773573,73.3152697 58.3000507,71.8855737 58.534875,70.4542813 C58.6172134,69.952415 58.6700233,69.4868575 58.6991987,69.0702284 C58.716482,68.8234209 58.7220932,68.6502449 58.7220475,68.5632732 L58.7179413,61.7782282 C58.1002086,58.4180977 54.0384015,55.5554211 50.1103517,55.5554208 C46.1814345,55.558693 42.1192409,58.4228821 41.5043585,61.7815122 L41.4975147,68.5666555 C41.497469,68.6536387 41.5030802,68.8268147 41.5203635,69.0736222 C41.5495389,69.4902513 41.6023488,69.9558088 41.6846872,70.4576751 C41.9195115,71.8889675 42.3422049,73.3186635 42.9966739,74.6464684 C43.7135397,76.1008656 44.6681813,77.344297 45.8902213,78.3184279 C46.2750669,78.6252018 46.2206016,79.2255934 45.7868341,79.4581058 L33.3703614,86.1137075 L33.3703614,87.9876018 C33.3703614,88.2335464 33.5848838,88.4440948 33.847189,88.4440948 L58.2410772,88.4440948 C58.619492,88.4440948 58.9262579,88.7508606 58.9262579,89.1292755 C58.9262579,89.5076903 58.619492,89.8144562 58.2410772,89.8144562 L33.847189,89.8144562 C32.8337302,89.8144562 32,88.9961708 32,87.9876018 L32,85.7035756 C32,85.4510458 32.1389049,85.2189865 32.3614756,85.0996819 L44.2676772,78.7176007 C43.2420225,77.7336475 42.4148691,76.5656922 41.7675123,75.2523166 C41.0480135,73.7925774 40.5877126,72.2356802 40.3324048,70.6795366 C40.1785345,69.7416721 40.1269229,69.0046505 40.1271538,68.5655612 L40.1340582,61.7202703 L40.1439191,61.6051326 C40.8458789,57.5124807 45.5348303,54.1888696 50.1097811,54.1850597 C54.6843118,54.1850597 59.3732371,57.5073366 60.0783248,61.6012729 L60.088266,61.7171529 L60.0924087,68.5625414 C60.0926393,69.0012567 60.0410277,69.7382783 59.8871574,70.6761428 C59.6318496,72.2322864 59.1715487,73.7891836 58.4520499,75.2489228 Z M95.9067262,88.1500121 L95.9067262,86.2276832 L83.4763115,79.4391312 C83.1441963,79.257755 83.0219982,78.841488 83.2033744,78.5093729 C83.3847506,78.1772577 83.8010175,78.0550596 84.1331327,78.2364358 L96.9203176,85.2198286 C97.140266,85.3399478 97.2770876,85.5705652 97.2770876,85.8211763 L97.2770876,88.1500121 C97.2770876,89.1652244 96.4715754,90 95.4668091,90 L63.9586188,90 C62.956782,90 62.1483402,89.1641861 62.1483402,88.1500121 L62.1483402,85.8235122 C62.1483402,85.572791 62.2852808,85.3420908 62.5053797,85.2220174 L75.3104727,78.2362887 C75.642669,78.0550613 76.0588812,78.1774459 76.2401086,78.5096422 C76.421336,78.8418386 76.2989515,79.2580508 75.9667551,79.4392782 L63.5187016,86.2302265 L63.5187016,88.1500121 C63.5187016,88.4173788 63.7240101,88.6296386 63.9586188,88.6296386 L95.4668091,88.6296386 C95.703588,88.6296386 95.9067262,88.4191205 95.9067262,88.1500121 Z M62.5339464,37.2036082 L49.3326555,50.2722194 C49.0637278,50.5384443 49.0615367,50.9722712 49.3277615,51.2411989 C49.5939864,51.5101266 50.0278133,51.5123177 50.296741,51.2460929 L63.422736,38.2520208 C63.6499642,38.3633819 63.9054771,38.4259035 64.1755927,38.4259035 C64.5175745,38.4259035 64.8361497,38.3256876 65.1035524,38.1530214 L78.3295519,51.2460929 C78.5984796,51.5123177 79.0323065,51.5101266 79.2985314,51.2411989 C79.5647562,50.9722712 79.5625651,50.5384443 79.2936374,50.2722194 L65.8676652,36.981185 C65.8814088,36.8937922 65.8885444,36.8042053 65.8885444,36.7129518 C65.8885444,35.7669146 65.1216298,35 64.1755927,35 C63.2295555,35 62.4626409,35.7669146 62.4626409,36.7129518 C62.4626409,36.8834707 62.4875567,37.0481701 62.5339464,37.2036082 Z M70.3130138,62.0929216 C70.9702808,58.1296997 75.3537145,54.9025261 79.653148,54.8730138 C79.6727277,54.8713322 79.6925427,54.8704739 79.7125582,54.8704739 C84.0324911,54.8704739 88.4524036,58.108477 89.1143972,62.0911155 L89.1236707,62.202983 L89.1283426,68.8481603 C89.1283426,68.9470726 89.1237109,69.121884 89.1100811,69.3619518 C89.0876932,69.7562794 89.047527,70.1942326 88.9851296,70.6652452 C88.8066299,72.0126681 88.4850063,73.36145 87.9816712,74.6279415 C87.1489386,76.7232627 85.900341,78.3846375 84.1562285,79.4260691 C83.8313273,79.6200717 83.4106726,79.5139575 83.21667,79.1890563 C83.0226674,78.8641551 83.1287817,78.4435004 83.4536829,78.2494978 C84.9098405,77.3800077 85.9783574,75.958247 86.7081948,74.1218304 C87.16581,72.9703794 87.4619401,71.7285087 87.6266369,70.4852789 C87.6843583,70.049563 87.7214113,69.6455541 87.741923,69.2842747 C87.7540329,69.0709783 87.7579812,68.9219581 87.7579813,68.848642 L87.7533505,62.2620764 C87.1788541,59.0236773 83.4168279,56.2682381 79.7125582,56.2431712 C76.047356,56.2431712 72.2498484,59.0105154 71.6740814,62.2636209 L71.6671353,68.8504961 C71.6671353,68.9254004 71.671392,69.0771223 71.6844595,69.2944789 C71.7066077,69.6628775 71.7466231,70.0749091 71.8089649,70.5193171 C71.9868807,71.7876034 72.3067902,73.0545469 72.8012765,74.229541 C73.5349769,75.9729533 74.588212,77.3551699 76.0072478,78.2600692 C76.3263106,78.4635311 76.4200236,78.887121 76.2165618,79.2061838 C76.0130999,79.5252466 75.58951,79.6189596 75.2704472,79.4154978 C73.5939346,78.3464092 72.3724289,76.7433621 71.5382077,74.7610929 C70.9933799,73.4664778 70.6451589,72.0874116 70.4518911,70.7096881 C70.3843186,70.2279928 70.3408177,69.7800712 70.316568,69.3767169 C70.3017967,69.1310218 70.2967738,68.9519925 70.2967742,68.8497736 L70.3037818,62.2042994 L70.3130138,62.0929216 Z" id="Combined-Shape" fill="#3595B3"></path>
            </g>
        </g>
    </g>
</svg>