<?xml version="1.0" encoding="UTF-8"?>
<svg width="129px" height="129px" viewBox="0 0 129 129" version="1.1" xmlns="http://www.w3.org/2000/svg" xmlns:xlink="http://www.w3.org/1999/xlink">
    <!-- Generator: Sketch 47.1 (45422) - http://www.bohemiancoding.com/sketch -->
    <title>IC_AutoData</title>
    <desc>Created with Sketch.</desc>
    <defs></defs>
    <g id="Page-1" stroke="none" stroke-width="1" fill="none" fill-rule="evenodd">
        <g id="CReporter_OD_LP_082917-Copy" transform="translate(-679.000000, -1742.000000)">
            <g id="IC_AutoData" transform="translate(679.000000, 1742.000000)">
                <path d="M64.5001,-0.0001 C28.8781,-0.0001 0.0001,28.8779 0.0001,64.4999 C0.0001,100.1219 28.8781,128.9999 64.5001,128.9999 C100.1221,128.9999 129.0001,100.1219 129.0001,64.4999 C129.0001,28.8779 100.1221,-0.0001 64.5001,-0.0001 M64.5001,1.9999 C98.9631,1.9999 127.0001,30.0369 127.0001,64.4999 C127.0001,98.9629 98.9631,126.9999 64.5001,126.9999 C30.0371,126.9999 2.0001,98.9629 2.0001,64.4999 C2.0001,30.0369 30.0371,1.9999 64.5001,1.9999" id="Fill-1" fill="#2F94B3"></path>
                <path d="M40.6322683,63.7039538 C40.2043859,63.3547617 39.5744426,63.4185527 39.2252505,63.8464351 C38.8760583,64.2743175 38.9398494,64.9042608 39.3677317,65.2534529 L58.3867437,80.7747495 C58.7796388,81.0953888 59.3503404,81.0711664 59.7146536,80.7183889 L90.6956417,50.7183889 C91.0923969,50.3341966 91.1025812,49.7011135 90.7183889,49.3043583 C90.3341966,48.9076031 89.7011135,48.8974188 89.3043583,49.2816111 L58.9622633,78.6629481 L40.6322683,63.7039538 Z" id="Stroke-4" fill="#3595B3" fill-rule="nonzero"></path>
            </g>
        </g>
    </g>
</svg>