<?xml version="1.0" encoding="UTF-8"?>
<svg width="129px" height="129px" viewBox="0 0 129 129" version="1.1" xmlns="http://www.w3.org/2000/svg" xmlns:xlink="http://www.w3.org/1999/xlink">
    <!-- Generator: Sketch 47.1 (45422) - http://www.bohemiancoding.com/sketch -->
    <title>IC_RealTime-Data</title>
    <desc>Created with Sketch.</desc>
    <defs></defs>
    <g id="Page-1" stroke="none" stroke-width="1" fill="none" fill-rule="evenodd">
        <g id="CReporter_OD_LP_082917-Copy" transform="translate(-880.000000, -1745.000000)">
            <g id="IC_RealTime-Data" transform="translate(880.000000, 1745.000000)">
                <path d="M64.5,0 C28.877,0 0,28.877 0,64.5 C0,100.123 28.877,129 64.5,129 C100.122,129 129,100.123 129,64.5 C129,28.877 100.122,0 64.5,0 M64.5,2 C98.962,2 127,30.038 127,64.5 C127,98.963 98.962,127 64.5,127 C30.037,127 2,98.963 2,64.5 C2,30.038 30.037,2 64.5,2" id="Fill-1" fill="#2F94B3"></path>
                <path d="M63.1836971,37 C54.7455153,37 46.8882426,40.8863636 41.7664244,47.3827273 L41.7664244,43.8181818 C41.7664244,43.0654545 41.1555153,42.4545455 40.402788,42.4545455 C39.6500608,42.4545455 39.0391517,43.0654545 39.0391517,43.8181818 L39.0391517,51.9236364 C39.0391517,52.5481818 39.4591517,53.0936364 40.0673335,53.2463636 C40.3318789,53.3172727 40.5964244,53.2981818 40.8391517,53.2190909 L48.622788,50.5654545 C49.3346062,50.3227273 49.7136971,49.5481818 49.4709698,48.8363636 C49.2282426,48.1245455 48.4536971,47.7454545 47.7446062,47.9881818 L43.6782426,49.3709091 C48.2846062,43.3490909 55.462788,39.7327273 63.1864244,39.7327273 C76.7218789,39.7327273 87.7318789,50.7427273 87.7318789,64.2781818 C87.7318789,77.8136364 76.7218789,88.8236364 63.1864244,88.8236364 C54.1400608,88.8236364 45.8573335,83.8763636 41.5646062,75.9045455 C41.2073335,75.2418182 40.3782426,74.9936364 39.7182426,75.3536364 C39.0555153,75.7109091 38.8046062,76.5345455 39.1646062,77.2 C43.9346062,86.0527273 53.1418789,91.5509091 63.1891517,91.5509091 C70.4736971,91.5509091 77.3191517,88.7145455 82.4736971,83.5654545 C87.6255153,78.4109091 90.4618789,71.5627273 90.4618789,64.2781818 C90.4618789,56.9936364 87.6255153,50.1481818 82.4736971,44.9936364 C77.3136971,39.8363636 70.4682426,37 63.1836971,37 Z" id="Combined-Shape" stroke="#FFFFFF" fill="#3595B3"></path>
                <path d="M62.5201517,68.4680909 L51.0004244,60.2735455 C50.3431517,59.9080909 50.9128789,58.8980909 51.5728789,59.2608182 L63.1365153,65.6862727 L77.4519698,56.5771818 C78.0874244,56.1735455 78.6358789,56.8699091 78.0004244,57.2735455 L63.9165153,68.4217273 C63.6928789,68.5635455 63.4392426,68.6344545 63.1856062,68.6344545 C62.953788,68.6371818 62.7274244,68.5799091 62.5201517,68.4680909 Z" id="Combined-Shape" fill="#2F94B3" fill-rule="nonzero"></path>
            </g>
        </g>
    </g>
</svg>