<?xml version="1.0" encoding="utf-8"?>
<!-- Generator: Adobe Illustrator 19.1.0, SVG Export Plug-In . SVG Version: 6.00 Build 0)  -->
<svg version="1.1" id="Layer_1" xmlns="http://www.w3.org/2000/svg" xmlns:xlink="http://www.w3.org/1999/xlink" x="0px" y="0px"
	 viewBox="0 0 130 130" style="enable-background:new 0 0 130 130;" xml:space="preserve">
<style type="text/css">
	.st0{fill:none;stroke:#3095B4;stroke-width:4.3215;stroke-linecap:round;stroke-linejoin:round;stroke-miterlimit:10;}
	.st1{fill:none;stroke:#3095B4;stroke-width:4;stroke-linecap:round;stroke-linejoin:round;stroke-miterlimit:10;}
</style>
<g>
	<g>
		<line class="st0" x1="76.4" y1="67.2" x2="38" y2="111.1"/>
		<line class="st0" x1="20.4" y1="93.4" x2="63.8" y2="55.4"/>
		<path class="st0" d="M38,111.1c-4.9,4.9-12.8,4.9-17.7,0c-4.9-4.9-4.9-12.8,0-17.7"/>
		<path class="st1" d="M76.4,67.2c11,5.9,25,4.1,34.3-5.1c7-7,9.7-16.7,8.1-25.7l-14,14L92,46c-3.1-1-5.5-3.4-6.5-6.5l-6.1-12.8
			l12.1-14v0c-7-1.6-16.9,1.1-23.9,8.1C58.4,30.1,57.5,44,63.3,55"/>
	</g>
</g>
</svg>
