<?xml version="1.0" encoding="utf-8"?>
<!-- Generator: Adobe Illustrator 19.1.0, SVG Export Plug-In . SVG Version: 6.00 Build 0)  -->
<svg version="1.1" id="Layer_1" xmlns="http://www.w3.org/2000/svg" xmlns:xlink="http://www.w3.org/1999/xlink" x="0px" y="0px"
	 viewBox="0 0 50 179" style="enable-background:new 0 0 50 179;" width="50px" height="179px" xml:space="preserve">
<style type="text/css">
	.st0{fill:#2F94B4;}
</style>
<g>
	<g>
		<g>
			<path class="st0" d="M25.2,48c-0.4,0-0.8-0.3-0.9-0.7c-0.2-0.5,0.1-1.1,0.6-1.3c17.5-6.4,17.5-27.7,17.5-27.9c0-0.6,0.4-1,1-1
				c0.6,0,1,0.4,1,1c0,0.2,0,22.9-18.9,29.8C25.4,48,25.3,48,25.2,48z"/>
			<path class="st0" d="M43.4,19.2c-0.6,0-1-0.4-1-1V8.6h-3.5c-0.6,0-1-0.4-1-1s0.4-1,1-1h3.5c1.1,0,2,0.9,2,2v9.6
				C44.4,18.7,43.9,19.2,43.4,19.2z"/>
		</g>
		<g>
			<path class="st0" d="M25.2,48c-0.1,0-0.2,0-0.3-0.1C6,41.1,6,18.4,6,18.2c0-0.6,0.5-1,1-1c0.6,0,1,0.5,1,1
				C8,18.4,8,39.7,25.5,46.1c0.5,0.2,0.8,0.8,0.6,1.3C26,47.7,25.6,48,25.2,48z"/>
			<path class="st0" d="M7,19.2c-0.6,0-1-0.4-1-1V8.6c0-1.1,0.9-2,2-2h3.5c0.6,0,1,0.4,1,1s-0.4,1-1,1H8v9.6C8,18.7,7.5,19.2,7,19.2
				z"/>
		</g>
		<path class="st0" d="M38.9,8.6c-7.9,0-12.1-3.6-13.7-5.5c-1.6,1.9-5.8,5.5-13.7,5.5c-0.6,0-1-0.4-1-1s0.4-1,1-1
			c9.2,0,12.7-5.4,12.8-5.6c0.2-0.3,0.5-0.5,0.9-0.5c0.3,0,0.8,0.2,0.9,0.5c0.1,0.2,3.6,5.6,12.8,5.6c0.6,0,1,0.4,1,1
			S39.4,8.6,38.9,8.6z"/>
	</g>
	<path class="st0" d="M25.2,29.5c-0.6,0-1-0.4-1-1V14.6c0-0.6,0.4-1,1-1s1,0.4,1,1v13.9C26.2,29,25.7,29.5,25.2,29.5z"/>
	<circle class="st0" cx="25.2" cy="34.7" r="1.9"/>
</g>
<g>
	<g>
		<g>
			<g>
				<path class="st0" d="M24.7,83.2H13.1C6.7,83.2,1.5,78,1.5,71.6c0-6.4,5.2-11.6,11.6-11.6c3.7,0,7.1,1.7,9.3,4.6
					c1.5,2,2.3,4.4,2.3,7V83.2z M13.1,61.9c-5.3,0-9.6,4.3-9.6,9.6c0,5.3,4.3,9.6,9.6,9.6h9.6v-9.6c0-2.1-0.7-4.1-1.9-5.8
					C19,63.3,16.2,61.9,13.1,61.9z"/>
			</g>
		</g>
	</g>
	<g>
		<g>
			<g>
				<path class="st0" d="M38.7,83.2H27.9V72.4c0-5.9,4.8-10.7,10.7-10.7c5.9,0,10.7,4.8,10.7,10.7c0,3.4-1.6,6.5-4.3,8.6
					C43.3,82.4,41,83.2,38.7,83.2z M29.9,81.2h8.7c1.9,0,3.7-0.6,5.3-1.8c2.2-1.7,3.5-4.2,3.5-7c0-4.8-3.9-8.7-8.7-8.7
					c-4.8,0-8.7,3.9-8.7,8.7V81.2z"/>
			</g>
		</g>
	</g>
	<g>
		<g>
			<g>
				<path class="st0" d="M38.7,107.9c-3.4,0-6.5-1.6-8.6-4.3c-1.4-1.9-2.2-4.1-2.2-6.5V86.4h10.8c5.9,0,10.8,4.8,10.8,10.8
					S44.7,107.9,38.7,107.9z M29.9,88.4v8.8c0,1.9,0.6,3.8,1.8,5.3c1.7,2.2,4.2,3.5,7,3.5c4.8,0,8.8-3.9,8.8-8.8s-3.9-8.8-8.8-8.8
					H29.9z"/>
			</g>
		</g>
	</g>
	<g>
		<g>
			<g>
				<path class="st0" d="M16.7,102.5c-4.4,0-8.1-3.6-8.1-8.1c0-2.5,1.2-4.9,3.2-6.4c1.4-1.1,3.1-1.6,4.8-1.6h8.1v8.1
					C24.7,98.9,21.1,102.5,16.7,102.5z M16.7,88.4c-1.3,0-2.6,0.4-3.6,1.2c-1.5,1.2-2.4,2.9-2.4,4.8c0,3.3,2.7,6.1,6.1,6.1
					c3.3,0,6.1-2.7,6.1-6.1v-6.1H16.7z"/>
			</g>
		</g>
	</g>
</g>
<g>
	<path class="st0" d="M47.1,167.5H36.4c-0.6,0-1-0.4-1-1v-45.9c0-0.6,0.4-1,1-1h10.7c0.6,0,1,0.4,1,1v45.9
		C48.1,167,47.7,167.5,47.1,167.5z M37.4,165.5h8.7v-43.9h-8.7V165.5z"/>
	<path class="st0" d="M3,167.5c-0.6,0-1-0.4-1-1L2,145c0-0.3,0.1-0.5,0.3-0.7c0.2-0.2,0.4-0.3,0.7-0.3l10.7,0h0
		c0.3,0,0.5,0.1,0.7,0.3c0.2,0.2,0.3,0.4,0.3,0.7l0,21.4c0,0.3-0.1,0.5-0.3,0.7c-0.2,0.2-0.4,0.3-0.7,0.3L3,167.5L3,167.5z M4,146
		l0,19.4l8.7,0l0-19.4L4,146z"/>
	<path class="st0" d="M30.4,167.5H19.7c-0.6,0-1-0.4-1-1v-30.6c0-0.6,0.4-1,1-1h10.7c0.6,0,1,0.4,1,1v30.6
		C31.4,167,31,167.5,30.4,167.5z M20.7,165.5h8.7v-28.6h-8.7V165.5z"/>
</g>
</svg>
