<?xml version="1.0" encoding="utf-8"?>
<!-- Generator: Adobe Illustrator 19.1.0, SVG Export Plug-In . SVG Version: 6.00 Build 0)  -->
<svg version="1.1" id="Layer_1" xmlns="http://www.w3.org/2000/svg" xmlns:xlink="http://www.w3.org/1999/xlink" x="0px" y="0px"
	 viewBox="0 0 130 130" style="enable-background:new 0 0 130 130;" xml:space="preserve">
<style type="text/css">
	.st0{fill:none;stroke:#3095B4;stroke-width:2;stroke-linecap:round;stroke-miterlimit:10;}
	.st1{fill:none;stroke:#025172;stroke-width:2;stroke-linecap:round;stroke-miterlimit:10;}
	.st2{fill:none;stroke:#4296B4;stroke-width:2;stroke-linecap:round;stroke-linejoin:round;stroke-miterlimit:10;}
</style>
<g>
	<path class="st0" d="M11.1,31.8C22.3,13.5,42.5,1.3,65.6,1.3c10.2,0,19.9,2.4,28.5,6.7"/>
	<path class="st1" d="M99.3,11.5c18.3,11.3,30.6,31.5,30.6,54.6c0,10.2-2.4,19.9-6.7,28.5"/>
	<path class="st0" d="M119.7,98.7c-11.3,18.3-31.5,30.6-54.6,30.6c-10.2,0-19.9-2.4-28.5-6.7"/>
	<path class="st1" d="M32.4,120.1C14.1,108.8,1.9,88.6,1.9,65.5c0-10.2,2.4-19.9,6.7-28.5"/>
</g>
<g>
	<polyline class="st2" points="85,58 93.7,66.7 85,75.4 	"/>
	<path class="st2" d="M43,83h12.8c1.5,0,2.9-0.8,3.8-1.8L69,68.6c0.9-1,2.3-1.6,3.8-1.6h19.1H81.6h-8.9c-1.5,0-2.9-0.7-3.8-1.7
		l-9.4-13.7c-0.9-1-2.3-1.5-3.8-1.5H43"/>
</g>
</svg>
