<?xml version="1.0" encoding="utf-8"?>
<!-- Generator: Adobe Illustrator 19.1.0, SVG Export Plug-In . SVG Version: 6.00 Build 0)  -->
<svg version="1.1" id="Layer_1" xmlns="http://www.w3.org/2000/svg" xmlns:xlink="http://www.w3.org/1999/xlink" x="0px" y="0px"
	 viewBox="0 0 130 130" style="enable-background:new 0 0 130 130;" xml:space="preserve">
<style type="text/css">
	.st0{fill:none;stroke:#3095B4;stroke-width:2;stroke-linecap:round;stroke-miterlimit:10;}
	.st1{fill:none;stroke:#025172;stroke-width:2;stroke-linecap:round;stroke-miterlimit:10;}
	.st2{fill:none;stroke:#3094B4;stroke-width:2;stroke-linecap:round;stroke-linejoin:round;stroke-miterlimit:10;}
</style>
<g>
	<path class="st0" d="M10.4,31.9C21.7,13.6,41.9,1.4,65,1.4c10.2,0,19.9,2.4,28.5,6.7"/>
	<path class="st1" d="M98.7,11.5C117,22.8,129.2,43,129.2,66.1c0,10.2-2.4,19.9-6.7,28.5"/>
	<path class="st0" d="M119,98.8c-11.3,18.3-31.5,30.6-54.6,30.6c-10.2,0-19.9-2.4-28.5-6.7"/>
	<path class="st1" d="M31.8,120.2C13.4,108.9,1.2,88.7,1.2,65.6c0-10.2,2.4-19.9,6.7-28.5"/>
</g>
<g>
	<circle class="st2" cx="65" cy="66" r="21.9"/>
	<circle class="st2" cx="65" cy="66" r="11.9"/>
	<line class="st2" x1="64" y1="96" x2="64" y2="37"/>
	<line class="st2" x1="35" y1="66" x2="94" y2="66"/>
</g>
</svg>
