<?xml version="1.0" encoding="utf-8"?>
<!-- Generator: Adobe Illustrator 19.1.0, SVG Export Plug-In . SVG Version: 6.00 Build 0)  -->
<svg version="1.1" id="Layer_1" xmlns="http://www.w3.org/2000/svg" xmlns:xlink="http://www.w3.org/1999/xlink" x="0px" y="0px"
	 viewBox="0 0 130 130" style="enable-background:new 0 0 130 130;" xml:space="preserve">
<style type="text/css">
	.st0{fill:none;stroke:#3095B4;stroke-width:2;stroke-linecap:round;stroke-miterlimit:10;}
	.st1{fill:none;stroke:#025172;stroke-width:2;stroke-linecap:round;stroke-miterlimit:10;}
	.st2{fill:none;stroke:#3094B4;stroke-width:2;stroke-linecap:round;stroke-linejoin:round;stroke-miterlimit:10;}
</style>
<g>
	<path class="st0" d="M11.1,32.4C22.4,14.1,42.6,1.9,65.7,1.9c10.2,0,19.9,2.4,28.5,6.7"/>
	<path class="st1" d="M99.4,12c18.3,11.3,30.6,31.5,30.6,54.6c0,10.2-2.4,19.9-6.7,28.5"/>
	<path class="st0" d="M119.7,99.3c-11.3,18.3-31.5,30.6-54.6,30.6c-10.2,0-19.9-2.4-28.5-6.7"/>
	<path class="st1" d="M32.5,120.7C14.1,109.4,1.9,89.2,1.9,66.1c0-10.2,2.4-19.9,6.7-28.5"/>
</g>
<g>
	<circle class="st2" cx="65.9" cy="65.8" r="24"/>
	<line class="st2" x1="54.7" y1="65.8" x2="77.1" y2="65.8"/>
	<line class="st2" x1="65.9" y1="54.6" x2="65.9" y2="77"/>
</g>
</svg>
