<?xml version="1.0" encoding="utf-8"?>
<!-- Generator: Adobe Illustrator 19.1.0, SVG Export Plug-In . SVG Version: 6.00 Build 0)  -->
<svg version="1.1" id="Layer_1" xmlns="http://www.w3.org/2000/svg" xmlns:xlink="http://www.w3.org/1999/xlink" x="0px" y="0px"
	 viewBox="0 0 130 130" style="enable-background:new 0 0 130 130;" xml:space="preserve">
<style type="text/css">
	.st0{fill:none;stroke:#3095B4;stroke-width:2;stroke-linecap:round;stroke-miterlimit:10;}
	.st1{fill:none;stroke:#025172;stroke-width:2;stroke-linecap:round;stroke-miterlimit:10;}
	.st2{fill:none;stroke:#3094B4;stroke-width:2;stroke-linecap:round;stroke-linejoin:round;stroke-miterlimit:10;}
</style>
<g>
	<path class="st0" d="M10.8,31.4C22,13.1,42.3,0.9,65.3,0.9c10.2,0,19.9,2.4,28.5,6.7"/>
	<path class="st1" d="M99,11.1c18.3,11.3,30.6,31.5,30.6,54.6c0,10.2-2.4,19.9-6.7,28.5"/>
	<path class="st0" d="M119.4,98.3c-11.3,18.3-31.5,30.6-54.6,30.6c-10.2,0-19.9-2.4-28.5-6.7"/>
	<path class="st1" d="M32.1,119.7C13.8,108.4,1.6,88.2,1.6,65.1c0-10.2,2.4-19.9,6.7-28.5"/>
</g>
<g>
	<line class="st2" x1="56.3" y1="71.7" x2="74.7" y2="53.4"/>
	<path class="st2" d="M64.6,71.7v1.7c0,2.6-1,5.1-2.9,7.1l-4.9,4.9c-3.9,3.9-10.3,3.9-14.2,0l0,0c-3.9-3.9-3.9-10.3,0-14.2l4.9-4.9
		c2-2,4.5-2.9,7.1-2.9h1.7"/>
	<path class="st2" d="M64.6,55v-1.7c0-2.6,1-5.1,2.9-7.1l4.9-4.9c3.9-3.9,10.3-3.9,14.2,0l0,0c3.9,3.9,3.9,10.3,0,14.2l-4.9,4.9
		c-2,2-4.5,2.9-7.1,2.9H73"/>
</g>
</svg>
