<?xml version="1.0" encoding="utf-8"?>
<!-- Generator: Adobe Illustrator 19.1.0, SVG Export Plug-In . SVG Version: 6.00 Build 0)  -->
<svg version="1.1" id="Layer_1" xmlns="http://www.w3.org/2000/svg" xmlns:xlink="http://www.w3.org/1999/xlink" x="0px" y="0px"
	 viewBox="0 0 130 130" style="enable-background:new 0 0 130 130;" xml:space="preserve">
<style type="text/css">
	.st0{fill:none;stroke:#3095B4;stroke-width:2;stroke-linecap:round;stroke-miterlimit:10;}
	.st1{fill:none;stroke:#025172;stroke-width:2;stroke-linecap:round;stroke-miterlimit:10;}
	.st2{fill:none;stroke:#3094B4;stroke-width:2;stroke-linecap:round;stroke-linejoin:round;stroke-miterlimit:10;}
	.st3{fill:#3094B4;}
</style>
<g>
	<path class="st0" d="M10.2,31.4C21.4,13.1,41.6,0.9,64.7,0.9c10.2,0,19.9,2.4,28.5,6.7"/>
	<path class="st1" d="M98.4,11C116.7,22.3,129,42.5,129,65.6c0,10.2-2.4,19.9-6.7,28.5"/>
	<path class="st0" d="M118.8,98.3c-11.3,18.3-31.5,30.6-54.6,30.6c-10.2,0-19.9-2.4-28.5-6.7"/>
	<path class="st1" d="M31.5,119.7C13.2,108.4,1,88.2,1,65.1c0-10.2,2.4-19.9,6.7-28.5"/>
</g>
<g>
	<g>
		<g>
			<path class="st2" d="M65,91.7c21.4-7.8,21.2-33.6,21.2-33.6"/>
			<g>
				<path class="st2" d="M86.2,58.1V46.8c0-0.5-0.4-1-1-1H81"/>
			</g>
		</g>
		<g>
			<path class="st2" d="M65,91.7c-21.4-7.8-21.2-33.6-21.2-33.6"/>
			<g>
				<path class="st2" d="M43.8,58.1V46.8c0-0.5,0.5-1,1-1h4.2"/>
			</g>
		</g>
		<path class="st2" d="M49,45.8c11.6,0,15.9-7.1,15.9-7.1H65c0,0,4.3,7.1,15.9,7.1"/>
	</g>
	<line class="st2" x1="65" y1="54" x2="65" y2="70.1"/>
	<circle class="st3" cx="65" cy="77.4" r="2.2"/>
</g>
</svg>
