<?xml version="1.0" encoding="utf-8"?>
<!-- Generator: Adobe Illustrator 19.1.0, SVG Export Plug-In . SVG Version: 6.00 Build 0)  -->
<svg version="1.1" id="Layer_2" xmlns="http://www.w3.org/2000/svg" xmlns:xlink="http://www.w3.org/1999/xlink" x="0px" y="0px"
	 viewBox="0 0 50 211" style="enable-background:new 0 0 50 211;" xml:space="preserve">
<style type="text/css">
	.st0{fill:none;stroke:#2F94B4;stroke-width:2;stroke-miterlimit:10;}
	.st1{fill:none;stroke:#2F94B4;stroke-width:2;stroke-linecap:round;stroke-linejoin:round;stroke-miterlimit:10;}
</style>
<g>
	<path class="st0" d="M42.3,11l-6.6,0.7C34,10.2,32,9.1,29.8,8.4l-2.7-6.1c-0.7-0.1-1.5-0.1-2.3-0.1c-0.8,0-1.5,0-2.3,0.1l-2.7,6.1
		c-2.1,0.7-4.1,1.8-5.7,3.3L7.5,11c-0.9,1.2-1.6,2.4-2.2,3.8l4,5.5c-0.2,1.1-0.4,2.3-0.4,3.5c0,1.1,0.1,2.2,0.3,3.3l-4.1,5.6
		c0.6,1.3,1.3,2.5,2.1,3.6l6.8-0.7c1.7,1.6,3.8,2.8,6.1,3.6l2.8,6.3c0.7,0.1,1.3,0.1,2,0.1c0.7,0,1.4,0,2-0.1l2.8-6.3
		c2.3-0.7,4.5-2,6.2-3.6l6.7,0.7c0.8-1.1,1.5-2.4,2.1-3.6l-4-5.5c0.2-1.1,0.4-2.2,0.4-3.4c0-1.2-0.1-2.4-0.4-3.6l3.9-5.3
		C43.9,13.4,43.2,12.2,42.3,11z"/>
	<circle class="st0" cx="24.9" cy="23.8" r="8.3"/>
</g>
<g>
	<line class="st1" x1="18.5" y1="79.8" x2="32.6" y2="65.8"/>
	<path class="st1" d="M24.9,79.8v1.3c0,2-0.7,3.9-2.2,5.4l-3.8,3.8c-3,3-7.9,3-10.8,0l0,0c-3-3-3-7.9,0-10.8l3.8-3.8
		c1.5-1.5,3.5-2.2,5.4-2.2h1.3"/>
	<path class="st1" d="M24.9,67.1v-1.3c0-2,0.7-3.9,2.2-5.4l3.8-3.8c3-3,7.9-3,10.8,0l0,0c3,3,3,7.9,0,10.8L38,71.2
		c-1.5,1.5-3.5,2.2-5.4,2.2h-1.3"/>
</g>
<g>
	<rect x="36" y="100.5" class="st1" width="10.3" height="44.2"/>
	<rect x="3.8" y="124.1" class="st1" width="10.3" height="20.6"/>
	<rect x="19.9" y="115.2" class="st1" width="10.3" height="29.5"/>
</g>
<g>
	<g>
		<g>
			<path class="st1" d="M24.4,205.2c18.8-6.8,18.6-29.4,18.6-29.4"/>
			<g>
				<path class="st1" d="M43,175.7v-9.8c0-0.6-0.5-1-1-1h-3.5"/>
			</g>
		</g>
		<g>
			<path class="st1" d="M24.4,205.2c-18.8-6.8-18.6-29.4-18.6-29.4"/>
			<g>
				<path class="st1" d="M5.8,175.7v-9.8c0-0.6,0.4-1,1-1h3.5"/>
			</g>
		</g>
		<path class="st1" d="M10.4,164.9c10.2,0,13.9-6.2,13.9-6.2h0.1c0,0,3.8,6.2,13.9,6.2"/>
	</g>
</g>
</svg>
