<?xml version="1.0" encoding="utf-8"?>
<!-- Generator: Adobe Illustrator 19.1.0, SVG Export Plug-In . SVG Version: 6.00 Build 0)  -->
<svg version="1.1" id="Layer_1" xmlns="http://www.w3.org/2000/svg" xmlns:xlink="http://www.w3.org/1999/xlink" x="0px" y="0px"
	 viewBox="0 0 130 130" style="enable-background:new 0 0 130 130;" xml:space="preserve">
<style type="text/css">
	.st0{fill:none;stroke:#3095B4;stroke-width:2;stroke-linecap:round;stroke-miterlimit:10;}
	.st1{fill:none;stroke:#025172;stroke-width:2;stroke-linecap:round;stroke-miterlimit:10;}
	.st2{fill:none;stroke:#3094B4;stroke-width:2;stroke-linejoin:round;stroke-miterlimit:10;}
</style>
<g>
	<path class="st0" d="M11.2,31.8C22.5,13.5,42.7,1.2,65.8,1.2c10.2,0,19.9,2.4,28.5,6.7"/>
	<path class="st1" d="M99.5,11.4C117.8,22.7,130,42.9,130,66c0,10.2-2.4,19.9-6.7,28.5"/>
	<path class="st0" d="M119.9,98.7c-11.3,18.3-31.5,30.6-54.6,30.6c-10.2,0-19.9-2.4-28.5-6.7"/>
	<path class="st1" d="M32.6,120C14.3,108.8,2,88.5,2,65.5C2,55.2,4.4,45.6,8.7,37"/>
</g>
<g>
	<path class="st2" d="M79.6,80.8h-5.5 M59.5,80.8h14.4V49.9H37v30.9h13.2 M88.9,80.8h5.7c0,0,0.2-2.1,0-6.9
		c-0.2-4.8-8.2-6.7-8.2-6.7L81,57.8h-6.4 M54.9,76c-2.5,0-4.6,2.1-4.6,4.6s2.1,4.6,4.6,4.6c2.5,0,4.6-2.1,4.6-4.6S57.4,76,54.9,76z
		 M88.8,80.8c0-0.1,0-0.2,0-0.2c0-2.5-2.1-4.6-4.6-4.6c-2.5,0-4.6,2.1-4.6,4.6s2.1,4.6,4.6,4.6C86.6,85.2,88.7,83.3,88.8,80.8"/>
</g>
</svg>
