<?xml version="1.0" encoding="utf-8"?>
<!-- Generator: Adobe Illustrator 19.1.0, SVG Export Plug-In . SVG Version: 6.00 Build 0)  -->
<svg version="1.1" id="Layer_1" xmlns="http://www.w3.org/2000/svg" xmlns:xlink="http://www.w3.org/1999/xlink" x="0px" y="0px"
	 viewBox="0 0 130 130" style="enable-background:new 0 0 130 130;" xml:space="preserve">
<style type="text/css">
	.st0{fill:none;stroke:#4296B4;stroke-width:2;stroke-linecap:round;stroke-linejoin:round;stroke-miterlimit:10;}
	.st1{fill:#4296B4;}
</style>
<g>
	<polyline class="st0" points="85,57 93.7,65.7 85,74.4 	"/>
	<path class="st0" d="M43,82h12.8c1.5,0,2.9-0.8,3.8-1.8L69,67.6c0.9-1,2.3-1.6,3.8-1.6h19.1H81.6h-8.9c-1.5,0-2.9-0.7-3.8-1.7
		l-9.4-13.7c-0.9-1-2.3-1.5-3.8-1.5H43"/>
</g>
<g>
	<path class="st1" d="M65,2.3c34.7,0,63,28.3,63,63s-28.3,63-63,63s-63-28.3-63-63S30.3,2.3,65,2.3 M65,0.3c-35.9,0-65,29.1-65,65
		s29.1,65,65,65s65-29.1,65-65S100.9,0.3,65,0.3L65,0.3z"/>
</g>
</svg>
