<?xml version="1.0" encoding="utf-8"?>
<!-- Generator: Adobe Illustrator 19.1.0, SVG Export Plug-In . SVG Version: 6.00 Build 0)  -->
<svg version="1.1" id="Layer_1" xmlns="http://www.w3.org/2000/svg" xmlns:xlink="http://www.w3.org/1999/xlink" x="0px" y="0px"
	 viewBox="0 0 50 155" style="enable-background:new 0 0 50 155;" width="50px" height="155px" xml:space="preserve">
<style type="text/css">
	.st0{fill:#2F94B4;}
</style>
<g>
	<path class="st0" d="M47.8,40.8H1.6l-0.6-1l0.3-0.5L24.4,1.3l1.2,0l0.3,0.5L49,39.7l-0.6,1.1L47.8,40.8z M3.9,38.8h42.2L25,4.2
		L3.9,38.8z"/>
	<path class="st0" d="M34.4,19H15.8c-0.6,0-1-0.4-1-1s0.4-1,1-1h18.6c0.6,0,1,0.4,1,1S34.9,19,34.4,19z"/>
	<path class="st0" d="M41.4,30.6h-33c-0.6,0-1-0.4-1-1s0.4-1,1-1h33c0.6,0,1,0.4,1,1S42,30.6,41.4,30.6z"/>
</g>
<g>
	<g>
		<path class="st0" d="M48,70.1c-0.6,0-1-0.4-1-1c0-2.9-6.8-14.3-21.9-14.3S3.3,66.2,3.3,69.1c0,0.6-0.4,1-1,1s-1-0.4-1-1
			c0-3.8,7.4-16.3,23.9-16.3S49,65.3,49,69.1C49,69.7,48.6,70.1,48,70.1z"/>
		<path class="st0" d="M25.1,85.4C8.7,85.4,1.3,72.9,1.3,69.1c0-0.6,0.4-1,1-1s1,0.4,1,1c0,2.9,6.8,14.3,21.9,14.3S47,72,47,69.1
			c0-0.6,0.4-1,1-1s1,0.4,1,1C49,72.9,41.6,85.4,25.1,85.4z"/>
	</g>
	<path class="st0" d="M25.1,77.8c-4.8,0-8.6-3.9-8.6-8.6s3.9-8.6,8.6-8.6s8.6,3.9,8.6,8.6S29.9,77.8,25.1,77.8z M25.1,62.5
		c-3.7,0-6.6,3-6.6,6.6c0,3.7,3,6.6,6.6,6.6c3.7,0,6.6-3,6.6-6.6C31.8,65.5,28.8,62.5,25.1,62.5z"/>
</g>
<g>
	<path class="st0" d="M43.1,117.8c-0.6,0-1-0.4-1-1V98.6c0-0.6,0.4-1,1-1s1,0.4,1,1v18.2C44.1,117.4,43.6,117.8,43.1,117.8z"/>
	<path class="st0" d="M43.1,145.1c-0.6,0-1-0.4-1-1v-18.2c0-0.6,0.4-1,1-1s1,0.4,1,1v18.2C44.1,144.7,43.6,145.1,43.1,145.1z"/>
	<path class="st0" d="M6.7,126.9c-0.6,0-1-0.4-1-1V98.6c0-0.6,0.4-1,1-1s1,0.4,1,1v27.3C7.7,126.5,7.2,126.9,6.7,126.9z"/>
	<path class="st0" d="M6.7,145.1c-0.6,0-1-0.4-1-1V135c0-0.6,0.4-1,1-1s1,0.4,1,1v9.1C7.7,144.7,7.2,145.1,6.7,145.1z"/>
	<path class="st0" d="M24.9,108.7c-0.6,0-1-0.4-1-1v-9.1c0-0.6,0.4-1,1-1s1,0.4,1,1v9.1C25.9,108.3,25.4,108.7,24.9,108.7z"/>
	<path class="st0" d="M24.9,145.1c-0.6,0-1-0.4-1-1v-27.3c0-0.6,0.4-1,1-1s1,0.4,1,1v27.3C25.9,144.7,25.4,145.1,24.9,145.1z"/>
	<path class="st0" d="M24.9,117.8c-3.1,0-5.5-2.5-5.5-5.6c0-3.1,2.5-5.5,5.5-5.5c3.1,0,5.5,2.5,5.5,5.5
		C30.4,115.3,27.9,117.8,24.9,117.8z M24.9,108.7c-2,0-3.5,1.6-3.5,3.5s1.6,3.6,3.5,3.6c2,0,3.5-1.6,3.5-3.6S26.8,108.7,24.9,108.7z
		"/>
	<path class="st0" d="M6.7,136c-3.1,0-5.5-2.5-5.5-5.6s2.5-5.5,5.5-5.5c3.1,0,5.6,2.5,5.6,5.5S9.7,136,6.7,136z M6.7,126.9
		c-2,0-3.5,1.6-3.5,3.5c0,2,1.6,3.6,3.5,3.6s3.6-1.6,3.6-3.6C10.2,128.5,8.6,126.9,6.7,126.9z"/>
	<path class="st0" d="M43.1,126.9c-3.1,0-5.5-2.5-5.5-5.5c0-3.1,2.5-5.5,5.5-5.5s5.5,2.5,5.5,5.5C48.6,124.4,46.1,126.9,43.1,126.9z
		 M43.1,117.8c-2,0-3.5,1.6-3.5,3.5c0,2,1.6,3.5,3.5,3.5s3.5-1.6,3.5-3.5C46.6,119.4,45,117.8,43.1,117.8z"/>
</g>
</svg>
