<?xml version="1.0" encoding="utf-8"?>
<!-- Generator: Adobe Illustrator 19.1.0, SVG Export Plug-In . SVG Version: 6.00 Build 0)  -->
<svg version="1.1" id="Layer_1" xmlns="http://www.w3.org/2000/svg" xmlns:xlink="http://www.w3.org/1999/xlink" x="0px" y="0px"
	 viewBox="0 0 130 130" style="enable-background:new 0 0 130 130;" xml:space="preserve">
<style type="text/css">
	.st0{fill:none;stroke:#3095B4;stroke-width:2;stroke-linecap:round;stroke-miterlimit:10;}
	.st1{fill:none;stroke:#025172;stroke-width:2;stroke-linecap:round;stroke-miterlimit:10;}
	.st2{fill:none;stroke:#3094B4;stroke-width:2;stroke-linecap:round;stroke-linejoin:round;stroke-miterlimit:10;}
</style>
<g>
	<path class="st0" d="M10,32.4C21.3,14.1,41.5,1.9,64.6,1.9c10.2,0,19.9,2.4,28.5,6.7"/>
	<path class="st1" d="M98.3,12c18.3,11.3,30.6,31.5,30.6,54.6c0,10.2-2.4,19.9-6.7,28.5"/>
	<path class="st0" d="M118.7,99.3c-11.3,18.3-31.5,30.6-54.6,30.6c-10.2,0-19.9-2.4-28.5-6.7"/>
	<path class="st1" d="M31.4,120.7C13.1,109.4,0.8,89.2,0.8,66.1c0-10.2,2.4-19.9,6.7-28.5"/>
</g>
<path class="st2" d="M90.9,43.7c0,3.6-11.5,6.5-25.7,6.5c-13.3,0-24.2-2.6-25.5-5.8c-0.1-0.2-0.1-0.5-0.1-0.7
	c0-3.6,11.5-6.5,25.7-6.5S90.9,40.1,90.9,43.7z M39.8,44.6l19.8,24.3v25.7L70.8,87V69.6l19.8-24.7"/>
</svg>
