<?xml version="1.0" encoding="utf-8"?>
<!-- Generator: Adobe Illustrator 19.1.0, SVG Export Plug-In . SVG Version: 6.00 Build 0)  -->
<svg version="1.1" id="Layer_1" xmlns="http://www.w3.org/2000/svg" xmlns:xlink="http://www.w3.org/1999/xlink" x="0px" y="0px"
	 viewBox="0 0 130 130" style="enable-background:new 0 0 130 130;" xml:space="preserve">
<style type="text/css">
	.st0{fill:none;stroke:#3095B4;stroke-width:2;stroke-linecap:round;stroke-miterlimit:10;}
	.st1{fill:none;stroke:#025172;stroke-width:2;stroke-linecap:round;stroke-miterlimit:10;}
	.st2{fill:none;stroke:#3094B4;stroke-width:2;stroke-linecap:round;stroke-linejoin:round;stroke-miterlimit:10;}
</style>
<g>
	<path class="st0" d="M10.1,32.8C21.3,14.5,41.5,2.3,64.6,2.3c10.2,0,19.9,2.4,28.5,6.7"/>
	<path class="st1" d="M98.3,12.5c18.3,11.3,30.6,31.5,30.6,54.6c0,10.2-2.4,19.9-6.7,28.5"/>
	<path class="st0" d="M118.7,99.7c-11.3,18.3-31.5,30.6-54.6,30.6c-10.2,0-19.9-2.4-28.5-6.7"/>
	<path class="st1" d="M31.4,121.1C13.1,109.8,0.9,89.6,0.9,66.5c0-10.2,2.4-19.9,6.7-28.5"/>
</g>
<g>
	<circle class="st2" cx="64.9" cy="66.4" r="23.1"/>
	<line class="st2" x1="64.9" y1="66.4" x2="64.9" y2="52.6"/>
	<line class="st2" x1="64.9" y1="66.4" x2="72.7" y2="75.8"/>
</g>
</svg>
