<?xml version="1.0" encoding="utf-8"?>
<svg version="1.1" xmlns="http://www.w3.org/2000/svg" xmlns:xlink="http://www.w3.org/1999/xlink" x="0px" y="0px"
	 viewBox="0 0 60 126" style="enable-background:new 0 0 60 126;" xml:space="preserve">
<style type="text/css">
	.st0{fill:#067CB6;}
	.st1{fill:#FFFFFF;}
	.st2{fill:#3C5A9A;}
	.st3{clip-path:url(#SVGID_2_);fill:#61A8DB;}
	.st4{clip-path:url(#SVGID_4_);fill:#FFFFFF;}
</style>
<g id="color_icons">
	<g>
		<path class="st0" d="M25.1,34H2.9C1.8,34,1,34.9,1,35.9v22.2c0,1,0.9,1.9,1.9,1.9h22.2c1.1,0,1.9-0.8,1.9-1.9V35.9
			C27,34.9,26.1,34,25.1,34z"/>
		<path class="st1" d="M4.8,43.8h3.9v12.4H4.8V43.8z M6.8,37.6c1.2,0,2.2,1,2.2,2.2c0,1.2-1,2.2-2.2,2.2c-1.2,0-2.2-1-2.2-2.2
			C4.5,38.6,5.5,37.6,6.8,37.6"/>
		<path class="st1" d="M11.1,43.8h3.7v1.7h0.1c0.5-1,1.8-2,3.6-2c3.9,0,4.6,2.6,4.6,5.9v6.8h-3.9v-6c0-1.4,0-3.3-2-3.3
			c-2,0-2.3,1.6-2.3,3.2v6.1h-3.9V43.8z"/>
	</g>
	<path id="Blue_1_" class="st2" d="M25.6,1H2.4C1.6,1,1,1.6,1,2.4v23.1C1,26.4,1.6,27,2.4,27h12.5V16.9h-3.4V13h3.4v-2.9
		c0-3.4,2.1-5.2,5-5.2c1.4,0,2.7,0.1,3,0.2v3.5l-2.1,0c-1.6,0-1.9,0.8-1.9,1.9V13h3.9l-0.5,3.9h-3.4V27h6.6c0.8,0,1.4-0.6,1.4-1.4
		V2.4C27,1.6,26.4,1,25.6,1z"/>
	<g>
		<defs>
			<rect id="SVGID_1_" x="1" y="69.2" width="26" height="21.1"/>
		</defs>
		<clipPath id="SVGID_2_">
			<use xlink:href="#SVGID_1_"  style="overflow:visible;"/>
		</clipPath>
		<path class="st3" d="M9.1,90.3c-3,0-5.8-0.9-8.2-2.4C1.4,88,1.8,88,2.2,88c2.5,0,4.8-0.9,6.6-2.3c-2.3,0-4.3-1.6-5-3.7
			c0.3,0.1,0.7,0.1,1,0.1c0.5,0,1-0.1,1.4-0.2C3.9,81.4,2,79.3,2,76.7c0,0,0,0,0-0.1c0.7,0.4,1.5,0.6,2.4,0.7
			c-1.4-1-2.4-2.6-2.4-4.4c0-1,0.3-1.9,0.7-2.7c2.6,3.2,6.6,5.4,11,5.6c-0.1-0.4-0.1-0.8-0.1-1.2c0-2.9,2.4-5.3,5.3-5.3
			c1.5,0,2.9,0.6,3.9,1.7c1.2-0.2,2.4-0.7,3.4-1.3c-0.4,1.2-1.2,2.3-2.3,3c1.1-0.1,2.1-0.4,3.1-0.8c-0.7,1.1-1.6,2-2.7,2.8
			c0,0.2,0,0.5,0,0.7C24.3,82.2,19,90.3,9.1,90.3"/>
	</g>
	<g>
		<path d="M29.6,106.1c0,0-0.3-1.9-1.1-2.7c-1.1-1.1-2.2-1.1-2.8-1.2c-3.9-0.3-9.7-0.3-9.7-0.3h0c0,0-5.8,0-9.7,0.3
			c-0.5,0.1-1.7,0.1-2.8,1.2c-0.8,0.8-1.1,2.7-1.1,2.7s-0.3,2.2-0.3,4.5v2.1c0,2.2,0.3,4.5,0.3,4.5s0.3,1.9,1.1,2.7
			c1.1,1.1,2.4,1.1,3,1.2c2.2,0.2,9.4,0.3,9.4,0.3s5.8,0,9.7-0.3c0.5-0.1,1.7-0.1,2.8-1.2c0.8-0.8,1.1-2.7,1.1-2.7s0.3-2.2,0.3-4.5
			v-2.1C29.9,108.3,29.6,106.1,29.6,106.1 M13.2,115.2l0-7.8l7.5,3.9L13.2,115.2z"/>
	</g>
</g>
<g id="white_icon">
	<g>
		<defs>
			<rect id="SVGID_3_" x="29.7" y="69.1" width="26" height="21.1"/>
		</defs>
		<clipPath id="SVGID_4_">
			<use xlink:href="#SVGID_3_"  style="overflow:visible;"/>
		</clipPath>
		<path class="st4" d="M37.8,90.3c-3,0-5.8-0.9-8.2-2.4c0.4,0,0.8,0.1,1.3,0.1c2.5,0,4.8-0.9,6.6-2.3c-2.3,0-4.3-1.6-5-3.7
			c0.3,0.1,0.7,0.1,1,0.1c0.5,0,1-0.1,1.4-0.2c-2.4-0.5-4.3-2.6-4.3-5.2c0,0,0,0,0-0.1c0.7,0.4,1.5,0.6,2.4,0.7
			c-1.4-1-2.4-2.6-2.4-4.4c0-1,0.3-1.9,0.7-2.7c2.6,3.2,6.6,5.4,11,5.6c-0.1-0.4-0.1-0.8-0.1-1.2c0-2.9,2.4-5.3,5.3-5.3
			c1.5,0,2.9,0.6,3.9,1.7c1.2-0.2,2.4-0.7,3.4-1.3c-0.4,1.2-1.2,2.3-2.3,3c1.1-0.1,2.1-0.4,3.1-0.8c-0.7,1.1-1.6,2-2.7,2.8
			c0,0.2,0,0.5,0,0.7C53,82.1,47.7,90.3,37.8,90.3"/>
	</g>
	<path id="White_2_" class="st1" d="M54.4,1.1H31.2c-0.8,0-1.4,0.6-1.4,1.4v23.1c0,0.8,0.6,1.4,1.4,1.4h12.5V17h-3.4v-3.9h3.4v-2.9
		c0-3.4,2.1-5.2,5-5.2c1.4,0,2.7,0.1,3,0.2v3.5l-2.1,0c-1.6,0-1.9,0.8-1.9,1.9v2.5h3.9L51.1,17h-3.4v10.1h6.6c0.8,0,1.4-0.6,1.4-1.4
		V2.5C55.8,1.7,55.2,1.1,54.4,1.1z"/>
	<g>
		<path class="st1" d="M53.8,34H31.6c-1.1,0-1.9,0.8-1.9,1.9v22.3c0,1,0.9,1.9,1.9,1.9h22.2c1.1,0,1.9-0.8,1.9-1.9V35.9
			C55.7,34.9,54.8,34,53.8,34z M37.4,56.2h-3.9V43.8h3.9V56.2z M35.5,42.1c-1.2,0-2.2-1-2.2-2.2c0-1.2,1-2.2,2.2-2.2
			c1.2,0,2.2,1,2.2,2.2C37.7,41.1,36.7,42.1,35.5,42.1z M51.9,56.2H48v-6c0-1.4,0-3.3-2-3.3c-2,0-2.3,1.6-2.3,3.2v6.1h-3.9V43.8h3.7
			v1.7h0.1c0.5-1,1.8-2,3.6-2c3.9,0,4.6,2.6,4.6,5.9V56.2z"/>
	</g>
	<g>
		<path class="st1" d="M58.5,106.2c0,0-0.3-1.9-1.1-2.7c-1.1-1.1-2.2-1.1-2.8-1.2c-3.9-0.3-9.7-0.3-9.7-0.3h0c0,0-5.8,0-9.7,0.3
			c-0.5,0.1-1.7,0.1-2.8,1.2c-0.8,0.8-1.1,2.7-1.1,2.7s-0.3,2.2-0.3,4.5v2.1c0,2.2,0.3,4.5,0.3,4.5s0.3,1.9,1.1,2.7
			c1.1,1.1,2.4,1.1,3,1.2c2.2,0.2,9.4,0.3,9.4,0.3s5.8,0,9.7-0.3c0.5-0.1,1.7-0.1,2.8-1.2c0.8-0.8,1.1-2.7,1.1-2.7s0.3-2.2,0.3-4.5
			v-2.1C58.7,108.4,58.5,106.2,58.5,106.2 M42.1,115.3l0-7.8l7.5,3.9L42.1,115.3z"/>
	</g>
</g>
</svg>
