<?xml version="1.0" encoding="utf-8"?>
<!-- Generator: Adobe Illustrator 19.1.0, SVG Export Plug-In . SVG Version: 6.00 Build 0)  -->
<svg version="1.1" id="Layer_1" xmlns="http://www.w3.org/2000/svg" xmlns:xlink="http://www.w3.org/1999/xlink" x="0px" y="0px"
	 viewBox="0 0 130 130" style="enable-background:new 0 0 130 130;" xml:space="preserve">
<style type="text/css">
	.st0{fill:none;stroke:#3095B4;stroke-width:2;stroke-linecap:round;stroke-miterlimit:10;}
	.st1{fill:none;stroke:#025172;stroke-width:2;stroke-linecap:round;stroke-miterlimit:10;}
	.st2{fill:none;stroke:#3094B4;stroke-width:2;stroke-linecap:round;stroke-linejoin:round;stroke-miterlimit:10;}
</style>
<g>
	<path class="st0" d="M10.1,31.9C21.4,13.6,41.6,1.4,64.7,1.4c10.2,0,19.9,2.4,28.5,6.7"/>
	<path class="st1" d="M98.3,11.5c18.3,11.3,30.6,31.5,30.6,54.6c0,10.2-2.4,19.9-6.7,28.5"/>
	<path class="st0" d="M118.7,98.8c-11.3,18.3-31.5,30.6-54.6,30.6c-10.2,0-19.9-2.4-28.5-6.7"/>
	<path class="st1" d="M31.5,120.2C13.1,108.9,0.9,88.7,0.9,65.6c0-10.2,2.4-19.9,6.7-28.5"/>
</g>
<g>
	<g>
		<line class="st2" x1="48.4" y1="40.9" x2="81.1" y2="40.9"/>
		<path class="st2" d="M53,40.9"/>
		<line class="st2" x1="76.2" y1="40.9" x2="76.2" y2="53.9"/>
		<line class="st2" x1="53.3" y1="40.9" x2="53.3" y2="53.9"/>
		<path class="st2" d="M53.3,53.9c0,8.5,10.2,11.4,11.4,11.4l0,0c1.2,0,11.4-2.9,11.4-11.4"/>
	</g>
	<g>
		<line class="st2" x1="81.1" y1="89.9" x2="48.4" y2="89.9"/>
		<path class="st2" d="M76.5,89.9"/>
		<line class="st2" x1="53.3" y1="89.9" x2="53.3" y2="76.8"/>
		<line class="st2" x1="76.2" y1="89.9" x2="76.2" y2="76.8"/>
		<path class="st2" d="M76.2,76.8c0-8.5-10.2-11.4-11.4-11.4l0,0c-1.2,0-11.4,2.9-11.4,11.4"/>
	</g>
</g>
</svg>
