<?xml version="1.0" encoding="utf-8"?>
<!-- Generator: Adobe Illustrator 19.1.0, SVG Export Plug-In . SVG Version: 6.00 Build 0)  -->
<svg version="1.1" id="Layer_1" xmlns="http://www.w3.org/2000/svg" xmlns:xlink="http://www.w3.org/1999/xlink" x="0px" y="0px"
	 viewBox="0 0 130 130" style="enable-background:new 0 0 130 130;" xml:space="preserve">
<style type="text/css">
	.st0{fill:none;stroke:#3095B4;stroke-width:2;stroke-linecap:round;stroke-miterlimit:10;}
	.st1{fill:none;stroke:#025172;stroke-width:2;stroke-linecap:round;stroke-miterlimit:10;}
	.st2{fill:none;stroke:#3094B4;stroke-width:2;stroke-linecap:round;stroke-linejoin:round;stroke-miterlimit:10;}
	.st3{fill:none;stroke:#3094B4;stroke-width:2;stroke-linejoin:round;stroke-miterlimit:10;}
</style>
<g>
	<path class="st0" d="M10.3,31C21.5,12.7,41.8,0.5,64.8,0.5c10.2,0,19.9,2.4,28.5,6.7"/>
	<path class="st1" d="M98.5,10.6c18.3,11.3,30.6,31.5,30.6,54.6c0,10.2-2.4,19.9-6.7,28.5"/>
	<path class="st0" d="M118.9,97.9c-11.3,18.3-31.5,30.6-54.6,30.6c-10.2,0-19.9-2.4-28.5-6.7"/>
	<path class="st1" d="M31.6,119.2C13.3,108,1.1,87.8,1.1,64.7c0-10.2,2.4-19.9,6.7-28.5"/>
</g>
<g>
	<circle class="st2" cx="65.6" cy="71.7" r="2.2"/>
	<path class="st3" d="M32.3,74.1c0-18.4,14.9-33.3,33.3-33.3c18.4,0,33.3,14.9,33.3,33.3"/>
	<path class="st3" d="M32.3,76.1"/>
	<line class="st2" x1="32" y1="74" x2="37" y2="74"/>
	<line class="st2" x1="94" y1="74" x2="99" y2="74"/>
	<line class="st2" x1="66" y1="45" x2="66" y2="41"/>
	<line class="st2" x1="79.7" y1="49" x2="81.9" y2="45.1"/>
	<line class="st2" x1="90.4" y1="59.6" x2="94.3" y2="57.3"/>
	<line class="st2" x1="51.3" y1="49.1" x2="49.1" y2="45.2"/>
	<line class="st2" x1="40.7" y1="59.6" x2="36.8" y2="57.3"/>
	<line class="st2" x1="67.8" y1="70.4" x2="82.5" y2="62.2"/>
</g>
</svg>
