<?xml version="1.0" encoding="utf-8"?>
<!-- Generator: Adobe Illustrator 19.1.0, SVG Export Plug-In . SVG Version: 6.00 Build 0)  -->
<svg version="1.1" id="Layer_1" xmlns="http://www.w3.org/2000/svg" xmlns:xlink="http://www.w3.org/1999/xlink" x="0px" y="0px"
	 viewBox="0 0 130 130" style="enable-background:new 0 0 130 130;" xml:space="preserve">
<style type="text/css">
	.st0{fill:none;stroke:#3094B4;stroke-width:2;stroke-linecap:round;stroke-linejoin:round;stroke-miterlimit:10;}
	.st1{fill:#4296B4;}
</style>
<g>
	<g>
		<path class="st0" d="M65.2,93.6c-7.4,0-8.2-6-8.2-6V76.3c0,0,0-3.5-2-4.7v0c-5-4-8.8-9.7-8.8-16.8c0-10.8,8.6-19.6,18.9-19.6"/>
	</g>
	<g>
		<path class="st0" d="M64.9,93.6c7.4,0,8.1-6,8.1-6V76.3c0,0,0-3.5,2-4.7v0c5-4,9-9.7,9-16.8c0-10.8-8.6-19.6-18.9-19.6"/>
	</g>
	<path class="st0" d="M56.8,79c0,0,8.4,4.7,16.7,0"/>
</g>
<g>
	<path class="st1" d="M65,1.4c34.7,0,63,28.3,63,63s-28.3,63-63,63S2,99.2,2,64.4S30.3,1.4,65,1.4 M65-0.6c-35.9,0-65,29.1-65,65
		s29.1,65,65,65s65-29.1,65-65S100.9-0.6,65-0.6L65-0.6z"/>
</g>
</svg>
