<?xml version="1.0" encoding="utf-8"?>
<!-- Generator: Adobe Illustrator 19.1.0, SVG Export Plug-In . SVG Version: 6.00 Build 0)  -->
<svg version="1.1" id="Layer_1" xmlns="http://www.w3.org/2000/svg" xmlns:xlink="http://www.w3.org/1999/xlink" x="0px" y="0px"
	 viewBox="0 0 130 130" style="enable-background:new 0 0 130 130;" xml:space="preserve">
<style type="text/css">
	.st0{fill:none;stroke:#3095B4;stroke-width:2;stroke-linecap:round;stroke-miterlimit:10;}
	.st1{fill:none;stroke:#025172;stroke-width:2;stroke-linecap:round;stroke-miterlimit:10;}
	.st2{fill:none;stroke:#3094B4;stroke-width:2;stroke-linecap:round;stroke-linejoin:round;stroke-miterlimit:10;}
</style>
<g>
	<path class="st0" d="M10.8,31.8C22,13.5,42.3,1.3,65.3,1.3c10.2,0,19.9,2.4,28.5,6.7"/>
	<path class="st1" d="M99,11.5c18.3,11.3,30.6,31.5,30.6,54.6c0,10.2-2.4,19.9-6.7,28.5"/>
	<path class="st0" d="M119.4,98.7c-11.3,18.3-31.5,30.6-54.6,30.6c-10.2,0-19.9-2.4-28.5-6.7"/>
	<path class="st1" d="M32.1,120.1C13.8,108.8,1.6,88.6,1.6,65.5c0-10.2,2.4-19.9,6.7-28.5"/>
</g>
<g>
	<g>
		<circle class="st2" cx="57" cy="58.2" r="17"/>
		<line class="st2" x1="69.4" y1="70.6" x2="86.5" y2="87.7"/>
	</g>
</g>
</svg>
