<?xml version="1.0" encoding="utf-8"?>
<!-- Generator: Adobe Illustrator 19.1.0, SVG Export Plug-In . SVG Version: 6.00 Build 0)  -->
<svg version="1.1" id="Layer_1" xmlns="http://www.w3.org/2000/svg" xmlns:xlink="http://www.w3.org/1999/xlink" x="0px" y="0px"
	 viewBox="0 0 130 130" style="enable-background:new 0 0 130 130;" xml:space="preserve">
<style type="text/css">
	.st0{fill:none;stroke:#3095B4;stroke-width:2;stroke-linecap:round;stroke-miterlimit:10;}
	.st1{fill:none;stroke:#025172;stroke-width:2;stroke-linecap:round;stroke-miterlimit:10;}
	.st2{fill:none;stroke:#3094B4;stroke-width:2;stroke-linecap:round;stroke-linejoin:round;stroke-miterlimit:10;}
</style>
<g>
	<path class="st0" d="M10.2,31.9C21.4,13.6,41.6,1.3,64.7,1.3C75,1.3,84.6,3.7,93.2,8"/>
	<path class="st1" d="M98.4,11.5C116.7,22.8,129,43,129,66.1c0,10.2-2.4,19.9-6.7,28.5"/>
	<path class="st0" d="M118.8,98.8c-11.3,18.3-31.5,30.6-54.6,30.6c-10.2,0-19.9-2.4-28.5-6.7"/>
	<path class="st1" d="M31.5,120.1C13.2,108.9,1,88.6,1,65.6c0-10.2,2.4-19.9,6.7-28.5"/>
</g>
<g>
	<path class="st2" d="M88.3,47.4c2,0,3.6,1.6,3.6,3.6v28.7c0,2-1.6,3.6-3.6,3.6H41.7c-2,0-3.6-1.6-3.6-3.6V51c0-2,1.6-3.6,3.6-3.6
		H88.3z"/>
	<polyline class="st2" points="90,49.2 65,70.7 39.9,49.2 	"/>
</g>
</svg>
