<?xml version="1.0" encoding="utf-8"?>
<!-- Generator: Adobe Illustrator 19.1.0, SVG Export Plug-In . SVG Version: 6.00 Build 0)  -->
<svg version="1.1" id="Layer_1" xmlns="http://www.w3.org/2000/svg" xmlns:xlink="http://www.w3.org/1999/xlink" x="0px" y="0px"
	 viewBox="0 0 50 280" style="enable-background:new 0 0 50 280;" xml:space="preserve">
<style type="text/css">
	.st0{fill:#2F94B4;}
	.st1{opacity:0.1;fill:none;stroke:#2F94B4;stroke-width:2;stroke-linecap:round;stroke-linejoin:round;stroke-miterlimit:10;}
	.st2{fill:none;stroke:#2F94B4;stroke-width:2;stroke-linecap:round;stroke-linejoin:round;stroke-miterlimit:10;}
</style>
<g>
	<path class="st0" d="M21.4,48.5h-1l0.1-21.9c0-0.6,0.5-1.1,1.1-1.1h21.8v1C43.3,38.7,33.5,48.5,21.4,48.5z M22.4,27.5l-0.1,18.9
		c10.2-0.5,18.4-8.7,18.9-18.9H22.4z"/>
	<path class="st0" d="M21.1,41c-8,0-14.4-6.5-14.4-14.4c0-5.5,3-10.4,7.9-12.9l0.9,1.8c-4.2,2.1-6.8,6.4-6.8,11.1
		c0,6.9,5.6,12.4,12.4,12.4l0.2,0l0,2L21.1,41z"/>
	<path class="st0" d="M39,26.2h-2c0-8.5-6.9-15.4-15.4-15.4v-2C31.2,8.8,39,16.6,39,26.2z"/>
	<path class="st0" d="M22.3,30.8L8.7,4.3l0.9-0.5C13.2,2,17.2,1,21.3,1h1V30.8z M11.4,5.2l8.8,17.3V3C17.2,3.1,14.2,3.9,11.4,5.2z"
		/>
</g>
<g>
	<path class="st0" d="M20.4,75.6c-0.6,0-1-0.4-1-1V61.8c0-0.6,0.4-1,1-1s1,0.4,1,1v12.8C21.4,75.1,20.9,75.6,20.4,75.6z"/>
	<path class="st0" d="M29.5,75.6c-0.6,0-1-0.4-1-1V61.8c0-0.6,0.4-1,1-1s1,0.4,1,1v12.8C30.5,75.1,30.1,75.6,29.5,75.6z"/>
	<path class="st0" d="M20.4,107.8c-0.6,0-1-0.4-1-1V93.9c0-0.6,0.4-1,1-1s1,0.4,1,1v12.8C21.4,107.3,20.9,107.8,20.4,107.8z"/>
	<path class="st0" d="M29.5,107.8c-0.6,0-1-0.4-1-1V93.9c0-0.6,0.4-1,1-1s1,0.4,1,1v12.8C30.5,107.3,30.1,107.8,29.5,107.8z"/>
	<path class="st0" d="M15.3,80.7H2.5c-0.6,0-1-0.4-1-1s0.4-1,1-1h12.8c0.6,0,1,0.4,1,1S15.8,80.7,15.3,80.7z"/>
	<path class="st0" d="M15.3,89.8H2.5c-0.6,0-1-0.4-1-1s0.4-1,1-1h12.8c0.6,0,1,0.4,1,1S15.8,89.8,15.3,89.8z"/>
	<path class="st0" d="M47.5,89.8H34.6c-0.6,0-1-0.4-1-1s0.4-1,1-1h12.8c0.6,0,1,0.4,1,1S48,89.8,47.5,89.8z"/>
	<path class="st0" d="M47.5,80.7H34.6c-0.6,0-1-0.4-1-1s0.4-1,1-1h12.8c0.6,0,1,0.4,1,1S48,80.7,47.5,80.7z"/>
	<path class="st0" d="M25,108.2c-13.2,0-24-10.7-24-24c0-13.2,10.7-24,24-24c13.2,0,24,10.7,24,24C48.9,97.5,38.2,108.2,25,108.2z
		 M25,62.3c-12.1,0-22,9.9-22,22s9.9,22,22,22s22-9.8,22-22S37.1,62.3,25,62.3z"/>
	<path class="st0" d="M25,96c-6.5,0-11.7-5.3-11.7-11.7S18.5,72.5,25,72.5s11.7,5.3,11.7,11.7S31.4,96,25,96z M25,74.5
		c-5.4,0-9.7,4.4-9.7,9.7c0,5.4,4.4,9.7,9.7,9.7c5.4,0,9.7-4.4,9.7-9.7C34.7,78.9,30.3,74.5,25,74.5z"/>
</g>
<g>
	<path class="st0" d="M35.8,168.2H3.6c-1.4,0-2.5-1.1-2.5-2.5v-3.1c0-0.4,0.2-0.7,0.5-0.9l15.6-8.5c-5.3-5.3-5.4-13.2-5.4-13.6
		l0-9.2c0-0.1,0-0.1,0-0.2c1-6,7.6-10,13.1-10c0,0,0.1,0,0.1,0c5.6,0,12.2,4,13.2,10c0,0.1,0,0.1,0,0.2l0,9.2
		c0,0.4-0.1,8.1-5.2,13.4l3,1c0.5,0.2,0.8,0.7,0.6,1.3s-0.7,0.8-1.3,0.6l-4.6-1.5c-0.3-0.1-0.6-0.4-0.7-0.8c-0.1-0.4,0.1-0.7,0.4-1
		c5.7-4.6,5.8-12.9,5.8-13l0-9.1c-0.9-4.8-6.5-8.2-11.2-8.3c0,0-0.1,0-0.1,0c-4.6,0-10.4,3.4-11.2,8.3l0,9.1c0,0.1,0.1,8.4,5.8,13
		c0.3,0.2,0.4,0.5,0.4,0.9c0,0.3-0.2,0.6-0.5,0.8l-16.3,8.9v2.5c0,0.3,0.2,0.5,0.5,0.5h32.1c0.6,0,1,0.4,1,1S36.3,168.2,35.8,168.2z
		"/>
	<path class="st1" d="M41.9,161.1"/>
	<path class="st0" d="M41.9,168.2c-0.6,0-1-0.4-1-1V155c0-0.6,0.4-1,1-1s1,0.4,1,1v12.2C42.9,167.8,42.4,168.2,41.9,168.2z"/>
	<path class="st0" d="M48,162.1H35.8c-0.6,0-1-0.4-1-1s0.4-1,1-1H48c0.6,0,1,0.4,1,1S48.6,162.1,48,162.1z"/>
</g>
<polyline class="st2" points="2.9,199 19.6,213.2 47,185.7 "/>
<g>
	<g>
		<polyline class="st2" points="43.2,237.6 14.6,266.2 9,260.6 37.6,232 		"/>
		<polyline class="st2" points="9,260.6 5.1,270.1 14.6,266.2 		"/>
	</g>
	<path class="st2" d="M37.8,231.9c1.5-1.5,4-1.5,5.6,0c1.5,1.5,1.5,4,0,5.6"/>
	<line class="st2" x1="35" y1="234.6" x2="40.5" y2="240.2"/>
</g>
</svg>
