<?xml version="1.0" encoding="utf-8"?>
<!-- Generator: Adobe Illustrator 19.1.0, SVG Export Plug-In . SVG Version: 6.00 Build 0)  -->
<svg version="1.1" id="Layer_2" xmlns="http://www.w3.org/2000/svg" xmlns:xlink="http://www.w3.org/1999/xlink" x="0px" y="0px"
	 viewBox="0 0 50 211" style="enable-background:new 0 0 50 211;" xml:space="preserve">
<style type="text/css">
	.st0{fill:#2F94B4;stroke:#2F94B4;stroke-width:2;stroke-linecap:round;stroke-linejoin:round;stroke-miterlimit:10;}
	.st1{fill:none;stroke:#2F94B4;stroke-width:2;stroke-linecap:round;stroke-linejoin:round;stroke-miterlimit:10;}
	.st2{fill:#2F94B4;}
	.st3{fill:none;stroke:#2F94B4;stroke-width:2;stroke-linejoin:round;stroke-miterlimit:10;}
</style>
<g>
	<g>
		<circle class="st0" cx="3.1" cy="30.2" r="1.6"/>
		<circle class="st0" cx="17.1" cy="14.7" r="1.6"/>
		<circle class="st0" cx="31.1" cy="20.9" r="1.6"/>
		<circle class="st0" cx="46.6" cy="8.5" r="1.6"/>
	</g>
	<polyline class="st1" points="3.1,30.2 17.1,14.7 31.1,20.9 46.6,8.5 	"/>
</g>
<g>
	<g>
		<line class="st1" x1="25.2" y1="60.6" x2="25.2" y2="72.4"/>
		<circle class="st2" cx="25.2" cy="77.7" r="1.6"/>
	</g>
	<polygon class="st3" points="48,85.1 3,85.1 25.3,46 	"/>
</g>
<g>
	<g>
		<line class="st1" x1="44" y1="96.5" x2="44" y2="115.1"/>
	</g>
	<g>
		<line class="st1" x1="44" y1="124.4" x2="44" y2="142.9"/>
	</g>
	<g>
		<line class="st1" x1="6.8" y1="96.5" x2="6.8" y2="124.4"/>
	</g>
	<g>
		<line class="st1" x1="6.8" y1="133.7" x2="6.8" y2="142.9"/>
	</g>
	<g>
		<line class="st1" x1="25.4" y1="96.5" x2="25.4" y2="105.8"/>
	</g>
	<g>
		<line class="st1" x1="25.4" y1="115.1" x2="25.4" y2="142.9"/>
	</g>
	<circle class="st1" cx="25.4" cy="110.5" r="4.6"/>
	<circle class="st1" cx="6.8" cy="129" r="4.6"/>
	<circle class="st1" cx="44" cy="119.7" r="4.6"/>
</g>
<g>
	<g>
		<path class="st1" d="M25.5,202.6c-6.1,0-6.9-5-6.9-5v-9.3c0,0,0-2.9-1.1-3.9v0c-4.5-3.3-7.5-8-7.5-13.9c0-8.9,6.9-16.2,15.5-16.2"
			/>
	</g>
	<g>
		<path class="st1" d="M25.5,202.6c6.1,0,6.9-5,6.9-5v-9.3c0,0,0-2.9,1.1-3.9v0c4.5-3.3,7.5-8,7.5-13.9c0-8.9-6.9-16.2-15.5-16.2"/>
	</g>
	<path class="st1" d="M18.6,190.6c0,0,6.9,3.9,13.8,0"/>
</g>
</svg>
