<?xml version="1.0" encoding="utf-8"?>
<!-- Generator: Adobe Illustrator 19.1.0, SVG Export Plug-In . SVG Version: 6.00 Build 0)  -->
<svg version="1.1" id="Layer_1" xmlns="http://www.w3.org/2000/svg" xmlns:xlink="http://www.w3.org/1999/xlink" x="0px" y="0px"
	 viewBox="0 0 130 130" style="enable-background:new 0 0 130 130;" xml:space="preserve">
<style type="text/css">
	.st0{fill:none;stroke:#3095B4;stroke-width:2;stroke-linecap:round;stroke-miterlimit:10;}
	.st1{fill:none;stroke:#025172;stroke-width:2;stroke-linecap:round;stroke-miterlimit:10;}
	.st2{fill:none;stroke:#3094B4;stroke-width:2;stroke-linecap:round;stroke-linejoin:round;stroke-miterlimit:10;}
</style>
<g>
	<path class="st0" d="M10.8,31.8C22,13.4,42.2,1.2,65.3,1.2c10.2,0,19.9,2.4,28.5,6.7"/>
	<path class="st1" d="M99,11.4c18.3,11.3,30.6,31.5,30.6,54.6c0,10.2-2.4,19.9-6.7,28.5"/>
	<path class="st0" d="M119.4,98.6c-11.3,18.3-31.5,30.6-54.6,30.6c-10.2,0-19.9-2.4-28.5-6.7"/>
	<path class="st1" d="M32.1,120C13.8,108.7,1.6,88.5,1.6,65.4C1.6,55.2,4,45.6,8.2,37"/>
</g>
<g>
	<path class="st2" d="M67,80.5c-0.8-0.6-2.1-0.6-2.9,0L49,90.8c-0.8,0.6-1.3,0.2-1-0.7L52.6,74c0.3-0.9-0.1-2.3-0.8-3L40.1,59.1
		c-0.7-0.7-0.5-1.3,0.5-1.4l15.5-1.4c1-0.1,2.1-0.9,2.5-1.8L64.9,40c0.4-0.9,1-0.9,1.4,0l6.2,14.4c0.4,0.9,1.5,1.7,2.5,1.8l15.5,1.4
		c1,0.1,1.2,0.7,0.5,1.4L79.3,71c-0.7,0.7-1,2-0.8,3l4.5,16.1c0.3,0.9-0.2,1.3-1,0.7L67,80.5z"/>
</g>
</svg>
