<?xml version="1.0" encoding="utf-8"?>
<!-- Generator: Adobe Illustrator 19.1.0, SVG Export Plug-In . SVG Version: 6.00 Build 0)  -->
<svg version="1.1" id="Layer_1" xmlns="http://www.w3.org/2000/svg" xmlns:xlink="http://www.w3.org/1999/xlink" x="0px" y="0px"
	 viewBox="0 0 130 130" style="enable-background:new 0 0 130 130;" xml:space="preserve">
<style type="text/css">
	.st0{fill:none;stroke:#3095B4;stroke-width:2;stroke-linecap:round;stroke-miterlimit:10;}
	.st1{fill:none;stroke:#025172;stroke-width:2;stroke-linecap:round;stroke-miterlimit:10;}
	.st2{fill:none;stroke:#3094B4;stroke-width:2;stroke-linecap:round;stroke-linejoin:round;stroke-miterlimit:10;}
</style>
<g>
	<path class="st0" d="M10.8,31.9C22,13.6,42.3,1.4,65.3,1.4c10.2,0,19.9,2.4,28.5,6.7"/>
	<path class="st1" d="M99,11.5c18.3,11.3,30.6,31.5,30.6,54.6c0,10.2-2.4,19.9-6.7,28.5"/>
	<path class="st0" d="M119.4,98.8c-11.3,18.3-31.5,30.6-54.6,30.6c-10.2,0-19.9-2.4-28.5-6.7"/>
	<path class="st1" d="M32.1,120.2C13.8,108.9,1.6,88.7,1.6,65.6c0-10.2,2.4-19.9,6.7-28.5"/>
</g>
<g>
	<g>
		<circle class="st2" cx="64.8" cy="57" r="9.3"/>
	</g>
	<path class="st2" d="M44.3,56.9c0,18.1,20.5,35.6,20.5,35.6S85.3,75,85.3,56.9c0-11.3-9.2-20.5-20.5-20.5
		C53.5,36.4,44.3,45.6,44.3,56.9z"/>
</g>
</svg>
