<?xml version="1.0" encoding="utf-8"?>
<!-- Generator: Adobe Illustrator 19.1.0, SVG Export Plug-In . SVG Version: 6.00 Build 0)  -->
<svg version="1.1" id="Layer_1" xmlns="http://www.w3.org/2000/svg" xmlns:xlink="http://www.w3.org/1999/xlink" x="0px" y="0px"
	 viewBox="0 0 130 130" style="enable-background:new 0 0 130 130;" xml:space="preserve">
<style type="text/css">
	.st0{fill:none;stroke:#3095B4;stroke-width:2;stroke-linecap:round;stroke-miterlimit:10;}
	.st1{fill:none;stroke:#025172;stroke-width:2;stroke-linecap:round;stroke-miterlimit:10;}
	.st2{fill:none;stroke:#3094B4;stroke-width:2;stroke-linecap:round;stroke-linejoin:round;stroke-miterlimit:10;}
</style>
<g>
	<path class="st0" d="M10,31.6C21.2,13.3,41.4,1.1,64.5,1.1c10.2,0,19.9,2.4,28.5,6.7"/>
	<path class="st1" d="M98.2,11.3c18.3,11.3,30.6,31.5,30.6,54.6c0,10.2-2.4,19.9-6.7,28.5"/>
	<path class="st0" d="M118.6,98.5c-11.3,18.3-31.5,30.6-54.6,30.6c-10.2,0-19.9-2.4-28.5-6.7"/>
	<path class="st1" d="M31.3,119.9C13,108.6,0.8,88.4,0.8,65.3c0-10.2,2.4-19.9,6.7-28.5"/>
</g>
<g>
	<path class="st2" d="M49.5,80.7h-8.8c-1,0-1.8-0.8-1.8-1.8V47.1c0-1,0.8-1.8,1.8-1.8h49.5c1,0,1.8,0.8,1.8,1.8v31.8
		c0,1-0.8,1.8-1.8,1.8H58.3"/>
	<g>
		<line class="st2" x1="49.5" y1="55.9" x2="81.3" y2="55.9"/>
		<line class="st2" x1="49.5" y1="63" x2="81.3" y2="63"/>
		<line class="st2" x1="49.5" y1="70.1" x2="70.7" y2="70.1"/>
	</g>
	<polyline class="st2" points="58.3,80.7 49.5,91.3 49.5,80.7 	"/>
</g>
</svg>
