<?xml version="1.0" encoding="utf-8"?>
<!-- Generator: Adobe Illustrator 19.1.0, SVG Export Plug-In . SVG Version: 6.00 Build 0)  -->
<svg version="1.1" id="Layer_1" xmlns="http://www.w3.org/2000/svg" xmlns:xlink="http://www.w3.org/1999/xlink" x="0px" y="0px"
	 viewBox="0 0 130 130" style="enable-background:new 0 0 130 130;" xml:space="preserve">
<style type="text/css">
	.st0{fill:none;stroke:#3095B4;stroke-width:2;stroke-linecap:round;stroke-miterlimit:10;}
	.st1{fill:none;stroke:#025172;stroke-width:2;stroke-linecap:round;stroke-miterlimit:10;}
	.st2{fill:none;stroke:#3094B4;stroke-width:2;stroke-linecap:round;stroke-linejoin:round;stroke-miterlimit:10;}
	.st3{fill:none;stroke:#3094B4;stroke-width:2;stroke-linecap:round;stroke-miterlimit:10;}
</style>
<g>
	<path class="st0" d="M10.4,32.8C21.7,14.5,41.9,2.3,65,2.3c10.2,0,19.9,2.4,28.5,6.7"/>
	<path class="st1" d="M98.7,12.5C117,23.7,129.2,43.9,129.2,67c0,10.2-2.4,19.9-6.7,28.5"/>
	<path class="st0" d="M119,99.7c-11.3,18.3-31.5,30.6-54.6,30.6c-10.2,0-19.9-2.4-28.5-6.7"/>
	<path class="st1" d="M31.8,121.1C13.4,109.8,1.2,89.6,1.2,66.5c0-10.2,2.4-19.9,6.7-28.5"/>
</g>
<g>
	<g>
		<g>
			<path class="st2" d="M84.8,86.6c0,1.1-0.9,2-2,2H45.5c-1.1,0-2-0.9-2-2V57.9c0-1.1,0.9-2,2-2h37.3c1.1,0,2,0.9,2,2V86.6z"/>
		</g>
		<g>
			<circle class="st3" cx="64.1" cy="67.9" r="1.7"/>
			<line class="st3" x1="64.1" y1="69.7" x2="64.1" y2="76.6"/>
		</g>
	</g>
	<g>
		<path class="st2" d="M52.1,55.9V49c0-6.7,5.4-12.1,12.1-12.1c6.7,0,12.1,5.4,12.1,12.1v6"/>
	</g>
</g>
</svg>
