<?xml version="1.0" encoding="utf-8"?>
<!-- Generator: Adobe Illustrator 19.1.0, SVG Export Plug-In . SVG Version: 6.00 Build 0)  -->
<svg version="1.1" id="Layer_1" xmlns="http://www.w3.org/2000/svg" xmlns:xlink="http://www.w3.org/1999/xlink" x="0px" y="0px"
	 viewBox="0 0 130 130" style="enable-background:new 0 0 130 130;" xml:space="preserve">
<style type="text/css">
	.st0{fill:none;stroke:#3095B4;stroke-width:2;stroke-linecap:round;stroke-miterlimit:10;}
	.st1{fill:none;stroke:#025172;stroke-width:2;stroke-linecap:round;stroke-miterlimit:10;}
	.st2{fill:none;stroke:#3094B4;stroke-width:2;stroke-linecap:round;stroke-linejoin:round;stroke-miterlimit:10;}
</style>
<g>
	<path class="st0" d="M10.3,31.4C21.5,13.1,41.8,0.9,64.8,0.9c10.2,0,19.9,2.4,28.5,6.7"/>
	<path class="st1" d="M98.5,11c18.3,11.3,30.6,31.5,30.6,54.6c0,10.2-2.4,19.9-6.7,28.5"/>
	<path class="st0" d="M118.9,98.3c-11.3,18.3-31.5,30.6-54.6,30.6c-10.2,0-19.9-2.4-28.5-6.7"/>
	<path class="st1" d="M31.6,119.7C13.3,108.4,1.1,88.2,1.1,65.1c0-10.2,2.4-19.9,6.7-28.5"/>
</g>
<g>
	<line class="st2" x1="46.5" y1="46.4" x2="46.5" y2="92.6"/>
	<path class="st2" d="M89.4,66.2c0-7.7,0-15.4,0-23.1"/>
	<path class="st2" d="M46.5,69.5"/>
	<path class="st2" d="M46.5,69.5c11.9-11.4,28.3,10.8,42.9-3.3"/>
	<path class="st2" d="M46.5,46.5c11.9-11.4,28.3,10.8,42.9-3.3"/>
</g>
</svg>
