<?xml version="1.0" encoding="utf-8"?>
<!-- Generator: Adobe Illustrator 19.1.0, SVG Export Plug-In . SVG Version: 6.00 Build 0)  -->
<svg version="1.1" id="Layer_1" xmlns="http://www.w3.org/2000/svg" xmlns:xlink="http://www.w3.org/1999/xlink" x="0px" y="0px"
	 viewBox="0 0 130 130" style="enable-background:new 0 0 130 130;" xml:space="preserve">
<style type="text/css">
	.st0{fill:none;stroke:#3094B4;stroke-width:2;stroke-linecap:round;stroke-linejoin:round;stroke-miterlimit:10;}
	.st1{opacity:0.1;fill:none;stroke:#3094B4;stroke-width:2;stroke-linecap:round;stroke-linejoin:round;stroke-miterlimit:10;}
	.st2{fill:none;stroke:#3095B4;stroke-width:2;stroke-linecap:round;stroke-miterlimit:10;}
	.st3{fill:none;stroke:#025172;stroke-width:2;stroke-linecap:round;stroke-miterlimit:10;}
</style>
<g>
	<path class="st0" d="M79.4,75.7l-5.7-1.9c7.7-6.2,7.7-17.2,7.7-17.2l0-11.5c-1.1-6.5-8.6-11.5-15.3-11.5v0c-6.7,0-14.2,5-15.3,11.5
		l0,11.5c0,0,0,11,7.7,17.2l-21,11.5v3.8c0,1.1,0.9,1.9,1.9,1.9h40.1"/>
	<path class="st1" d="M87,83.4"/>
	<line class="st0" x1="87" y1="75.7" x2="87" y2="91"/>
	<line class="st0" x1="94.7" y1="83.4" x2="79.4" y2="83.4"/>
</g>
<g>
	<path class="st2" d="M10.4,31.6C21.7,13.3,41.9,1.1,65,1.1c10.2,0,19.9,2.4,28.5,6.7"/>
	<path class="st3" d="M98.7,11.3c18.3,11.3,30.6,31.5,30.6,54.6c0,10.2-2.4,19.9-6.7,28.5"/>
	<path class="st2" d="M119.1,98.5c-11.3,18.3-31.5,30.6-54.6,30.6c-10.2,0-19.9-2.4-28.5-6.7"/>
	<path class="st3" d="M31.8,119.9C13.5,108.6,1.2,88.4,1.2,65.3c0-10.2,2.4-19.9,6.7-28.5"/>
</g>
</svg>
