<?xml version="1.0" encoding="utf-8"?>
<!-- Generator: Adobe Illustrator 19.1.0, SVG Export Plug-In . SVG Version: 6.00 Build 0)  -->
<svg version="1.1" id="Layer_1" xmlns="http://www.w3.org/2000/svg" xmlns:xlink="http://www.w3.org/1999/xlink" x="0px" y="0px"
	 viewBox="0 0 50 153" style="enable-background:new 0 0 50 153;" width="50px" height="153px" xml:space="preserve">
<style type="text/css">
	.st0{fill:#2F94B4;}
	.st1{fill:none;stroke:#2F94B4;stroke-width:2;stroke-linecap:round;stroke-linejoin:round;stroke-miterlimit:10;}
</style>
<g>
	<g>
		<path class="st0" d="M18.7,36.6C9,36.6,1,28.7,1,18.9S9,1.1,18.7,1.1s17.7,8,17.7,17.7S28.5,36.6,18.7,36.6z M18.7,3.1
			C10.1,3.1,3,10.2,3,18.9s7.1,15.7,15.7,15.7s15.7-7.1,15.7-15.7S27.4,3.1,18.7,3.1z"/>
		<path class="st0" d="M47.7,48.8c-0.3,0-0.5-0.1-0.7-0.3L30.2,31.8c-0.4-0.4-0.4-1,0-1.4s1-0.4,1.4,0l16.7,16.7
			c0.4,0.4,0.4,1,0,1.4C48.2,48.7,47.9,48.8,47.7,48.8z"/>
	</g>
	<g>
		<path class="st0" d="M26.4,19.9H11.1c-0.6,0-1-0.4-1-1s0.4-1,1-1h15.2c0.6,0,1,0.4,1,1S26.9,19.9,26.4,19.9z"/>
		<path class="st0" d="M18.7,27.5c-0.6,0-1-0.4-1-1V11.3c0-0.6,0.4-1,1-1s1,0.4,1,1v15.2C19.7,27,19.3,27.5,18.7,27.5z"/>
	</g>
</g>
<g>
	<path class="st0" d="M44.3,82.5c-0.3,0-0.5-0.1-0.7-0.3c-0.4-0.4-0.4-1,0-1.4c4.1-4.1,4.1-10.7,0-14.7c-4.1-4.1-10.7-4.1-14.7,0
		c-0.4,0.4-1,0.4-1.4,0s-0.4-1,0-1.4c4.8-4.8,12.7-4.8,17.6,0c4.8,4.8,4.8,12.7,0,17.6C44.8,82.4,44.6,82.5,44.3,82.5z"/>
	<path class="st1" d="M24.8,68.2"/>
	<path class="st0" d="M24.8,69.2c-0.3,0-0.6-0.1-0.8-0.4c-0.4-0.4-0.3-1.1,0.1-1.4l3.3-2.8c0.4-0.4,1.1-0.3,1.4,0.1
		c0.4,0.4,0.3,1.1-0.1,1.4L25.5,69C25.3,69.1,25.1,69.2,24.8,69.2z"/>
	<path class="st0" d="M5.3,82.5c-0.3,0-0.5-0.1-0.7-0.3c-4.8-4.8-4.8-12.7,0-17.6c4.8-4.8,12.7-4.8,17.6,0c0.4,0.4,0.4,1,0,1.4
		c-0.4,0.4-1,0.4-1.4,0C16.7,62,10.1,62,6,66.1C2,70.2,2,76.8,6,80.8c0.4,0.4,0.4,1,0,1.4C5.8,82.4,5.6,82.5,5.3,82.5z"/>
	<path class="st1" d="M24.8,68.2"/>
	<path class="st0" d="M24.8,69.2c-0.2,0-0.5-0.1-0.6-0.2l-3.3-2.8c-0.4-0.4-0.5-1-0.1-1.4c0.4-0.4,1-0.5,1.4-0.1l3.3,2.8
		c0.4,0.4,0.5,1,0.1,1.4C25.4,69.1,25.1,69.2,24.8,69.2z"/>
	<path class="st0" d="M24.8,102.6c-1.1,0-2-0.4-2.8-1.3L4.6,82.2c-0.4-0.4-0.3-1,0.1-1.4c0.4-0.4,1-0.3,1.4,0.1L23.5,100
		c0.7,0.8,1.9,0.8,2.6,0l17.5-19.2c0.4-0.4,1-0.4,1.4-0.1c0.4,0.4,0.4,1,0.1,1.4l-17.5,19.2C26.9,102.2,25.9,102.6,24.8,102.6z"/>
</g>
<g>
	<path class="st0" d="M25.2,139.6c-1.4,0-2.5-1.1-2.5-2.5s1.1-2.5,2.5-2.5s2.5,1.1,2.5,2.5S26.6,139.6,25.2,139.6z M25.2,136.6
		c-0.3,0-0.5,0.2-0.5,0.5c0,0.3,0.2,0.5,0.5,0.5c0.3,0,0.5-0.2,0.5-0.5C25.7,136.8,25.5,136.6,25.2,136.6z"/>
	<path class="st0" d="M49,139.7l-2-0.1c0-0.3,0-0.6,0-0.9c0-12-9.8-21.8-21.8-21.8c-12,0-21.8,9.8-21.8,21.8c0,0.3,0,0.6,0,0.9
		l-2,0.1c0-0.3,0-0.7,0-1c0-13.1,10.7-23.8,23.8-23.8c13.1,0,23.8,10.7,23.8,23.8C49,139,49,139.4,49,139.7z"/>
	<path class="st0" d="M5.4,139.7H2.3c-0.6,0-1-0.4-1-1s0.4-1,1-1h3.1c0.6,0,1,0.4,1,1S6,139.7,5.4,139.7z"/>
	<path class="st0" d="M48,139.7h-3.1c-0.6,0-1-0.4-1-1s0.4-1,1-1H48c0.6,0,1,0.4,1,1S48.6,139.7,48,139.7z"/>
	<path class="st0" d="M25.2,120c-0.6,0-1-0.4-1-1v-3.1c0-0.6,0.4-1,1-1s1,0.4,1,1v3.1C26.2,119.5,25.7,120,25.2,120z"/>
	<path class="st0" d="M34.9,122.5c-0.2,0-0.3,0-0.5-0.1c-0.5-0.3-0.7-0.9-0.4-1.4l1.5-2.7c0.3-0.5,0.9-0.7,1.4-0.4
		c0.5,0.3,0.7,0.9,0.4,1.4l-1.5,2.7C35.6,122.4,35.2,122.5,34.9,122.5z"/>
	<path class="st0" d="M42.2,129.8c-0.3,0-0.7-0.2-0.9-0.5c-0.3-0.5-0.1-1.1,0.4-1.4l2.7-1.6c0.5-0.3,1.1-0.1,1.4,0.4
		c0.3,0.5,0.1,1.1-0.4,1.4l-2.7,1.6C42.6,129.8,42.4,129.8,42.2,129.8z"/>
	<path class="st0" d="M15.4,122.6c-0.3,0-0.7-0.2-0.9-0.5l-1.5-2.7c-0.3-0.5-0.1-1.1,0.4-1.4c0.5-0.3,1.1-0.1,1.4,0.4l1.5,2.7
		c0.3,0.5,0.1,1.1-0.4,1.4C15.7,122.5,15.6,122.6,15.4,122.6z"/>
	<path class="st0" d="M8.1,129.8c-0.2,0-0.3,0-0.5-0.1l-2.7-1.6c-0.5-0.3-0.6-0.9-0.4-1.4c0.3-0.5,0.9-0.6,1.4-0.4l2.7,1.6
		c0.5,0.3,0.6,0.9,0.4,1.4C8.8,129.6,8.5,129.8,8.1,129.8z"/>
	<path class="st0" d="M25.2,138.1c-0.3,0-0.7-0.2-0.9-0.5c-0.3-0.5-0.1-1.1,0.4-1.4l10.7-6c0.5-0.3,1.1-0.1,1.4,0.4
		c0.3,0.5,0.1,1.1-0.4,1.4l-10.7,6C25.5,138,25.3,138.1,25.2,138.1z"/>
</g>
</svg>
