<?xml version="1.0" encoding="utf-8"?>
<!-- Generator: Adobe Illustrator 19.1.0, SVG Export Plug-In . SVG Version: 6.00 Build 0)  -->
<svg version="1.1" id="Layer_1" xmlns="http://www.w3.org/2000/svg" xmlns:xlink="http://www.w3.org/1999/xlink" x="0px" y="0px"
	 viewBox="0 0 130 130" style="enable-background:new 0 0 130 130;" xml:space="preserve">
<style type="text/css">
	.st0{fill:none;stroke:#3095B4;stroke-width:2;stroke-linecap:round;stroke-miterlimit:10;}
	.st1{fill:none;stroke:#025172;stroke-width:2;stroke-linecap:round;stroke-miterlimit:10;}
	.st2{fill:none;stroke:#3094B4;stroke-width:2;stroke-linecap:round;stroke-linejoin:round;stroke-miterlimit:10;}
</style>
<g>
	<path class="st0" d="M10,31.4C21.3,13.1,41.5,0.9,64.6,0.9c10.2,0,19.9,2.4,28.5,6.7"/>
	<path class="st1" d="M98.3,11c18.3,11.3,30.6,31.5,30.6,54.6c0,10.2-2.4,19.9-6.7,28.5"/>
	<path class="st0" d="M118.7,98.3c-11.3,18.3-31.5,30.6-54.6,30.6c-10.2,0-19.9-2.4-28.5-6.7"/>
	<path class="st1" d="M31.4,119.7C13.1,108.4,0.8,88.2,0.8,65.1c0-10.2,2.4-19.9,6.7-28.5"/>
</g>
<g>
	<g>
		<path class="st2" d="M78.6,48.8h8.9c2,0,3.6,1.6,3.6,3.6v28.4c0,2-1.6,3.6-3.6,3.6H41.2c-2,0-3.6-1.6-3.6-3.6V52.3
			c0-2,1.6-3.6,3.6-3.6h8.9"/>
		<polyline class="st2" points="50.1,48.8 53.7,41.7 75,41.7 78.6,48.8 		"/>
	</g>
	<circle class="st2" cx="64.3" cy="64.8" r="10.7"/>
</g>
</svg>
