<?xml version="1.0" encoding="utf-8"?>
<!-- Generator: Adobe Illustrator 19.1.0, SVG Export Plug-In . SVG Version: 6.00 Build 0)  -->
<svg version="1.1" id="Layer_1" xmlns="http://www.w3.org/2000/svg" xmlns:xlink="http://www.w3.org/1999/xlink" x="0px" y="0px"
	 viewBox="0 0 130 130" style="enable-background:new 0 0 130 130;" xml:space="preserve">
<style type="text/css">
	.st0{fill:none;stroke:#3095B4;stroke-width:2;stroke-linecap:round;stroke-miterlimit:10;}
	.st1{fill:none;stroke:#025172;stroke-width:2;stroke-linecap:round;stroke-miterlimit:10;}
	.st2{fill:none;stroke:#3094B4;stroke-width:2;stroke-linecap:round;stroke-linejoin:round;stroke-miterlimit:10;}
</style>
<g>
	<path class="st0" d="M10.4,31.6C21.7,13.2,41.9,1,65,1c10.2,0,19.9,2.4,28.5,6.7"/>
	<path class="st1" d="M98.7,11.2c18.3,11.3,30.6,31.5,30.6,54.6c0,10.2-2.4,19.9-6.7,28.5"/>
	<path class="st0" d="M119.1,98.5C107.8,116.8,87.6,129,64.5,129c-10.2,0-19.9-2.4-28.5-6.7"/>
	<path class="st1" d="M31.8,119.8C13.5,108.6,1.2,88.3,1.2,65.2c0-10.2,2.4-19.9,6.7-28.5"/>
</g>
<g>
	<g>
		<circle class="st2" cx="36.4" cy="83.4" r="2"/>
		<circle class="st2" cx="54.4" cy="63.4" r="2"/>
		<circle class="st2" cx="72.4" cy="71.4" r="2"/>
		<circle class="st2" cx="92.4" cy="55.4" r="2"/>
	</g>
	<polyline class="st2" points="36.4,83.4 54.4,63.4 72.4,71.4 92.4,55.4 	"/>
</g>
</svg>
