<?xml version="1.0" encoding="utf-8"?>
<!-- Generator: Adobe Illustrator 19.1.0, SVG Export Plug-In . SVG Version: 6.00 Build 0)  -->
<svg version="1.1" id="Layer_1" xmlns="http://www.w3.org/2000/svg" xmlns:xlink="http://www.w3.org/1999/xlink" x="0px" y="0px"
	 viewBox="0 0 130 130" style="enable-background:new 0 0 130 130;" xml:space="preserve">
<style type="text/css">
	.st0{fill:none;stroke:#3095B4;stroke-width:2;stroke-linecap:round;stroke-miterlimit:10;}
	.st1{fill:none;stroke:#025172;stroke-width:2;stroke-linecap:round;stroke-miterlimit:10;}
	.st2{fill:none;stroke:#3094B4;stroke-width:2;stroke-miterlimit:10;}
</style>
<g>
	<path class="st0" d="M10.3,31C21.5,12.7,41.8,0.5,64.8,0.5c10.2,0,19.9,2.4,28.5,6.7"/>
	<path class="st1" d="M98.5,10.6c18.3,11.3,30.6,31.5,30.6,54.6c0,10.2-2.4,19.9-6.7,28.5"/>
	<path class="st0" d="M118.9,97.9c-11.3,18.3-31.5,30.6-54.6,30.6c-10.2,0-19.9-2.4-28.5-6.7"/>
	<path class="st1" d="M31.6,119.2C13.3,108,1.1,87.8,1.1,64.7c0-10.2,2.4-19.9,6.7-28.5"/>
</g>
<g>
	<g>
		<path class="st2" d="M59.8,103.1c19.1,0,34.7-15.5,34.7-34.7H60c0,0-0.1,0-0.1,0.1L59.8,103.1z"/>
	</g>
	<path class="st2" d="M59.8,90.7c-0.1,0-0.3,0-0.4,0c-12.3,0-22.2-9.9-22.2-22.2c0-8.7,5-16.2,12.2-19.8"/>
	<path class="st2" d="M60.2,40.7c15,0,27.2,12.2,27.2,27.2"/>
	<path class="st2" d="M41.1,32.3c5.5-2.9,11.8-4.5,18.5-4.5v40.8L41.1,32.3z"/>
</g>
</svg>
