<?xml version="1.0" encoding="utf-8"?>
<!-- Generator: Adobe Illustrator 19.1.0, SVG Export Plug-In . SVG Version: 6.00 Build 0)  -->
<svg version="1.1" id="Layer_1" xmlns="http://www.w3.org/2000/svg" xmlns:xlink="http://www.w3.org/1999/xlink" x="0px" y="0px"
	 viewBox="0 0 130 130" style="enable-background:new 0 0 130 130;" xml:space="preserve">
<style type="text/css">
	.st0{fill:none;stroke:#3095B4;stroke-width:2;stroke-linecap:round;stroke-miterlimit:10;}
	.st1{fill:none;stroke:#025172;stroke-width:2;stroke-linecap:round;stroke-miterlimit:10;}
	.st2{fill:none;stroke:#3094B4;stroke-width:2;stroke-linecap:round;stroke-linejoin:round;stroke-miterlimit:10;}
</style>
<g>
	<path class="st0" d="M9.5,31.3C20.8,13,41,0.8,64.1,0.8c10.2,0,19.9,2.4,28.5,6.7"/>
	<path class="st1" d="M97.8,11c18.3,11.3,30.6,31.5,30.6,54.6c0,10.2-2.4,19.9-6.7,28.5"/>
	<path class="st0" d="M118.2,98.2c-11.3,18.3-31.5,30.6-54.6,30.6c-10.2,0-19.9-2.4-28.5-6.7"/>
	<path class="st1" d="M30.9,119.6C12.6,108.3,0.3,88.1,0.3,65c0-10.2,2.4-19.9,6.7-28.5"/>
</g>
<g>
	<path class="st2" d="M77.3,34.5c8.3,4.8,13.8,13.6,13.8,23.8c0,15.3-12.5,27.8-27.8,27.8c-5.1,0-9.8-1.6-13.9-4"/>
	<circle class="st2" cx="63.4" cy="58.3" r="19.8"/>
	<line class="st2" x1="63" y1="86" x2="63" y2="94"/>
	<line class="st2" x1="71" y1="94" x2="55" y2="94"/>
</g>
</svg>
