<?xml version="1.0" encoding="utf-8"?>
<!-- Generator: Adobe Illustrator 19.1.0, SVG Export Plug-In . SVG Version: 6.00 Build 0)  -->
<svg version="1.1" id="Layer_1" xmlns="http://www.w3.org/2000/svg" xmlns:xlink="http://www.w3.org/1999/xlink" x="0px" y="0px"
	 viewBox="0 0 130 130" style="enable-background:new 0 0 130 130;" xml:space="preserve">
<style type="text/css">
	.st0{fill:none;stroke:#3095B4;stroke-width:2;stroke-linecap:round;stroke-miterlimit:10;}
	.st1{fill:none;stroke:#025172;stroke-width:2;stroke-linecap:round;stroke-miterlimit:10;}
	.st2{fill:none;stroke:#3095B4;stroke-width:2;stroke-linecap:round;stroke-linejoin:round;stroke-miterlimit:10;}
</style>
<g>
	<path class="st0" d="M10.3,32.4C21.5,14,41.7,1.8,64.8,1.8c10.2,0,19.9,2.4,28.5,6.7"/>
	<path class="st1" d="M98.5,12c18.3,11.3,30.6,31.5,30.6,54.6c0,10.2-2.4,19.9-6.7,28.5"/>
	<path class="st0" d="M118.9,99.3c-11.3,18.3-31.5,30.6-54.6,30.6c-10.2,0-19.9-2.4-28.5-6.7"/>
	<path class="st1" d="M31.6,120.6C13.3,109.4,1.1,89.1,1.1,66c0-10.2,2.4-19.9,6.7-28.5"/>
</g>
<g>
	<path class="st2" d="M32.7,69.7c0-4.3,2.1-6.4,12.8-6.4c6.4,0,15,2.1,15,6.4c0,4.3-4.3,15-12.8,15c0,0,2.1,0-2.1,0
		C32.7,84.7,32.7,74,32.7,69.7z"/>
	<path class="st2" d="M32.7,67.6l10.7-19.2c0,0,4-5.9,10.7,2.1"/>
	<path class="st2" d="M96.8,69.7c0-4.3-2.1-6.4-12.8-6.4c-6.4,0-15,2.1-15,6.4c0,4.3,4.3,15,12.8,15c0,0-2.1,0,2.1,0
		C96.8,84.7,96.8,74,96.8,69.7z"/>
	<path class="st2" d="M96.8,67.6L86.1,48.3c0,0-4-5.9-10.7,2.1"/>
	<path class="st2" d="M60.5,71.8c0,0,0-2.1,4.3-2.1s4.3,2.1,4.3,2.1"/>
</g>
</svg>
