<?xml version="1.0" encoding="utf-8"?>
<!-- Generator: Adobe Illustrator 19.1.0, SVG Export Plug-In . SVG Version: 6.00 Build 0)  -->
<svg version="1.1" id="Layer_1" xmlns="http://www.w3.org/2000/svg" xmlns:xlink="http://www.w3.org/1999/xlink" x="0px" y="0px"
	 viewBox="0 0 130 130" style="enable-background:new 0 0 130 130;" xml:space="preserve">
<style type="text/css">
	.st0{fill:none;stroke:#3095B4;stroke-width:2;stroke-linecap:round;stroke-miterlimit:10;}
	.st1{fill:none;stroke:#025172;stroke-width:2;stroke-linecap:round;stroke-miterlimit:10;}
	.st2{fill:none;stroke:#4296B4;stroke-width:2;stroke-linecap:round;stroke-linejoin:round;stroke-miterlimit:10;}
</style>
<g>
	<path class="st0" d="M10,31.2C21.2,12.9,41.4,0.6,64.5,0.6C74.7,0.6,84.4,3,93,7.3"/>
	<path class="st1" d="M98.2,10.8c18.3,11.3,30.6,31.5,30.6,54.6c0,10.2-2.4,19.9-6.7,28.5"/>
	<path class="st0" d="M118.6,98.1c-11.3,18.3-31.5,30.6-54.6,30.6c-10.2,0-19.9-2.4-28.5-6.7"/>
	<path class="st1" d="M31.3,119.4C13,108.2,0.8,87.9,0.8,64.9c0-10.2,2.4-19.9,6.7-28.5"/>
</g>
<g>
	<g>
		<path class="st2" d="M91.4,63.7v22c0,0.6-0.4,1-1,1H39.2c-0.5,0-1-0.4-1-1v-22"/>
	</g>
	<polyline class="st2" points="38.2,63.7 43.5,44.2 86,44.2 91.4,63.7 	"/>
	<path class="st2" d="M38.2,63.7h17.7c0,4.9,4,8.9,8.9,8.9c4.9,0,8.9-4,8.9-8.9h17.7"/>
</g>
</svg>
