<?xml version="1.0" encoding="utf-8"?>
<!-- Generator: Adobe Illustrator 19.1.0, SVG Export Plug-In . SVG Version: 6.00 Build 0)  -->
<svg version="1.1" id="Layer_1" xmlns="http://www.w3.org/2000/svg" xmlns:xlink="http://www.w3.org/1999/xlink" x="0px" y="0px"
	 viewBox="0 0 65 65" style="enable-background:new 0 0 65 65;" xml:space="preserve">
<style type="text/css">
	.st0{fill:none;stroke:#3094B4;stroke-width:2;stroke-linecap:round;stroke-linejoin:round;stroke-miterlimit:10;}
</style>
<g>
	<path class="st0" d="M48.6,25.1c4.6,0,8.3-3.7,8.3-8.3s-3.7-8.3-8.3-8.3c-4.6,0-8.3,3.7-8.3,8.3"/>
	<g>
		<path class="st0" d="M40.3,16.8l-6-6c-1.3-1.3-3.4-1.3-4.7,0l-3.6,3.6c-1.3,1.3-1,3,0.7,3.7c0,0,5.3,2.4,5.3,6.9
			c0,4.6-3.7,8.3-8.3,8.3c-4.6,0-6.9-5.3-6.9-5.3c-0.7-1.7-2.4-2-3.7-0.7l-3.6,3.6c-1.3,1.3-1.3,3.4,0,4.7L29.7,56
			c1.3,1.3,3.4,1.3,4.7,0l20.2-20.2c1.3-1.3,1.3-3.4,0-4.7l-6-6"/>
	</g>
</g>
</svg>
