<?xml version="1.0" encoding="utf-8"?>
<!-- Generator: Adobe Illustrator 19.1.0, SVG Export Plug-In . SVG Version: 6.00 Build 0)  -->
<svg version="1.1" id="Layer_1" xmlns="http://www.w3.org/2000/svg" xmlns:xlink="http://www.w3.org/1999/xlink" x="0px" y="0px"
	 viewBox="0 0 130 130" style="enable-background:new 0 0 130 130;" xml:space="preserve">
<style type="text/css">
	.st0{fill:none;stroke:#3095B4;stroke-width:2;stroke-linecap:round;stroke-miterlimit:10;}
	.st1{fill:none;stroke:#025172;stroke-width:2;stroke-linecap:round;stroke-miterlimit:10;}
	.st2{fill:none;stroke:#3094B4;stroke-width:2;stroke-linecap:round;stroke-linejoin:round;stroke-miterlimit:10;}
</style>
<g>
	<path class="st0" d="M10.1,32.1C21.3,13.8,41.6,1.6,64.7,1.6c10.2,0,19.9,2.4,28.5,6.7"/>
	<path class="st1" d="M98.3,11.8c18.3,11.3,30.6,31.5,30.6,54.6c0,10.2-2.4,19.9-6.7,28.5"/>
	<path class="st0" d="M118.7,99c-11.3,18.3-31.5,30.6-54.6,30.6c-10.2,0-19.9-2.4-28.5-6.7"/>
	<path class="st1" d="M31.4,120.4C13.1,109.1,0.9,88.9,0.9,65.8c0-10.2,2.4-19.9,6.7-28.5"/>
</g>
<g>
	<path class="st2" d="M65,36.4c-6,0-13.8,4.9-14.9,11.3L50.3,59c0,0,0,10.9,7.5,17L37,87.4v3.8c0,1,1,1.8,2.1,1.8h52.9
		c1,0,1.1-0.8,1.1-1.8v-3.8v0L72.6,76c7.6-6.1,7.8-17,7.8-17l-0.2-11.3C79.2,41.3,72,36.4,65,36.4L65,36.4z"/>
</g>
</svg>
