<?xml version="1.0" encoding="utf-8"?>
<!-- Generator: Adobe Illustrator 19.1.0, SVG Export Plug-In . SVG Version: 6.00 Build 0)  -->
<svg version="1.1" id="Layer_1" xmlns="http://www.w3.org/2000/svg" xmlns:xlink="http://www.w3.org/1999/xlink" x="0px" y="0px"
	 viewBox="0 0 130 130" style="enable-background:new 0 0 130 130;" xml:space="preserve">
<style type="text/css">
	.st0{fill:none;stroke:#3095B4;stroke-width:2;stroke-linecap:round;stroke-miterlimit:10;}
	.st1{fill:none;stroke:#025172;stroke-width:2;stroke-linecap:round;stroke-miterlimit:10;}
	.st2{fill:none;stroke:#3094B4;stroke-width:2;stroke-linecap:round;stroke-linejoin:round;stroke-miterlimit:10;}
</style>
<g>
	<path class="st0" d="M9.9,31C21.2,12.7,41.4,0.5,64.5,0.5c10.2,0,19.9,2.4,28.5,6.7"/>
	<path class="st1" d="M98.2,10.7c18.3,11.3,30.6,31.5,30.6,54.6c0,10.2-2.4,19.9-6.7,28.5"/>
	<path class="st0" d="M118.5,97.9c-11.3,18.3-31.5,30.6-54.6,30.6c-10.2,0-19.9-2.4-28.5-6.7"/>
	<path class="st1" d="M31.3,119.3C12.9,108,0.7,87.8,0.7,64.7c0-10.2,2.4-19.9,6.7-28.5"/>
</g>
<g>
	<path class="st2" d="M81.8,56.3c4.9,0,8.9-4,8.9-8.9s-4-8.9-8.9-8.9c-4.9,0-8.9,4-8.9,8.9"/>
	<g>
		<path class="st2" d="M72.9,47.4L66.5,41c-1.4-1.4-3.7-1.4-5,0l-3.9,3.9c-1.4,1.4-1.1,3.2,0.7,4c0,0,5.7,2.5,5.7,7.4
			c0,4.9-4,8.9-8.9,8.9c-4.9,0-7.4-5.7-7.4-5.7c-0.8-1.8-2.6-2.1-4-0.7l-3.9,3.9c-1.4,1.4-1.4,3.7,0,5l21.7,21.7
			c1.4,1.4,3.7,1.4,5,0l21.7-21.7c1.4-1.4,1.4-3.7,0-5l-6.4-6.4"/>
	</g>
</g>
</svg>
