<?xml version="1.0" encoding="utf-8"?>
<!-- Generator: Adobe Illustrator 19.1.0, SVG Export Plug-In . SVG Version: 6.00 Build 0)  -->
<svg version="1.1" id="Layer_1" xmlns="http://www.w3.org/2000/svg" xmlns:xlink="http://www.w3.org/1999/xlink" x="0px" y="0px"
	 viewBox="0 0 130 130" style="enable-background:new 0 0 130 130;" xml:space="preserve">
<style type="text/css">
	.st0{fill:none;stroke:#3095B4;stroke-width:2;stroke-linecap:round;stroke-miterlimit:10;}
	.st1{fill:none;stroke:#025172;stroke-width:2;stroke-linecap:round;stroke-miterlimit:10;}
	.st2{fill:none;stroke:#3094B4;stroke-width:2;stroke-linecap:round;stroke-linejoin:round;stroke-miterlimit:10;}
</style>
<g>
	<path class="st0" d="M10.4,31.6C21.6,13.3,41.9,1.1,65,1.1c10.2,0,19.9,2.4,28.5,6.7"/>
	<path class="st1" d="M98.6,11.2c18.3,11.3,30.6,31.5,30.6,54.6c0,10.2-2.4,19.9-6.7,28.5"/>
	<path class="st0" d="M119,98.5c-11.3,18.3-31.5,30.6-54.6,30.6c-10.2,0-19.9-2.4-28.5-6.7"/>
	<path class="st1" d="M31.7,119.9C13.4,108.6,1.2,88.4,1.2,65.3c0-10.2,2.4-19.9,6.7-28.5"/>
</g>
<g>
	<polygon class="st2" points="38.3,61.9 92.1,38.2 68.9,91.9 57.1,73.2 	"/>
	<line class="st2" x1="57" y1="73.2" x2="92.1" y2="38.2"/>
</g>
</svg>
