<?xml version="1.0" encoding="utf-8"?>
<!-- Generator: Adobe Illustrator 19.1.0, SVG Export Plug-In . SVG Version: 6.00 Build 0)  -->
<svg version="1.1" id="Layer_1" xmlns="http://www.w3.org/2000/svg" xmlns:xlink="http://www.w3.org/1999/xlink" x="0px" y="0px"
	 viewBox="0 0 130 130" style="enable-background:new 0 0 130 130;" xml:space="preserve">
<style type="text/css">
	.st0{fill:none;stroke:#3095B4;stroke-width:2;stroke-linecap:round;stroke-miterlimit:10;}
	.st1{fill:none;stroke:#025172;stroke-width:2;stroke-linecap:round;stroke-miterlimit:10;}
	.st2{fill:none;stroke:#3094B4;stroke-width:2;stroke-linecap:round;stroke-linejoin:round;stroke-miterlimit:10;}
</style>
<g>
	<path class="st0" d="M10.4,31.9C21.7,13.5,41.9,1.3,65,1.3c10.2,0,19.9,2.4,28.5,6.7"/>
	<path class="st1" d="M98.7,11.5C117,22.7,129.2,43,129.2,66.1c0,10.2-2.4,19.9-6.7,28.5"/>
	<path class="st0" d="M119.1,98.7c-11.3,18.3-31.5,30.6-54.6,30.6c-10.2,0-19.9-2.4-28.5-6.7"/>
	<path class="st1" d="M31.8,120.1C13.5,108.8,1.2,88.6,1.2,65.5c0-10.2,2.4-19.9,6.7-28.5"/>
</g>
<g>
	<rect x="75" y="40" class="st2" width="12" height="51"/>
	
		<rect x="38.8" y="67" transform="matrix(1 -1.891996e-003 1.891996e-003 1 -0.1491 8.482194e-002)" class="st2" width="11.9" height="23.7"/>
	<rect x="57" y="57" class="st2" width="12" height="34"/>
</g>
</svg>
