<?xml version="1.0" encoding="utf-8"?>
<!-- Generator: Adobe Illustrator 19.1.0, SVG Export Plug-In . SVG Version: 6.00 Build 0)  -->
<svg version="1.1" id="Layer_1" xmlns="http://www.w3.org/2000/svg" xmlns:xlink="http://www.w3.org/1999/xlink" x="0px" y="0px"
	 viewBox="0 0 65 65" style="enable-background:new 0 0 65 65;" xml:space="preserve">
<style type="text/css">
	.st0{fill:none;stroke:#3094B4;stroke-width:2;stroke-linecap:round;stroke-linejoin:round;stroke-miterlimit:10;}
</style>
<g>
	<g>
		<g>
			<path class="st0" d="M33.2,53.6c-5.5,0-6.2-4.5-6.2-4.5v-8.4c0,0,0-2.6-1-3.5v0c-4-3-6.8-7.2-6.8-12.6c0-8.1,6.3-14.7,14.1-14.7"
				/>
		</g>
		<g>
			<path class="st0" d="M33.2,53.6c5.5,0,6.2-4.5,6.2-4.5v-8.4c0,0,0-2.6,1-3.5v0c4-3,6.8-7.2,6.8-12.6c0-8.1-6.3-14.7-14.1-14.7"/>
		</g>
		<path class="st0" d="M27,42.7c0,0,6.3,3.5,12.5,0"/>
	</g>
</g>
</svg>
