<?xml version="1.0" encoding="utf-8"?>
<!-- Generator: Adobe Illustrator 19.1.0, SVG Export Plug-In . SVG Version: 6.00 Build 0)  -->
<svg version="1.1" id="Layer_1" xmlns="http://www.w3.org/2000/svg" xmlns:xlink="http://www.w3.org/1999/xlink" x="0px" y="0px"
	 viewBox="0 0 130 130" style="enable-background:new 0 0 130 130;" xml:space="preserve">
<style type="text/css">
	.st0{fill:none;stroke:#3095B4;stroke-width:2;stroke-linecap:round;stroke-miterlimit:10;}
	.st1{fill:none;stroke:#025172;stroke-width:2;stroke-linecap:round;stroke-miterlimit:10;}
	.st2{fill:none;stroke:#3094B4;stroke-width:2;stroke-miterlimit:10;}
	.st3{fill:none;stroke:#3094B4;stroke-width:2;stroke-linecap:round;stroke-linejoin:round;stroke-miterlimit:10;}
</style>
<g>
	<path class="st0" d="M10.7,31.1C22,12.8,42.2,0.6,65.3,0.6c10.2,0,19.9,2.4,28.5,6.7"/>
	<path class="st1" d="M98.9,10.8c18.3,11.3,30.6,31.5,30.6,54.6c0,10.2-2.4,19.9-6.7,28.5"/>
	<path class="st0" d="M119.3,98c-11.3,18.3-31.5,30.6-54.6,30.6c-10.2,0-19.9-2.4-28.5-6.7"/>
	<path class="st1" d="M32.1,119.4C13.7,108.1,1.5,87.9,1.5,64.8c0-10.2,2.4-19.9,6.7-28.5"/>
</g>
<g>
	<line class="st2" x1="47.2" y1="62.3" x2="58.4" y2="75.9"/>
	<line class="st2" x1="66.9" y1="74.4" x2="83" y2="54.5"/>
	<circle class="st3" cx="62.6" cy="79.4" r="6"/>
	<circle class="st3" cx="43.4" cy="57.8" r="6"/>
	<circle class="st3" cx="87.6" cy="49.8" r="6"/>
</g>
</svg>
