<?xml version="1.0" encoding="utf-8"?>
<!-- Generator: Adobe Illustrator 19.1.0, SVG Export Plug-In . SVG Version: 6.00 Build 0)  -->
<svg version="1.1" xmlns="http://www.w3.org/2000/svg" xmlns:xlink="http://www.w3.org/1999/xlink" x="0px" y="0px"
	 viewBox="0 0 105 262" style="enable-background:new 0 0 105 262;" xml:space="preserve">
<style type="text/css">
	.st0{fill:none;stroke:#025172;stroke-width:0.7097;stroke-linecap:round;stroke-linejoin:round;stroke-miterlimit:10;}
	.st1{fill:none;stroke:#025172;stroke-width:0.7141;stroke-linecap:round;stroke-linejoin:round;stroke-miterlimit:10;}
	.st2{fill:none;stroke:#025172;stroke-width:0.6655;stroke-linecap:round;stroke-linejoin:round;stroke-miterlimit:10;}
	.st3{fill:none;stroke:#025172;stroke-width:0.4831;stroke-linecap:round;stroke-miterlimit:10;}
	.st4{fill:none;stroke:#3095B4;stroke-width:0.4831;stroke-linecap:round;stroke-miterlimit:10;}
	.st5{fill:none;stroke:#025172;stroke-width:0.4869;stroke-linecap:round;stroke-linejoin:round;stroke-miterlimit:10;}
	.st6{fill:none;stroke:#025172;stroke-width:0.411;stroke-linecap:round;stroke-linejoin:round;stroke-miterlimit:10;}
	.st7{fill:none;stroke:#025172;stroke-width:0.4818;stroke-linecap:round;stroke-linejoin:round;stroke-miterlimit:10;}
	.st8{fill:#3095B4;}
	.st9{fill:none;stroke:#FFFFFF;stroke-width:0.7097;stroke-linecap:round;stroke-linejoin:round;stroke-miterlimit:10;}
	.st10{fill:none;stroke:#FFFFFF;stroke-width:0.7141;stroke-linecap:round;stroke-linejoin:round;stroke-miterlimit:10;}
	.st11{fill:none;stroke:#FFFFFF;stroke-width:0.6655;stroke-linecap:round;stroke-linejoin:round;stroke-miterlimit:10;}
	.st12{fill:none;stroke:#FFFFFF;stroke-width:0.4831;stroke-linecap:round;stroke-miterlimit:10;}
	.st13{fill:none;stroke:#FFFFFF;stroke-width:0.4869;stroke-linecap:round;stroke-linejoin:round;stroke-miterlimit:10;}
	.st14{fill:none;stroke:#FFFFFF;stroke-width:0.411;stroke-linecap:round;stroke-linejoin:round;stroke-miterlimit:10;}
	.st15{fill:none;stroke:#FFFFFF;stroke-width:0.4818;stroke-linecap:round;stroke-linejoin:round;stroke-miterlimit:10;}
	.st16{fill:#FFFFFF;}
	.st17{fill:none;stroke:#000000;stroke-width:0.7097;stroke-linecap:round;stroke-linejoin:round;stroke-miterlimit:10;}
	.st18{fill:none;stroke:#000000;stroke-width:0.7141;stroke-linecap:round;stroke-linejoin:round;stroke-miterlimit:10;}
	.st19{fill:none;stroke:#000000;stroke-width:0.6655;stroke-linecap:round;stroke-linejoin:round;stroke-miterlimit:10;}
	.st20{fill:none;stroke:#000000;stroke-width:0.4831;stroke-linecap:round;stroke-miterlimit:10;}
	.st21{fill:none;stroke:#000000;stroke-width:0.4869;stroke-linecap:round;stroke-linejoin:round;stroke-miterlimit:10;}
	.st22{fill:none;stroke:#000000;stroke-width:0.411;stroke-linecap:round;stroke-linejoin:round;stroke-miterlimit:10;}
	.st23{fill:none;stroke:#000000;stroke-width:0.4818;stroke-linecap:round;stroke-linejoin:round;stroke-miterlimit:10;}
</style>
<g id="blue">
	<g id="phone">
		<path class="st0" d="M20.4,17c0-0.1-0.1-0.2-0.1-0.2c-0.3-0.8-4.2-1.9-4.6-1.9c-0.1,0-0.2,0-0.3,0c-0.5,0.1-1.1,0.6-2.4,1.7
			c-1.4-0.6-3.3-2.4-4.2-3.4c-1-1.1-2.2-2.9-2.6-4.3c1.4-1.3,2-1.8,2-2.4c0-0.3-0.7-4.4-1.4-4.8c-0.1,0-0.1-0.1-0.2-0.1
			C6.3,1.3,5.6,0.9,4.8,1c-0.2,0-0.4,0.1-0.5,0.2C3.8,1.6,2.5,2.4,2,3.6c-0.3,0.7-0.5,7.1,4.3,12.6c4.8,5.4,10.6,5.6,11.5,5.4l0,0
			l0.1,0c1.2-0.4,2.2-1.6,2.6-2C21.1,18.6,20.7,17.6,20.4,17z"/>
	</g>
	<g id="chat">
		<g>
			<path class="st1" d="M33.5,36.3c0,0.9-0.7,1.6-1.6,1.6H31v3.4l-3.3-3.4H16.8c-0.9,0-1.6-0.7-1.6-1.6v-8.4c0-0.9,0.7-1.6,1.6-1.6
				h15c0.9,0,1.6,0.7,1.6,1.6V36.3z"/>
			<path class="st1" d="M22.1,37c0,3.5-2.9,6.4-6.4,6.4h-2.3L8.5,47v-3.6H7.9c-3.5,0-6.4-2.9-6.4-6.4v-0.6c0-3.5,2.9-6.4,6.4-6.4
				h7.8c3.5,0,6.4,2.9,6.4,6.4V37z"/>
		</g>
	</g>
	<g id="pencil">
		<g>
			<path class="st2" d="M4.2,63l4.6,4.6l11.1-11.1l-4.6-4.6L4.2,63z M2.3,69.4l6.5-1.8L4.2,63L2.3,69.4z M21.3,53.4l-2.9-2.9
				c-0.5-0.5-1.3-0.5-1.8,0.1l-1.4,1.4l4.6,4.6l1.4-1.4C21.8,54.6,21.8,53.8,21.3,53.4z"/>
		</g>
	</g>
	<g id="phone_circle">
		<g>
			<path class="st3" d="M14.2,101.7C7.1,100.7,1.8,94.3,2,87"/>
			<path class="st4" d="M30.4,89.7c-1.1,7.1-7.3,12.3-14.4,12.2"/>
			<path class="st3" d="M18.4,73.5c7.1,1.1,12.3,7.4,12.2,14.8"/>
			<path class="st4" d="M2.1,85.5c1.1-7.1,7.3-12.3,14.4-12.2"/>
		</g>
		<path class="st5" d="M22.2,92.2c0-0.1-0.1-0.1-0.1-0.2c-0.2-0.5-2.9-1.3-3.1-1.3c-0.1,0-0.1,0-0.2,0c-0.4,0.1-0.8,0.4-1.6,1.2
			c-1-0.4-2.3-1.6-2.9-2.3c-0.7-0.8-1.5-2-1.8-3c1-0.9,1.4-1.2,1.4-1.6c0-0.2-0.4-3-0.9-3.3c0,0-0.1-0.1-0.1-0.1
			c-0.3-0.2-0.8-0.5-1.3-0.4c-0.1,0-0.2,0.1-0.4,0.1c-0.4,0.2-1.2,0.8-1.6,1.6c-0.2,0.5-0.3,4.9,3,8.6c3.3,3.7,7.3,3.8,7.9,3.7l0,0
			l0.1,0c0.8-0.3,1.5-1.1,1.8-1.4C22.8,93.3,22.4,92.6,22.2,92.2z"/>
	</g>
	<g id="chat_circle_copy">
		<g>
			<path class="st3" d="M14.4,132.9c-7.1-1.1-12.4-7.4-12.2-14.8"/>
			<path class="st4" d="M30.5,120.9c-1.1,7.1-7.3,12.3-14.4,12.2"/>
			<path class="st3" d="M18.5,104.8c7.1,1.1,12.3,7.4,12.2,14.8"/>
			<path class="st4" d="M2.3,116.8c1.1-7.1,7.3-12.3,14.4-12.2"/>
		</g>
		<g>
			<path class="st6" d="M25.8,119.9c0,0.5-0.4,0.9-0.9,0.9h-0.5v2l-1.9-2h-6.3c-0.5,0-0.9-0.4-0.9-0.9v-4.8c0-0.5,0.4-0.9,0.9-0.9
				h8.7c0.5,0,0.9,0.4,0.9,0.9V119.9z"/>
			<path class="st6" d="M19.2,120.4c0,2-1.7,3.7-3.7,3.7h-1.3l-2.8,2.1v-2.1h-0.3c-2,0-3.7-1.7-3.7-3.7V120c0-2,1.7-3.7,3.7-3.7h4.5
				c2,0,3.7,1.7,3.7,3.7V120.4z"/>
		</g>
	</g>
	<g id="pencil_circle">
		<g>
			<path class="st3" d="M14.8,164.8c-7.1-1.1-12.4-7.4-12.2-14.8"/>
			<path class="st4" d="M31,152.8c-1.1,7.1-7.3,12.3-14.4,12.2"/>
			<path class="st3" d="M19,136.7c7.1,1.1,12.3,7.4,12.2,14.8"/>
			<path class="st4" d="M2.8,148.7c1.1-7.1,7.3-12.3,14.4-12.2"/>
		</g>
		<g>
			<path class="st7" d="M11.2,152.4l3.3,3.3l8-8l-3.3-3.3L11.2,152.4z M9.9,157.1l4.7-1.3l-3.3-3.3L9.9,157.1z M23.6,145.5l-2.1-2.1
				c-0.3-0.3-0.9-0.3-1.3,0l-1,1l3.3,3.3l1-1C23.9,146.4,23.9,145.8,23.6,145.5z"/>
		</g>
	</g>
	<path id="lt_blue_phone" class="st8" d="M20,197.8c-0.1,0-0.2,0-0.4,0c-1.6-0.1-3.2-0.9-4.3-2.2C11,190.1,7,184.2,3.8,178
		c-0.8-1.5-0.9-3.3-0.4-4.8c0.5-1.4,1.5-2.5,2.8-3.1l1.7-0.8c1.2-0.6,2.7,0,3.3,1.2c0.7,1.4,1.4,2.8,2.2,4.2
		c0.7,1.2,0.2,2.7-0.9,3.4l-1.7,0.9c-0.1,0.1-0.3,0.2-0.3,0.4c-0.1,0.2,0,0.4,0.1,0.6c1.7,2.9,3.6,5.7,5.5,8.3
		c0.1,0.2,0.3,0.3,0.5,0.3c0.2,0,0.3,0,0.5-0.1l1.5-1.2c1.1-0.8,2.7-0.6,3.5,0.5c1,1.2,2,2.5,3,3.6c0.9,1,0.8,2.6-0.2,3.5l-1.4,1.3
		C22.7,197.3,21.4,197.8,20,197.8z M9,170.3c-0.2,0-0.4,0-0.5,0.1l-1.7,0.8c-1,0.5-1.8,1.3-2.2,2.4c-0.4,1.2-0.3,2.6,0.3,3.9
		c3.2,6.1,7.1,11.9,11.5,17.3c0.9,1.1,2.1,1.7,3.4,1.8c1.2,0.1,2.3-0.3,3.1-1.1l1.4-1.3c0.5-0.5,0.6-1.3,0.1-1.9
		c-1.1-1.2-2.1-2.4-3.1-3.7c-0.5-0.6-1.3-0.7-1.9-0.3l-1.5,1.2c-0.4,0.3-0.9,0.4-1.4,0.4c-0.5-0.1-1-0.3-1.3-0.8
		c-2-2.7-3.9-5.5-5.6-8.4c-0.3-0.5-0.3-1-0.2-1.5c0.1-0.5,0.4-0.9,0.9-1.1l1.6-0.9c0.6-0.4,0.8-1.2,0.5-1.8
		c-0.8-1.4-1.5-2.8-2.2-4.3C10,170.6,9.5,170.3,9,170.3z"/>
	<g id="lt_blue_chat">
		<path class="st8" d="M6.2,218.7c-0.9,0-1.7-0.3-2.5-0.7c-0.2-0.1-0.4-0.4-0.3-0.7c0-0.3,0.2-0.5,0.4-0.7c0.9-0.5,1.5-1.4,1.8-2.4
			c-0.9-1.5-1.4-3.2-1.4-4.9c0-5.2,4.2-9.4,9.3-9.4c4.2,0,7.8,2.8,8.9,6.9l-1.5,0.4c-0.9-3.4-4-5.7-7.5-5.7c-4.3,0-7.7,3.5-7.7,7.8
			c0,1.6,0.5,3.1,1.3,4.4c0.1,0.2,0.2,0.4,0.1,0.6c-0.2,1.1-0.7,2.1-1.4,2.9c1,0.2,2-0.2,2.7-1c0.2-0.3,0.7-0.3,1-0.1
			c0.6,0.4,1.3,0.7,2,0.9l-0.4,1.5c-0.6-0.2-1.3-0.4-1.8-0.7C8.3,218.3,7.3,218.7,6.2,218.7z"/>
		<path class="st8" d="M30.6,228.8c-1.2,0-2.3-0.4-3.2-1.2c-1.5,0.8-3.1,1.2-4.7,1.2c-5.5,0-10.1-4.6-10.1-10.2s4.5-10.2,10.1-10.2
			s10.1,4.6,10.1,10.2c0,1.9-0.5,3.8-1.5,5.4c0.3,1.1,1,2.1,2,2.7c0.2,0.1,0.4,0.4,0.4,0.7c0,0.3-0.1,0.5-0.4,0.7
			C32.5,228.6,31.6,228.8,30.6,228.8z M27.6,225.9c0.2,0,0.4,0.1,0.6,0.3c0.8,0.9,2,1.3,3.1,1.1c-0.9-0.8-1.4-1.9-1.6-3.2
			c0-0.2,0-0.4,0.1-0.6c0.9-1.4,1.4-3.1,1.4-4.8c0-4.7-3.8-8.6-8.5-8.6s-8.5,3.9-8.5,8.6s3.8,8.6,8.5,8.6c1.6,0,3.1-0.4,4.5-1.3
			C27.3,225.9,27.4,225.9,27.6,225.9z"/>
	</g>
	<g id="lt_blue_pencil">
		<path class="st8" d="M23.1,258.1H6.8c-1.9,0-3.4-1.5-3.4-3.4v-16.4c0-1.9,1.5-3.4,3.4-3.4h9.5v1.4H6.8c-1.1,0-2,0.9-2,2.1v16.4
			c0,1.1,0.9,2.1,2,2.1h16.3c1.1,0,2-0.9,2-2.1v-9.6h1.4v9.6C26.5,256.6,24.9,258.1,23.1,258.1z"/>
		<path class="st8" d="M14.9,247.2c-0.2,0-0.4-0.1-0.5-0.2c-0.2-0.2-0.2-0.4-0.2-0.6l1-3.9c0-0.1,0.1-0.2,0.2-0.3l9.1-9.2
			c1-1,2.8-1,3.8,0c0.5,0.5,0.8,1.2,0.8,1.9c0,0.7-0.3,1.4-0.8,1.9l-9.1,9.2c-0.1,0.1-0.2,0.1-0.3,0.2l-3.8,1
			C15.1,247.2,15,247.2,14.9,247.2z M16.5,243l-0.6,2.6l2.6-0.6l9-9c0.3-0.3,0.4-0.6,0.4-1s-0.1-0.7-0.4-1c-0.5-0.5-1.4-0.5-1.9,0
			L16.5,243z"/>
		<polygon class="st8" points="26.4,237.8 23.6,234.9 24.5,233.9 27.4,236.8 		"/>
	</g>
</g>
<g id="white">
	<g id="phone_copy">
		<path class="st9" d="M55.4,17c0-0.1-0.1-0.2-0.1-0.2c-0.3-0.8-4.2-1.9-4.6-1.9c-0.1,0-0.2,0-0.3,0c-0.5,0.1-1.1,0.6-2.4,1.7
			c-1.4-0.6-3.3-2.4-4.2-3.4c-1-1.1-2.2-2.9-2.6-4.3c1.4-1.3,2-1.8,2-2.4c0-0.3-0.7-4.4-1.4-4.8c-0.1,0-0.1-0.1-0.2-0.1
			c-0.4-0.3-1.1-0.7-1.9-0.6c-0.2,0-0.4,0.1-0.5,0.2c-0.5,0.3-1.8,1.2-2.3,2.3c-0.3,0.7-0.5,7.1,4.3,12.6c4.8,5.4,10.6,5.6,11.5,5.4
			l0,0l0.1,0c1.2-0.4,2.2-1.6,2.6-2C56.1,18.6,55.7,17.6,55.4,17z"/>
	</g>
	<g id="chat_copy">
		<g>
			<path class="st10" d="M68.5,36.3c0,0.9-0.7,1.6-1.6,1.6H66v3.4l-3.3-3.4H51.8c-0.9,0-1.6-0.7-1.6-1.6v-8.4c0-0.9,0.7-1.6,1.6-1.6
				h15c0.9,0,1.6,0.7,1.6,1.6V36.3z"/>
			<path class="st10" d="M57.1,37c0,3.5-2.9,6.4-6.4,6.4h-2.3L43.5,47v-3.6h-0.5c-3.5,0-6.4-2.9-6.4-6.4v-0.6c0-3.5,2.9-6.4,6.4-6.4
				h7.8c3.5,0,6.4,2.9,6.4,6.4V37z"/>
		</g>
	</g>
	<g id="pencil_copy">
		<g>
			<path class="st11" d="M39.2,63l4.6,4.6l11.1-11.1l-4.6-4.6L39.2,63z M37.3,69.4l6.5-1.8L39.2,63L37.3,69.4z M56.3,53.4l-2.9-2.9
				c-0.5-0.5-1.3-0.5-1.8,0.1l-1.4,1.4l4.6,4.6l1.4-1.4C56.8,54.6,56.8,53.8,56.3,53.4z"/>
		</g>
	</g>
	<g id="phone_circle_copy">
		<g>
			<path class="st12" d="M49.2,101.7C42.1,100.7,36.8,94.3,37,87"/>
			<path class="st12" d="M65.4,89.7c-1.1,7.1-7.3,12.3-14.4,12.2"/>
			<path class="st12" d="M53.4,73.5c7.1,1.1,12.3,7.4,12.2,14.8"/>
			<path class="st12" d="M37.1,85.5c1.1-7.1,7.3-12.3,14.4-12.2"/>
		</g>
		<path class="st13" d="M57.2,92.2c0-0.1-0.1-0.1-0.1-0.2c-0.2-0.5-2.9-1.3-3.1-1.3c-0.1,0-0.1,0-0.2,0c-0.4,0.1-0.8,0.4-1.6,1.2
			c-1-0.4-2.3-1.6-2.9-2.3c-0.7-0.8-1.5-2-1.8-3c1-0.9,1.4-1.2,1.4-1.6c0-0.2-0.4-3-0.9-3.3c0,0-0.1-0.1-0.1-0.1
			c-0.3-0.2-0.8-0.5-1.3-0.4c-0.1,0-0.2,0.1-0.4,0.1c-0.4,0.2-1.2,0.8-1.6,1.6c-0.2,0.5-0.3,4.9,3,8.6c3.3,3.7,7.3,3.8,7.9,3.7l0,0
			l0.1,0c0.8-0.3,1.5-1.1,1.8-1.4C57.8,93.3,57.4,92.6,57.2,92.2z"/>
	</g>
	<g id="chat_circle_copy_2">
		<g>
			<path class="st12" d="M49.4,132.9c-7.1-1.1-12.4-7.4-12.2-14.8"/>
			<path class="st12" d="M65.5,120.9c-1.1,7.1-7.3,12.3-14.4,12.2"/>
			<path class="st12" d="M53.5,104.8c7.1,1.1,12.3,7.4,12.2,14.8"/>
			<path class="st12" d="M37.3,116.8c1.1-7.1,7.3-12.3,14.4-12.2"/>
		</g>
		<g>
			<path class="st14" d="M60.8,119.9c0,0.5-0.4,0.9-0.9,0.9h-0.5v2l-1.9-2h-6.3c-0.5,0-0.9-0.4-0.9-0.9v-4.8c0-0.5,0.4-0.9,0.9-0.9
				h8.7c0.5,0,0.9,0.4,0.9,0.9V119.9z"/>
			<path class="st14" d="M54.2,120.4c0,2-1.7,3.7-3.7,3.7h-1.3l-2.8,2.1v-2.1h-0.3c-2,0-3.7-1.7-3.7-3.7V120c0-2,1.7-3.7,3.7-3.7
				h4.5c2,0,3.7,1.7,3.7,3.7V120.4z"/>
		</g>
	</g>
	<g id="pencil_circle_copy">
		<g>
			<path class="st12" d="M49.8,164.8c-7.1-1.1-12.4-7.4-12.2-14.8"/>
			<path class="st12" d="M66,152.8c-1.1,7.1-7.3,12.3-14.4,12.2"/>
			<path class="st12" d="M54,136.7c7.1,1.1,12.3,7.4,12.2,14.8"/>
			<path class="st12" d="M37.8,148.7c1.1-7.1,7.3-12.3,14.4-12.2"/>
		</g>
		<g>
			<path class="st15" d="M46.2,152.4l3.3,3.3l8-8l-3.3-3.3L46.2,152.4z M44.9,157.1l4.7-1.3l-3.3-3.3L44.9,157.1z M58.6,145.5
				l-2.1-2.1c-0.3-0.3-0.9-0.3-1.3,0l-1,1l3.3,3.3l1-1C58.9,146.4,58.9,145.8,58.6,145.5z"/>
		</g>
	</g>
	<g id="thick_pencil_1_">
		<path class="st16" d="M57.3,258.1H41.1c-1.9,0-3.4-1.5-3.4-3.4v-16.4c0-1.9,1.5-3.4,3.4-3.4h9.5v1.4h-9.5c-1.1,0-2,0.9-2,2.1v16.4
			c0,1.1,0.9,2.1,2,2.1h16.3c1.1,0,2-0.9,2-2.1v-9.6h1.4v9.6C60.7,256.6,59.2,258.1,57.3,258.1z"/>
		<path class="st16" d="M49.2,247.2c-0.2,0-0.4-0.1-0.5-0.2c-0.2-0.2-0.2-0.4-0.2-0.6l1-3.9c0-0.1,0.1-0.2,0.2-0.3l9.1-9.2
			c1-1,2.8-1,3.8,0c0.5,0.5,0.8,1.2,0.8,1.9c0,0.7-0.3,1.4-0.8,1.9l-9.1,9.2c-0.1,0.1-0.2,0.1-0.3,0.2l-3.8,1
			C49.3,247.2,49.3,247.2,49.2,247.2z M50.8,243l-0.6,2.6l2.6-0.6l9-9c0.3-0.3,0.4-0.6,0.4-1s-0.1-0.7-0.4-1c-0.5-0.5-1.4-0.5-1.9,0
			L50.8,243z"/>
		<polygon class="st16" points="60.7,237.8 57.8,234.9 58.8,233.9 61.7,236.8 		"/>
	</g>
	<g id="thick_chat">
		<path class="st16" d="M40.5,218.7c-0.9,0-1.7-0.3-2.5-0.7c-0.2-0.1-0.4-0.4-0.3-0.7c0-0.3,0.2-0.5,0.4-0.7
			c0.9-0.5,1.5-1.4,1.8-2.4c-0.9-1.5-1.4-3.2-1.4-4.9c0-5.2,4.2-9.4,9.3-9.4c4.2,0,7.8,2.8,8.9,6.9l-1.5,0.4c-0.9-3.4-4-5.7-7.5-5.7
			c-4.3,0-7.7,3.5-7.7,7.8c0,1.6,0.5,3.1,1.3,4.4c0.1,0.2,0.2,0.4,0.1,0.6c-0.2,1.1-0.7,2.1-1.4,2.9c1,0.2,2-0.2,2.7-1
			c0.2-0.3,0.7-0.3,1-0.1c0.6,0.4,1.3,0.7,2,0.9l-0.4,1.5c-0.6-0.2-1.3-0.4-1.8-0.7C42.6,218.3,41.6,218.7,40.5,218.7z"/>
		<path class="st16" d="M64.9,228.8c-1.2,0-2.3-0.4-3.2-1.2c-1.5,0.8-3.1,1.2-4.7,1.2c-5.5,0-10.1-4.6-10.1-10.2s4.5-10.2,10.1-10.2
			S67,213.1,67,218.7c0,1.9-0.5,3.8-1.5,5.4c0.3,1.1,1,2.1,2,2.7c0.2,0.1,0.4,0.4,0.4,0.7c0,0.3-0.1,0.5-0.4,0.7
			C66.7,228.6,65.8,228.8,64.9,228.8z M61.8,225.9c0.2,0,0.4,0.1,0.6,0.3c0.8,0.9,2,1.3,3.1,1.1c-0.9-0.8-1.4-1.9-1.6-3.2
			c0-0.2,0-0.4,0.1-0.6c0.9-1.4,1.4-3.1,1.4-4.8c0-4.7-3.8-8.6-8.5-8.6s-8.5,3.9-8.5,8.6s3.8,8.6,8.5,8.6c1.6,0,3.1-0.4,4.5-1.3
			C61.6,225.9,61.7,225.9,61.8,225.9z"/>
	</g>
	<path id="thick_phone" class="st16" d="M54.3,197.8c-0.1,0-0.2,0-0.4,0c-1.6-0.1-3.2-0.9-4.3-2.2c-4.4-5.4-8.4-11.3-11.6-17.5
		c-0.8-1.5-0.9-3.3-0.4-4.8c0.5-1.4,1.5-2.5,2.8-3.1l1.7-0.8c1.2-0.6,2.7,0,3.3,1.2c0.7,1.4,1.4,2.8,2.2,4.2
		c0.7,1.2,0.2,2.7-0.9,3.4l-1.7,0.9c-0.1,0.1-0.3,0.2-0.3,0.4c-0.1,0.2,0,0.4,0.1,0.6c1.7,2.9,3.6,5.7,5.5,8.3
		c0.1,0.2,0.3,0.3,0.5,0.3c0.2,0,0.3,0,0.5-0.1l1.5-1.2c1.1-0.8,2.7-0.6,3.5,0.5c1,1.2,2,2.5,3,3.6c0.9,1,0.8,2.6-0.2,3.5l-1.4,1.3
		C56.9,197.3,55.7,197.8,54.3,197.8z M43.2,170.3c-0.2,0-0.4,0-0.5,0.1l-1.7,0.8c-1,0.5-1.8,1.3-2.2,2.4c-0.4,1.2-0.3,2.6,0.3,3.9
		c3.2,6.1,7.1,11.9,11.5,17.3c0.9,1.1,2.1,1.7,3.4,1.8c1.2,0.1,2.3-0.3,3.1-1.1l1.4-1.3c0.5-0.5,0.6-1.3,0.1-1.9
		c-1.1-1.2-2.1-2.4-3.1-3.7c-0.5-0.6-1.3-0.7-1.9-0.3l-1.5,1.2c-0.4,0.3-0.9,0.4-1.4,0.4c-0.5-0.1-1-0.3-1.3-0.8
		c-2-2.7-3.9-5.5-5.6-8.4c-0.3-0.5-0.3-1-0.2-1.5c0.1-0.5,0.4-0.9,0.9-1.1l1.6-0.9c0.6-0.4,0.8-1.2,0.5-1.8
		c-0.8-1.4-1.5-2.8-2.2-4.3C44.2,170.6,43.7,170.3,43.2,170.3z"/>
</g>
<g id="black">
	<g id="phone_copy_2">
		<path class="st17" d="M90.4,17c0-0.1-0.1-0.2-0.1-0.2c-0.3-0.8-4.2-1.9-4.6-1.9c-0.1,0-0.2,0-0.3,0c-0.5,0.1-1.1,0.6-2.4,1.7
			c-1.4-0.6-3.3-2.4-4.2-3.4c-1-1.1-2.2-2.9-2.6-4.3c1.4-1.3,2-1.8,2-2.4c0-0.3-0.7-4.4-1.4-4.8c-0.1,0-0.1-0.1-0.2-0.1
			c-0.4-0.3-1.1-0.7-1.9-0.6c-0.2,0-0.4,0.1-0.5,0.2c-0.5,0.3-1.8,1.2-2.3,2.3c-0.3,0.7-0.5,7.1,4.3,12.6c4.8,5.4,10.6,5.6,11.5,5.4
			l0,0l0.1,0c1.2-0.4,2.2-1.6,2.6-2C91.1,18.6,90.7,17.6,90.4,17z"/>
	</g>
	<g id="chat_copy_2">
		<g>
			<path class="st18" d="M103.5,36.3c0,0.9-0.7,1.6-1.6,1.6H101v3.4l-3.3-3.4H86.8c-0.9,0-1.6-0.7-1.6-1.6v-8.4
				c0-0.9,0.7-1.6,1.6-1.6h15c0.9,0,1.6,0.7,1.6,1.6V36.3z"/>
			<path class="st18" d="M92.1,37c0,3.5-2.9,6.4-6.4,6.4h-2.3L78.5,47v-3.6h-0.5c-3.5,0-6.4-2.9-6.4-6.4v-0.6c0-3.5,2.9-6.4,6.4-6.4
				h7.8c3.5,0,6.4,2.9,6.4,6.4V37z"/>
		</g>
	</g>
	<g id="pencil_copy_2">
		<g>
			<path class="st19" d="M74.2,63l4.6,4.6l11.1-11.1l-4.6-4.6L74.2,63z M72.3,69.4l6.5-1.8L74.2,63L72.3,69.4z M91.3,53.4l-2.9-2.9
				c-0.5-0.5-1.3-0.5-1.8,0.1l-1.4,1.4l4.6,4.6l1.4-1.4C91.8,54.6,91.8,53.8,91.3,53.4z"/>
		</g>
	</g>
	<g id="phone_circle_copy_2">
		<g>
			<path class="st20" d="M84.2,101.7C77.1,100.7,71.8,94.3,72,87"/>
			<path class="st20" d="M100.4,89.7c-1.1,7.1-7.3,12.3-14.4,12.2"/>
			<path class="st20" d="M88.4,73.5c7.1,1.1,12.3,7.4,12.2,14.8"/>
			<path class="st20" d="M72.1,85.5c1.1-7.1,7.3-12.3,14.4-12.2"/>
		</g>
		<path class="st21" d="M92.2,92.2c0-0.1-0.1-0.1-0.1-0.2c-0.2-0.5-2.9-1.3-3.1-1.3c-0.1,0-0.1,0-0.2,0c-0.4,0.1-0.8,0.4-1.6,1.2
			c-1-0.4-2.3-1.6-2.9-2.3c-0.7-0.8-1.5-2-1.8-3c1-0.9,1.4-1.2,1.4-1.6c0-0.2-0.4-3-0.9-3.3c0,0-0.1-0.1-0.1-0.1
			c-0.3-0.2-0.8-0.5-1.3-0.4c-0.1,0-0.2,0.1-0.4,0.1c-0.4,0.2-1.2,0.8-1.6,1.6c-0.2,0.5-0.3,4.9,3,8.6c3.3,3.7,7.3,3.8,7.9,3.7l0,0
			l0.1,0c0.8-0.3,1.5-1.1,1.8-1.4C92.8,93.3,92.4,92.6,92.2,92.2z"/>
	</g>
	<g id="chat_circle_copy_3">
		<g>
			<path class="st20" d="M84.4,132.9c-7.1-1.1-12.4-7.4-12.2-14.8"/>
			<path class="st20" d="M100.5,120.9c-1.1,7.1-7.3,12.3-14.4,12.2"/>
			<path class="st20" d="M88.5,104.8c7.1,1.1,12.3,7.4,12.2,14.8"/>
			<path class="st20" d="M72.3,116.8c1.1-7.1,7.3-12.3,14.4-12.2"/>
		</g>
		<g>
			<path class="st22" d="M95.8,119.9c0,0.5-0.4,0.9-0.9,0.9h-0.5v2l-1.9-2h-6.3c-0.5,0-0.9-0.4-0.9-0.9v-4.8c0-0.5,0.4-0.9,0.9-0.9
				h8.7c0.5,0,0.9,0.4,0.9,0.9V119.9z"/>
			<path class="st22" d="M89.2,120.4c0,2-1.7,3.7-3.7,3.7h-1.3l-2.8,2.1v-2.1h-0.3c-2,0-3.7-1.7-3.7-3.7V120c0-2,1.7-3.7,3.7-3.7
				h4.5c2,0,3.7,1.7,3.7,3.7V120.4z"/>
		</g>
	</g>
	<g id="pencil_circle_copy_2">
		<g>
			<path class="st20" d="M84.8,164.8c-7.1-1.1-12.4-7.4-12.2-14.8"/>
			<path class="st20" d="M101,152.8c-1.1,7.1-7.3,12.3-14.4,12.2"/>
			<path class="st20" d="M89,136.7c7.1,1.1,12.3,7.4,12.2,14.8"/>
			<path class="st20" d="M72.8,148.7c1.1-7.1,7.3-12.3,14.4-12.2"/>
		</g>
		<g>
			<path class="st23" d="M81.2,152.4l3.3,3.3l8-8l-3.3-3.3L81.2,152.4z M79.9,157.1l4.7-1.3l-3.3-3.3L79.9,157.1z M93.6,145.5
				l-2.1-2.1c-0.3-0.3-0.9-0.3-1.3,0l-1,1l3.3,3.3l1-1C93.9,146.4,93.9,145.8,93.6,145.5z"/>
		</g>
	</g>
	<g id="thick_pencil">
		<path d="M92.2,258.2H76c-1.9,0-3.4-1.5-3.4-3.4v-16.4c0-1.9,1.5-3.4,3.4-3.4h9.5v1.4H76c-1.1,0-2,0.9-2,2.1v16.4
			c0,1.1,0.9,2.1,2,2.1h16.3c1.1,0,2-0.9,2-2.1v-9.6h1.4v9.6C95.6,256.7,94.1,258.2,92.2,258.2z"/>
		<path d="M84.1,247.3c-0.2,0-0.4-0.1-0.5-0.2c-0.2-0.2-0.2-0.4-0.2-0.6l1-3.9c0-0.1,0.1-0.2,0.2-0.3l9.1-9.2c1-1,2.8-1,3.8,0
			c0.5,0.5,0.8,1.2,0.8,1.9c0,0.7-0.3,1.4-0.8,1.9l-9.1,9.2c-0.1,0.1-0.2,0.1-0.3,0.2l-3.8,1C84.2,247.3,84.2,247.3,84.1,247.3z
			 M85.7,243.1l-0.6,2.6l2.6-0.6l9-9c0.3-0.3,0.4-0.6,0.4-1s-0.1-0.7-0.4-1c-0.5-0.5-1.4-0.5-1.9,0L85.7,243.1z"/>
		<polygon points="95.6,237.9 92.7,235 93.7,234 96.6,236.9 		"/>
	</g>
	<g id="thick_chat_1_">
		<path d="M75.4,218.8c-0.9,0-1.7-0.3-2.5-0.7c-0.2-0.1-0.4-0.4-0.3-0.7c0-0.3,0.2-0.5,0.4-0.7c0.9-0.5,1.5-1.4,1.8-2.4
			c-0.9-1.5-1.4-3.2-1.4-4.9c0-5.2,4.2-9.4,9.3-9.4c4.2,0,7.8,2.8,8.9,6.9l-1.5,0.4c-0.9-3.4-4-5.7-7.5-5.7c-4.3,0-7.7,3.5-7.7,7.8
			c0,1.6,0.5,3.1,1.3,4.4c0.1,0.2,0.2,0.4,0.1,0.6c-0.2,1.1-0.7,2.1-1.4,2.9c1,0.2,2-0.2,2.7-1c0.2-0.3,0.7-0.3,1-0.1
			c0.6,0.4,1.3,0.7,2,0.9l-0.4,1.5c-0.6-0.2-1.3-0.4-1.8-0.7C77.5,218.4,76.5,218.8,75.4,218.8z"/>
		<path d="M99.8,228.9c-1.2,0-2.3-0.4-3.2-1.2c-1.5,0.8-3.1,1.2-4.7,1.2c-5.5,0-10.1-4.6-10.1-10.2c0-5.6,4.5-10.2,10.1-10.2
			c5.5,0,10.1,4.6,10.1,10.2c0,1.9-0.5,3.8-1.5,5.4c0.3,1.1,1,2.1,2,2.7c0.2,0.1,0.4,0.4,0.4,0.7c0,0.3-0.1,0.5-0.4,0.7
			C101.6,228.7,100.7,228.9,99.8,228.9z M96.7,226c0.2,0,0.4,0.1,0.6,0.3c0.8,0.9,2,1.3,3.1,1.1c-0.9-0.8-1.4-1.9-1.6-3.2
			c0-0.2,0-0.4,0.1-0.6c0.9-1.4,1.4-3.1,1.4-4.8c0-4.7-3.8-8.6-8.5-8.6c-4.7,0-8.5,3.9-8.5,8.6c0,4.7,3.8,8.6,8.5,8.6
			c1.6,0,3.1-0.4,4.5-1.3C96.5,226,96.6,226,96.7,226z"/>
	</g>
	<path id="thick_phone_1_" d="M89.2,197.9c-0.1,0-0.2,0-0.4,0c-1.6-0.1-3.2-0.9-4.3-2.2c-4.4-5.4-8.4-11.3-11.6-17.5
		c-0.8-1.5-0.9-3.3-0.4-4.8c0.5-1.4,1.5-2.5,2.8-3.1l1.7-0.8c1.2-0.6,2.7,0,3.3,1.2c0.7,1.4,1.4,2.8,2.2,4.2
		c0.7,1.2,0.2,2.7-0.9,3.4l-1.7,0.9c-0.1,0.1-0.3,0.2-0.3,0.4c-0.1,0.2,0,0.4,0.1,0.6c1.7,2.9,3.6,5.7,5.5,8.3
		c0.1,0.2,0.3,0.3,0.5,0.3c0.2,0,0.3,0,0.5-0.1l1.5-1.2c1.1-0.8,2.7-0.6,3.5,0.5c1,1.2,2,2.5,3,3.6c0.9,1,0.8,2.6-0.2,3.5l-1.4,1.3
		C91.8,197.4,90.6,197.9,89.2,197.9z M78.1,170.4c-0.2,0-0.4,0-0.5,0.1l-1.7,0.8c-1,0.5-1.8,1.3-2.2,2.4c-0.4,1.2-0.3,2.6,0.3,3.9
		c3.2,6.1,7.1,11.9,11.5,17.3c0.9,1.1,2.1,1.7,3.4,1.8c1.2,0.1,2.3-0.3,3.1-1.1l1.4-1.3c0.5-0.5,0.6-1.3,0.1-1.9
		c-1.1-1.2-2.1-2.4-3.1-3.7c-0.5-0.6-1.3-0.7-1.9-0.3l-1.5,1.2c-0.4,0.3-0.9,0.4-1.4,0.4c-0.5-0.1-1-0.3-1.3-0.8
		c-2-2.7-3.9-5.5-5.6-8.4c-0.3-0.5-0.3-1-0.2-1.5c0.1-0.5,0.4-0.9,0.9-1.1l1.6-0.9c0.6-0.4,0.8-1.2,0.5-1.8
		c-0.8-1.4-1.5-2.8-2.2-4.3C79.1,170.7,78.6,170.4,78.1,170.4z"/>
</g>
<g id="Layer_15">
</g>
</svg>
