<?xml version="1.0" encoding="utf-8"?>
<!-- Generator: Adobe Illustrator 19.1.0, SVG Export Plug-In . SVG Version: 6.00 Build 0)  -->
<svg version="1.1" xmlns="http://www.w3.org/2000/svg" xmlns:xlink="http://www.w3.org/1999/xlink" x="0px" y="0px"
	 viewBox="0 0 105 350" style="enable-background:new 0 0 105 350;" xml:space="preserve">
<style type="text/css">
	.st0{fill:#3194B2;}
	.st1{fill:#2F94B4;}
	.st2{display:none;fill:#EC008C;}
	.st3{fill:#FFFFFF;}
	.st4{fill:none;stroke:#3095B4;stroke-width:2;stroke-miterlimit:10;}
	.st5{fill:none;stroke:#FFFFFF;stroke-width:2;stroke-miterlimit:10;}
</style>
<g id="Layer_1">
	<g>
		<path class="st0" d="M25.1,49c-0.7,0-1.5,0-2.2-0.1l-0.6-0.1l-3-6.9c-2.2-0.8-4.3-2-6-3.5l-7.4,0.8l-0.3-0.5
			c-0.9-1.3-1.6-2.6-2.3-4L3,34.2l4.4-6.1c-0.2-1.1-0.3-2.2-0.3-3.2c0-1.1,0.1-2.3,0.3-3.4l-4.3-5.9L3.4,15c0.7-1.5,1.5-2.9,2.5-4.2
			l0.3-0.5l7.3,0.8c1.7-1.4,3.6-2.5,5.6-3.3l2.9-6.6l0.6-0.1c1.7-0.2,3.3-0.2,5,0l0.6,0.1l2.9,6.6c2.1,0.7,4.1,1.8,5.8,3.3l7.2-0.8
			l0.3,0.5c1,1.3,1.8,2.7,2.5,4.2l0.2,0.5l-4.2,5.8c0.2,1.2,0.4,2.4,0.4,3.6c0,1.1-0.1,2.3-0.3,3.4l4.3,5.9L47,34.7
			c-0.6,1.4-1.4,2.8-2.3,4l-0.3,0.5l-7.3-0.8C35.4,40,33.2,41.3,31,42l-3,6.8l-0.6,0.1C26.6,48.9,25.9,49,25.1,49z M23.7,46.9
			c1,0.1,2,0.1,3,0l2.9-6.5l0.4-0.1c2.3-0.7,4.4-1.9,6.2-3.6l0.3-0.3l7,0.8c0.6-0.9,1.1-1.8,1.5-2.7l-4.2-5.7l0.1-0.4
			c0.2-1.1,0.4-2.3,0.4-3.4c0-1.2-0.1-2.4-0.4-3.6l-0.1-0.4l4.1-5.6c-0.5-1-1.1-1.9-1.7-2.9l-6.9,0.8l-0.3-0.3
			c-1.7-1.5-3.7-2.6-5.8-3.3l-0.4-0.1l-2.8-6.3c-1.1-0.1-2.3-0.1-3.4,0l-2.8,6.3l-0.4,0.1c-2.1,0.7-4,1.8-5.7,3.3l-0.3,0.3l-7-0.8
			c-0.6,0.9-1.2,1.9-1.7,2.9L9.6,21l-0.1,0.4c-0.3,1.1-0.4,2.3-0.4,3.5c0,1.1,0.1,2.2,0.3,3.3l0.1,0.4l-4.3,5.8
			c0.4,0.9,0.9,1.8,1.5,2.7l7.1-0.8l0.3,0.3c1.7,1.6,3.8,2.8,6.1,3.5l0.4,0.1L23.7,46.9z"/>
		<path class="st0" d="M25.1,34.9c-5.4,0-9.9-4.4-9.9-9.9s4.4-9.9,9.9-9.9S35,19.6,35,25S30.6,34.9,25.1,34.9z M25.1,17.2
			c-4.3,0-7.9,3.5-7.9,7.9s3.5,7.9,7.9,7.9S33,29.4,33,25S29.5,17.2,25.1,17.2z"/>
	</g>
	<g>
		<rect x="7.6" y="80.9" transform="matrix(0.6374 0.7706 -0.7706 0.6374 68.4816 18.326)" class="st1" width="14.3" height="2"/>
		<rect x="31.8" y="67.7" transform="matrix(0.7783 0.6279 -0.6279 0.7783 56.3153 -3.2631)" class="st1" width="2" height="20.8"/>
		<path class="st1" d="M22.7,96.2c-3.2,0-5.9-2.6-5.9-5.9c0-3.3,2.6-5.9,5.9-5.9c3.2,0,5.9,2.6,5.9,5.9C28.6,93.5,26,96.2,22.7,96.2
			z M22.7,86.4c-2.1,0-3.9,1.7-3.9,3.9s1.7,3.9,3.9,3.9s3.9-1.7,3.9-3.9S24.9,86.4,22.7,86.4z"/>
		<path class="st1" d="M7.1,78.6c-3.2,0-5.9-2.6-5.9-5.9s2.6-5.9,5.9-5.9s5.9,2.6,5.9,5.9S10.3,78.6,7.1,78.6z M7.1,68.9
			c-2.1,0-3.9,1.7-3.9,3.9s1.7,3.9,3.9,3.9s3.9-1.7,3.9-3.9S9.2,68.9,7.1,68.9z"/>
		<path class="st1" d="M43.1,72.1c-3.2,0-5.9-2.6-5.9-5.9s2.6-5.9,5.9-5.9S49,63,49,66.2S46.4,72.1,43.1,72.1z M43.1,62.3
			c-2.1,0-3.9,1.7-3.9,3.9s1.7,3.9,3.9,3.9s3.9-1.7,3.9-3.9S45.3,62.3,43.1,62.3z"/>
	</g>
	<g>
		<g>
			<path class="st1" d="M25,112c-0.6,0-1-0.4-1-1V108c0-0.6,0.4-1,1-1s1,0.4,1,1v3.1C26,111.6,25.6,112,25,112z"/>
			<path class="st1" d="M18.9,154.9c-4,0-7.1-3.1-7.1-7.1c0-0.6,0.4-1,1-1s1,0.4,1,1c0,2.9,2.2,5.1,5.1,5.1c2.8,0,5.2-2.3,5.2-5.2
				v-18.3c0-0.6,0.4-1,1-1s1,0.4,1,1v18.3C26,151.7,22.8,154.9,18.9,154.9z"/>
		</g>
		<path class="st1" d="M46.4,130.4H3.6c-1.5,0-2.6-1.5-2.6-2.8c0-11.6,12.1-17.6,24-17.6c11.9,0,24,6,24,17.5
			C49,128.9,47.9,130.4,46.4,130.4z M25,112c-14.4,0-22,7.9-22,15.6c0,0.3,0.3,0.8,0.6,0.8h42.8c0.2,0,0.6-0.5,0.6-0.8
			C47,117.4,36,112,25,112z"/>
	</g>
	<g>
		<g>
			<g>
				<path class="st1" d="M25.2,214.7c-0.4,0-0.8-0.3-0.9-0.7c-0.2-0.5,0.1-1.1,0.6-1.3c17.6-6.4,17.7-27.8,17.7-28.1
					c0-0.6,0.4-1,1-1c0.6,0,1,0.4,1,1c0,0.2,0,23.1-19,30C25.4,214.7,25.3,214.7,25.2,214.7z"/>
				<path class="st1" d="M43.5,185.7c-0.6,0-1-0.4-1-1V175H39c-0.6,0-1-0.4-1-1s0.4-1,1-1h3.5c1.1,0,2,0.9,2,2v9.7
					C44.5,185.2,44.1,185.7,43.5,185.7z"/>
			</g>
			<g>
				<path class="st1" d="M25.2,214.7c-0.1,0-0.2,0-0.3-0.1c-18.9-6.9-19-29.7-19-30c0-0.6,0.5-1,1-1c0.6,0,1,0.5,1,1
					c0,0.2,0.1,21.7,17.7,28.1c0.5,0.2,0.8,0.8,0.6,1.3C26,214.4,25.6,214.7,25.2,214.7z"/>
				<path class="st1" d="M6.9,185.7c-0.6,0-1-0.4-1-1V175c0-1.1,0.9-2,2-2h3.5c0.6,0,1,0.4,1,1s-0.4,1-1,1H7.9v9.7
					C7.9,185.2,7.4,185.7,6.9,185.7z"/>
			</g>
			<path class="st1" d="M39,175c-8,0-12.2-3.7-13.8-5.5c-1.6,1.9-5.8,5.5-13.8,5.5c-0.6,0-1-0.4-1-1s0.4-1,1-1
				c9.3,0,12.7-5.4,12.9-5.6c0.2-0.3,0.5-0.5,0.9-0.5c0.3,0,0.8,0.2,0.9,0.5c0.1,0.2,3.6,5.6,12.9,5.6c0.6,0,1,0.4,1,1
				S39.5,175,39,175z"/>
		</g>
	</g>
	<g>
		<path class="st1" d="M27.2,273.9c-11.7,0-21.2-9.1-21.6-20.8c0-0.6,0.4-1,1-1c0.6,0,1,0.4,1,1c0.4,10.6,9,18.9,19.6,18.9
			c10.8,0,19.6-8.8,19.6-19.6c0-10.6-8.3-19.2-18.9-19.6c-0.6,0-1-0.5-1-1c0-0.6,0.5-1,1-1c11.7,0.4,20.8,9.9,20.8,21.6
			C48.8,264.2,39.1,273.9,27.2,273.9z"/>
		<path class="st1" d="M2,248c-0.6,0-1-0.4-1-1v0c0,0,0,0,0,0c0-11.5,9.4-20.8,20.8-20.8c0,0,0,0,0,0c0.6,0,1,0.4,1,1
			c0,0.1,0,0.1,0,0.2v19.7c0,0.6-0.4,1-1,1H2.2C2.1,248,2.1,248,2,248z M3,245.9h17.8v-17.8C11.3,228.6,3.5,236.4,3,245.9z"/>
	</g>
	<rect y="215.2" class="st2" width="50" height="10.8"/>
</g>
<g id="Layer_2">
	<g>
		<path class="st3" d="M79.6,49.2c-0.7,0-1.5,0-2.2-0.1l-0.6-0.1l-3-6.9c-2.2-0.8-4.3-2-6-3.5l-7.4,0.8L60,39
			c-0.9-1.3-1.6-2.6-2.3-4l-0.2-0.5l4.4-6.1c-0.2-1.1-0.3-2.2-0.3-3.2c0-1.1,0.1-2.3,0.3-3.4l-4.3-5.9l0.2-0.5
			c0.7-1.5,1.5-2.9,2.5-4.2l0.3-0.5l7.3,0.8c1.7-1.4,3.6-2.5,5.6-3.3l2.9-6.6l0.6-0.1c1.7-0.2,3.3-0.2,5,0l0.6,0.1l2.9,6.6
			c2.1,0.7,4.1,1.8,5.8,3.3l7.2-0.8l0.3,0.5c1,1.3,1.8,2.7,2.5,4.2l0.2,0.5l-4.2,5.8c0.2,1.2,0.4,2.4,0.4,3.6c0,1.1-0.1,2.3-0.3,3.4
			l4.3,5.9l-0.2,0.5c-0.6,1.4-1.4,2.8-2.3,4l-0.3,0.5l-7.3-0.8c-1.8,1.6-3.9,2.8-6.2,3.6l-3,6.8l-0.6,0.1
			C81.1,49.2,80.4,49.2,79.6,49.2z M78.2,47.2c1,0.1,2,0.1,3,0l2.9-6.5l0.4-0.1c2.3-0.7,4.4-1.9,6.2-3.6l0.3-0.3l7,0.8
			c0.6-0.9,1.1-1.8,1.5-2.7L95.3,29l0.1-0.4c0.2-1.1,0.4-2.3,0.4-3.4c0-1.2-0.1-2.4-0.4-3.6l-0.1-0.4l4.1-5.6
			c-0.5-1-1.1-1.9-1.7-2.9l-6.9,0.8l-0.3-0.3c-1.7-1.5-3.7-2.6-5.8-3.3l-0.4-0.1l-2.8-6.3c-1.1-0.1-2.3-0.1-3.4,0l-2.8,6.3l-0.4,0.1
			c-2.1,0.7-4,1.8-5.7,3.3l-0.3,0.3l-7-0.8c-0.6,0.9-1.2,1.9-1.7,2.9l4.2,5.7L64,21.7c-0.3,1.1-0.4,2.3-0.4,3.5
			c0,1.1,0.1,2.2,0.3,3.3l0.1,0.4l-4.3,5.8c0.4,0.9,0.9,1.8,1.5,2.7l7.1-0.8l0.3,0.3c1.7,1.6,3.8,2.8,6.1,3.5l0.4,0.1L78.2,47.2z"/>
		<path class="st3" d="M79.6,35.1c-5.4,0-9.9-4.4-9.9-9.9s4.4-9.9,9.9-9.9s9.9,4.4,9.9,9.9S85.1,35.1,79.6,35.1z M79.6,17.4
			c-4.3,0-7.9,3.5-7.9,7.9s3.5,7.9,7.9,7.9s7.9-3.5,7.9-7.9S84,17.4,79.6,17.4z"/>
	</g>
	<g>
		
			<rect x="62.1" y="81.2" transform="matrix(0.6374 0.7706 -0.7706 0.6374 88.4385 -23.5795)" class="st3" width="14.3" height="2"/>
		<rect x="86.3" y="68" transform="matrix(0.7783 0.6279 -0.6279 0.7783 68.5555 -37.4285)" class="st3" width="2" height="20.8"/>
		<path class="st3" d="M77.2,96.4c-3.2,0-5.9-2.6-5.9-5.9c0-3.3,2.6-5.9,5.9-5.9c3.2,0,5.9,2.6,5.9,5.9
			C83.1,93.8,80.5,96.4,77.2,96.4z M77.2,86.6c-2.1,0-3.9,1.7-3.9,3.9s1.7,3.9,3.9,3.9s3.9-1.7,3.9-3.9S79.4,86.6,77.2,86.6z"/>
		<path class="st3" d="M61.6,78.9c-3.2,0-5.9-2.6-5.9-5.9s2.6-5.9,5.9-5.9s5.9,2.6,5.9,5.9S64.8,78.9,61.6,78.9z M61.6,69.1
			c-2.1,0-3.9,1.7-3.9,3.9s1.7,3.9,3.9,3.9s3.9-1.7,3.9-3.9S63.7,69.1,61.6,69.1z"/>
		<path class="st3" d="M97.6,72.4c-3.2,0-5.9-2.6-5.9-5.9s2.6-5.9,5.9-5.9s5.9,2.6,5.9,5.9S100.9,72.4,97.6,72.4z M97.6,62.6
			c-2.1,0-3.9,1.7-3.9,3.9s1.7,3.9,3.9,3.9s3.9-1.7,3.9-3.9S99.8,62.6,97.6,62.6z"/>
	</g>
	<g>
		<g>
			<path class="st3" d="M79.5,112.3c-0.6,0-1-0.4-1-1v-3.1c0-0.6,0.4-1,1-1s1,0.4,1,1v3.1C80.5,111.8,80.1,112.3,79.5,112.3z"/>
			<path class="st3" d="M73.4,155.2c-4,0-7.1-3.1-7.1-7.1c0-0.6,0.4-1,1-1s1,0.4,1,1c0,2.9,2.2,5.1,5.1,5.1c2.8,0,5.2-2.3,5.2-5.2
				v-18.3c0-0.6,0.4-1,1-1s1,0.4,1,1V148C80.5,151.9,77.3,155.2,73.4,155.2z"/>
		</g>
		<path class="st3" d="M100.9,130.7H58.1c-1.5,0-2.6-1.5-2.6-2.8c0-11.6,12.1-17.6,24-17.6c11.9,0,24,6,24,17.5
			C103.5,129.2,102.4,130.7,100.9,130.7z M79.5,112.3c-14.4,0-22,7.9-22,15.6c0,0.3,0.3,0.8,0.6,0.8h42.8c0.2,0,0.6-0.5,0.6-0.8
			C101.5,117.6,90.5,112.3,79.5,112.3z"/>
	</g>
	<g>
		<g>
			<g>
				<path class="st3" d="M79.7,214.9c-0.4,0-0.8-0.3-0.9-0.7c-0.2-0.5,0.1-1.1,0.6-1.3C97,206.6,97,185.2,97,184.9c0-0.6,0.4-1,1-1
					c0.6,0,1,0.4,1,1c0,0.2,0,23.1-19,30C79.9,214.9,79.8,214.9,79.7,214.9z"/>
				<path class="st3" d="M98,185.9c-0.6,0-1-0.4-1-1v-9.7h-3.5c-0.6,0-1-0.4-1-1s0.4-1,1-1H97c1.1,0,2,0.9,2,2v9.7
					C99,185.5,98.6,185.9,98,185.9z"/>
			</g>
			<g>
				<path class="st3" d="M79.7,214.9c-0.1,0-0.2,0-0.3-0.1c-18.9-6.9-19-29.7-19-30c0-0.6,0.5-1,1-1c0.6,0,1,0.5,1,1
					c0,0.2,0.1,21.7,17.7,28.1c0.5,0.2,0.8,0.8,0.6,1.3C80.5,214.7,80.1,214.9,79.7,214.9z"/>
				<path class="st3" d="M61.4,185.9c-0.6,0-1-0.4-1-1v-9.7c0-1.1,0.9-2,2-2h3.5c0.6,0,1,0.4,1,1s-0.4,1-1,1h-3.5v9.7
					C62.4,185.5,61.9,185.9,61.4,185.9z"/>
			</g>
			<path class="st3" d="M93.5,175.2c-8,0-12.2-3.7-13.8-5.5c-1.6,1.9-5.8,5.5-13.8,5.5c-0.6,0-1-0.4-1-1s0.4-1,1-1
				c9.3,0,12.7-5.4,12.9-5.6c0.2-0.3,0.5-0.5,0.9-0.5c0.3,0,0.8,0.2,0.9,0.5c0.1,0.2,3.6,5.6,12.9,5.6c0.6,0,1,0.4,1,1
				S94,175.2,93.5,175.2z"/>
		</g>
	</g>
	<g>
		<path class="st3" d="M81.7,274.2c-11.7,0-21.2-9.1-21.6-20.8c0-0.6,0.4-1,1-1c0.6,0,1,0.4,1,1c0.4,10.6,9,18.9,19.6,18.9
			c10.8,0,19.6-8.8,19.6-19.6c0-10.6-8.3-19.2-18.9-19.6c-0.6,0-1-0.5-1-1c0-0.6,0.5-1,1-1c11.7,0.4,20.8,9.9,20.8,21.6
			C103.3,264.5,93.6,274.2,81.7,274.2z"/>
		<path class="st3" d="M56.5,248.2c-0.6,0-1-0.4-1-1v0c0,0,0,0,0,0c0-11.5,9.4-20.8,20.8-20.8c0,0,0,0,0,0c0.6,0,1,0.4,1,1
			c0,0.1,0,0.1,0,0.2v19.7c0,0.6-0.4,1-1,1H56.7C56.6,248.2,56.6,248.2,56.5,248.2z M57.5,246.2h17.8v-17.8
			C65.8,228.9,58,236.6,57.5,246.2z"/>
	</g>
	<path class="st4" d="M26.2,310.9c-13.3,0-24.1-3.8-24.1-8.5C2.2,307.1,12.9,310.9,26.2,310.9c13,0,23.5-3.6,24-8.2
		c0-3.7,0-6.8,0-8.3c-0.7,4.5-11.2,8-24,8c-13.3,0-24.1-3.8-24.1-8.5c0,4.7,10.8,8.5,24.1,8.5c12.9,0,23.4-3.6,24-8
		c0-0.2,0-0.3,0-0.4c0-4.7-10.8-8.5-24-8.5S2.1,289.3,2.1,294c0,2.5,0,27.7,0,27.7c0,4.7,10.8,8.5,24.1,8.5s24.1-3.8,24.1-8.5
		c0,0,0-4.4,0-9.7c-0.3,4.6-10.9,8.3-24.1,8.3c-13.3,0-24.1-3.8-24.1-8.5c0,4.7,10.8,8.5,24.1,8.5c13.1,0,23.8-3.7,24.1-8.3
		c0-3,0-6.3,0-9.2C49.7,307.3,39.2,310.9,26.2,310.9z"/>
	<path class="st5" d="M79.4,310.1c-13.3,0-24.1-3.8-24.1-8.5C55.4,306.3,66.2,310.1,79.4,310.1c13,0,23.5-3.6,24-8.2
		c0-3.7,0-6.8,0-8.3c-0.7,4.5-11.2,8-24,8c-13.3,0-24.1-3.8-24.1-8.5c0,4.7,10.8,8.5,24.1,8.5c12.9,0,23.4-3.6,24-8
		c0-0.2,0-0.3,0-0.4c0-4.7-10.8-8.5-24-8.5s-24.1,3.8-24.1,8.5c0,2.5,0,27.7,0,27.7c0,4.7,10.8,8.5,24.1,8.5s24.1-3.8,24.1-8.5
		c0,0,0-4.4,0-9.7c-0.3,4.6-10.9,8.3-24.1,8.3c-13.3,0-24.1-3.8-24.1-8.5c0,4.7,10.8,8.5,24.1,8.5c13.1,0,23.8-3.7,24.1-8.3
		c0-3,0-6.3,0-9.2C103,306.5,92.4,310.1,79.4,310.1z"/>
</g>
<g id="Layer_3">
</g>
</svg>
