<?xml version="1.0" encoding="utf-8"?>
<!-- Generator: Adobe Illustrator 19.1.0, SVG Export Plug-In . SVG Version: 6.00 Build 0)  -->
<svg version="1.1" id="Layer_1" xmlns="http://www.w3.org/2000/svg" xmlns:xlink="http://www.w3.org/1999/xlink" x="0px" y="0px"
	 viewBox="0 0 130 130" style="enable-background:new 0 0 130 130;" xml:space="preserve">
<style type="text/css">
	.st0{fill:none;stroke:#3094B4;stroke-width:2;stroke-linecap:round;stroke-linejoin:round;stroke-miterlimit:10;}
	.st1{opacity:0.1;fill:none;stroke:#3094B4;stroke-width:2;stroke-linecap:round;stroke-linejoin:round;stroke-miterlimit:10;}
	.st2{fill:#4296B4;}
</style>
<g>
	<path class="st0" d="M78.9,78.5l-5.7-2.1c7.6-6.1,7.5-17.1,7.5-17.1l-0.3-11.4C79.3,41.4,72,36.5,65,36.5v0
		c-6,0-13.8,4.9-14.9,11.3l0.1,11.3c0,0,0,10.9,7.5,17L37,87.5v3.8c0,1,1,2.7,2.1,2.7H79"/>
	<path class="st1" d="M86.3,85.6"/>
	<line class="st0" x1="86" y1="79" x2="86" y2="94"/>
	<line class="st0" x1="94" y1="86" x2="79" y2="86"/>
</g>
<g>
	<path class="st2" d="M65.5,1.8c34.7,0,63,28.3,63,63s-28.3,63-63,63s-63-28.3-63-63S30.8,1.8,65.5,1.8 M65.5-0.2
		c-35.9,0-65,29.1-65,65s29.1,65,65,65s65-29.1,65-65S101.4-0.2,65.5-0.2L65.5-0.2z"/>
</g>
</svg>
