<?xml version="1.0" encoding="utf-8"?>
<!-- Generator: Adobe Illustrator 19.1.0, SVG Export Plug-In . SVG Version: 6.00 Build 0)  -->
<svg version="1.1" id="Layer_1" xmlns="http://www.w3.org/2000/svg" xmlns:xlink="http://www.w3.org/1999/xlink" x="0px" y="0px"
	 viewBox="0 0 130 130" style="enable-background:new 0 0 130 130;" xml:space="preserve">
<style type="text/css">
	.st0{fill:none;stroke:#3094B4;stroke-width:2;stroke-linecap:round;stroke-linejoin:round;stroke-miterlimit:10;}
	.st1{fill:#4296B4;}
</style>
<g>
	<g>
		<g>
			<path class="st0" d="M95.7,65.2c0-4.9-10.1-20.4-30.6-20.4c-20.6,0-30.6,15.5-30.6,20.4"/>
			<path class="st0" d="M95.7,65.2c0,4.9-10.1,20.4-30.6,20.4c-20.6,0-30.6-15.5-30.6-20.4"/>
		</g>
		<circle class="st0" cx="65" cy="65.2" r="10.2"/>
	</g>
	<g>
		<path class="st1" d="M65,1.8c34.7,0,63,28.3,63,63s-28.3,63-63,63S2,99.6,2,64.8S30.3,1.8,65,1.8 M65-0.2c-35.9,0-65,29.1-65,65
			s29.1,65,65,65s65-29.1,65-65S100.9-0.2,65-0.2L65-0.2z"/>
	</g>
</g>
</svg>
