<?xml version="1.0" encoding="utf-8"?>
<!-- Generator: Adobe Illustrator 19.1.0, SVG Export Plug-In . SVG Version: 6.00 Build 0)  -->
<svg version="1.1" id="Layer_1" xmlns="http://www.w3.org/2000/svg" xmlns:xlink="http://www.w3.org/1999/xlink" x="0px" y="0px"
	 viewBox="0 0 130 130" style="enable-background:new 0 0 130 130;" xml:space="preserve">
<style type="text/css">
	.st0{fill:none;stroke:#3094B4;stroke-width:4.7506;stroke-linecap:round;stroke-linejoin:round;stroke-miterlimit:10;}
	.st1{fill:#3094B4;}
</style>
<g>
	<g>
		<g>
			<path class="st0" d="M65.2,124.6c48.7-17.7,48.2-76.4,48.2-76.4"/>
			<g>
				<path class="st0" d="M113.4,48.2V22.5c0-1.3-1.1-2.4-2.4-2.4h-9.4"/>
			</g>
		</g>
		<g>
			<path class="st0" d="M65.2,124.6c-48.7-17.7-48.2-76.4-48.2-76.4"/>
			<g>
				<path class="st0" d="M16.9,48.2V22.5c0-1.3,1.1-2.4,2.4-2.4h9.4"/>
			</g>
		</g>
		<path class="st0" d="M28.9,20.1C55.2,20.1,65,4,65,4h0.3c0,0,9.8,16.1,36.2,16.1"/>
	</g>
	<line class="st0" x1="65.2" y1="38.7" x2="65.2" y2="75.4"/>
	<circle class="st1" cx="65.2" cy="92.1" r="5"/>
</g>
</svg>
