<?xml version="1.0" encoding="utf-8"?>
<!-- Generator: Adobe Illustrator 19.1.0, SVG Export Plug-In . SVG Version: 6.00 Build 0)  -->
<svg version="1.1" id="Layer_1" xmlns="http://www.w3.org/2000/svg" xmlns:xlink="http://www.w3.org/1999/xlink" x="0px" y="0px"
	 viewBox="0 0 130 130" style="enable-background:new 0 0 130 130;" xml:space="preserve">
<style type="text/css">
	.st0{fill:none;stroke:#3095B4;stroke-width:2;stroke-linecap:round;stroke-miterlimit:10;}
	.st1{fill:none;stroke:#025172;stroke-width:2;stroke-linecap:round;stroke-miterlimit:10;}
	.st2{fill:none;stroke:#3094B4;stroke-width:2;stroke-miterlimit:10;}
</style>
<g>
	<path class="st0" d="M10.1,31.9C21.3,13.6,41.6,1.4,64.7,1.4c10.2,0,19.9,2.4,28.5,6.7"/>
	<path class="st1" d="M98.3,11.5c18.3,11.3,30.6,31.5,30.6,54.6c0,10.2-2.4,19.9-6.7,28.5"/>
	<path class="st0" d="M118.7,98.8c-11.3,18.3-31.5,30.6-54.6,30.6c-10.2,0-19.9-2.4-28.5-6.7"/>
	<path class="st1" d="M31.4,120.2C13.1,108.9,0.9,88.7,0.9,65.6c0-10.2,2.4-19.9,6.7-28.5"/>
</g>
<g>
	<g>
		<g>
			<g>
				<path class="st2" d="M48.4,40.4c-6.8,0-12.3,5.5-12.3,12.3c0,6.8,5.5,12.3,12.3,12.3h12.3V52.6c0-2.7-0.9-5.2-2.5-7.4
					C55.9,42.2,52.3,40.4,48.4,40.4z"/>
			</g>
		</g>
	</g>
	<g>
		<g>
			<g>
				<path class="st2" d="M66.7,64.9H78c2.5,0,4.8-0.8,6.8-2.3c2.8-2.2,4.5-5.4,4.5-9c0-6.2-5.1-11.3-11.3-11.3
					c-6.2,0-11.3,5.1-11.3,11.3V64.9z"/>
			</g>
		</g>
	</g>
	<g>
		<g>
			<g>
				<path class="st2" d="M66.7,70.9v11.3c0,2.5,0.8,4.8,2.3,6.8c2.2,2.9,5.4,4.5,9,4.5c6.2,0,11.3-5.1,11.3-11.3S84.2,70.9,78,70.9
					H66.7z"/>
			</g>
		</g>
	</g>
	<g>
		<g>
			<g>
				<path class="st2" d="M52.5,70.9c-1.8,0-3.5,0.6-4.9,1.6c-2.1,1.6-3.2,3.9-3.2,6.5c0,4.5,3.7,8.2,8.2,8.2c4.5,0,8.2-3.7,8.2-8.2
					v-8.2H52.5z"/>
			</g>
		</g>
	</g>
</g>
</svg>
