<?xml version="1.0" encoding="utf-8"?>
<!-- Generator: Adobe Illustrator 19.1.0, SVG Export Plug-In . SVG Version: 6.00 Build 0)  -->
<svg version="1.1" id="Layer_1" xmlns="http://www.w3.org/2000/svg" xmlns:xlink="http://www.w3.org/1999/xlink" x="0px" y="0px"
	 viewBox="0 0 130 130" style="enable-background:new 0 0 130 130;" xml:space="preserve">
<style type="text/css">
	.st0{fill:none;stroke:#3095B4;stroke-width:2;stroke-linecap:round;stroke-miterlimit:10;}
	.st1{fill:none;stroke:#025172;stroke-width:2;stroke-linecap:round;stroke-miterlimit:10;}
	.st2{fill:none;stroke:#4296B4;stroke-width:2;stroke-linecap:round;stroke-linejoin:round;stroke-miterlimit:10;}
</style>
<g>
	<path class="st0" d="M10.3,31C21.5,12.7,41.8,0.5,64.8,0.5c10.2,0,19.9,2.4,28.5,6.7"/>
	<path class="st1" d="M98.5,10.6c18.3,11.3,30.6,31.5,30.6,54.6c0,10.2-2.4,19.9-6.7,28.5"/>
	<path class="st0" d="M118.9,97.9c-11.3,18.3-31.5,30.6-54.6,30.6c-10.2,0-19.9-2.4-28.5-6.7"/>
	<path class="st1" d="M31.6,119.2C13.3,108,1.1,87.8,1.1,64.7c0-10.2,2.4-19.9,6.7-28.5"/>
</g>
<g>
	<g>
		<path class="st2" d="M59,59c0,0.6-0.4,1-1,1H39c-0.6,0-1-0.4-1-1V40c0-0.6,0.4-1,1-1h19c0.6,0,1,0.4,1,1V59z"/>
	</g>
	<g>
		<path class="st2" d="M90,59c0,0.6-0.4,1-1,1H70c-0.6,0-1-0.4-1-1V40c0-0.6,0.4-1,1-1h19c0.6,0,1,0.4,1,1V59z"/>
	</g>
	<g>
		<path class="st2" d="M59,91c0,0.6-0.4,1-1,1H39c-0.6,0-1-0.4-1-1V72c0-0.6,0.4-1,1-1h19c0.6,0,1,0.4,1,1V91z"/>
	</g>
	<g>
		<path class="st2" d="M90,91c0,0.6-0.4,1-1,1H70c-0.6,0-1-0.4-1-1V72c0-0.6,0.4-1,1-1h19c0.6,0,1,0.4,1,1V91z"/>
	</g>
</g>
</svg>
