<?xml version="1.0" encoding="utf-8"?>
<!-- Generator: Adobe Illustrator 19.1.0, SVG Export Plug-In . SVG Version: 6.00 Build 0)  -->
<svg version="1.1" id="Layer_1" xmlns="http://www.w3.org/2000/svg" xmlns:xlink="http://www.w3.org/1999/xlink" x="0px" y="0px"
	 viewBox="0 0 130 130" style="enable-background:new 0 0 130 130;" xml:space="preserve">
<style type="text/css">
	.st0{fill:none;stroke:#4296B4;stroke-width:2;stroke-linecap:round;stroke-linejoin:round;stroke-miterlimit:10;}
	.st1{fill:#4296B4;}
</style>
<g>
	<g>
		<path class="st0" d="M60,59c0,0.6-0.4,1-1,1H40c-0.6,0-1-0.4-1-1V40c0-0.6,0.4-1,1-1h19c0.6,0,1,0.4,1,1V59z"/>
	</g>
	<g>
		<path class="st0" d="M91,59c0,0.6-0.4,1-1,1H71c-0.6,0-1-0.4-1-1V40c0-0.6,0.4-1,1-1h19c0.6,0,1,0.4,1,1V59z"/>
	</g>
	<g>
		<path class="st0" d="M60,90c0,0.6-0.4,1-1,1H40c-0.6,0-1-0.4-1-1V71c0-0.6,0.4-1,1-1h19c0.6,0,1,0.4,1,1V90z"/>
	</g>
	<g>
		<path class="st0" d="M91,90c0,0.6-0.4,1-1,1H71c-0.6,0-1-0.4-1-1V71c0-0.6,0.4-1,1-1h19c0.6,0,1,0.4,1,1V90z"/>
	</g>
</g>
<g>
	<path class="st1" d="M65.3,1.9c34.7,0,63,28.3,63,63s-28.3,63-63,63s-63-28.3-63-63S30.5,1.9,65.3,1.9 M65.3-0.1
		c-35.9,0-65,29.1-65,65s29.1,65,65,65s65-29.1,65-65S101.1-0.1,65.3-0.1L65.3-0.1z"/>
</g>
</svg>
