<?xml version="1.0" encoding="utf-8"?>
<!-- Generator: Adobe Illustrator 19.1.0, SVG Export Plug-In . SVG Version: 6.00 Build 0)  -->
<svg version="1.1" id="Layer_1" xmlns="http://www.w3.org/2000/svg" xmlns:xlink="http://www.w3.org/1999/xlink" x="0px" y="0px"
	 viewBox="0 0 130 130" style="enable-background:new 0 0 130 130;" xml:space="preserve">
<style type="text/css">
	.st0{fill:#4296B4;}
	.st1{fill:none;stroke:#3094B4;stroke-width:2;stroke-linecap:round;stroke-linejoin:round;stroke-miterlimit:10;}
</style>
<g>
	<path class="st0" d="M64.9,1.9c34.7,0,63,28.3,63,63s-28.3,63-63,63s-63-28.3-63-63S30.2,1.9,64.9,1.9 M64.9-0.1
		c-35.9,0-65,29.1-65,65s29.1,65,65,65s65-29.1,65-65S100.8-0.1,64.9-0.1L64.9-0.1z"/>
</g>
<g>
	<line class="st1" x1="43.5" y1="44" x2="43.5" y2="90.1"/>
	<path class="st1" d="M86.4,63.8c0-7.7,0-15.4,0-23.1"/>
	<path class="st1" d="M43.5,67"/>
	<path class="st1" d="M43.5,67c11.9-11.4,28.3,10.8,42.9-3.3"/>
	<path class="st1" d="M43.5,44c11.9-11.4,28.3,10.8,42.9-3.3"/>
</g>
</svg>
