<?xml version="1.0" encoding="utf-8"?>
<!-- Generator: Adobe Illustrator 19.1.0, SVG Export Plug-In . SVG Version: 6.00 Build 0)  -->
<svg version="1.1" id="Layer_1" xmlns="http://www.w3.org/2000/svg" xmlns:xlink="http://www.w3.org/1999/xlink" x="0px" y="0px"
	 viewBox="0 0 130 130" style="enable-background:new 0 0 130 130;" xml:space="preserve">
<style type="text/css">
	.st0{fill:none;stroke:#3095B4;stroke-width:2;stroke-linecap:round;stroke-miterlimit:10;}
	.st1{fill:none;stroke:#025172;stroke-width:2;stroke-linecap:round;stroke-miterlimit:10;}
	.st2{fill:none;stroke:#3094B4;stroke-width:2;stroke-linecap:round;stroke-linejoin:round;stroke-miterlimit:10;}
	.st3{fill:#3094B4;}
	.st4{fill:none;stroke:#3094B4;stroke-width:2;stroke-linejoin:round;stroke-miterlimit:10;}
</style>
<g>
	<path class="st0" d="M10.8,31.5C22,13.2,42.3,1,65.3,1c10.2,0,19.9,2.4,28.5,6.7"/>
	<path class="st1" d="M99,11.1c18.3,11.3,30.6,31.5,30.6,54.6c0,10.2-2.4,19.9-6.7,28.5"/>
	<path class="st0" d="M119.4,98.4C108.1,116.7,87.9,129,64.8,129c-10.2,0-19.9-2.4-28.5-6.7"/>
	<path class="st1" d="M32.1,119.7C13.8,108.5,1.6,88.3,1.6,65.2C1.6,55,4,45.3,8.2,36.7"/>
</g>
<g>
	<g>
		<line class="st2" x1="64.9" y1="50.2" x2="64.9" y2="66.1"/>
		<circle class="st3" cx="64.9" cy="73.3" r="2.2"/>
	</g>
	<polygon class="st4" points="95.7,83.2 34.8,83.2 65,30.3 	"/>
</g>
</svg>
