<?xml version="1.0" encoding="utf-8"?>
<!-- Generator: Adobe Illustrator 19.1.0, SVG Export Plug-In . SVG Version: 6.00 Build 0)  -->
<svg version="1.1" id="Layer_1" xmlns="http://www.w3.org/2000/svg" xmlns:xlink="http://www.w3.org/1999/xlink" x="0px" y="0px"
	 viewBox="0 0 130 130" style="enable-background:new 0 0 130 130;" xml:space="preserve">
<style type="text/css">
	.st0{fill:#4296B4;}
	.st1{fill:none;stroke:#3094B4;stroke-width:2;stroke-linecap:round;stroke-linejoin:round;stroke-miterlimit:10;}
</style>
<g>
	<path class="st0" d="M65,1.7c34.7,0,63,28.3,63,63s-28.3,63-63,63S2,99.4,2,64.7S30.3,1.7,65,1.7 M65-0.3c-35.9,0-65,29.1-65,65
		s29.1,65,65,65s65-29.1,65-65S100.9-0.3,65-0.3L65-0.3z"/>
</g>
<g>
	<path class="st1" d="M74.8,35.4c8.2,4.7,13.7,13.4,13.7,23.5c0,15.1-12.3,27.4-27.4,27.4c-5,0-9.7-1.6-13.7-3.9"/>
	<circle class="st1" cx="61.1" cy="58.8" r="19.6"/>
	<line class="st1" x1="61" y1="86" x2="61" y2="94"/>
	<line class="st1" x1="69" y1="94" x2="53" y2="94"/>
</g>
</svg>
