<?xml version="1.0" encoding="utf-8"?>
<!-- Generator: Adobe Illustrator 19.1.0, SVG Export Plug-In . SVG Version: 6.00 Build 0)  -->
<svg version="1.1" id="Layer_1" xmlns="http://www.w3.org/2000/svg" xmlns:xlink="http://www.w3.org/1999/xlink" x="0px" y="0px"
	 viewBox="0 0 130 130" style="enable-background:new 0 0 130 130;" xml:space="preserve">
<style type="text/css">
	.st0{fill:none;stroke:#3095B4;stroke-width:2;stroke-linecap:round;stroke-miterlimit:10;}
	.st1{fill:none;stroke:#025172;stroke-width:2;stroke-linecap:round;stroke-miterlimit:10;}
	.st2{fill:none;stroke:#3094B4;stroke-width:2;stroke-linecap:round;stroke-linejoin:round;stroke-miterlimit:10;}
</style>
<g>
	<path class="st0" d="M10,31.6C21.2,13.3,41.4,1.1,64.5,1.1c10.2,0,19.9,2.4,28.5,6.7"/>
	<path class="st1" d="M98.2,11.3c18.3,11.3,30.6,31.5,30.6,54.6c0,10.2-2.4,19.9-6.7,28.5"/>
	<path class="st0" d="M118.6,98.5c-11.3,18.3-31.5,30.6-54.6,30.6c-10.2,0-19.9-2.4-28.5-6.7"/>
	<path class="st1" d="M31.3,119.9C13,108.6,0.8,88.4,0.8,65.3c0-10.2,2.4-19.9,6.7-28.5"/>
</g>
<g>
	<g>
		<path class="st2" d="M88,44v13.8c0,0,0.7,28.5-23,37.1c-23.7-8.6-23-37.1-23-37.1V44l5.4,0.3c12.8,0,17.7-7.3,17.7-7.3
			s4.9,7.3,17.7,7.3L88,44z"/>
	</g>
</g>
</svg>
