<?xml version="1.0" encoding="utf-8"?>
<!-- Generator: Adobe Illustrator 19.1.0, SVG Export Plug-In . SVG Version: 6.00 Build 0)  -->
<svg version="1.1" id="Layer_1" xmlns="http://www.w3.org/2000/svg" xmlns:xlink="http://www.w3.org/1999/xlink" x="0px" y="0px"
	 viewBox="0 0 130 130" style="enable-background:new 0 0 130 130;" xml:space="preserve">
<style type="text/css">
	.st0{fill:#4296B4;}
	.st1{fill:none;stroke:#4296B4;stroke-width:2;stroke-linecap:round;stroke-linejoin:round;stroke-miterlimit:10;}
</style>
<g>
	<path class="st0" d="M65.5,1.7c34.7,0,63,28.3,63,63s-28.3,63-63,63s-63-28.3-63-63S30.8,1.7,65.5,1.7 M65.5-0.3
		c-35.9,0-65,29.1-65,65s29.1,65,65,65s65-29.1,65-65S101.4-0.3,65.5-0.3L65.5-0.3z"/>
</g>
<g>
	<g>
		<g>
			<circle class="st1" cx="65.5" cy="64.7" r="28"/>
		</g>
		<polygon class="st1" points="70.3,69.5 52.5,77.7 60.7,59.9 78.6,51.6 70.3,69.5 		"/>
	</g>
	<line class="st1" x1="60.7" y1="59.9" x2="70.3" y2="69.5"/>
</g>
</svg>
