<?xml version="1.0" encoding="utf-8"?>
<!-- Generator: Adobe Illustrator 19.1.0, SVG Export Plug-In . SVG Version: 6.00 Build 0)  -->
<svg version="1.1" id="Layer_1" xmlns="http://www.w3.org/2000/svg" xmlns:xlink="http://www.w3.org/1999/xlink" x="0px" y="0px"
	 viewBox="0 0 130 130" style="enable-background:new 0 0 130 130;" xml:space="preserve">
<style type="text/css">
	.st0{fill:none;stroke:#4296B4;stroke-width:2;stroke-miterlimit:10;}
	.st1{fill:#4296B4;}
</style>
<path class="st0" d="M93.2,81.5c0,5.7-13.1,10.3-29.1,10.3S35,87.2,35,81.5c0,0,0-30.6,0-33.6c0-5.7,13.1-10.3,29.1-10.3
	s29,4.6,29,10.3C93.1,52.4,93.2,81.5,93.2,81.5z M35.2,69.5c0,5.7,13,10.3,29,10.3s29-4.6,29-10.3 M35.2,58.2c0,5.7,13,10.3,29,10.3
	s29-4.6,29-10.3 M35.2,47.9c0,5.7,13,10.3,29,10.3s29-4.6,29-10.3"/>
<g>
	<path class="st1" d="M64.2,1.7c34.7,0,63,28.3,63,63s-28.3,63-63,63s-63-28.3-63-63S29.4,1.7,64.2,1.7 M64.2-0.3
		c-35.9,0-65,29.1-65,65s29.1,65,65,65s65-29.1,65-65S100.1-0.3,64.2-0.3L64.2-0.3z"/>
</g>
</svg>
