<?xml version="1.0" encoding="utf-8"?>
<!-- Generator: Adobe Illustrator 19.1.0, SVG Export Plug-In . SVG Version: 6.00 Build 0)  -->
<svg version="1.1" id="Layer_1" xmlns="http://www.w3.org/2000/svg" xmlns:xlink="http://www.w3.org/1999/xlink" x="0px" y="0px"
	 viewBox="0 0 50 250" style="enable-background:new 0 0 50 250;" xml:space="preserve">
<style type="text/css">
	.st0{fill:#2F94B4;}
</style>
<g>
	<g>
		<g>
			<g>
				<path class="st0" d="M33,46H4.5c-1.3,0-2.4-1.1-2.4-2.4V3.7c0-1.3,1.1-2.4,2.4-2.4h17.1c0.5,0,0.9,0.4,0.9,0.9s-0.4,0.9-0.9,0.9
					H4.5C4.2,3.2,4,3.4,4,3.7v39.9c0,0.3,0.2,0.5,0.5,0.5H33c0.3,0,0.5-0.2,0.5-0.5V15.1c0-0.5,0.4-0.9,0.9-0.9s0.9,0.4,0.9,0.9
					v28.5C35.3,44.9,34.3,46,33,46z"/>
				<path class="st0" d="M34.4,16H21.6c-0.5,0-0.9-0.4-0.9-0.9V2.3c0-0.4,0.2-0.7,0.6-0.9c0.3-0.1,0.7-0.1,1,0.2l12.8,12.8
					c0.3,0.3,0.3,0.7,0.2,1C35.1,15.8,34.8,16,34.4,16z M22.5,14.2h9.7l-9.7-9.7V14.2z"/>
			</g>
		</g>
	</g>
</g>
<g>
	<path class="st0" d="M44.8,93H2c-0.6,0-1-0.4-1-1s0.4-1,1-1h42.8c1.1,0,2.1-0.9,2.1-2.1V64.5c0-1.1-0.9-2.1-2.1-2.1H5.1
		c-1.1,0-2.1,0.9-2.1,2.1v16.8c0,0.6-0.4,1-1,1s-1-0.4-1-1V64.5c0-2.2,1.8-4.1,4.1-4.1h39.8c2.2,0,4.1,1.8,4.1,4.1v24.5
		C48.9,91.2,47.1,93,44.8,93z"/>
	<path class="st0" d="M8.1,99.1c-0.3,0-0.5-0.1-0.7-0.3l-6.1-6.1C1.1,92.5,1,92.3,1,92s0.1-0.5,0.3-0.7l6.1-6.1c0.4-0.4,1-0.4,1.4,0
		s0.4,1,0,1.4L3.4,92l5.4,5.4c0.4,0.4,0.4,1,0,1.4C8.6,99,8.4,99.1,8.1,99.1z"/>
</g>
<g>
	<g>
		<g>
			<path class="st0" d="M43.9,202.3H3c-1.1,0-2-0.9-2-2v-31.7c0-1.1,0.9-2,2-2h11.2c0.6,0,1,0.4,1,1s-0.4,1-1,1H3v31.7h40.8v-18.9
				c0-0.6,0.4-1,1-1s1,0.4,1,1v18.9C45.9,201.4,45,202.3,43.9,202.3z"/>
			<path class="st0" d="M38.7,177.9c-0.3,0-0.5-0.1-0.7-0.3c-0.4-0.4-0.4-1,0-1.4l8.5-8.5l-8.5-8.5c-0.4-0.4-0.4-1,0-1.4
				s1-0.4,1.4,0l9.2,9.2c0.2,0.2,0.3,0.4,0.3,0.7s-0.1,0.5-0.3,0.7l-9.2,9.2C39.2,177.8,39,177.9,38.7,177.9z"/>
		</g>
	</g>
	<path class="st0" d="M14.3,187c-0.6,0-1-0.4-1-1c0-10.7,8.7-19.4,19.4-19.4h12.2c0.6,0,1,0.4,1,1s-0.4,1-1,1H32.6
		c-9.6,0-17.4,7.8-17.4,17.4C15.3,186.6,14.8,187,14.3,187z"/>
</g>
<g>
	<path class="st0" d="M13.1,243.1h-1.9C1,243.1,1,234.3,1,231.5c0-4.1,2.7-5.6,10.2-5.6c4.5,0,11.7,1.5,11.7,5.6
		c0,3.1-3,11.2-9.6,11.7C13.2,243.1,13.1,243.1,13.1,243.1z M11.2,227.9c-8.2,0-8.2,1.8-8.2,3.6c0,4.8,1,9.7,8.2,9.7h1.5
		c5.3,0,8.2-6.9,8.2-9.7C20.8,229.4,15.7,227.9,11.2,227.9z"/>
	<path class="st0" d="M2,230.9c-0.2,0-0.3,0-0.5-0.1c-0.5-0.3-0.7-0.9-0.4-1.4l7.6-13.7c0.1-0.1,1.3-1.9,3.5-2
		c1.9-0.1,3.8,1,5.8,3.4c0.4,0.4,0.3,1.1-0.1,1.4c-0.4,0.4-1.1,0.3-1.4-0.1c-1.5-1.8-2.9-2.7-4.1-2.7c-1.2,0-1.9,1-1.9,1.1
		l-7.6,13.7C2.7,230.7,2.4,230.9,2,230.9z"/>
	<path class="st0" d="M38.6,243.1h-1.9c-0.1,0-0.1,0-0.2,0c-6.6-0.4-9.6-8.5-9.6-11.7c0-4.1,7.2-5.6,11.7-5.6
		c7.5,0,10.2,1.5,10.2,5.6C48.8,234.3,48.8,243.1,38.6,243.1z M37.1,241.1h1.5c7.2,0,8.2-4.9,8.2-9.7c0-1.8,0-3.6-8.2-3.6
		c-4.6,0-9.7,1.5-9.7,3.6C28.9,234.3,31.8,241.1,37.1,241.1z"/>
	<path class="st0" d="M47.8,230.9c-0.4,0-0.7-0.2-0.9-0.5l-7.6-13.7v0c0,0-0.7-0.9-1.9-1c-1.2-0.1-2.6,0.9-4.1,2.7
		c-0.4,0.4-1,0.5-1.4,0.1c-0.4-0.4-0.5-1-0.1-1.4c1.9-2.3,3.9-3.5,5.8-3.4c2.2,0.1,3.4,1.9,3.5,1.9l7.7,13.8
		c0.3,0.5,0.1,1.1-0.4,1.4C48.1,230.9,48,230.9,47.8,230.9z"/>
	<path class="st0" d="M21.8,234c-0.6,0-1-0.5-1-1c0-0.1,0-2.5,4.1-2.5s4.1,2.4,4.1,2.5c0,0.6-0.4,1-1,1s-1-0.4-1-1
		c0-0.1-0.5-0.5-2.1-0.5c-1.6,0-2,0.5-2.1,0.6C22.8,233.6,22.4,234,21.8,234z"/>
</g>
<g id="Layer_2">
	<path class="st0" d="M12.8,145.8h-1.5c-5.6,0-10.2-4.6-10.2-10.2c0-4.1,2.5-7.8,6.2-9.4c0-0.5-0.1-0.9-0.1-1.4
		c0-8.1,6.6-14.8,14.8-14.8c6,0,11.4,3.7,13.7,9.2c0,0,0.1,0,0.1,0c7.3,0,13.2,5.9,13.2,13.2c0,6.7-5,12.3-11.6,13.1
		c-0.5,0.1-1-0.3-1.1-0.9s0.3-1,0.9-1.1c5.6-0.7,9.8-5.5,9.8-11.1c0-6.2-5-11.2-11.2-11.2c-0.2,0-0.4,0-0.7,0
		c-0.5,0-0.9-0.2-1.1-0.7c-1.8-5.1-6.6-8.6-12-8.6c-7,0-12.8,5.7-12.8,12.8c0,0.6,0.1,1.2,0.2,1.8c0.1,0.5-0.2,1-0.7,1.1
		c-3.4,1.1-5.6,4.2-5.6,7.8c0,4.5,3.7,8.2,8.2,8.2h1.5c0.6,0,1,0.4,1,1S13.4,145.8,12.8,145.8z"/>
	<path class="st0" d="M25.1,151.9c-0.6,0-1-0.4-1-1v-18.4c0-0.6,0.4-1,1-1s1,0.4,1,1v18.4C26.1,151.5,25.6,151.9,25.1,151.9z"/>
	<path class="st0" d="M25.1,151.9c-0.3,0-0.5-0.1-0.7-0.3l-6.1-6.1c-0.4-0.4-0.4-1,0-1.4s1-0.4,1.4,0l5.4,5.4l5.4-5.4
		c0.4-0.4,1-0.4,1.4,0s0.4,1,0,1.4l-6.1,6.1C25.6,151.8,25.3,151.9,25.1,151.9z"/>
</g>
</svg>
