<?xml version="1.0" encoding="utf-8"?>
<!-- Generator: Adobe Illustrator 19.1.0, SVG Export Plug-In . SVG Version: 6.00 Build 0)  -->
<svg version="1.1" id="Layer_1" xmlns="http://www.w3.org/2000/svg" xmlns:xlink="http://www.w3.org/1999/xlink" x="0px" y="0px"
	 viewBox="0 0 130 130" style="enable-background:new 0 0 130 130;" xml:space="preserve">
<style type="text/css">
	.st0{fill:none;stroke:#3095B4;stroke-width:2;stroke-linecap:round;stroke-miterlimit:10;}
	.st1{fill:none;stroke:#025172;stroke-width:2;stroke-linecap:round;stroke-miterlimit:10;}
	.st2{fill:none;stroke:#3094B4;stroke-width:2;stroke-linecap:round;stroke-linejoin:round;stroke-miterlimit:10;}
</style>
<g>
	<path class="st0" d="M10.4,31.4C21.7,13,41.9,0.8,65,0.8c10.2,0,19.9,2.4,28.5,6.7"/>
	<path class="st1" d="M98.7,11c18.3,11.3,30.6,31.5,30.6,54.6c0,10.2-2.4,19.9-6.7,28.5"/>
	<path class="st0" d="M119,98.3c-11.3,18.3-31.5,30.6-54.6,30.6c-10.2,0-19.9-2.4-28.5-6.7"/>
	<path class="st1" d="M31.8,119.6C13.5,108.4,1.2,88.1,1.2,65c0-10.2,2.4-19.9,6.7-28.5"/>
</g>
<g>
	<g>
		<path class="st2" d="M65.2,93.5c-7.4,0-8.2-6-8.2-6V76.2c0,0,0-3.5-2-4.7v0c-5-4-8.8-9.7-8.8-16.8c0-10.8,8.6-19.6,18.9-19.6"/>
	</g>
	<g>
		<path class="st2" d="M64.9,93.5c7.4,0,8.1-6,8.1-6V76.2c0,0,0-3.5,2-4.7v0c5-4,9-9.7,9-16.8c0-10.8-8.6-19.6-18.9-19.6"/>
	</g>
	<path class="st2" d="M56.8,78.9c0,0,8.4,4.7,16.7,0"/>
</g>
</svg>
