<?xml version="1.0" encoding="utf-8"?>
<!-- Generator: Adobe Illustrator 19.1.0, SVG Export Plug-In . SVG Version: 6.00 Build 0)  -->
<svg version="1.1" id="Layer_1" xmlns="http://www.w3.org/2000/svg" xmlns:xlink="http://www.w3.org/1999/xlink" x="0px" y="0px"
	 viewBox="0 0 130 130" style="enable-background:new 0 0 130 130;" xml:space="preserve">
<style type="text/css">
	.st0{fill:none;stroke:#3094B4;stroke-width:2;stroke-miterlimit:10;}
	.st1{fill:none;stroke:#3094B4;stroke-width:2;stroke-linecap:round;stroke-linejoin:round;stroke-miterlimit:10;}
	.st2{fill:#4296B4;}
</style>
<g>
	<g>
		<line class="st0" x1="43.5" y1="62.1" x2="56.9" y2="78.2"/>
		<line class="st0" x1="67.1" y1="76.4" x2="86.2" y2="52.7"/>
		<path class="st1" d="M54.7,82.4c0-4,3.2-7.2,7.2-7.2c4,0,7.2,3.2,7.2,7.2c0,4-3.2,7.2-7.2,7.2C57.9,89.6,54.7,86.4,54.7,82.4z"/>
		<path class="st1" d="M31.8,56.7c0-4,3.2-7.2,7.2-7.2c4,0,7.2,3.2,7.2,7.2s-3.2,7.2-7.2,7.2C35,63.9,31.8,60.7,31.8,56.7z"/>
		<path class="st1" d="M84.6,47.1c0-4,3.2-7.2,7.2-7.2c4,0,7.2,3.2,7.2,7.2c0,4-3.2,7.2-7.2,7.2C87.8,54.3,84.6,51.1,84.6,47.1z"/>
	</g>
	<g>
		<path class="st2" d="M65.4,1.8c34.7,0,63,28.3,63,63s-28.3,63-63,63s-63-28.3-63-63S30.6,1.8,65.4,1.8 M65.4-0.2
			c-35.9,0-65,29.1-65,65s29.1,65,65,65s65-29.1,65-65S101.3-0.2,65.4-0.2L65.4-0.2z"/>
	</g>
</g>
</svg>
