<?xml version="1.0" encoding="utf-8"?>
<!-- Generator: Adobe Illustrator 22.0.0, SVG Export Plug-In . SVG Version: 6.00 Build 0)  -->
<svg version="1.1" id="Layer_1" xmlns="http://www.w3.org/2000/svg" xmlns:xlink="http://www.w3.org/1999/xlink" x="0px" y="0px"
	 viewBox="0 0 480 350" style="enable-background:new 0 0 480 350;" xml:space="preserve">
<style type="text/css">
	.st0{fill:#025172;}
	.st1{clip-path:url(#SVGID_2_);fill:#FFFFFF;}
	.st2{clip-path:url(#SVGID_2_);fill:#2F95B4;}
	.st3{clip-path:url(#SVGID_2_);fill:#035172;}
</style>
<rect class="st0" width="479.7" height="349.9"/>
<g>
	<defs>
		<rect id="SVGID_1_" x="0.9" y="-5" width="477.1" height="366"/>
	</defs>
	<clipPath id="SVGID_2_">
		<use xlink:href="#SVGID_1_"  style="overflow:visible;"/>
	</clipPath>
	<path class="st1" d="M106.2,177.9c-0.3,0-0.5-0.1-0.8-0.3c-0.3-0.2-0.4-0.6-0.4-0.9v-20.2L75.4,162c-0.1,0-0.5,0.1-1.2,0.1
		c-2.3,0-9.7-0.9-10.2-12c-0.4-10.1-0.2-21,0-24.7h-6.3c-0.1,0-0.3,0-0.6,0c-1.2,0-4.1-0.3-5.8-2.6c-1.6-2.1-1.8-5.3-0.5-9.5
		c0,0,0-0.1,0.1-0.1c5.6-12.8,11.6-22.8,12.8-24.8C63.1,85.8,62,72.6,67,57.6c5.1-15.1,17.7-34.8,49-42.5c0,0,0.1,0,0.1,0
		c4.4-0.6,8.6-1,12.7-1c18.1,0,33.7,6.4,45.2,18.5c13.4,14.1,18.7,33.5,18,46.4c0,0.2-0.1,28.2-20.3,45.8v39.2c0,0.6-0.4,1.1-1,1.2
		l-64.3,12.8C106.3,177.9,106.2,177.9,106.2,177.9 M106.2,153.9c0.3,0,0.5,0.1,0.8,0.3c0.3,0.2,0.4,0.6,0.4,0.9v20.1l61.9-12.3
		v-38.8c0-0.4,0.2-0.7,0.4-0.9c19.8-16.8,19.9-44.1,19.9-44.4c0.7-12.5-4.4-31-17.3-44.7c-11-11.6-26-17.7-43.5-17.7
		c-4,0-8.1,0.3-12.3,0.9c-24.2,6-40.1,19.8-47.2,40.9c-5.3,15.8-3.5,30-3.4,30.1c0,0.3,0,0.6-0.2,0.8c-0.1,0.1-6.6,10.7-12.8,24.8
		c-1,3.3-0.9,5.9,0.2,7.3c1.1,1.5,3.1,1.6,3.9,1.6c0.3,0,0.4,0,0.4,0c0,0,0.1,0,0.1,0h7.6c0.3,0,0.6,0.1,0.9,0.4
		c0.2,0.2,0.3,0.6,0.3,0.9c0,0.1-0.5,13.5,0,25.7c0.4,8.4,5,9.7,7.8,9.7c0.5,0,0.8,0,0.8-0.1l31-5.7
		C106,153.9,106.1,153.9,106.2,153.9"/>
	<polygon class="st2" points="158.4,257.7 280.9,257.7 280.9,237.8 328.4,286 280.9,334.1 280.9,317.4 158.4,317.4 177.9,286 	"/>
	<path class="st3" d="M129.7,43.4c-15.5,0-28.2,12.6-28.2,28.2c0,15.5,12.6,28.2,28.2,28.2c15.5,0,28.2-12.6,28.2-28.2
		C157.8,56.1,145.2,43.4,129.7,43.4 M129.7,97.4c-14.2,0-25.8-11.6-25.8-25.8c0-14.2,11.6-25.8,25.8-25.8
		c14.2,0,25.8,11.6,25.8,25.8C155.5,85.8,143.9,97.4,129.7,97.4"/>
	<path class="st3" d="M138,69.9h-7.2v-7.2c0-0.7-0.5-1.2-1.2-1.2c-0.7,0-1.2,0.5-1.2,1.2v7.2h-7.2c-0.7,0-1.2,0.5-1.2,1.2
		c0,0.7,0.5,1.2,1.2,1.2h7.2v7.2c0,0.7,0.5,1.2,1.2,1.2c0.7,0,1.2-0.5,1.2-1.2v-7.2h7.2c0.7,0,1.2-0.5,1.2-1.2
		C139.2,70.4,138.6,69.9,138,69.9"/>
	<path class="st2" d="M428.5,96c0-0.7-0.5-1.2-1.2-1.2H214.8c-0.7,0-1.2,0.5-1.2,1.2v126.9c0,0.7,0.5,1.2,1.2,1.2h212.6
		c0.7,0,1.2-0.5,1.2-1.2V96 M373.9,129.6h52.2v30h-52.2V129.6z M320.4,129.6h51.1v30h-51.1V129.6z M320.4,127.2l0-30h51.1v30H320.4z
		 M318,127.2h-51.5l0-30H318L318,127.2z M318,129.6v30h-51.5l0-30H318z M264.1,159.7H216v-30h48.2L264.1,159.7z M216,162.1h48.2v30
		H216V162.1z M266.5,162.1H318l0,30h-51.5V162.1z M318,194.5v27.2h-51.5l0-27.2H318z M320.4,194.5h51.1v27.2h-51.1V194.5z
		 M320.4,192.1l0-30h51.1v30H320.4z M373.9,162.1h52.2v30h-52.2V162.1z M373.9,97.2h52.2v30h-52.2V97.2z M264.1,97.2l0,30H216v-30
		H264.1z M216,194.5h48.2l0,27.2H216V194.5z M373.9,194.5h52.2v27.2h-52.2V194.5z"/>
	<path class="st1" d="M251.2,226.7l-0.5,0.6c-0.6,0.7-0.5,1.7,0.1,2.3c0.3,0.3,0.7,0.4,1.1,0.4c0.4,0,0.9-0.2,1.2-0.5l0.5-0.6
		c0.6-0.7,0.5-1.7-0.1-2.3C252.8,226,251.7,226,251.2,226.7"/>
	<path class="st1" d="M245.4,233.3l-0.5,0.6c-0.6,0.7-0.5,1.7,0.1,2.3c0.3,0.3,0.7,0.4,1.1,0.4c0.4,0,0.9-0.2,1.2-0.5l0.5-0.6
		c0.6-0.7,0.5-1.7-0.1-2.3C247,232.6,245.9,232.6,245.4,233.3"/>
	<path class="st1" d="M239.6,239.9l-0.5,0.6c-0.6,0.7-0.5,1.7,0.1,2.3c0.3,0.3,0.7,0.4,1.1,0.4c0.4,0,0.9-0.2,1.2-0.5l0.5-0.6
		c0.6-0.7,0.5-1.7-0.2-2.3C241.2,239.2,240.2,239.2,239.6,239.9"/>
	<path class="st1" d="M262.7,213.5l-0.5,0.6c-0.6,0.7-0.5,1.7,0.1,2.3c0.3,0.3,0.7,0.4,1.1,0.4c0.4,0,0.9-0.2,1.2-0.5l0.5-0.6
		c0.6-0.7,0.5-1.7-0.2-2.3C264.3,212.7,263.3,212.8,262.7,213.5"/>
	<path class="st1" d="M257,220.1l-0.5,0.6c-0.6,0.7-0.5,1.7,0.1,2.3c0.3,0.3,0.7,0.4,1.1,0.4c0.4,0,0.9-0.2,1.2-0.5l0.5-0.6
		c0.6-0.7,0.5-1.7-0.2-2.3C258.5,219.3,257.5,219.4,257,220.1"/>
	<path class="st1" d="M233.8,246.5l-0.5,0.6c-0.6,0.7-0.5,1.7,0.1,2.3c0.3,0.3,0.7,0.4,1.1,0.4c0.4,0,0.9-0.2,1.2-0.5l0.5-0.6
		c0.6-0.7,0.5-1.7-0.1-2.3C235.4,245.8,234.4,245.9,233.8,246.5"/>
	<path class="st1" d="M40.2,172.2c-0.6-0.7-1.6-0.7-2.3-0.2c-0.7,0.6-0.7,1.6-0.2,2.3l0.5,0.6c0.3,0.4,0.8,0.6,1.2,0.6
		c0.4,0,0.7-0.1,1-0.4c0.7-0.6,0.7-1.6,0.2-2.3L40.2,172.2"/>
	<path class="st1" d="M204.8,279.6l-0.5,0.6c-0.6,0.7-0.5,1.7,0.1,2.3c0.3,0.3,0.7,0.4,1.1,0.4c0.4,0,0.9-0.2,1.2-0.5l0.5-0.6
		c0.6-0.7,0.5-1.7-0.1-2.3S205.4,278.9,204.8,279.6"/>
	<path class="st1" d="M200.8,281.1c-0.6-0.6-1.6-0.7-2.3-0.1c-0.6,0.6-0.7,1.6-0.1,2.3l0.5,0.6c0.3,0.3,0.7,0.5,1.2,0.5
		c0.4,0,0.8-0.1,1.1-0.4c0.6-0.6,0.7-1.6,0.1-2.3L200.8,281.1"/>
	<path class="st1" d="M210.6,273l-0.5,0.6c-0.6,0.7-0.5,1.7,0.1,2.3c0.3,0.3,0.7,0.4,1.1,0.4c0.4,0,0.9-0.2,1.2-0.5l0.5-0.6
		c0.6-0.7,0.5-1.7-0.1-2.3C212.2,272.2,211.2,272.3,210.6,273"/>
	<path class="st1" d="M268.5,206.8l-0.5,0.6c-0.6,0.7-0.5,1.7,0.1,2.3c0.3,0.3,0.7,0.4,1.1,0.4c0.4,0,0.9-0.2,1.2-0.5l0.5-0.6
		c0.6-0.7,0.5-1.7-0.2-2.3C270.1,206.1,269.1,206.2,268.5,206.8"/>
	<path class="st1" d="M228,253.1l-0.5,0.6c-0.6,0.7-0.5,1.7,0.1,2.3c0.3,0.3,0.7,0.4,1.1,0.4c0.4,0,0.9-0.2,1.2-0.5l0.5-0.6
		c0.6-0.7,0.5-1.7-0.1-2.3C229.6,252.4,228.6,252.5,228,253.1"/>
	<path class="st1" d="M216.4,266.4l-0.5,0.6c-0.6,0.7-0.5,1.7,0.1,2.3c0.3,0.3,0.7,0.4,1.1,0.4c0.4,0,0.9-0.2,1.2-0.5l0.5-0.6
		c0.6-0.7,0.5-1.7-0.1-2.3C218,265.6,217,265.7,216.4,266.4"/>
	<path class="st1" d="M291.7,180.4l-0.5,0.6c-0.6,0.7-0.5,1.7,0.1,2.3c0.3,0.3,0.7,0.4,1.1,0.4c0.4,0,0.9-0.2,1.2-0.5l0.5-0.6
		c0.6-0.7,0.5-1.7-0.1-2.3C293.3,179.7,292.3,179.7,291.7,180.4"/>
	<path class="st1" d="M326.5,140.7l-0.5,0.6c-0.6,0.7-0.5,1.7,0.2,2.3c0.3,0.3,0.7,0.4,1.1,0.4c0.4,0,0.9-0.2,1.2-0.5l0.5-0.6
		c0.6-0.7,0.5-1.7-0.2-2.3C328,140,327,140.1,326.5,140.7"/>
	<path class="st1" d="M320.7,147.3l-0.5,0.6c-0.6,0.7-0.5,1.7,0.1,2.3c0.3,0.3,0.7,0.4,1.1,0.4c0.4,0,0.9-0.2,1.2-0.5l0.5-0.6
		c0.6-0.7,0.5-1.7-0.1-2.3C322.3,146.6,321.2,146.7,320.7,147.3"/>
	<path class="st1" d="M314.9,153.9l-0.5,0.6c-0.6,0.7-0.5,1.7,0.1,2.3c0.3,0.3,0.7,0.4,1.1,0.4c0.4,0,0.9-0.2,1.2-0.5l0.5-0.6
		c0.6-0.7,0.5-1.7-0.1-2.3C316.5,153.2,315.5,153.3,314.9,153.9"/>
	<path class="st1" d="M309.1,160.6l-0.5,0.6c-0.6,0.7-0.5,1.7,0.1,2.3c0.3,0.3,0.7,0.4,1.1,0.4c0.4,0,0.9-0.2,1.2-0.5l0.5-0.6
		c0.6-0.7,0.5-1.7-0.1-2.3C310.7,159.8,309.7,159.9,309.1,160.6"/>
	<path class="st1" d="M274.3,200.2l-0.5,0.6c-0.6,0.7-0.5,1.7,0.1,2.3c0.3,0.3,0.7,0.4,1.1,0.4c0.4,0,0.9-0.2,1.2-0.5l0.5-0.6
		c0.6-0.7,0.5-1.7-0.2-2.3C275.9,199.5,274.9,199.6,274.3,200.2"/>
	<path class="st1" d="M338,127.5l-0.5,0.6c-0.6,0.7-0.5,1.7,0.2,2.3c0.3,0.3,0.7,0.4,1.1,0.4c0.4,0,0.9-0.2,1.2-0.5l0.5-0.6
		c0.6-0.7,0.5-1.7-0.2-2.3C339.6,126.8,338.6,126.8,338,127.5"/>
	<path class="st1" d="M332.2,134.1l-0.5,0.6c-0.6,0.7-0.5,1.7,0.1,2.3c0.3,0.3,0.7,0.4,1.1,0.4c0.4,0,0.9-0.2,1.2-0.5l0.5-0.6
		c0.6-0.7,0.5-1.7-0.1-2.3C333.8,133.4,332.8,133.4,332.2,134.1"/>
	<path class="st1" d="M303.3,167.2l-0.5,0.6c-0.6,0.7-0.5,1.7,0.1,2.3c0.3,0.3,0.7,0.4,1.1,0.4c0.4,0,0.9-0.2,1.2-0.5l0.5-0.6
		c0.6-0.7,0.5-1.7-0.1-2.3C304.9,166.4,303.9,166.5,303.3,167.2"/>
	<path class="st1" d="M285.9,187l-0.5,0.6c-0.6,0.7-0.5,1.7,0.1,2.3c0.3,0.3,0.7,0.4,1.1,0.4c0.4,0,0.9-0.2,1.2-0.5l0.5-0.6
		c0.6-0.7,0.5-1.7-0.1-2.3C287.5,186.3,286.5,186.3,285.9,187"/>
	<path class="st1" d="M280.1,193.6l-0.5,0.6c-0.6,0.7-0.5,1.7,0.1,2.3c0.3,0.3,0.7,0.4,1.1,0.4c0.4,0,0.9-0.2,1.2-0.5l0.5-0.6
		c0.6-0.7,0.5-1.7-0.1-2.3C281.7,192.9,280.7,193,280.1,193.6"/>
	<path class="st1" d="M194.9,274.7c-0.6-0.6-1.6-0.7-2.3-0.1c-0.6,0.6-0.7,1.6-0.1,2.3l0.5,0.6c0.3,0.3,0.7,0.5,1.2,0.5
		c0.4,0,0.8-0.1,1.1-0.4c0.6-0.6,0.7-1.6,0.1-2.3L194.9,274.7"/>
	<path class="st1" d="M297.5,173.8l-0.5,0.6c-0.6,0.7-0.5,1.7,0.2,2.3c0.3,0.3,0.7,0.4,1.1,0.4c0.4,0,0.9-0.2,1.2-0.5l0.5-0.6
		c0.6-0.7,0.5-1.7-0.2-2.3C299.1,173.1,298.1,173.1,297.5,173.8"/>
	<path class="st1" d="M222.2,259.7l-0.5,0.6c-0.6,0.7-0.5,1.7,0.1,2.3c0.3,0.3,0.7,0.4,1.1,0.4c0.4,0,0.9-0.2,1.2-0.5l0.5-0.6
		c0.6-0.7,0.5-1.7-0.1-2.3C223.8,259,222.8,259.1,222.2,259.7"/>
	<path class="st1" d="M92,232c-0.6-0.7-1.6-0.7-2.3-0.2c-0.7,0.6-0.7,1.6-0.2,2.3l0.5,0.6c0.3,0.4,0.8,0.6,1.2,0.6
		c0.4,0,0.7-0.1,1-0.4c0.7-0.6,0.7-1.6,0.2-2.3L92,232"/>
	<path class="st1" d="M86.3,225.3c-0.6-0.7-1.6-0.7-2.3-0.2c-0.7,0.6-0.7,1.6-0.2,2.3l0.5,0.6c0.3,0.4,0.8,0.5,1.2,0.5
		c0.4,0,0.7-0.1,1-0.4c0.7-0.6,0.7-1.6,0.2-2.3L86.3,225.3"/>
	<path class="st1" d="M80.5,218.7c-0.6-0.7-1.6-0.7-2.3-0.2c-0.7,0.6-0.7,1.6-0.2,2.3l0.5,0.6c0.3,0.4,0.8,0.6,1.2,0.6
		c0.4,0,0.7-0.1,1-0.4c0.7-0.6,0.7-1.6,0.2-2.3L80.5,218.7"/>
	<path class="st1" d="M103.6,245.3c-0.6-0.7-1.6-0.7-2.3-0.2c-0.7,0.6-0.7,1.6-0.2,2.3l0.5,0.6c0.3,0.4,0.8,0.6,1.2,0.6
		c0.4,0,0.7-0.1,1-0.4c0.7-0.6,0.7-1.6,0.2-2.3L103.6,245.3"/>
	<path class="st1" d="M74.8,212c-0.6-0.7-1.6-0.7-2.3-0.2c-0.7,0.6-0.7,1.6-0.2,2.3l0.5,0.6c0.3,0.4,0.8,0.5,1.2,0.5
		c0.4,0,0.7-0.1,1-0.4c0.7-0.6,0.7-1.6,0.2-2.3L74.8,212"/>
	<path class="st1" d="M108,241l-0.6,0.6c-0.6,0.6-0.7,1.6,0,2.3c0.3,0.3,0.7,0.5,1.2,0.5c0.4,0,0.8-0.1,1.1-0.4l0.6-0.6
		c0.6-0.6,0.7-1.6,0-2.3C109.7,240.4,108.7,240.4,108,241"/>
	<path class="st1" d="M97.8,238.6c-0.6-0.7-1.6-0.7-2.3-0.2c-0.7,0.6-0.7,1.6-0.2,2.3l0.5,0.6c0.3,0.4,0.8,0.5,1.2,0.5
		c0.4,0,0.7-0.1,1-0.4c0.7-0.6,0.7-1.6,0.2-2.3L97.8,238.6"/>
	<path class="st1" d="M46,178.8c-0.6-0.7-1.6-0.7-2.3-0.2c-0.7,0.6-0.7,1.6-0.2,2.3l0.5,0.6c0.3,0.4,0.8,0.5,1.2,0.5
		c0.4,0,0.7-0.1,1-0.4c0.7-0.6,0.7-1.6,0.2-2.3L46,178.8"/>
	<path class="st1" d="M51.7,185.5c-0.6-0.7-1.6-0.7-2.3-0.2c-0.7,0.6-0.7,1.6-0.2,2.3l0.5,0.6c0.3,0.4,0.8,0.6,1.2,0.6
		c0.4,0,0.7-0.1,1-0.4c0.7-0.6,0.7-1.6,0.2-2.3L51.7,185.5"/>
	<path class="st1" d="M63.2,198.8c-0.6-0.7-1.6-0.7-2.3-0.2c-0.7,0.6-0.7,1.6-0.2,2.3l0.5,0.6c0.3,0.4,0.8,0.6,1.2,0.6
		c0.4,0,0.7-0.1,1-0.4c0.7-0.6,0.7-1.6,0.2-2.3L63.2,198.8"/>
	<path class="st1" d="M69,205.4c-0.6-0.7-1.6-0.7-2.3-0.2c-0.7,0.6-0.7,1.6-0.2,2.3l0.5,0.6c0.3,0.4,0.8,0.6,1.2,0.6
		c0.4,0,0.7-0.1,1-0.4c0.7-0.6,0.7-1.6,0.2-2.3L69,205.4"/>
	<path class="st1" d="M57.5,192.1c-0.6-0.7-1.6-0.7-2.3-0.2c-0.7,0.6-0.7,1.6-0.2,2.3l0.5,0.6c0.3,0.4,0.8,0.6,1.2,0.6
		c0.4,0,0.7-0.1,1-0.4c0.7-0.6,0.7-1.6,0.2-2.3L57.5,192.1"/>
	<path class="st1" d="M165.1,242.3c-0.6-0.6-1.6-0.7-2.3-0.1c-0.6,0.6-0.7,1.6-0.1,2.3l0.5,0.6c0.3,0.3,0.7,0.5,1.2,0.5
		c0.4,0,0.8-0.1,1.1-0.4c0.6-0.6,0.7-1.6,0.1-2.3L165.1,242.3"/>
	<path class="st1" d="M188.9,268.2c-0.6-0.6-1.6-0.7-2.3-0.1c-0.6,0.6-0.7,1.6-0.1,2.3l0.5,0.6c0.3,0.3,0.7,0.5,1.2,0.5
		c0.4,0,0.8-0.1,1.1-0.4c0.6-0.6,0.7-1.6,0.1-2.3L188.9,268.2"/>
	<path class="st1" d="M114.4,234.9l-0.6,0.6c-0.6,0.6-0.7,1.6,0,2.3c0.3,0.3,0.7,0.5,1.2,0.5c0.4,0,0.8-0.1,1.1-0.4l0.6-0.6
		c0.6-0.6,0.7-1.6,0-2.3C116,234.3,115,234.3,114.4,234.9"/>
	<path class="st1" d="M171,248.8c-0.6-0.6-1.6-0.7-2.3-0.1c-0.6,0.6-0.7,1.6-0.1,2.3l0.5,0.6c0.3,0.3,0.7,0.5,1.2,0.5
		c0.4,0,0.8-0.1,1.1-0.4c0.6-0.6,0.7-1.6,0.1-2.3L171,248.8"/>
	<path class="st1" d="M177,255.3c-0.6-0.6-1.6-0.7-2.3-0.1c-0.6,0.6-0.7,1.6-0.1,2.3l0.5,0.6c0.3,0.3,0.7,0.5,1.2,0.5
		c0.4,0,0.8-0.1,1.1-0.4c0.6-0.6,0.7-1.6,0.1-2.3L177,255.3"/>
	<path class="st1" d="M183,261.7c-0.6-0.6-1.6-0.7-2.3-0.1s-0.7,1.6-0.1,2.3l0.5,0.6c0.3,0.3,0.7,0.5,1.2,0.5c0.4,0,0.8-0.1,1.1-0.4
		c0.6-0.6,0.7-1.6,0.1-2.3L183,261.7"/>
	<path class="st1" d="M153.2,229.4c-0.6-0.6-1.6-0.7-2.3-0.1s-0.7,1.6-0.1,2.3l0.5,0.6c0.3,0.3,0.7,0.5,1.2,0.5
		c0.4,0,0.8-0.1,1.1-0.4c0.6-0.6,0.7-1.6,0.1-2.3L153.2,229.4"/>
	<path class="st1" d="M159.1,235.9c-0.6-0.6-1.6-0.7-2.3-0.1c-0.6,0.6-0.7,1.6-0.1,2.3l0.5,0.6c0.3,0.3,0.7,0.5,1.2,0.5
		c0.4,0,0.8-0.1,1.1-0.4c0.6-0.6,0.7-1.6,0.1-2.3L159.1,235.9"/>
	<path class="st1" d="M120.7,228.8l-0.6,0.6c-0.6,0.6-0.7,1.6,0,2.3c0.3,0.3,0.7,0.5,1.2,0.5c0.4,0,0.8-0.1,1.1-0.4l0.6-0.6
		c0.6-0.6,0.7-1.6,0-2.3C122.4,228.3,121.4,228.2,120.7,228.8"/>
	<path class="st1" d="M127.1,222.7l-0.6,0.6c-0.6,0.6-0.7,1.6,0,2.3c0.3,0.3,0.7,0.5,1.2,0.5c0.4,0,0.8-0.1,1.1-0.4l0.6-0.6
		c0.6-0.6,0.7-1.6,0-2.3C128.7,222.2,127.7,222.1,127.1,222.7"/>
	<path class="st1" d="M141.3,216.5c-0.6-0.6-1.6-0.7-2.3-0.1c-0.6,0.6-0.7,1.6-0.1,2.3l0.5,0.6c0.3,0.3,0.7,0.5,1.2,0.5
		c0.4,0,0.8-0.1,1.1-0.4c0.6-0.6,0.7-1.6,0.1-2.3L141.3,216.5"/>
	<path class="st1" d="M133.4,216.7l-0.6,0.6c-0.6,0.6-0.7,1.6,0,2.3c0.3,0.3,0.7,0.5,1.2,0.5c0.4,0,0.8-0.1,1.1-0.4l0.6-0.6
		c0.6-0.6,0.7-1.6,0-2.3C135,216.1,134,216,133.4,216.7"/>
	<path class="st1" d="M147.2,222.9c-0.6-0.6-1.6-0.7-2.3-0.1c-0.6,0.6-0.7,1.6-0.1,2.3l0.5,0.6c0.3,0.3,0.7,0.5,1.2,0.5
		c0.4,0,0.8-0.1,1.1-0.4c0.6-0.6,0.7-1.6,0.1-2.3L147.2,222.9"/>
	<polygon class="st1" points="334.3,119.6 348.7,132.2 352.5,113.5 	"/>
	<path class="st1" d="M368.7,298.5c3.4,6.6,9.1,11.5,16.1,13.8c2.8,0.9,5.7,1.4,8.6,1.4c4.3,0,8.6-1,12.5-3
		c6.6-3.3,11.5-9.1,13.8-16.1c0.2-0.6-0.1-1.3-0.8-1.5c-0.6-0.2-1.3,0.1-1.5,0.8c-2.1,6.4-6.6,11.6-12.6,14.7
		c-6,3.1-12.9,3.6-19.3,1.5c-6.4-2.1-11.6-6.6-14.7-12.6c-3.1-6-3.6-12.9-1.5-19.3c4.3-13.3,18.6-20.5,31.9-16.2
		c6.1,2,11.3,6.3,14.3,11.9l-4.4,2.6l10.6,6l-0.1-12.2l-4,2.3c-3.4-6.1-9-10.8-15.7-13c-14.5-4.7-30.2,3.2-34.9,17.7
		C364.7,284.4,365.3,291.9,368.7,298.5"/>
	<path class="st3" d="M430.3,265.1c-4.4-8.6-11.6-15.5-20.5-19.4c-0.6-0.3-1.3,0-1.6,0.6c-0.3,0.6,0,1.3,0.6,1.6
		c8.3,3.7,15.2,10.2,19.3,18.3c9.9,19.5,2.1,43.5-17.4,53.5c-9.5,4.8-20.2,5.6-30.3,2.4c-10.1-3.3-18.3-10.3-23.1-19.8
		c-8.5-16.7-4.4-36.6,10-48.6c0.5-0.4,0.6-1.2,0.2-1.7c-0.4-0.5-1.2-0.6-1.7-0.2c-15.2,12.6-19.6,33.8-10.6,51.5
		c5.1,10,13.8,17.5,24.5,21c4.3,1.4,8.7,2.1,13.1,2.1c6.5,0,13-1.5,19-4.6C432.5,311.3,440.8,285.8,430.3,265.1"/>
</g>
</svg>
