<?xml version="1.0" encoding="utf-8"?>
<!-- Generator: Adobe Illustrator 19.2.1, SVG Export Plug-In . SVG Version: 6.00 Build 0)  -->
<!DOCTYPE svg PUBLIC "-//W3C//DTD SVG 1.1//EN" "http://www.w3.org/Graphics/SVG/1.1/DTD/svg11.dtd">
<svg version="1.1" id="Layer_1" xmlns="http://www.w3.org/2000/svg" xmlns:xlink="http://www.w3.org/1999/xlink" x="0px" y="0px"
	 width="644px" height="474px" viewBox="0 0 644 474" style="enable-background:new 0 0 644 474;" xml:space="preserve">
<style type="text/css">
	.st0{fill:none;stroke:#045272;stroke-width:2;stroke-linecap:round;stroke-miterlimit:10;}
	.st1{fill:#045272;}
	.st2{fill:none;stroke:#4398B5;stroke-width:1.5;stroke-miterlimit:10;}
	.st3{fill:none;stroke:#4398B5;stroke-width:1.5;stroke-linecap:round;stroke-miterlimit:10;}
	.st4{fill:none;}
	.st5{fill:#3094B4;}
	.st6{fill:none;stroke:#015172;stroke-width:2;stroke-linecap:round;stroke-miterlimit:10;}
	.st7{fill:#015172;}
</style>
<g>
	<path class="st0" d="M368.3,230H461c40.4,0,73.1,32.7,73.1,73.1c0,40.4-32.7,73.1-73.1,73.1H156.1"/>
	<path class="st1" d="M371.8,242.5l-22-12.5l22-12.8V242.5z"/>
	<path class="st2" d="M414,151.6c-49.1-18.1-113.5-19.9-170.7,2.6"/>
	<path class="st3" d="M277.3,130.6c-30.2,55.2-35.5,142.1,0.3,212.9"/>
	<path class="st4" d="M404.6,254.6c-13.3,4.3-27.3,7.7-41.4,9.7c-1,10-2.6,19.4-4.6,28.9c14.3-1.8,28.9-4.9,42.9-9.5
		C403,274.2,404.1,264.5,404.6,254.6L404.6,254.6z M403,211.6c-13-4.1-26.8-6.9-41.2-8.7c2.8,19.4,3.3,38.9,1.8,57.3
		c13.8-2,27.9-5.4,41.4-9.7C405.1,237.7,404.6,224.7,403,211.6L403,211.6z M344.5,324.1c3.3-8.2,6.4-17.1,8.7-26.3
		c-8.7,1-17.6,1.3-26.6,1.3h-3.8c-5.1,0-10.5-0.3-15.6-0.8c2.6,8.9,5.6,17.6,9.2,26.3C325.6,325.1,335,324.8,344.5,324.1z
		 M400.5,288c-13.8,4.3-28.4,7.4-43.2,9.2c-2.3,9.2-5.1,18.1-8.4,26.6c15.1-1.3,30.2-4.1,44.5-8.2
		C396.4,306.7,398.7,297.5,400.5,288z M437.5,189.9c-11-25-30.2-45.8-54.4-58c6.9,13.5,12.3,27.9,16.4,42.9
		C413.5,178.6,426.3,183.8,437.5,189.9z M395.4,173.3c-4.3-15.3-10.2-29.9-17.4-43.7c0-0.3-0.3-0.5-0.3-0.8
		c-14.1-6.4-29.4-10-45.5-10.2c9.2,15.3,16.1,31.2,21.2,47.5C368,167.4,382.1,170,395.4,173.3z M446.5,231.6
		c-11.2-7.4-24.8-13.8-39.4-18.7c1.3,12,1.8,24.3,1.5,36.3C421.4,244.6,434.2,238.7,446.5,231.6z M349.1,165.9
		c-4.9-15.3-11.8-30.4-20.4-45c-8.4,12.8-15.6,28.4-20.7,45.5C322,165.1,335.8,164.8,349.1,165.9z M306.9,170.2
		c-2.6,9.2-4.6,18.9-6.1,28.9c12-1.5,24-2.3,36.3-2c6.6,0,13.3,0.5,19.9,1.3c-1.5-9.5-3.8-19.2-6.9-28.6
		C336.3,168.7,321.7,168.9,306.9,170.2z M406.4,208.6c14.8,4.9,28.6,11.2,40.4,18.7c-0.8-11-3.3-21.7-6.9-31.7
		c-11.5-6.6-24.5-12.3-39.1-16.6C403.3,188.6,405.1,198.6,406.4,208.6L406.4,208.6z M300,261.5c19.2,2,39.4,2,59.6-0.8
		c1.8-18.7,1.3-38.6-1.8-58.3c-18.7-1.8-37.8-1.8-57.5,0.8C298,221.8,297.7,241.5,300,261.5L300,261.5z M402.5,207.3
		c-1.3-10-3.3-19.9-5.9-29.6c-13.3-3.6-27.3-6.1-41.9-7.7c2.8,9.5,5.1,19.2,6.6,28.6C375.4,200.4,389.2,203.4,402.5,207.3
		L402.5,207.3z M354.2,293.7c2-9.2,3.8-18.9,4.9-28.6c-10.7,1.3-21.7,2-32.7,2h-4.9c-7.2-0.3-14.1-0.5-21.2-1.3
		c1.3,9.5,3.1,18.9,5.6,28.6C321.7,295.5,337.9,295.5,354.2,293.7L354.2,293.7z M397.7,314.4c9.5-2.8,18.9-6.4,27.9-10.5h0.5
		c7.2-10.2,12.8-21.5,16.4-33.5c-12,6.6-24.5,12-37.6,16.4C403,296.2,400.7,305.4,397.7,314.4L397.7,314.4z M326.1,328.7
		c-2.8,0-5.4,0-8.2-0.3c3.6,7.9,7.7,15.8,12.3,23.5c4.9-7.2,8.9-15.3,12.8-24C337.3,328.4,331.7,328.7,326.1,328.7L326.1,328.7z
		 M388.2,338.4c12.8-7.4,24-17.1,33.2-28.4c-8.2,3.3-16.6,6.4-25,8.9C394.1,325.6,391.3,332,388.2,338.4z M447.2,235.4
		c-12,7.2-25.3,13-38.9,17.9c-0.5,9.7-1.5,19.4-3.1,29.1c13-4.3,26.1-10.2,38.3-17.4c2.3-9.2,3.6-18.7,3.6-28.6L447.2,235.4
		L447.2,235.4z M325.6,118.8c-47.5,1.5-87.9,31.4-105.1,73.1c26.8-14.1,55.5-22,83.6-25C309.5,148.7,316.6,132.4,325.6,118.8z
		 M347.3,327.7c-4.1,9.7-8.7,18.4-13.8,26.3c17.6-0.5,34.2-5.1,49.3-12.5v-0.3c3.6-6.9,6.6-14.1,9.2-21.2
		C377.2,323.8,362.4,326.4,347.3,327.7z M212.6,232.8c22,14.3,51.1,24.3,83.6,28.4c-2-19.7-1.8-38.9,0.3-57.3
		C267.6,207.8,238.7,217.2,212.6,232.8L212.6,232.8z"/>
	<path class="st4" d="M302.8,170.7c-28.6,3.3-57.8,11.8-84.6,26.6c-3.6,10-5.6,20.4-6.4,31.2c25.3-14.8,54.4-24.5,85.1-28.9
		C298.5,189.6,300.5,179.9,302.8,170.7L302.8,170.7z M296.7,265.3c-31.9-3.8-61.9-13.8-84.9-28.4c0,10.5,1.5,20.4,4.1,29.9
		c22.5,13.8,52.9,23.8,86.4,27.1C299.5,284.2,297.7,274.8,296.7,265.3L296.7,265.3z"/>
	<path class="st4" d="M303.1,298c-31.9-2.8-61.9-11.8-85.9-25.8c4.1,12.5,10,24,17.6,34.2c23.5,10.5,50.1,16.4,77.2,17.9
		C308.5,315.6,305.6,307,303.1,298z"/>
	<path class="st4" d="M239.7,312.6c21.2,24.8,52.1,40.6,87.2,41.4c-5.1-8.4-9.5-17.1-13.3-25.8C287.8,327.1,262.7,321.8,239.7,312.6
		z"/>
	<path class="st5" d="M329.4,114.7c-67,0-121.7,54.4-121.7,121.7c0,27.1,8.9,51.9,23.8,72.1c0,0.3,0.3,0.5,0.5,0.8
		c22.2,29.6,57.5,48.8,97.4,48.8c67,0,121.7-54.4,121.7-121.7C451.1,169.4,396.6,114.7,329.4,114.7z M447,227.2
		c-11.8-7.7-25.6-13.8-40.4-18.7c-1.3-10-3.3-19.9-5.6-29.6c14.6,4.3,27.9,10,39.1,16.6C443.7,205.5,446,216.2,447,227.2L447,227.2z
		 M406.9,212.9c14.8,4.9,28.1,11.2,39.4,18.7c-12,7.2-24.8,13-37.8,17.6C408.9,237.2,408.4,224.9,406.9,212.9z M357.3,198.3
		c-6.6-0.8-13.3-1-19.9-1.3c-12.3-0.3-24.3,0.5-36.3,2c1.5-10,3.6-19.7,6.1-28.9c14.8-1.5,29.1-1.5,43.5-0.5
		C353.2,179.2,355.5,188.9,357.3,198.3z M354.5,170.2c14.8,1.3,28.9,3.8,41.9,7.7c2.6,9.7,4.6,19.7,5.9,29.6
		c-13-4.1-27.1-6.9-41.4-8.4C359.6,189.1,357.3,179.7,354.5,170.2L354.5,170.2z M357.8,202.7c3.1,19.9,3.3,39.6,1.8,58.3
		c-20.2,2.6-40.4,2.8-59.6,0.8c-2.3-19.9-2-39.6,0.3-58.3C320,200.9,339.1,200.6,357.8,202.7L357.8,202.7z M321.7,267.1h4.9
		c11,0,22-0.8,32.7-2c-1,10-2.8,19.4-4.9,28.6c-16.4,1.8-32.5,1.8-48.1,0.5c-2.6-9.5-4.3-18.9-5.6-28.6
		C307.4,266.3,314.6,266.8,321.7,267.1z M322.8,299h3.8c8.9,0,17.9-0.5,26.6-1.3c-2.3,9.2-5.4,18.1-8.7,26.3
		c-9.5,0.8-18.9,0.8-28.4,0.5c-3.6-8.7-6.6-17.4-9.2-26.3C312.3,298.8,317.4,299,322.8,299z M357.3,297.2
		c14.8-1.8,29.4-4.9,43.2-9.2c-1.8,9.5-4.1,18.7-7.2,27.6c-14.6,4.1-29.4,6.6-44.5,8.2C352.2,315.4,355,306.4,357.3,297.2
		L357.3,297.2z M358.3,293.2c2-9.2,3.6-18.9,4.6-28.9c14.3-2,28.1-5.4,41.4-9.7c-0.5,9.7-1.5,19.7-3.1,29.1
		C387.2,288.3,372.6,291.4,358.3,293.2L358.3,293.2z M363.4,260.4c1.5-18.4,1.3-37.8-1.8-57.3c14.6,1.8,28.4,4.6,41.2,8.7
		c1.5,13,2,26.1,1.8,38.9C391,255.1,377.2,258.4,363.4,260.4z M437.5,189.9c-11.2-6.1-24-11.2-38.1-15.1
		c-4.1-15.1-9.5-29.4-16.4-42.9C407.4,144.1,426.8,164.6,437.5,189.9z M377.7,129.1c0,0.3,0,0.5,0.3,0.8c7.4,13.5,13,28.4,17.4,43.7
		c-13.3-3.6-27.3-5.9-41.9-7.2c-5.1-16.1-12-32.2-21.2-47.5C348.3,119.1,363.7,122.7,377.7,129.1z M349.1,165.9
		c-13.3-1-27.1-0.8-41.2,0.5c5.1-17.1,12.3-32.7,20.7-45.5C337.6,135.5,344.2,150.5,349.1,165.9z M325.6,118.8
		c-8.9,13.5-16.1,29.9-21.5,48.1c-28.1,3.1-57,11-83.6,25C237.7,150,278,120.4,325.6,118.8z M218.5,197.3
		c26.8-14.8,56-23.3,84.6-26.6c-2.6,9.2-4.6,18.9-5.9,28.9c-30.7,4.3-59.8,14.3-85.1,28.9C212.6,217.8,214.9,207.3,218.5,197.3
		L218.5,197.3z M296.2,261.2c-32.2-3.8-61.6-14.1-83.6-28.4c26.1-15.6,55-24.8,83.8-28.9C294.1,222.1,293.9,241.5,296.2,261.2
		L296.2,261.2z M211.8,236.7c23,14.6,52.9,24.5,84.9,28.4c1.3,9.5,3.1,19.2,5.4,28.6c-33.5-3.3-63.9-13.3-86.4-27.1
		C213.1,257.1,211.8,247.1,211.8,236.7L211.8,236.7z M217.2,272.2c24,14.1,53.7,22.7,85.9,25.8c2.3,8.9,5.4,17.6,8.9,26.3
		c-27.3-1.5-53.7-7.4-77.2-17.9C227.2,296.2,221.3,284.7,217.2,272.2L217.2,272.2z M239.7,312.6c22.7,9.2,48.1,14.3,73.9,15.6
		c3.8,8.7,8.2,17.4,13.3,25.8C292.1,353.5,260.9,337.4,239.7,312.6z M317.9,328.4c2.8,0,5.4,0.3,8.2,0.3c5.6,0,11.2-0.3,16.9-0.5
		c-3.8,8.7-8.2,16.9-12.8,24C325.6,344.3,321.5,336.3,317.9,328.4L317.9,328.4z M382.6,341.5c-14.8,7.7-31.4,12-49.3,12.5
		c5.1-7.9,10-16.9,13.8-26.3c15.1-1.3,30.2-3.8,44.5-7.7C389.2,327.4,386.2,334.6,382.6,341.5z M388.2,338.4
		c3.1-6.4,5.6-12.8,7.9-19.7c8.7-2.6,16.9-5.4,25-8.9C412.2,321.3,401,331,388.2,338.4z M426,303.9h-0.5
		c-8.9,4.1-18.4,7.4-27.9,10.5c2.8-8.9,5.1-18.1,6.9-27.6c13-4.3,25.8-10,37.6-16.4C438.6,282.4,433.2,293.7,426,303.9L426,303.9z
		 M405.3,282.4c1.5-9.5,2.6-19.2,3.1-29.1c13.8-4.9,26.8-10.7,38.9-17.9v1c0,10-1.3,19.4-3.6,28.6
		C431.4,272.2,418.6,277.8,405.3,282.4L405.3,282.4z"/>
	<g>
		<path class="st5" d="M327.9,446l-3.1-1.8c-1-0.5-1.3-1.8-0.8-2.6c0.5-1,1.8-1.3,2.6-0.8l1,0.5l1.5-0.8c1-0.5,2-0.3,2.6,0.8
			s0.3,2-0.8,2.6L327.9,446z M312.8,436.8c-0.3,0-0.8,0-1-0.3l-4.3-2.6c-1-0.5-1.3-1.8-0.8-2.6c0.5-1,1.8-1.3,2.6-0.8l4.3,2.6
			c1,0.5,1.3,1.8,0.8,2.6C314.1,436.5,313.3,436.8,312.8,436.8z M343.7,436.5c-0.8,0-1.3-0.3-1.8-1c-0.5-1-0.3-2,0.8-2.6l4.3-2.6
			c1-0.5,2-0.3,2.6,0.8s0.3,2-0.8,2.6l-4.3,2.6C344.2,436.5,344,436.5,343.7,436.5z M294.9,426.6c-0.3,0-0.8,0-1-0.3l-4.3-2.6
			c-1-0.5-1.3-1.8-0.8-2.6c0.5-1,1.8-1.3,2.6-0.8l4.3,2.6c1,0.5,1.3,1.8,0.8,2.6C296.2,426.3,295.7,426.6,294.9,426.6z M361.4,426.3
			c-0.8,0-1.3-0.3-1.8-1c-0.5-1-0.3-2,0.8-2.6l4.3-2.6c1-0.5,2-0.3,2.6,0.8s0.3,2-0.8,2.6l-4.3,2.6
			C362.1,426.3,361.6,426.3,361.4,426.3z M277.3,416.4c-0.3,0-0.8,0-1-0.3l-4.3-2.6c-1-0.5-1.3-1.8-0.8-2.6c0.5-1,1.8-1.3,2.6-0.8
			l4.3,2.6c1,0.5,1.3,1.8,0.8,2.6C278.6,416.1,278,416.4,277.3,416.4z M379,416.1c-0.8,0-1.3-0.3-1.8-1c-0.5-1-0.3-2,0.8-2.6
			l4.3-2.6c1-0.5,2-0.3,2.6,0.8c0.5,1,0.3,2-0.8,2.6l-4.3,2.6C379.8,416.1,379.5,416.1,379,416.1z M259.6,406.1c-0.3,0-0.8,0-1-0.3
			l-4.3-2.6c-1-0.5-1.3-1.8-0.8-2.6c0.5-1,1.8-1.3,2.6-0.8l4.3,2.6c1,0.5,1.3,1.8,0.8,2.6C260.9,405.9,260.2,406.1,259.6,406.1z
			 M396.9,405.9c-0.8,0-1.3-0.3-1.8-1c-0.5-1-0.3-2,0.8-2.6l4.3-2.6c1-0.5,2-0.3,2.6,0.8c0.5,1,0.3,2-0.8,2.6l-4.3,2.6
			C397.4,405.9,397.2,405.9,396.9,405.9z M241.7,395.9c-0.3,0-0.8,0-1-0.3l-4.3-2.6c-1-0.5-1.3-1.8-0.8-2.6c0.5-1,1.8-1.3,2.6-0.8
			l4.3,2.6c1,0.5,1.3,1.8,0.8,2.6C243.3,395.6,242.5,395.9,241.7,395.9z M414.5,395.6c-0.8,0-1.3-0.3-1.8-1c-0.5-1-0.3-2,0.8-2.6
			l4.3-2.6c1-0.5,2-0.3,2.6,0.8c0.5,1,0.3,2-0.8,2.6l-4.3,2.6C415,395.6,414.8,395.6,414.5,395.6z M224.1,385.7c-0.3,0-0.8,0-1-0.3
			l-4.3-2.6c-1-0.5-1.3-1.8-0.8-2.6c0.5-1,1.8-1.3,2.6-0.8l4.3,2.6c1,0.5,1.3,1.8,0.8,2.6C225.4,385.4,224.9,385.7,224.1,385.7z
			 M432.2,385.4c-0.8,0-1.3-0.3-1.8-1c-0.5-1-0.3-2,0.8-2.6l4.3-2.6c1-0.5,2-0.3,2.6,0.8s0.3,2-0.8,2.6l-4.3,2.6
			C432.9,385.4,432.4,385.4,432.2,385.4z M206.5,375.5c-0.3,0-0.8,0-1-0.3l-4.3-2.6c-1-0.5-1.3-1.8-0.8-2.6c0.5-1,1.8-1.3,2.6-0.8
			l4.3,2.6c1,0.5,1.3,1.8,0.8,2.6C207.8,375.2,207,375.5,206.5,375.5z M449.8,375.2c-0.8,0-1.3-0.3-1.8-1c-0.5-1-0.3-2,0.8-2.6
			l4.3-2.6c1-0.5,2-0.3,2.6,0.8s0.3,2-0.8,2.6l-4.3,2.6C450.6,375.2,450.3,375.2,449.8,375.2z M188.8,365.2c-0.3,0-0.8,0-1-0.3
			l-4.3-2.6c-1-0.5-1.3-1.8-0.8-2.6c0.5-1,1.8-1.3,2.6-0.8l4.3,2.6c1,0.5,1.3,1.8,0.8,2.6C190.1,365,189.4,365.2,188.8,365.2z
			 M467.7,365c-0.8,0-1.3-0.3-1.8-1c-0.5-1-0.3-2,0.8-2.6l4.3-2.6c1-0.5,2-0.3,2.6,0.8s0.3,2-0.8,2.6l-4.3,2.6
			C468.2,365,468,365,467.7,365z M170.9,355c-0.3,0-0.8,0-1-0.3l-4.3-2.6c-1-0.5-1.3-1.8-0.8-2.6c0.5-1,1.8-1.3,2.6-0.8l4.3,2.6
			c1,0.5,1.3,1.8,0.8,2.6C172.2,354.8,171.7,355,170.9,355z M485.3,354.8c-0.8,0-1.3-0.3-1.8-1c-0.5-1-0.3-2,0.8-2.6l4.3-2.6
			c1-0.5,2-0.3,2.6,0.8s0.3,2-0.8,2.6l-4.3,2.6C486.1,354.8,485.6,354.8,485.3,354.8z M153.3,344.8c-0.3,0-0.8,0-1-0.3l-4.3-2.6
			c-1-0.5-1.3-1.8-0.8-2.6c0.5-1,1.8-1.3,2.6-0.8l4.3,2.6c1,0.5,1.3,1.8,0.8,2.6C154.6,344.5,154.1,344.8,153.3,344.8z M503,344.5
			c-0.8,0-1.3-0.3-1.8-1c-0.5-1-0.3-2,0.8-2.6l4.3-2.6c1-0.5,2-0.3,2.6,0.8c0.5,1,0.3,2-0.8,2.6l-4.3,2.6
			C503.7,344.5,503.5,344.5,503,344.5z M507.6,330.2c-1,0-2-0.8-2-2v-5.1c0-1,0.8-2,2-2c1,0,2,0.8,2,2v5.1
			C509.4,329.4,508.6,330.2,507.6,330.2z M148.5,327.1c-1,0-2-0.8-2-2V320c0-1,0.8-2,2-2c1,0,2,0.8,2,2v5.1
			C150.2,326.4,149.5,327.1,148.5,327.1z M507.6,309.8c-1,0-2-0.8-2-2v-5.1c0-1,0.8-2,2-2c1,0,2,0.8,2,2v5.1
			C509.4,309,508.6,309.8,507.6,309.8z M148.5,306.7c-1,0-2-0.8-2-2v-5.1c0-1,0.8-2,2-2c1,0,2,0.8,2,2v5.1
			C150.2,305.9,149.5,306.7,148.5,306.7z M507.6,289.3c-1,0-2-0.8-2-2v-5.1c0-1,0.8-2,2-2c1,0,2,0.8,2,2v5.1
			C509.4,288.6,508.6,289.3,507.6,289.3z M148.5,286.3c-1,0-2-0.8-2-2v-5.1c0-1,0.8-2,2-2c1,0,2,0.8,2,2v5.1
			C150.2,285.5,149.5,286.3,148.5,286.3z M507.6,268.9c-1,0-2-0.8-2-2v-5.1c0-1,0.8-2,2-2c1,0,2,0.8,2,2v5.1
			C509.4,268.1,508.6,268.9,507.6,268.9z M148.5,265.8c-1,0-2-0.8-2-2v-5.1c0-1,0.8-2,2-2c1,0,2,0.8,2,2v5.1
			C150.2,265,149.5,265.8,148.5,265.8z M507.6,248.4c-1,0-2-0.8-2-2v-5.1c0-1,0.8-2,2-2c1,0,2,0.8,2,2v5.1
			C509.4,247.7,508.6,248.4,507.6,248.4z M148.5,245.4c-1,0-2-0.8-2-2v-5.1c0-1,0.8-2,2-2c1,0,2,0.8,2,2v5.1
			C150.2,244.6,149.5,245.4,148.5,245.4z M507.6,228c-1,0-2-0.8-2-2v-5.1c0-1,0.8-2,2-2c1,0,2,0.8,2,2v5.1
			C509.4,227.2,508.6,228,507.6,228z M148.5,224.9c-1,0-2-0.8-2-2v-5.1c0-1,0.8-2,2-2c1,0,2,0.8,2,2v5.1
			C150.2,224.1,149.5,224.9,148.5,224.9z M507.6,207.5c-1,0-2-0.8-2-2v-5.1c0-1,0.8-2,2-2c1,0,2,0.8,2,2v5.1
			C509.4,206.8,508.6,207.5,507.6,207.5z M148.5,204.5c-1,0-2-0.8-2-2v-5.1c0-1,0.8-2,2-2c1,0,2,0.8,2,2v5.1
			C150.2,203.7,149.5,204.5,148.5,204.5z M507.6,187.1c-1,0-2-0.8-2-2v-5.1c0-1,0.8-2,2-2c1,0,2,0.8,2,2v5.1
			C509.4,186.3,508.6,187.1,507.6,187.1z M148.5,184c-1,0-2-0.8-2-2v-5.1c0-1,0.8-2,2-2c1,0,2,0.8,2,2v5.1
			C150.2,183.2,149.5,184,148.5,184z M507.6,166.6c-1,0-2-0.8-2-2v-5.1c0-1,0.8-2,2-2c1,0,2,0.8,2,2v5.1
			C509.4,165.9,508.6,166.6,507.6,166.6z M148.5,163.6c-1,0-2-0.8-2-2v-5.1c0-1,0.8-2,2-2c1,0,2,0.8,2,2v5.1
			C150.2,162.8,149.5,163.6,148.5,163.6z M507.6,146.2c-1,0-2-0.8-2-2V139c0-1,0.8-2,2-2c1,0,2,0.8,2,2v5.1
			C509.4,145.4,508.6,146.2,507.6,146.2z M148.5,143.1c-1,0-2-0.8-2-2V136c0-1,0.8-2,2-2c1,0,2,0.8,2,2v5.1
			C150.2,142.4,149.5,143.1,148.5,143.1z M499.6,130.3c-0.3,0-0.8,0-1-0.3l-4.3-2.6c-1-0.5-1.3-1.8-0.8-2.6c0.5-1,1.8-1.3,2.6-0.8
			l4.3,2.6c1,0.5,1.3,1.8,0.8,2.6C501.2,129.8,500.4,130.3,499.6,130.3L499.6,130.3z M158.9,128.8c-0.8,0-1.3-0.3-1.5-1
			c-0.5-1-0.3-2,0.8-2.6l4.3-2.6c1-0.5,2-0.3,2.6,0.8c0.5,1,0.3,2-0.8,2.6l-4.3,2.6C159.4,128.5,159.2,128.8,158.9,128.8
			L158.9,128.8z M482,120.1c-0.3,0-0.8,0-1-0.3l-4.3-2.6c-1-0.5-1.3-1.8-0.8-2.6c0.5-1,1.8-1.3,2.6-0.8l4.3,2.6
			c1,0.5,1.3,1.8,0.8,2.6C483.3,119.6,482.8,120.1,482,120.1L482,120.1z M176.6,118.6c-0.8,0-1.3-0.3-1.5-1c-0.5-1-0.3-2,0.8-2.6
			l4.3-2.6c1-0.5,2-0.3,2.6,0.8c0.5,1,0.3,2-0.8,2.6l-4.3,2.6C177.3,118.3,176.8,118.6,176.6,118.6L176.6,118.6z M464.4,109.9
			c-0.3,0-0.8,0-1-0.3l-4.3-2.6c-1-0.5-1.3-1.8-0.8-2.6c0.5-1,1.8-1.3,2.6-0.8l4.3,2.6c1,0.5,1.3,1.8,0.8,2.6
			C465.7,109.4,464.9,109.9,464.4,109.9L464.4,109.9z M194.2,108.4c-0.8,0-1.3-0.3-1.5-1c-0.5-1-0.3-2,0.8-2.6l4.3-2.6
			c1-0.5,2-0.3,2.6,0.8c0.5,1,0.3,2-0.8,2.6l-4.3,2.6C195,108.1,194.7,108.4,194.2,108.4L194.2,108.4z M446.7,99.7
			c-0.3,0-0.8,0-1-0.3l-4.3-2.6c-1-0.5-1.3-1.8-0.8-2.6c0.5-1,1.8-1.3,2.6-0.8l4.3,2.6c1,0.5,1.3,1.8,0.8,2.6
			C448,99.2,447.2,99.7,446.7,99.7L446.7,99.7z M212.1,98.1c-0.8,0-1.3-0.3-1.5-1c-0.5-1-0.3-2,0.8-2.6l4.3-2.6c1-0.5,2-0.3,2.6,0.8
			c0.5,1,0.3,2-0.8,2.6l-4.3,2.6C212.6,97.9,212.4,98.1,212.1,98.1L212.1,98.1z M428.8,89.4c-0.3,0-0.8,0-1-0.3l-4.3-2.6
			c-1-0.5-1.3-1.8-0.8-2.6c0.5-1,1.8-1.3,2.6-0.8l4.3,2.6c1,0.5,1.3,1.8,0.8,2.6C430.1,88.9,429.6,89.4,428.8,89.4L428.8,89.4z
			 M229.7,87.9c-0.8,0-1.3-0.3-1.5-1c-0.5-1-0.3-2,0.8-2.6l4.3-2.6c1-0.5,2-0.3,2.6,0.8c0.5,1,0.3,2-0.8,2.6l-4.3,2.6
			C230.2,87.7,230,87.9,229.7,87.9L229.7,87.9z M411.2,79.2c-0.3,0-0.8,0-1-0.3l-4.3-2.6c-1-0.5-1.3-1.8-0.8-2.6
			c0.5-1,1.8-1.3,2.6-0.8l4.3,2.6c1,0.5,1.3,1.8,0.8,2.6C412.5,78.7,412,79.2,411.2,79.2L411.2,79.2z M247.4,77.7
			c-0.8,0-1.3-0.3-1.5-1c-0.5-1-0.3-2,0.8-2.6l4.3-2.6c1-0.5,2-0.3,2.6,0.8c0.5,1,0.3,2-0.8,2.6l-4.3,2.6
			C248.1,77.4,247.6,77.7,247.4,77.7L247.4,77.7z M393.6,69c-0.3,0-0.8,0-1-0.3l-4.3-2.6c-1-0.5-1.3-1.8-0.8-2.6
			c0.5-1,1.8-1.3,2.6-0.8l4.3,2.6c1,0.5,1.3,1.8,0.8,2.6C394.9,68.5,394.1,69,393.6,69L393.6,69z M265,67.5c-0.8,0-1.3-0.3-1.5-1
			c-0.5-1-0.3-2,0.8-2.6l4.3-2.6c1-0.5,2-0.3,2.6,0.8c0.5,1,0.3,2-0.8,2.6l-4.3,2.6C265.8,67.2,265.5,67.5,265,67.5L265,67.5z
			 M375.7,58.8c-0.3,0-0.8,0-1-0.3l-4.3-2.6c-1-0.5-1.3-1.8-0.8-2.6c0.5-1,1.8-1.3,2.6-0.8l4.3,2.6c1,0.5,1.3,1.8,0.8,2.6
			C377.2,58.3,376.4,58.8,375.7,58.8L375.7,58.8z M282.9,57.2c-0.8,0-1.3-0.3-1.5-1c-0.5-1-0.3-2,0.8-2.6l4.3-2.6
			c1-0.5,2-0.3,2.6,0.8c0.5,1,0.3,2-0.8,2.6l-4.3,2.6C283.4,57,283.2,57.2,282.9,57.2L282.9,57.2z M358,48.5c-0.3,0-0.8,0-1-0.3
			l-4.3-2.6c-1-0.5-1.3-1.8-0.8-2.6c0.5-1,1.8-1.3,2.6-0.8l4.3,2.6c1,0.5,1.3,1.8,0.8,2.6C359.3,48,358.8,48.5,358,48.5L358,48.5z
			 M300.5,47c-0.8,0-1.3-0.3-1.8-1c-0.5-1-0.3-2,0.8-2.6l4.3-2.6c1-0.5,2-0.3,2.6,0.8c0.5,1,0.3,2-0.8,2.6l-4.3,2.6
			C301.3,46.8,300.8,47,300.5,47L300.5,47z M340.4,38.3c-0.3,0-0.8,0-1-0.3l-4.3-2.6c-1-0.5-1.3-1.8-0.8-2.6c0.5-1,1.8-1.3,2.6-0.8
			l4.3,2.6c1,0.5,1.3,1.8,0.8,2.6C341.7,37.8,340.9,38.3,340.4,38.3L340.4,38.3z M318.2,36.8c-0.8,0-1.3-0.3-1.8-1
			c-0.5-1-0.3-2,0.8-2.6l4.3-2.6c1-0.5,2-0.3,2.6,0.8c0.5,1,0.3,2-0.8,2.6l-4.3,2.6C318.9,36.5,318.7,36.8,318.2,36.8L318.2,36.8z"
			/>
	</g>
	<path class="st0" d="M199.3,86.4H504 M153.8,376h304.7"/>
	<g>
		<path class="st6" d="M368.3,230H461c40.4,0,73.1,32.7,73.1,73.1c0,40.4-32.7,73.1-73.1,73.1H156.1"/>
		<path class="st7" d="M371.8,242.5l-22-12.5l22-12.8V242.5z"/>
	</g>
	<g>
		<path class="st6" d="M286.5,232.3h-92.8c-40.4,0-73.1-32.7-73.1-73.1s32.7-73.1,73.1-73.1h304.7"/>
		<path class="st7" d="M282.6,219.5l22,12.8l-22,12.8V219.5z"/>
	</g>
</g>
</svg>
